//Event file generated from Sappy .s format.
	#include "MPlayDef.event"

	#define	song09_grp  voicegroup000
	#define	song09_pri  0
	#define	song09_rev  0
	#define	song09_mvl  127
	#define	song09_key  0
	#define	song09_tbs  1
	#define	song09_exg  0
	#define	song09_cmp  1

	// .rodata
	//	FE12HolyWar
	ALIGN 4


//**************** Track 1 (Midi-Chn.0) ****************//

song09_001:
//  #01 //000   ----------------------------------------
 BYTE   KEYSH   song09_key+0
 BYTE   TEMPO   116*song09_tbs/2
 BYTE   VOICE   19
 BYTE   MODT 0
 BYTE   LFOS 44
 BYTE   MOD 0
 BYTE   VOL   52*song09_mvl/mxv
 BYTE   PAN   c_v-24
 BYTE   VOL   52*song09_mvl/mxv
 BYTE   N08  As1  v104
 BYTE   W24
 BYTE   N07  As1  v100
 BYTE   W24
 BYTE   N06  As1  v096
 BYTE   W24
 BYTE   N03  As1  v100
 BYTE   W08
 BYTE   As1  v080
 BYTE   W08
 BYTE   N03
 BYTE   W08
//  #01 //001   ----------------------------------------
 BYTE   As1  v084
 BYTE   W12
 BYTE   N03
 BYTE   W12
 BYTE   N06  As1  v092
 BYTE   W24
 BYTE   N07
 BYTE   W24
 BYTE   N03  As1  v096
 BYTE   W08
 BYTE   As1  v084
 BYTE   W08
 BYTE   As1  v072
 BYTE   W08
//  #01 //002   ----------------------------------------
 BYTE   VOICE   16
 BYTE   VOL   49*song09_mvl/mxv
 BYTE   PAN   c_v+21
 BYTE   VOL   42*song09_mvl/mxv
 BYTE   W24
 BYTE   N03  As2  v112
 BYTE   W06
Label_01211885:
 BYTE   W02
 BYTE   N03  As2  v072
 BYTE   W17
 BYTE   As2  v100
 BYTE   W08
 BYTE   As2  v056
 BYTE   W16
 BYTE   As2  v092
 BYTE   W08
 BYTE   As2  v080
 BYTE   W07
 BYTE   As2  v068
 BYTE   W08
//  #01 //003   ----------------------------------------
Label_01211899:
 BYTE   N03  As2  v076
 BYTE   W08
 BYTE   As2  v040
 BYTE   W04
 BYTE   As2  v096
 BYTE   W08
 BYTE   As2  v056
 BYTE   W04
 BYTE   As2  v100
 BYTE   W08
 BYTE   As2  v056
 BYTE   W16
 BYTE   As2  v096
 BYTE   W08
 BYTE   As2  v056
 BYTE   W17
 BYTE   As2  v092
 BYTE   W08
 BYTE   As2  v100
 BYTE   W07
 BYTE   As2  v068
 BYTE   W08
 BYTE   PEND 
//  #01 //004   ----------------------------------------
Label_012118BC:
 BYTE   W01
 BYTE   N03  As2  v096
 BYTE   W08
 BYTE   As2  v056
 BYTE   W15
 BYTE   As2  v088
 BYTE   W08
 BYTE   As2  v052
 BYTE   W16
 BYTE   As2  v092
 BYTE   W08
 BYTE   As2  v056
 BYTE   W17
 BYTE   As2  v104
 BYTE   W08
 BYTE   As2  v096
 BYTE   W08
 BYTE   As2  v088
 BYTE   W07
 BYTE   PEND 
//  #01 //005   ----------------------------------------
 BYTE   W01
 BYTE   As2  v100
 BYTE   W08
 BYTE   As2  v060
 BYTE   W04
 BYTE   As2  v088
 BYTE   W08
 BYTE   As2  v048
 BYTE   W03
 BYTE   As2  v092
 BYTE   W08
 BYTE   As2  v052
 BYTE   W16
 BYTE   As2  v096
 BYTE   W08
 BYTE   As2  v056
 BYTE   W17
 BYTE   As2  v100
 BYTE   W08
 BYTE   As2  v056
 BYTE   W15
//  #01 //006   ----------------------------------------
 BYTE   Cs3  v088
 BYTE   W08
 BYTE   Cs3  v048
 BYTE   W16
 BYTE   Cs3  v092
 BYTE   W08
 BYTE   Cs3  v052
 BYTE   W17
 BYTE   Cs3  v092
 BYTE   W08
 BYTE   Cs3  v052
 BYTE   W16
 BYTE   Cs3  v088
 BYTE   W08
 BYTE   Cs3  v072
 BYTE   W07
 BYTE   Cs3  v064
 BYTE   W08
//  #01 //007   ----------------------------------------
 BYTE   Cs3  v068
 BYTE   W08
 BYTE   Cs3  v036
 BYTE   W04
 BYTE   Cs3  v088
 BYTE   W08
 BYTE   Cs3  v048
 BYTE   W04
 BYTE   Cs3  v092
 BYTE   W08
 BYTE   Cs3  v052
 BYTE   W16
 BYTE   Cs3  v088
 BYTE   W08
 BYTE   Cs3  v048
 BYTE   W17
 BYTE   Cs3  v084
 BYTE   W08
 BYTE   Cs3  v092
 BYTE   W07
 BYTE   Cs3  v064
 BYTE   W08
//  #01 //008   ----------------------------------------
 BYTE   W01
 BYTE   Cs3  v088
 BYTE   W08
 BYTE   Cs3  v048
 BYTE   W15
 BYTE   Cs3  v084
 BYTE   W08
 BYTE   Cs3  v044
 BYTE   W16
 BYTE   Cs3  v088
 BYTE   W08
 BYTE   Cs3  v048
 BYTE   W17
 BYTE   Cs3  v096
 BYTE   W08
 BYTE   Cs3  v088
 BYTE   W08
 BYTE   Cs3  v084
 BYTE   W07
//  #01 //009   ----------------------------------------
 BYTE   W01
 BYTE   Cs3  v092
 BYTE   W08
 BYTE   Cs3  v052
 BYTE   W04
 BYTE   Cs3  v080
 BYTE   W08
 BYTE   Cs3  v044
 BYTE   W03
 BYTE   Cs3  v084
 BYTE   W08
 BYTE   Cs3  v048
 BYTE   W16
 BYTE   Cs3  v088
 BYTE   W08
 BYTE   Cs3  v048
 BYTE   W40
//  #01 //010   ----------------------------------------
 BYTE   VOL   49*song09_mvl/mxv
 BYTE   N03  An1  v127
 BYTE   W24
 BYTE   An1  v124
 BYTE   W23
 BYTE   An1  v120
 BYTE   W24
 BYTE   W01
 BYTE   An1  v116
 BYTE   W08
 BYTE   An1  v100
 BYTE   W07
 BYTE   N03
 BYTE   W08
 BYTE   An1  v104
 BYTE   W01
//  #01 //011   ----------------------------------------
 BYTE   W11
 BYTE   N02  An1  v108
 BYTE   W12
 BYTE   N03  An1  v116
 BYTE   W24
 BYTE   An1  v112
 BYTE   W24
 BYTE   W01
 BYTE   N02  An1  v116
 BYTE   W08
 BYTE   An1  v096
 BYTE   W08
 BYTE   N03  An1  v100
 BYTE   W08
//  #01 //012   ----------------------------------------
 BYTE   Gs1  v108
 BYTE   W24
 BYTE   Gs1  v104
 BYTE   W24
 BYTE   N03
 BYTE   W24
 BYTE   Gs1  v100
 BYTE   W08
 BYTE   N02  Gs1  v076
 BYTE   W07
 BYTE   N03  Gs1  v084
 BYTE   W08
 BYTE   Gs1  v092
 BYTE   W01
//  #01 //013   ----------------------------------------
 BYTE   W11
 BYTE   Gs1  v096
 BYTE   W12
 BYTE   Gs1  v112
 BYTE   W24
 BYTE   Gs1  v104
 BYTE   W24
 BYTE   N02
 BYTE   W08
 BYTE   Gs1  v076
 BYTE   W08
 BYTE   N03  Gs1  v096
 BYTE   W09
//  #01 //014   ----------------------------------------
 BYTE   N02  Fs1  v100
 BYTE   W24
 BYTE   N03
 BYTE   W24
 BYTE   N03
 BYTE   W24
 BYTE   N02
 BYTE   W08
 BYTE   N01  Fs1  v088
 BYTE   W08
 BYTE   N03
 BYTE   W07
 BYTE   N04  Gs1  v104
 BYTE   W01
//  #01 //015   ----------------------------------------
 BYTE   W24
 BYTE   Gs1  v108
 BYTE   W24
 BYTE   N03  Gs1  v116
 BYTE   W23
 BYTE   N03
 BYTE   W08
 BYTE   Gs1  v096
 BYTE   W08
 BYTE   N04  Gs1  v088
 BYTE   W08
 BYTE   An1  v108
 BYTE   W01
//  #01 //016   ----------------------------------------
 BYTE   W24
 BYTE   N04
 BYTE   W24
 BYTE   N03  An1  v116
 BYTE   W24
 BYTE   An1  v108
 BYTE   W07
 BYTE   An1  v100
 BYTE   W08
 BYTE   N04  An1  v092
 BYTE   W08
 BYTE   N03  As1  v100
 BYTE   W01
//  #01 //017   ----------------------------------------
 BYTE   W23
 BYTE   N03
 BYTE   W24
 BYTE   As1  v096
 BYTE   W24
 BYTE   As1  v092
 BYTE   W08
 BYTE   N01  As1  v060
 BYTE   W09
 BYTE   N04  As1  v068
 BYTE   W08
//  #01 //018   ----------------------------------------
 BYTE   N03  Gs1  v112
 BYTE   W24
 BYTE   Gs1  v104
 BYTE   W24
 BYTE   W01
 BYTE   Gs1  v108
 BYTE   W24
 BYTE   Gs1  v112
 BYTE   W07
 BYTE   Gs1  v100
 BYTE   W08
 BYTE   Gs1  v104
 BYTE   W08
//  #01 //019   ----------------------------------------
 BYTE   N01  Gs1  v112
 BYTE   W12
 BYTE   N03
 BYTE   W12
 BYTE   N04  Gs1  v116
 BYTE   W24
 BYTE   Gs1  v124
 BYTE   W24
 BYTE   N03
 BYTE   W08
 BYTE   N04  Gs1  v116
 BYTE   W07
 BYTE   Gs1  v124
 BYTE   W09
//  #01 //020   ----------------------------------------
 BYTE   VOICE   16
 BYTE   VOL   42*song09_mvl/mxv
 BYTE   W24
 BYTE   N03  As2  v112
 BYTE   W08
 BYTE   As2  v072
 BYTE   W17
 BYTE   As2  v100
 BYTE   W08
 BYTE   As2  v056
 BYTE   W16
 BYTE   As2  v092
 BYTE   W08
 BYTE   As2  v080
 BYTE   W07
 BYTE   As2  v068
 BYTE   W08
//  #01 //021   ----------------------------------------
 BYTE   PATT
  POIN2 Label_01211899
//  #01 //022   ----------------------------------------
 BYTE   PATT
  POIN2 Label_012118BC
//  #01 //023   ----------------------------------------
 BYTE   W01
 BYTE   N03  As2  v100
 BYTE   W08
 BYTE   As2  v060
 BYTE   W04
 BYTE   As2  v088
 BYTE   W08
 BYTE   As2  v048
 BYTE   W03
 BYTE   As2  v092
 BYTE   W08
 BYTE   As2  v052
 BYTE   W16
 BYTE   TEMPO   114*song09_tbs/2
 BYTE   As2  v096
 BYTE   W08
 BYTE   As2  v056
 BYTE   W16
 BYTE   TEMPO   108*song09_tbs/2
 BYTE   W24
//  #01 //024   ----------------------------------------
 BYTE   TEMPO   116*song09_tbs/2
 BYTE   VOICE   19
 BYTE   VOL   45*song09_mvl/mxv
 BYTE   PAN   c_v-24
 BYTE   VOL   43*song09_mvl/mxv
 BYTE   N23  Fn2  v072
 BYTE   W18
 BYTE   VOL   43*song09_mvl/mxv
 BYTE   W06
 BYTE   N23  Fn2  v064
 BYTE   W06
 BYTE   VOL   43*song09_mvl/mxv
 BYTE   W12
 BYTE   VOL   44*song09_mvl/mxv
 BYTE   W06
 BYTE   N23
 BYTE   W06
 BYTE   VOL   45*song09_mvl/mxv
 BYTE   W12
 BYTE   VOL   45*song09_mvl/mxv
 BYTE   W06
 BYTE   N08  Fn2  v056
 BYTE   W06
 BYTE   VOL   45*song09_mvl/mxv
 BYTE   W02
 BYTE   N07  Fn2  v044
 BYTE   W04
 BYTE   VOL   46*song09_mvl/mxv
 BYTE   W04
 BYTE   N07
 BYTE   W08
//  #01 //025   ----------------------------------------
 BYTE   VOL   46*song09_mvl/mxv
 BYTE   N11  Fn2  v052
 BYTE   W12
 BYTE   VOL   47*song09_mvl/mxv
 BYTE   N11  Fn2  v060
 BYTE   W06
 BYTE   VOL   47*song09_mvl/mxv
 BYTE   W05
 BYTE   N23
 BYTE   W07
 BYTE   VOL   48*song09_mvl/mxv
 BYTE   W12
 BYTE   VOL   49*song09_mvl/mxv
 BYTE   W05
 BYTE   N24
 BYTE   W07
 BYTE   VOL   49*song09_mvl/mxv
 BYTE   W12
 BYTE   VOL   49*song09_mvl/mxv
 BYTE   W05
 BYTE   N07
 BYTE   W07
 BYTE   VOL   50*song09_mvl/mxv
 BYTE   W01
 BYTE   N08  Fn2  v040
 BYTE   W05
 BYTE   VOL   50*song09_mvl/mxv
 BYTE   W04
 BYTE   N08
 BYTE   W08
//  #01 //026   ----------------------------------------
 BYTE   VOL   52*song09_mvl/mxv
 BYTE   N23  Fn2  v056
 BYTE   W24
 BYTE   Fn2  v060
 BYTE   W24
 BYTE   N23
 BYTE   W24
 BYTE   N07  Fn2  v056
 BYTE   W08
 BYTE   N07
 BYTE   W08
 BYTE   Fn2  v044
 BYTE   W08
//  #01 //027   ----------------------------------------
 BYTE   N11  Fn2  v048
 BYTE   W12
 BYTE   Fn2  v056
 BYTE   W11
 BYTE   N23
 BYTE   W24
 BYTE   N24  Ds2
 BYTE   W24
 BYTE   W01
 BYTE   N07
 BYTE   W07
 BYTE   Ds2  v040
 BYTE   W08
 BYTE   Ds2  v036
 BYTE   W08
 BYTE   N23  Ds2  v044
 BYTE   W01
//  #01 //028   ----------------------------------------
 BYTE   W06
 BYTE   TEMPO   114*song09_tbs/2
 BYTE   W17
 BYTE   Ds2  v060
 BYTE   W24
 BYTE   N24  Ds2  v056
 BYTE   W24
 BYTE   W01
 BYTE   N07
 BYTE   W07
 BYTE   Ds2  v040
 BYTE   W08
 BYTE   N08
 BYTE   W09
//  #01 //029   ----------------------------------------
 BYTE   N11  Ds2  v048
 BYTE   W12
 BYTE   N11
 BYTE   W12
 BYTE   N23  Ds2  v056
 BYTE   W24
 BYTE   N23
 BYTE   W24
 BYTE   N07  Ds2  v048
 BYTE   W08
 BYTE   Ds2  v040
 BYTE   W08
 BYTE   Ds2  v036
 BYTE   W08
//  #01 //030   ----------------------------------------
 BYTE   N23  Ds2  v044
 BYTE   W23
 BYTE   N24  Ds2  v056
 BYTE   W24
 BYTE   W01
 BYTE   N23
 BYTE   W24
 BYTE   N07
 BYTE   W07
 BYTE   Ds2  v036
 BYTE   W08
 BYTE   N08
 BYTE   W09
//  #01 //031   ----------------------------------------
 BYTE   N11  Ds2  v048
 BYTE   W12
 BYTE   N11
 BYTE   W12
 BYTE   N23  Ds2  v052
 BYTE   W24
 BYTE   Ds2  v056
 BYTE   W24
 BYTE   N07  Ds2  v052
 BYTE   W08
 BYTE   Ds2  v036
 BYTE   W08
 BYTE   N07
 BYTE   W08
//  #01 //032   ----------------------------------------
 BYTE   N23  Ds2  v044
 BYTE   W24
 BYTE   Ds2  v056
 BYTE   W24
 BYTE   N24
 BYTE   W24
 BYTE   N07
 BYTE   W08
 BYTE   Ds2  v036
 BYTE   W08
 BYTE   N07
 BYTE   W08
//  #01 //033   ----------------------------------------
 BYTE   N11  Ds2  v040
 BYTE   W12
 BYTE   Ds2  v048
 BYTE   W12
 BYTE   N23  Ds2  v056
 BYTE   W23
 BYTE   N24
 BYTE   W01
 BYTE   TEMPO   112*song09_tbs/2
 BYTE   W24
 BYTE   N07
 BYTE   W08
 BYTE   N08  Ds2  v032
 BYTE   W08
 BYTE   N07  Ds2  v040
 BYTE   W08
//  #01 //034   ----------------------------------------
 BYTE   N23  Ds2  v036
 BYTE   W23
 BYTE   N24  Ds2  v056
 BYTE   W24
 BYTE   W01
 BYTE   N23
 BYTE   W24
 BYTE   N08
 BYTE   W08
 BYTE   N07  Ds2  v036
 BYTE   W08
 BYTE   N08  Ds2  v044
 BYTE   W08
//  #01 //035   ----------------------------------------
 BYTE   N11  Ds2  v060
 BYTE   W12
 BYTE   Ds2  v056
 BYTE   W12
 BYTE   N23  Ds2  v064
 BYTE   W23
 BYTE   N24  Cs2  v056
 BYTE   W24
 BYTE   W01
 BYTE   N07
 BYTE   W08
 BYTE   N08  Cs2  v040
 BYTE   W08
 BYTE   N08
 BYTE   W08
//  #01 //036   ----------------------------------------
 BYTE   N20  Cn2  v052
 BYTE   W21
 BYTE   N24  Cn2  v056
 BYTE   W24
 BYTE   W03
 BYTE   N23
 BYTE   W18
 BYTE   VOL   51*song09_mvl/mxv
 BYTE   W05
 BYTE   N07  Cn2  v060
 BYTE   W08
 BYTE   Cn2  v044
 BYTE   W08
 BYTE   N08  Cn2  v040
 BYTE   W08
 BYTE   N12  Cn2  v064
 BYTE   W01
//  #01 //037   ----------------------------------------
 BYTE   TEMPO   112*song09_tbs/2
 BYTE   W12
 BYTE   Cn2  v052
 BYTE   W06
 BYTE   VOL   50*song09_mvl/mxv
 BYTE   W06
 BYTE   N23  Cn2  v056
 BYTE   W24
 BYTE   Bn1  v060
 BYTE   W06
 BYTE   VOL   50*song09_mvl/mxv
 BYTE   W18
 BYTE   N07  Bn1  v068
 BYTE   W08
 BYTE   Bn1  v044
 BYTE   W08
 BYTE   N08  Bn1  v048
 BYTE   W02
 BYTE   VOL   49*song09_mvl/mxv
 BYTE   W06
//  #01 //038   ----------------------------------------
 BYTE   N23  As1  v056
 BYTE   W24
 BYTE   VOL   49*song09_mvl/mxv
 BYTE   N23
 BYTE   W18
 BYTE   VOL   49*song09_mvl/mxv
 BYTE   W06
 BYTE   N24
 BYTE   W06
 BYTE   VOL   48*song09_mvl/mxv
 BYTE   W18
 BYTE   VOL   47*song09_mvl/mxv
 BYTE   N07
 BYTE   W08
 BYTE   As1  v036
 BYTE   W07
 BYTE   N07
 BYTE   W03
 BYTE   VOL   47*song09_mvl/mxv
 BYTE   W05
 BYTE   N12
 BYTE   W01
//  #01 //039   ----------------------------------------
 BYTE   W06
 BYTE   VOL   46*song09_mvl/mxv
 BYTE   W06
 BYTE   N11  As1  v048
 BYTE   W12
 BYTE   N23
 BYTE   W06
 BYTE   VOL   45*song09_mvl/mxv
 BYTE   W12
 BYTE   VOL   45*song09_mvl/mxv
 BYTE   W05
 BYTE   N24  As1  v056
 BYTE   W13
 BYTE   VOL   43*song09_mvl/mxv
 BYTE   W12
 BYTE   N07  As1  v060
 BYTE   W06
 BYTE   VOL   43*song09_mvl/mxv
 BYTE   W01
 BYTE   N08  As1  v036
 BYTE   W09
 BYTE   N05
 BYTE   W02
 BYTE   VOL   41*song09_mvl/mxv
 BYTE   W06
//  #01 //040   ----------------------------------------
 BYTE   TEMPO   112*song09_tbs/2
 BYTE   VOICE   11
 BYTE   VOL   32*song09_mvl/mxv
 BYTE   TIE  Ds3  v116
 BYTE   W06
 BYTE   VOL   25*song09_mvl/mxv
 BYTE   W06
 BYTE   VOL   23*song09_mvl/mxv
 BYTE   W06
 BYTE   VOL   23*song09_mvl/mxv
 BYTE   W06
 BYTE   VOL   24*song09_mvl/mxv
 BYTE   W06
 BYTE   VOL   24*song09_mvl/mxv
 BYTE   W12
 BYTE   VOL   25*song09_mvl/mxv
 BYTE   W12
 BYTE   VOL   25*song09_mvl/mxv
 BYTE   W06
 BYTE   VOL   25*song09_mvl/mxv
 BYTE   W06
 BYTE   VOL   26*song09_mvl/mxv
 BYTE   W06
 BYTE   VOL   26*song09_mvl/mxv
 BYTE   W06
 BYTE   VOL   26*song09_mvl/mxv
 BYTE   W06
 BYTE   VOL   26*song09_mvl/mxv
 BYTE   W06
 BYTE   VOL   26*song09_mvl/mxv
 BYTE   W06
//  #01 //041   ----------------------------------------
 BYTE   W06
 BYTE   VOL   27*song09_mvl/mxv
 BYTE   W12
 BYTE   VOL   28*song09_mvl/mxv
 BYTE   W06
 BYTE   VOL   28*song09_mvl/mxv
 BYTE   W06
 BYTE   VOL   28*song09_mvl/mxv
 BYTE   W06
 BYTE   VOL   29*song09_mvl/mxv
 BYTE   W06
 BYTE   VOL   29*song09_mvl/mxv
 BYTE   W05
 BYTE   EOT
 BYTE   W01
 BYTE   VOL   29*song09_mvl/mxv
 BYTE   TIE  Fn3  v120
 BYTE   W06
 BYTE   TEMPO   116*song09_tbs/2
 BYTE   VOL   24*song09_mvl/mxv
 BYTE   W12
 BYTE   VOL   25*song09_mvl/mxv
 BYTE   W06
 BYTE   VOL   25*song09_mvl/mxv
 BYTE   W06
 BYTE   VOL   26*song09_mvl/mxv
 BYTE   W06
 BYTE   VOL   26*song09_mvl/mxv
 BYTE   W06
 BYTE   VOL   26*song09_mvl/mxv
 BYTE   W06
//  #01 //042   ----------------------------------------
 BYTE   VOL   26*song09_mvl/mxv
 BYTE   W06
 BYTE   VOL   27*song09_mvl/mxv
 BYTE   W06
 BYTE   VOL   28*song09_mvl/mxv
 BYTE   W06
 BYTE   VOL   28*song09_mvl/mxv
 BYTE   W06
 BYTE   VOL   29*song09_mvl/mxv
 BYTE   W06
 BYTE   VOL   29*song09_mvl/mxv
 BYTE   W06
 BYTE   VOL   30*song09_mvl/mxv
 BYTE   W06
 BYTE   VOL   30*song09_mvl/mxv
 BYTE   W06
 BYTE   VOL   31*song09_mvl/mxv
 BYTE   W06
 BYTE   VOL   32*song09_mvl/mxv
 BYTE   W06
 BYTE   VOL   32*song09_mvl/mxv
 BYTE   W06
 BYTE   VOL   33*song09_mvl/mxv
 BYTE   W06
 BYTE   VOL   33*song09_mvl/mxv
 BYTE   W06
 BYTE   VOL   34*song09_mvl/mxv
 BYTE   W06
 BYTE   VOL   34*song09_mvl/mxv
 BYTE   W06
 BYTE   VOL   35*song09_mvl/mxv
 BYTE   W06
//  #01 //043   ----------------------------------------
 BYTE   EOT
 BYTE   TEMPO   122*song09_tbs/2
 BYTE   VOL   35*song09_mvl/mxv
 BYTE   TIE  An2  v116
 BYTE   W06
 BYTE   VOL   29*song09_mvl/mxv
 BYTE   W12
 BYTE   VOL   29*song09_mvl/mxv
 BYTE   W06
 BYTE   VOL   29*song09_mvl/mxv
 BYTE   W06
 BYTE   VOL   30*song09_mvl/mxv
 BYTE   W06
 BYTE   VOL   30*song09_mvl/mxv
 BYTE   W06
 BYTE   VOL   31*song09_mvl/mxv
 BYTE   W12
 BYTE   VOL   32*song09_mvl/mxv
 BYTE   W12
 BYTE   VOL   33*song09_mvl/mxv
 BYTE   W06
 BYTE   VOL   33*song09_mvl/mxv
 BYTE   W06
 BYTE   VOL   34*song09_mvl/mxv
 BYTE   W06
 BYTE   VOL   34*song09_mvl/mxv
 BYTE   W06
 BYTE   VOL   35*song09_mvl/mxv
 BYTE   W06
//  #01 //044   ----------------------------------------
 BYTE   VOL   36*song09_mvl/mxv
 BYTE   W06
 BYTE   VOL   38*song09_mvl/mxv
 BYTE   W06
 BYTE   VOL   38*song09_mvl/mxv
 BYTE   W06
 BYTE   VOL   41*song09_mvl/mxv
 BYTE   W06
 BYTE   VOL   42*song09_mvl/mxv
 BYTE   W06
 BYTE   VOL   44*song09_mvl/mxv
 BYTE   W06
 BYTE   VOL   45*song09_mvl/mxv
 BYTE   W06
 BYTE   VOL   49*song09_mvl/mxv
 BYTE   W06
 BYTE   EOT
 BYTE   TEMPO   116*song09_tbs/2
 BYTE   VOL   52*song09_mvl/mxv
 BYTE   W16
 BYTE   VOICE   19
 BYTE   W02
 BYTE   VOL   32*song09_mvl/mxv
 BYTE   W06
 BYTE   VOL   32*song09_mvl/mxv
 BYTE   N07  As1  v100
 BYTE   W06
 BYTE   VOL   33*song09_mvl/mxv
 BYTE   W06
 BYTE   VOL   33*song09_mvl/mxv
 BYTE   W06
 BYTE   VOL   34*song09_mvl/mxv
 BYTE   W06
//  #01 //045   ----------------------------------------
 BYTE   VOL   34*song09_mvl/mxv
 BYTE   N06  As1  v096
 BYTE   W06
 BYTE   VOL   35*song09_mvl/mxv
 BYTE   W06
 BYTE   VOL   35*song09_mvl/mxv
 BYTE   W06
 BYTE   VOL   35*song09_mvl/mxv
 BYTE   W06
 BYTE   VOL   36*song09_mvl/mxv
 BYTE   N03  As1  v100
 BYTE   W06
 BYTE   VOL   37*song09_mvl/mxv
 BYTE   W02
 BYTE   N03  As1  v080
 BYTE   W04
 BYTE   VOL   37*song09_mvl/mxv
 BYTE   W04
 BYTE   N03
 BYTE   W02
 BYTE   VOL   38*song09_mvl/mxv
 BYTE   W06
 BYTE   VOL   38*song09_mvl/mxv
 BYTE   N03  As1  v084
 BYTE   W06
 BYTE   VOL   40*song09_mvl/mxv
 BYTE   W06
 BYTE   VOL   40*song09_mvl/mxv
 BYTE   N03
 BYTE   W06
 BYTE   VOL   42*song09_mvl/mxv
 BYTE   W06
 BYTE   VOL   42*song09_mvl/mxv
 BYTE   N06  As1  v092
 BYTE   W06
 BYTE   VOL   43*song09_mvl/mxv
 BYTE   W06
 BYTE   VOL   43*song09_mvl/mxv
 BYTE   W06
 BYTE   VOL   43*song09_mvl/mxv
 BYTE   W06
//  #01 //046   ----------------------------------------
 BYTE   VOL   44*song09_mvl/mxv
 BYTE   N07
 BYTE   W06
 BYTE   VOL   45*song09_mvl/mxv
 BYTE   W06
 BYTE   VOL   46*song09_mvl/mxv
 BYTE   W06
 BYTE   VOL   47*song09_mvl/mxv
 BYTE   W06
 BYTE   VOL   47*song09_mvl/mxv
 BYTE   N03  As1  v096
 BYTE   W06
 BYTE   VOL   49*song09_mvl/mxv
 BYTE   W02
 BYTE   N03  As1  v084
 BYTE   W04
 BYTE   VOL   49*song09_mvl/mxv
 BYTE   W04
 BYTE   N03  As1  v072
 BYTE   W02
 BYTE   VOL   50*song09_mvl/mxv
 BYTE   W06
 BYTE   VOL   50*song09_mvl/mxv
 BYTE   N08  As1  v104
 BYTE   W06
 BYTE   VOL   52*song09_mvl/mxv
 BYTE   W18
 BYTE   N07  As1  v100
 BYTE   W24
//  #01 //047   ----------------------------------------
 BYTE   N06  As1  v096
 BYTE   W24
 BYTE   N03  As1  v100
 BYTE   W08
 BYTE   As1  v080
 BYTE   W08
 BYTE   N03
 BYTE   W08
 BYTE   As1  v084
 BYTE   W12
 BYTE   N03
 BYTE   W12
 BYTE   N06  As1  v092
 BYTE   W24
//  #01 //048   ----------------------------------------
 BYTE   N07
 BYTE   W24
 BYTE   N03  As1  v096
 BYTE   W08
 BYTE   As1  v084
 BYTE   W08
 BYTE   As1  v072
 BYTE   W08
 BYTE   TEMPO   116*song09_tbs/2
 BYTE   VOICE   16
 BYTE   VOL   49*song09_mvl/mxv
 BYTE   PAN   c_v+21
 BYTE   VOL   42*song09_mvl/mxv
 BYTE   W24
 BYTE   GoTo
  POIN2 Label_01211885
//  #01 //049   ----------------------------------------
 BYTE   N03  As2  v112
 BYTE   W08
 BYTE   As2  v072
 BYTE   W16
 BYTE   W01
 BYTE   As2  v100
 BYTE   W08
 BYTE   As2  v056
 BYTE   W16
 BYTE   As2  v092
 BYTE   W08
 BYTE   As2  v080
 BYTE   W07
 BYTE   As2  v068
 BYTE   W04
 BYTE   FINE

//**************** Track 2 (Midi-Chn.1) ****************//

song09_002:
//  #02 //000   ----------------------------------------
 BYTE   KEYSH   song09_key+0
 BYTE   VOICE   19
 BYTE   MODT 0
 BYTE   LFOS 44
 BYTE   MOD 0
 BYTE   VOL   22*song09_mvl/mxv
 BYTE   PAN   c_v+37
 BYTE   VOL   22*song09_mvl/mxv
 BYTE   W04
 BYTE   N08  As1  v104
 BYTE   W24
 BYTE   N07  As1  v100
 BYTE   W24
 BYTE   N06  As1  v096
 BYTE   W24
 BYTE   N03  As1  v100
 BYTE   W08
 BYTE   As1  v080
 BYTE   W08
 BYTE   N03
 BYTE   W04
//  #02 //001   ----------------------------------------
 BYTE   W04
 BYTE   As1  v084
 BYTE   W12
 BYTE   N03
 BYTE   W12
 BYTE   N06  As1  v092
 BYTE   W24
 BYTE   N07
 BYTE   W24
 BYTE   N03  As1  v096
 BYTE   W08
 BYTE   As1  v084
 BYTE   W08
 BYTE   As1  v072
 BYTE   W04
//  #02 //002   ----------------------------------------
 BYTE   VOICE   16
 BYTE   VOL   17*song09_mvl/mxv
 BYTE   PAN   c_v+0
 BYTE   VOL   13*song09_mvl/mxv
 BYTE   W28
 BYTE   N03  As2  v112
 BYTE   W02
Label_01213B41:
 BYTE   W23
 BYTE   N03  As2  v100
 BYTE   W24
 BYTE   As2  v092
 BYTE   W08
 BYTE   As2  v080
 BYTE   W07
 BYTE   As2  v068
 BYTE   W04
//  #02 //003   ----------------------------------------
Label_01213B4F:
 BYTE   W04
 BYTE   N03  As2  v076
 BYTE   W12
 BYTE   As2  v096
 BYTE   W12
 BYTE   As2  v100
 BYTE   W24
 BYTE   As2  v096
 BYTE   W24
 BYTE   W01
 BYTE   As2  v092
 BYTE   W08
 BYTE   As2  v100
 BYTE   W07
 BYTE   As2  v068
 BYTE   W04
 BYTE   PEND 
//  #02 //004   ----------------------------------------
Label_01213B68:
 BYTE   W05
 BYTE   N03  As2  v096
 BYTE   W23
 BYTE   As2  v088
 BYTE   W24
 BYTE   As2  v092
 BYTE   W24
 BYTE   W01
 BYTE   As2  v104
 BYTE   W08
 BYTE   As2  v096
 BYTE   W08
 BYTE   As2  v088
 BYTE   W03
 BYTE   PEND 
//  #02 //005   ----------------------------------------
 BYTE   W05
 BYTE   As2  v100
 BYTE   W12
 BYTE   As2  v088
 BYTE   W11
 BYTE   As2  v092
 BYTE   W24
 BYTE   As2  v096
 BYTE   W24
 BYTE   W01
 BYTE   As2  v100
 BYTE   W19
//  #02 //006   ----------------------------------------
 BYTE   W04
 BYTE   Cs3  v088
 BYTE   W24
 BYTE   Cs3  v092
 BYTE   W24
 BYTE   W01
 BYTE   N03
 BYTE   W24
 BYTE   Cs3  v088
 BYTE   W08
 BYTE   Cs3  v072
 BYTE   W07
 BYTE   Cs3  v064
 BYTE   W04
//  #02 //007   ----------------------------------------
 BYTE   W04
 BYTE   Cs3  v068
 BYTE   W12
 BYTE   Cs3  v088
 BYTE   W12
 BYTE   Cs3  v092
 BYTE   W24
 BYTE   Cs3  v088
 BYTE   W24
 BYTE   W01
 BYTE   Cs3  v084
 BYTE   W08
 BYTE   Cs3  v092
 BYTE   W07
 BYTE   Cs3  v064
 BYTE   W04
//  #02 //008   ----------------------------------------
 BYTE   W05
 BYTE   Cs3  v088
 BYTE   W23
 BYTE   Cs3  v084
 BYTE   W24
 BYTE   Cs3  v088
 BYTE   W24
 BYTE   W01
 BYTE   Cs3  v096
 BYTE   W08
 BYTE   Cs3  v088
 BYTE   W08
 BYTE   Cs3  v084
 BYTE   W03
//  #02 //009   ----------------------------------------
 BYTE   W05
 BYTE   Cs3  v092
 BYTE   W12
 BYTE   Cs3  v080
 BYTE   W11
 BYTE   Cs3  v084
 BYTE   W24
 BYTE   Cs3  v088
 BYTE   W32
 BYTE   VOICE   52
 BYTE   VOL   42*song09_mvl/mxv
 BYTE   PAN   c_v-26
 BYTE   VOL   51*song09_mvl/mxv
 BYTE   W02
 BYTE   N04  Bn4  v060
 BYTE   W04
 BYTE   N02  Cs5
 BYTE   W03
 BYTE   N04  Ds5  v072
 BYTE   W03
//  #02 //010   ----------------------------------------
 BYTE   W02
 BYTE   N48  En5  v064
 BYTE   W04
 BYTE   VOL   33*song09_mvl/mxv
 BYTE   W12
 BYTE   VOL   34*song09_mvl/mxv
 BYTE   W06
 BYTE   VOL   35*song09_mvl/mxv
 BYTE   W06
 BYTE   VOL   39*song09_mvl/mxv
 BYTE   W06
 BYTE   VOL   40*song09_mvl/mxv
 BYTE   W06
 BYTE   VOL   46*song09_mvl/mxv
 BYTE   W06
 BYTE   VOL   51*song09_mvl/mxv
 BYTE   W03
 BYTE   N48  Fs5  v056
 BYTE   W03
 BYTE   VOL   45*song09_mvl/mxv
 BYTE   W06
 BYTE   VOL   43*song09_mvl/mxv
 BYTE   W06
 BYTE   VOL   45*song09_mvl/mxv
 BYTE   W06
 BYTE   VOL   45*song09_mvl/mxv
 BYTE   W06
 BYTE   VOL   47*song09_mvl/mxv
 BYTE   W06
 BYTE   VOL   48*song09_mvl/mxv
 BYTE   W06
 BYTE   VOL   46*song09_mvl/mxv
 BYTE   W06
//  #02 //011   ----------------------------------------
 BYTE   VOL   45*song09_mvl/mxv
 BYTE   W03
 BYTE   N64  Gs5  v052
 BYTE   W03
 BYTE   VOL   42*song09_mvl/mxv
 BYTE   W06
 BYTE   VOL   40*song09_mvl/mxv
 BYTE   W06
 BYTE   VOL   38*song09_mvl/mxv
 BYTE   W06
 BYTE   VOL   39*song09_mvl/mxv
 BYTE   W06
 BYTE   VOL   40*song09_mvl/mxv
 BYTE   W12
 BYTE   VOL   40*song09_mvl/mxv
 BYTE   W06
 BYTE   VOL   39*song09_mvl/mxv
 BYTE   W06
 BYTE   VOL   35*song09_mvl/mxv
 BYTE   W06
 BYTE   VOL   32*song09_mvl/mxv
 BYTE   W06
 BYTE   VOL   16*song09_mvl/mxv
 BYTE   W06
 BYTE   VOL   45*song09_mvl/mxv
 BYTE   W03
 BYTE   N14  Fs5  v060
 BYTE   W03
 BYTE   VOL   45*song09_mvl/mxv
 BYTE   W06
 BYTE   VOL   48*song09_mvl/mxv
 BYTE   W06
 BYTE   VOL   49*song09_mvl/mxv
 BYTE   W01
 BYTE   N05  En5
 BYTE   W05
//  #02 //012   ----------------------------------------
 BYTE   VOL   50*song09_mvl/mxv
 BYTE   N48  Fs5
 BYTE   W06
 BYTE   VOL   45*song09_mvl/mxv
 BYTE   W12
 BYTE   VOL   47*song09_mvl/mxv
 BYTE   W06
 BYTE   VOL   48*song09_mvl/mxv
 BYTE   W06
 BYTE   VOL   45*song09_mvl/mxv
 BYTE   W06
 BYTE   VOL   44*song09_mvl/mxv
 BYTE   W06
 BYTE   VOL   41*song09_mvl/mxv
 BYTE   W06
 BYTE   VOL   40*song09_mvl/mxv
 BYTE   W02
 BYTE   N44  Ds5  v056
 BYTE   W04
 BYTE   VOL   37*song09_mvl/mxv
 BYTE   W06
 BYTE   VOL   35*song09_mvl/mxv
 BYTE   W06
 BYTE   VOL   36*song09_mvl/mxv
 BYTE   W06
 BYTE   VOL   37*song09_mvl/mxv
 BYTE   W06
 BYTE   VOL   39*song09_mvl/mxv
 BYTE   W06
 BYTE   VOL   40*song09_mvl/mxv
 BYTE   W06
 BYTE   VOL   42*song09_mvl/mxv
 BYTE   W06
//  #02 //013   ----------------------------------------
 BYTE   VOL   43*song09_mvl/mxv
 BYTE   W02
 BYTE   N60  Bn4  v040
 BYTE   W04
 BYTE   VOL   42*song09_mvl/mxv
 BYTE   W06
 BYTE   VOL   42*song09_mvl/mxv
 BYTE   W06
 BYTE   VOL   40*song09_mvl/mxv
 BYTE   W06
 BYTE   VOL   40*song09_mvl/mxv
 BYTE   W06
 BYTE   VOL   37*song09_mvl/mxv
 BYTE   W06
 BYTE   VOL   37*song09_mvl/mxv
 BYTE   W06
 BYTE   VOL   33*song09_mvl/mxv
 BYTE   W06
 BYTE   VOL   30*song09_mvl/mxv
 BYTE   W06
 BYTE   VOL   22*song09_mvl/mxv
 BYTE   W06
 BYTE   VOL   17*song09_mvl/mxv
 BYTE   W06
 BYTE   VOL   23*song09_mvl/mxv
 BYTE   W06
 BYTE   VOL   37*song09_mvl/mxv
 BYTE   N17  An4  v064
 BYTE   W06
 BYTE   VOL   40*song09_mvl/mxv
 BYTE   W06
 BYTE   VOL   43*song09_mvl/mxv
 BYTE   W06
 BYTE   VOL   47*song09_mvl/mxv
 BYTE   N06  Gs4  v048
 BYTE   W06
//  #02 //014   ----------------------------------------
 BYTE   VOL   51*song09_mvl/mxv
 BYTE   N16  An4  v072
 BYTE   W06
 BYTE   VOL   48*song09_mvl/mxv
 BYTE   W11
 BYTE   N05  Bn4  v060
 BYTE   W06
 BYTE   N44  Cs5  v048
 BYTE   W01
 BYTE   VOL   42*song09_mvl/mxv
 BYTE   W06
 BYTE   VOL   44*song09_mvl/mxv
 BYTE   W06
 BYTE   VOL   45*song09_mvl/mxv
 BYTE   W06
 BYTE   VOL   45*song09_mvl/mxv
 BYTE   W06
 BYTE   VOL   47*song09_mvl/mxv
 BYTE   W12
 BYTE   VOL   45*song09_mvl/mxv
 BYTE   W06
 BYTE   VOL   32*song09_mvl/mxv
 BYTE   W06
 BYTE   VOL   40*song09_mvl/mxv
 BYTE   N16  An4  v064
 BYTE   W06
 BYTE   VOL   42*song09_mvl/mxv
 BYTE   W06
 BYTE   VOL   42*song09_mvl/mxv
 BYTE   W04
 BYTE   N05  Bn4  v056
 BYTE   W02
 BYTE   VOL   44*song09_mvl/mxv
 BYTE   W04
 BYTE   N68  Cn5  v060
 BYTE   W02
//  #02 //015   ----------------------------------------
 BYTE   VOL   45*song09_mvl/mxv
 BYTE   W06
 BYTE   VOL   44*song09_mvl/mxv
 BYTE   W06
 BYTE   VOL   43*song09_mvl/mxv
 BYTE   W06
 BYTE   VOL   42*song09_mvl/mxv
 BYTE   W06
 BYTE   VOL   41*song09_mvl/mxv
 BYTE   W06
 BYTE   VOL   40*song09_mvl/mxv
 BYTE   W06
 BYTE   VOL   39*song09_mvl/mxv
 BYTE   W06
 BYTE   VOL   35*song09_mvl/mxv
 BYTE   W06
 BYTE   VOL   33*song09_mvl/mxv
 BYTE   W06
 BYTE   VOL   27*song09_mvl/mxv
 BYTE   W06
 BYTE   VOL   20*song09_mvl/mxv
 BYTE   W06
 BYTE   VOL   31*song09_mvl/mxv
 BYTE   W06
 BYTE   VOL   39*song09_mvl/mxv
 BYTE   N24  Cn5  v064
 BYTE   W06
 BYTE   VOL   42*song09_mvl/mxv
 BYTE   W06
 BYTE   VOL   44*song09_mvl/mxv
 BYTE   W06
 BYTE   VOL   48*song09_mvl/mxv
 BYTE   W06
//  #02 //016   ----------------------------------------
 BYTE   VOL   51*song09_mvl/mxv
 BYTE   W01
 BYTE   N12  Ds5
 BYTE   W05
 BYTE   VOL   51*song09_mvl/mxv
 BYTE   W06
 BYTE   VOL   50*song09_mvl/mxv
 BYTE   W06
 BYTE   VOL   48*song09_mvl/mxv
 BYTE   N05  En5  v060
 BYTE   W06
 BYTE   VOL   48*song09_mvl/mxv
 BYTE   N44  Cs5  v052
 BYTE   W06
 BYTE   VOL   46*song09_mvl/mxv
 BYTE   W12
 BYTE   VOL   47*song09_mvl/mxv
 BYTE   W06
 BYTE   VOL   48*song09_mvl/mxv
 BYTE   W18
 BYTE   VOL   39*song09_mvl/mxv
 BYTE   W06
 BYTE   VOL   42*song09_mvl/mxv
 BYTE   W02
 BYTE   N22  Cs5  v060
 BYTE   W04
 BYTE   VOL   43*song09_mvl/mxv
 BYTE   W06
 BYTE   VOL   45*song09_mvl/mxv
 BYTE   W06
 BYTE   VOL   47*song09_mvl/mxv
 BYTE   W06
//  #02 //017   ----------------------------------------
 BYTE   VOL   49*song09_mvl/mxv
 BYTE   W01
 BYTE   N15  Ds5  v068
 BYTE   W05
 BYTE   VOL   51*song09_mvl/mxv
 BYTE   W13
 BYTE   N05  En5  v056
 BYTE   W05
 BYTE   N44  Cs5  v048
 BYTE   W12
 BYTE   VOL   51*song09_mvl/mxv
 BYTE   W06
 BYTE   VOL   48*song09_mvl/mxv
 BYTE   W06
 BYTE   VOL   47*song09_mvl/mxv
 BYTE   W06
 BYTE   VOL   43*song09_mvl/mxv
 BYTE   W06
 BYTE   VOL   40*song09_mvl/mxv
 BYTE   W06
 BYTE   VOL   28*song09_mvl/mxv
 BYTE   W06
 BYTE   VOL   44*song09_mvl/mxv
 BYTE   W01
 BYTE   N21  Cs5  v068
 BYTE   W05
 BYTE   VOL   42*song09_mvl/mxv
 BYTE   W06
 BYTE   VOL   44*song09_mvl/mxv
 BYTE   W06
 BYTE   VOL   50*song09_mvl/mxv
 BYTE   W06
//  #02 //018   ----------------------------------------
 BYTE   VOL   37*song09_mvl/mxv
 BYTE   W02
 BYTE   N66
 BYTE   W04
 BYTE   VOL   30*song09_mvl/mxv
 BYTE   W06
 BYTE   VOL   32*song09_mvl/mxv
 BYTE   W06
 BYTE   VOL   34*song09_mvl/mxv
 BYTE   W06
 BYTE   VOL   36*song09_mvl/mxv
 BYTE   W06
 BYTE   VOL   37*song09_mvl/mxv
 BYTE   W06
 BYTE   VOL   40*song09_mvl/mxv
 BYTE   W06
 BYTE   VOL   41*song09_mvl/mxv
 BYTE   W06
 BYTE   VOL   43*song09_mvl/mxv
 BYTE   W06
 BYTE   VOL   45*song09_mvl/mxv
 BYTE   W06
 BYTE   VOL   47*song09_mvl/mxv
 BYTE   W06
 BYTE   VOL   50*song09_mvl/mxv
 BYTE   W06
 BYTE   VOL   51*song09_mvl/mxv
 BYTE   W01
 BYTE   N16  Ds5  v060
 BYTE   W16
 BYTE   N08  Cs5  v056
 BYTE   W07
//  #02 //019   ----------------------------------------
 BYTE   W01
 BYTE   N90  Cn5  v052
 BYTE   W17
 BYTE   VOL   51*song09_mvl/mxv
 BYTE   W06
 BYTE   VOL   50*song09_mvl/mxv
 BYTE   W06
 BYTE   VOL   49*song09_mvl/mxv
 BYTE   W06
 BYTE   VOL   48*song09_mvl/mxv
 BYTE   W06
 BYTE   VOL   48*song09_mvl/mxv
 BYTE   W12
 BYTE   VOL   47*song09_mvl/mxv
 BYTE   W06
 BYTE   VOL   46*song09_mvl/mxv
 BYTE   W06
 BYTE   VOL   45*song09_mvl/mxv
 BYTE   W06
 BYTE   VOL   44*song09_mvl/mxv
 BYTE   W06
 BYTE   VOL   37*song09_mvl/mxv
 BYTE   W06
 BYTE   VOL   34*song09_mvl/mxv
 BYTE   W06
 BYTE   VOL   10*song09_mvl/mxv
 BYTE   W06
//  #02 //020   ----------------------------------------
 BYTE   VOICE   16
 BYTE   VOL   3*song09_mvl/mxv
 BYTE   PAN   c_v+0
 BYTE   VOL   13*song09_mvl/mxv
 BYTE   W28
 BYTE   N03  As2  v112
 BYTE   W24
 BYTE   W01
 BYTE   As2  v100
 BYTE   W24
 BYTE   As2  v092
 BYTE   W08
 BYTE   As2  v080
 BYTE   W07
 BYTE   As2  v068
 BYTE   W04
//  #02 //021   ----------------------------------------
 BYTE   PATT
  POIN2 Label_01213B4F
//  #02 //022   ----------------------------------------
 BYTE   PATT
  POIN2 Label_01213B68
//  #02 //023   ----------------------------------------
 BYTE   W05
 BYTE   N03  As2  v100
 BYTE   W12
 BYTE   As2  v088
 BYTE   W11
 BYTE   As2  v092
 BYTE   W24
 BYTE   As2  v096
 BYTE   W44
//  #02 //024   ----------------------------------------
 BYTE   VOICE   19
 BYTE   VOL   29*song09_mvl/mxv
 BYTE   PAN   c_v+37
 BYTE   VOL   28*song09_mvl/mxv
 BYTE   W01
 BYTE   N23  Bn1  v072
 BYTE   W11
 BYTE   VOL   28*song09_mvl/mxv
 BYTE   W12
 BYTE   VOL   29*song09_mvl/mxv
 BYTE   N23  Bn1  v068
 BYTE   W12
 BYTE   VOL   29*song09_mvl/mxv
 BYTE   W11
 BYTE   N23
 BYTE   W01
 BYTE   VOL   30*song09_mvl/mxv
 BYTE   W12
 BYTE   VOL   30*song09_mvl/mxv
 BYTE   W11
 BYTE   N07  Bn1  v072
 BYTE   W01
 BYTE   VOL   30*song09_mvl/mxv
 BYTE   W07
 BYTE   N07  Bn1  v048
 BYTE   W05
 BYTE   VOL   31*song09_mvl/mxv
 BYTE   W03
 BYTE   N07
 BYTE   W08
 BYTE   N11
 BYTE   W01
//  #02 //025   ----------------------------------------
 BYTE   VOL   32*song09_mvl/mxv
 BYTE   W12
 BYTE   VOL   32*song09_mvl/mxv
 BYTE   N11
 BYTE   W11
 BYTE   N23  Bn1  v060
 BYTE   W01
 BYTE   VOL   33*song09_mvl/mxv
 BYTE   W12
 BYTE   VOL   33*song09_mvl/mxv
 BYTE   W11
 BYTE   N24  Bn1  v064
 BYTE   W01
 BYTE   VOL   34*song09_mvl/mxv
 BYTE   W12
 BYTE   VOL   34*song09_mvl/mxv
 BYTE   W12
 BYTE   VOL   34*song09_mvl/mxv
 BYTE   N07
 BYTE   W08
 BYTE   Bn1  v044
 BYTE   W04
 BYTE   VOL   35*song09_mvl/mxv
 BYTE   W03
 BYTE   N08  Bn1  v048
 BYTE   W09
//  #02 //026   ----------------------------------------
 BYTE   VOL   36*song09_mvl/mxv
 BYTE   N23  As1  v056
 BYTE   W24
 BYTE   As1  v064
 BYTE   W23
 BYTE   N24  As1  v056
 BYTE   W24
 BYTE   W01
 BYTE   N07
 BYTE   W08
 BYTE   As1  v044
 BYTE   W07
 BYTE   N08
 BYTE   W09
//  #02 //027   ----------------------------------------
 BYTE   N11  As1  v056
 BYTE   W12
 BYTE   N12
 BYTE   W12
 BYTE   N23
 BYTE   W23
 BYTE   As1  v060
 BYTE   W24
 BYTE   N07  As1  v056
 BYTE   W08
 BYTE   As1  v040
 BYTE   W08
 BYTE   N08  As1  v044
 BYTE   W08
 BYTE   N23  Gs1  v056
 BYTE   W01
//  #02 //028   ----------------------------------------
 BYTE   W23
 BYTE   N23
 BYTE   W24
 BYTE   N24
 BYTE   W24
 BYTE   W01
 BYTE   N07
 BYTE   W07
 BYTE   Gs1  v044
 BYTE   W08
 BYTE   Gs1  v048
 BYTE   W08
 BYTE   N11  Gs1  v052
 BYTE   W01
//  #02 //029   ----------------------------------------
 BYTE   W11
 BYTE   N12
 BYTE   W13
 BYTE   N23  Gs1  v056
 BYTE   W23
 BYTE   N24
 BYTE   W24
 BYTE   N08  Gs1  v064
 BYTE   W09
 BYTE   N07  Gs1  v048
 BYTE   W07
 BYTE   N08  Gs1  v044
 BYTE   W09
//  #02 //030   ----------------------------------------
 BYTE   N23  Gs1  v056
 BYTE   W23
 BYTE   Gs1  v068
 BYTE   W24
 BYTE   N24  Fs1  v064
 BYTE   W24
 BYTE   W01
 BYTE   N07  Fs1  v068
 BYTE   W07
 BYTE   Fs1  v044
 BYTE   W08
 BYTE   N08  Fs1  v048
 BYTE   W08
 BYTE   N12  Fn1  v072
 BYTE   W01
//  #02 //031   ----------------------------------------
 BYTE   W12
 BYTE   Fn1  v056
 BYTE   W12
 BYTE   N23  Fn1  v068
 BYTE   W24
 BYTE   Fs1  v064
 BYTE   W24
 BYTE   N07
 BYTE   W07
 BYTE   N05  Fs1  v044
 BYTE   W06
 BYTE   N10  Fs1  v040
 BYTE   W11
//  #02 //032   ----------------------------------------
 BYTE   N23  Gs1  v064
 BYTE   W23
 BYTE   Gs1  v060
 BYTE   W24
 BYTE   N24  Gs1  v056
 BYTE   W24
 BYTE   W01
 BYTE   N07  Gs1  v068
 BYTE   W08
 BYTE   Gs1  v044
 BYTE   W07
 BYTE   N08
 BYTE   W09
//  #02 //033   ----------------------------------------
 BYTE   N11  Gs1  v048
 BYTE   W11
 BYTE   N12  Gs1  v056
 BYTE   W13
 BYTE   N23
 BYTE   W23
 BYTE   N24
 BYTE   W24
 BYTE   W01
 BYTE   N07
 BYTE   W08
 BYTE   Gs1  v044
 BYTE   W07
 BYTE   N08
 BYTE   W09
//  #02 //034   ----------------------------------------
 BYTE   N23  Fs1  v056
 BYTE   W24
 BYTE   N24  Fs1  v064
 BYTE   W24
 BYTE   N23  Fs1  v060
 BYTE   W24
 BYTE   N07
 BYTE   W07
 BYTE   Fs1  v044
 BYTE   W08
 BYTE   N08  Fs1  v036
 BYTE   W08
 BYTE   N12  Fs1  v048
 BYTE   W01
//  #02 //035   ----------------------------------------
 BYTE   W12
 BYTE   Fs1  v052
 BYTE   W12
 BYTE   N23  Fs1  v056
 BYTE   W24
 BYTE   N24
 BYTE   W24
 BYTE   N08  Fs1  v060
 BYTE   W08
 BYTE   N07  Fs1  v036
 BYTE   W08
 BYTE   N08  Fs1  v040
 BYTE   W08
//  #02 //036   ----------------------------------------
 BYTE   N23  Ds1  v056
 BYTE   W23
 BYTE   N24  Ds1  v060
 BYTE   W24
 BYTE   W01
 BYTE   N23  Ds1  v064
 BYTE   W23
 BYTE   N07  Ds1  v060
 BYTE   W08
 BYTE   Ds1  v044
 BYTE   W08
 BYTE   N08  Ds1  v040
 BYTE   W09
//  #02 //037   ----------------------------------------
 BYTE   N11  Ds1  v048
 BYTE   W12
 BYTE   VOL   35*song09_mvl/mxv
 BYTE   N11  Ds1  v052
 BYTE   W12
 BYTE   N23  Ds1  v056
 BYTE   W23
 BYTE   N24  Ds1  v060
 BYTE   W19
 BYTE   VOL   34*song09_mvl/mxv
 BYTE   W06
 BYTE   N07  Ds1  v056
 BYTE   W07
 BYTE   N08  Ds1  v048
 BYTE   W08
 BYTE   Ds1  v036
 BYTE   W09
//  #02 //038   ----------------------------------------
 BYTE   N23  Ds1  v048
 BYTE   W18
 BYTE   VOL   34*song09_mvl/mxv
 BYTE   W05
 BYTE   N23  Ds1  v056
 BYTE   W24
 BYTE   N23
 BYTE   W07
 BYTE   VOL   34*song09_mvl/mxv
 BYTE   W17
 BYTE   N07
 BYTE   W01
 BYTE   VOL   33*song09_mvl/mxv
 BYTE   W07
 BYTE   N07  Ds1  v044
 BYTE   W08
 BYTE   N07
 BYTE   W03
 BYTE   VOL   33*song09_mvl/mxv
 BYTE   W05
 BYTE   N12  Ds1  v048
 BYTE   W01
//  #02 //039   ----------------------------------------
 BYTE   W11
 BYTE   Ds1  v056
 BYTE   W01
 BYTE   VOL   32*song09_mvl/mxv
 BYTE   W12
 BYTE   N23
 BYTE   W06
 BYTE   VOL   32*song09_mvl/mxv
 BYTE   W17
 BYTE   N24  Ds1  v060
 BYTE   W01
 BYTE   VOL   30*song09_mvl/mxv
 BYTE   W18
 BYTE   VOL   29*song09_mvl/mxv
 BYTE   W06
 BYTE   N07
 BYTE   W06
 BYTE   VOL   28*song09_mvl/mxv
 BYTE   W01
 BYTE   N08  Ds1  v048
 BYTE   W09
 BYTE   Ds1  v052
 BYTE   W08
//  #02 //040   ----------------------------------------
 BYTE   W24
 BYTE   VOICE   13
 BYTE   VOL   27*song09_mvl/mxv
 BYTE   W01
 BYTE   N23  As1  v044
 BYTE   W05
 BYTE   VOL   27*song09_mvl/mxv
 BYTE   W06
 BYTE   VOL   28*song09_mvl/mxv
 BYTE   W06
 BYTE   VOL   29*song09_mvl/mxv
 BYTE   W06
 BYTE   VOL   30*song09_mvl/mxv
 BYTE   W01
 BYTE   N22  Ds2  v052
 BYTE   W05
 BYTE   VOL   31*song09_mvl/mxv
 BYTE   W06
 BYTE   VOL   32*song09_mvl/mxv
 BYTE   W06
 BYTE   VOL   34*song09_mvl/mxv
 BYTE   W06
 BYTE   VOL   34*song09_mvl/mxv
 BYTE   N44  Fn2
 BYTE   W06
 BYTE   VOL   36*song09_mvl/mxv
 BYTE   W06
 BYTE   VOL   37*song09_mvl/mxv
 BYTE   W06
 BYTE   VOL   38*song09_mvl/mxv
 BYTE   W06
//  #02 //041   ----------------------------------------
 BYTE   VOL   39*song09_mvl/mxv
 BYTE   W06
 BYTE   VOL   40*song09_mvl/mxv
 BYTE   W06
 BYTE   VOL   41*song09_mvl/mxv
 BYTE   W06
 BYTE   VOL   43*song09_mvl/mxv
 BYTE   W05
 BYTE   N28  Fs2  v032
 BYTE   W01
 BYTE   VOL   44*song09_mvl/mxv
 BYTE   W06
 BYTE   VOL   45*song09_mvl/mxv
 BYTE   W06
 BYTE   VOL   42*song09_mvl/mxv
 BYTE   W06
 BYTE   VOL   35*song09_mvl/mxv
 BYTE   W06
 BYTE   VOL   33*song09_mvl/mxv
 BYTE   W06
 BYTE   VOL   30*song09_mvl/mxv
 BYTE   W06
 BYTE   VOL   30*song09_mvl/mxv
 BYTE   W06
 BYTE   VOL   31*song09_mvl/mxv
 BYTE   W04
 BYTE   N22  Ds2  v060
 BYTE   W02
 BYTE   VOL   32*song09_mvl/mxv
 BYTE   W06
 BYTE   VOL   34*song09_mvl/mxv
 BYTE   W12
 BYTE   VOL   35*song09_mvl/mxv
 BYTE   W03
 BYTE   N24  Fn2  v072
 BYTE   W03
//  #02 //042   ----------------------------------------
 BYTE   VOL   36*song09_mvl/mxv
 BYTE   W06
 BYTE   VOL   37*song09_mvl/mxv
 BYTE   W06
 BYTE   VOL   37*song09_mvl/mxv
 BYTE   W06
 BYTE   VOL   39*song09_mvl/mxv
 BYTE   W03
 BYTE   N48  As2  v060
 BYTE   W09
 BYTE   VOL   40*song09_mvl/mxv
 BYTE   W06
 BYTE   VOL   41*song09_mvl/mxv
 BYTE   W06
 BYTE   VOL   42*song09_mvl/mxv
 BYTE   W06
 BYTE   VOL   43*song09_mvl/mxv
 BYTE   W06
 BYTE   VOL   45*song09_mvl/mxv
 BYTE   W12
 BYTE   VOL   46*song09_mvl/mxv
 BYTE   W05
 BYTE   N40  Fn3  v052
 BYTE   W01
 BYTE   VOL   48*song09_mvl/mxv
 BYTE   W06
 BYTE   VOL   47*song09_mvl/mxv
 BYTE   W06
 BYTE   VOL   46*song09_mvl/mxv
 BYTE   W06
 BYTE   VOL   45*song09_mvl/mxv
 BYTE   W06
//  #02 //043   ----------------------------------------
 BYTE   VOL   44*song09_mvl/mxv
 BYTE   W06
 BYTE   VOL   42*song09_mvl/mxv
 BYTE   W06
 BYTE   VOL   41*song09_mvl/mxv
 BYTE   W06
 BYTE   VOL   40*song09_mvl/mxv
 BYTE   W05
 BYTE   N24  Ds3  v060
 BYTE   W19
 BYTE   VOL   40*song09_mvl/mxv
 BYTE   W05
 BYTE   N24  Fn3  v052
 BYTE   W19
 BYTE   VOL   41*song09_mvl/mxv
 BYTE   W05
 BYTE   N24  Fs3
 BYTE   W07
 BYTE   VOL   42*song09_mvl/mxv
 BYTE   W12
 BYTE   VOL   43*song09_mvl/mxv
 BYTE   W05
 BYTE   N24  Gs3
 BYTE   W01
//  #02 //044   ----------------------------------------
 BYTE   VOL   44*song09_mvl/mxv
 BYTE   W06
 BYTE   VOL   45*song09_mvl/mxv
 BYTE   W06
 BYTE   VOL   46*song09_mvl/mxv
 BYTE   W06
 BYTE   VOL   48*song09_mvl/mxv
 BYTE   W06
 BYTE   N24  Ds3  v056
 BYTE   W06
 BYTE   VOL   51*song09_mvl/mxv
 BYTE   W06
 BYTE   VOL   55*song09_mvl/mxv
 BYTE   W06
 BYTE   VOL   66*song09_mvl/mxv
 BYTE   W05
 BYTE   TIE  Fn3
 BYTE   W01
 BYTE   VOL   61*song09_mvl/mxv
 BYTE   W06
 BYTE   VOL   30*song09_mvl/mxv
 BYTE   W06
 BYTE   VOL   23*song09_mvl/mxv
 BYTE   W06
 BYTE   VOL   20*song09_mvl/mxv
 BYTE   W18
 BYTE   VOL   21*song09_mvl/mxv
 BYTE   W12
//  #02 //045   ----------------------------------------
 BYTE   W06
 BYTE   VOL   22*song09_mvl/mxv
 BYTE   W12
 BYTE   VOL   22*song09_mvl/mxv
 BYTE   W12
 BYTE   VOL   23*song09_mvl/mxv
 BYTE   W06
 BYTE   VOL   23*song09_mvl/mxv
 BYTE   W12
 BYTE   VOL   24*song09_mvl/mxv
 BYTE   W06
 BYTE   VOL   25*song09_mvl/mxv
 BYTE   W06
 BYTE   VOL   26*song09_mvl/mxv
 BYTE   W06
 BYTE   VOL   27*song09_mvl/mxv
 BYTE   W06
 BYTE   VOL   27*song09_mvl/mxv
 BYTE   W06
 BYTE   VOL   28*song09_mvl/mxv
 BYTE   W06
 BYTE   VOL   29*song09_mvl/mxv
 BYTE   W06
 BYTE   VOL   30*song09_mvl/mxv
 BYTE   W06
//  #02 //046   ----------------------------------------
 BYTE   VOL   31*song09_mvl/mxv
 BYTE   W06
 BYTE   VOL   34*song09_mvl/mxv
 BYTE   W06
 BYTE   VOL   36*song09_mvl/mxv
 BYTE   W06
 BYTE   VOL   40*song09_mvl/mxv
 BYTE   W06
 BYTE   VOL   42*song09_mvl/mxv
 BYTE   W06
 BYTE   VOL   50*song09_mvl/mxv
 BYTE   W06
 BYTE   VOL   53*song09_mvl/mxv
 BYTE   W06
 BYTE   VOL   70*song09_mvl/mxv
 BYTE   W06
 BYTE   EOT
 BYTE   VOICE   16
 BYTE   VOL   80*song09_mvl/mxv
 BYTE   W01
 BYTE   N32  As2  v068
 BYTE   W44
 BYTE   W03
//  #02 //047   ----------------------------------------
 BYTE   W01
 BYTE   As2  v048
 BYTE   W32
 BYTE   W01
 BYTE   N15  As2  v036
 BYTE   W15
 BYTE   N19  As2  v040
 BYTE   W22
 BYTE   N32  As2  v048
 BYTE   W24
 BYTE   W01
//  #02 //048   ----------------------------------------
 BYTE   W24
 BYTE   N15  As2  v060
 BYTE   W16
 BYTE   N05  As2  v056
 BYTE   W08
 BYTE   VOICE   16
 BYTE   VOL   17*song09_mvl/mxv
 BYTE   PAN   c_v+0
 BYTE   VOL   13*song09_mvl/mxv
 BYTE   W24
 BYTE   GoTo
  POIN2 Label_01213B41
//  #02 //049   ----------------------------------------
 BYTE   W04
 BYTE   N03  As2  v112
 BYTE   W20
 BYTE   W05
 BYTE   As2  v100
 BYTE   W24
 BYTE   As2  v092
 BYTE   W08
 BYTE   As2  v080
 BYTE   W07
 BYTE   As2  v068
 BYTE   W04
 BYTE   FINE

//**************** Track 3 (Midi-Chn.2) ****************//

song09_003:
//  #03 //000   ----------------------------------------
 BYTE   KEYSH   song09_key+0
 BYTE   VOICE   19
 BYTE   MODT 0
 BYTE   LFOS 44
 BYTE   MOD 0
 BYTE   VOL   17*song09_mvl/mxv
 BYTE   PAN   c_v+0
 BYTE   VOL   17*song09_mvl/mxv
 BYTE   W08
 BYTE   N08  As1  v104
 BYTE   W24
 BYTE   N07  As1  v100
 BYTE   W24
 BYTE   N06  As1  v096
 BYTE   W24
 BYTE   N03  As1  v100
 BYTE   W08
 BYTE   As1  v080
 BYTE   W08
//  #03 //001   ----------------------------------------
 BYTE   N03
 BYTE   W08
 BYTE   As1  v084
 BYTE   W12
 BYTE   N03
 BYTE   W12
 BYTE   N06  As1  v092
 BYTE   W24
 BYTE   N07
 BYTE   W24
 BYTE   N03  As1  v096
 BYTE   W08
 BYTE   As1  v084
 BYTE   W08
//  #03 //002   ----------------------------------------
 BYTE   VOICE   16
 BYTE   VOL   19*song09_mvl/mxv
 BYTE   PAN   c_v-42
 BYTE   VOL   15*song09_mvl/mxv
 BYTE   W24
 BYTE   N07  As2  v112
 BYTE   W06
Label_012140DD:
 BYTE   W02
 BYTE   N16  As2  v072
 BYTE   W17
 BYTE   N07  As2  v100
 BYTE   W08
 BYTE   N15  As2  v056
 BYTE   W16
 BYTE   N07  As2  v092
 BYTE   W08
 BYTE   As2  v080
 BYTE   W07
 BYTE   As2  v068
 BYTE   W08
//  #03 //003   ----------------------------------------
Label_012140F4:
 BYTE   N07  As2  v076
 BYTE   W08
 BYTE   N03  As2  v040
 BYTE   W04
 BYTE   N07  As2  v096
 BYTE   W08
 BYTE   N03  As2  v056
 BYTE   W04
 BYTE   N07  As2  v100
 BYTE   W08
 BYTE   N15  As2  v056
 BYTE   W16
 BYTE   N07  As2  v096
 BYTE   W08
 BYTE   N16  As2  v056
 BYTE   W17
 BYTE   N07  As2  v092
 BYTE   W08
 BYTE   As2  v100
 BYTE   W07
 BYTE   N08  As2  v068
 BYTE   W08
 BYTE   PEND 
//  #03 //004   ----------------------------------------
Label_01214120:
 BYTE   W01
 BYTE   N07  As2  v096
 BYTE   W08
 BYTE   N15  As2  v056
 BYTE   W15
 BYTE   N07  As2  v088
 BYTE   W08
 BYTE   N15  As2  v052
 BYTE   W16
 BYTE   N07  As2  v092
 BYTE   W08
 BYTE   N16  As2  v056
 BYTE   W17
 BYTE   N07  As2  v104
 BYTE   W08
 BYTE   As2  v096
 BYTE   W08
 BYTE   As2  v088
 BYTE   W07
 BYTE   PEND 
//  #03 //005   ----------------------------------------
 BYTE   W01
 BYTE   As2  v100
 BYTE   W08
 BYTE   N04  As2  v060
 BYTE   W04
 BYTE   N07  As2  v088
 BYTE   W08
 BYTE   N03  As2  v048
 BYTE   W03
 BYTE   N07  As2  v092
 BYTE   W08
 BYTE   N15  As2  v052
 BYTE   W16
 BYTE   N07  As2  v096
 BYTE   W08
 BYTE   N16  As2  v056
 BYTE   W17
 BYTE   N07  As2  v100
 BYTE   W08
 BYTE   N15  As2  v056
 BYTE   W15
//  #03 //006   ----------------------------------------
 BYTE   N07  Cs3  v088
 BYTE   W08
 BYTE   N15  Cs3  v048
 BYTE   W16
 BYTE   N07  Cs3  v092
 BYTE   W08
 BYTE   N16  Cs3  v052
 BYTE   W17
 BYTE   N07  Cs3  v092
 BYTE   W08
 BYTE   N15  Cs3  v052
 BYTE   W16
 BYTE   N07  Cs3  v088
 BYTE   W08
 BYTE   Cs3  v072
 BYTE   W07
 BYTE   Cs3  v064
 BYTE   W08
//  #03 //007   ----------------------------------------
 BYTE   Cs3  v068
 BYTE   W08
 BYTE   N03  Cs3  v036
 BYTE   W04
 BYTE   N07  Cs3  v088
 BYTE   W08
 BYTE   N03  Cs3  v048
 BYTE   W04
 BYTE   N07  Cs3  v092
 BYTE   W08
 BYTE   N15  Cs3  v052
 BYTE   W16
 BYTE   N07  Cs3  v088
 BYTE   W08
 BYTE   N16  Cs3  v048
 BYTE   W17
 BYTE   N07  Cs3  v084
 BYTE   W08
 BYTE   Cs3  v092
 BYTE   W07
 BYTE   N08  Cs3  v064
 BYTE   W08
//  #03 //008   ----------------------------------------
 BYTE   W01
 BYTE   N07  Cs3  v088
 BYTE   W08
 BYTE   N15  Cs3  v048
 BYTE   W15
 BYTE   N07  Cs3  v084
 BYTE   W08
 BYTE   N15  Cs3  v044
 BYTE   W16
 BYTE   N07  Cs3  v088
 BYTE   W08
 BYTE   N16  Cs3  v048
 BYTE   W17
 BYTE   N07  Cs3  v096
 BYTE   W08
 BYTE   Cs3  v088
 BYTE   W08
 BYTE   Cs3  v084
 BYTE   W07
//  #03 //009   ----------------------------------------
 BYTE   W01
 BYTE   Cs3  v092
 BYTE   W08
 BYTE   N04  Cs3  v052
 BYTE   W04
 BYTE   N07  Cs3  v080
 BYTE   W08
 BYTE   N03  Cs3  v044
 BYTE   W03
 BYTE   N07  Cs3  v084
 BYTE   W08
 BYTE   N15  Cs3  v048
 BYTE   W16
 BYTE   N07  Cs3  v088
 BYTE   W08
 BYTE   N22  Cs3  v048
 BYTE   W28
 BYTE   VOICE   52
 BYTE   VOL   23*song09_mvl/mxv
 BYTE   PAN   c_v+27
 BYTE   W06
 BYTE   VOL   29*song09_mvl/mxv
 BYTE   N04  Bn4  v060
 BYTE   W04
 BYTE   N02  Cs5
 BYTE   W02
//  #03 //010   ----------------------------------------
 BYTE   W01
 BYTE   N04  Ds5  v072
 BYTE   W05
 BYTE   VOL   24*song09_mvl/mxv
 BYTE   N48  En5  v064
 BYTE   W06
 BYTE   VOL   19*song09_mvl/mxv
 BYTE   W06
 BYTE   VOL   19*song09_mvl/mxv
 BYTE   W06
 BYTE   VOL   19*song09_mvl/mxv
 BYTE   W06
 BYTE   VOL   20*song09_mvl/mxv
 BYTE   W06
 BYTE   VOL   22*song09_mvl/mxv
 BYTE   W06
 BYTE   VOL   23*song09_mvl/mxv
 BYTE   W06
 BYTE   VOL   27*song09_mvl/mxv
 BYTE   W06
 BYTE   VOL   27*song09_mvl/mxv
 BYTE   W01
 BYTE   N48  Fs5  v056
 BYTE   W05
 BYTE   VOL   25*song09_mvl/mxv
 BYTE   W06
 BYTE   VOL   24*song09_mvl/mxv
 BYTE   W06
 BYTE   VOL   26*song09_mvl/mxv
 BYTE   W06
 BYTE   VOL   27*song09_mvl/mxv
 BYTE   W06
 BYTE   VOL   27*song09_mvl/mxv
 BYTE   W06
 BYTE   VOL   27*song09_mvl/mxv
 BYTE   W06
//  #03 //011   ----------------------------------------
 BYTE   VOL   27*song09_mvl/mxv
 BYTE   W06
 BYTE   VOL   24*song09_mvl/mxv
 BYTE   W01
 BYTE   N64  Gs5  v052
 BYTE   W05
 BYTE   VOL   23*song09_mvl/mxv
 BYTE   W06
 BYTE   VOL   21*song09_mvl/mxv
 BYTE   W12
 BYTE   VOL   22*song09_mvl/mxv
 BYTE   W06
 BYTE   VOL   22*song09_mvl/mxv
 BYTE   W12
 BYTE   VOL   22*song09_mvl/mxv
 BYTE   W06
 BYTE   VOL   21*song09_mvl/mxv
 BYTE   W06
 BYTE   VOL   20*song09_mvl/mxv
 BYTE   W06
 BYTE   VOL   14*song09_mvl/mxv
 BYTE   W06
 BYTE   VOL   9*song09_mvl/mxv
 BYTE   W06
 BYTE   VOL   26*song09_mvl/mxv
 BYTE   W01
 BYTE   N14  Fs5  v060
 BYTE   W05
 BYTE   VOL   26*song09_mvl/mxv
 BYTE   W06
 BYTE   VOL   27*song09_mvl/mxv
 BYTE   W05
 BYTE   N05  En5
 BYTE   W01
//  #03 //012   ----------------------------------------
 BYTE   VOL   28*song09_mvl/mxv
 BYTE   W04
 BYTE   N48  Fs5
 BYTE   W02
 BYTE   VOL   26*song09_mvl/mxv
 BYTE   W06
 BYTE   VOL   26*song09_mvl/mxv
 BYTE   W06
 BYTE   VOL   27*song09_mvl/mxv
 BYTE   W06
 BYTE   VOL   27*song09_mvl/mxv
 BYTE   W12
 BYTE   VOL   26*song09_mvl/mxv
 BYTE   W06
 BYTE   VOL   23*song09_mvl/mxv
 BYTE   W06
 BYTE   VOL   23*song09_mvl/mxv
 BYTE   W06
 BYTE   VOL   21*song09_mvl/mxv
 BYTE   N44  Ds5  v056
 BYTE   W06
 BYTE   VOL   21*song09_mvl/mxv
 BYTE   W06
 BYTE   VOL   20*song09_mvl/mxv
 BYTE   W06
 BYTE   VOL   20*song09_mvl/mxv
 BYTE   W06
 BYTE   VOL   21*song09_mvl/mxv
 BYTE   W06
 BYTE   VOL   22*song09_mvl/mxv
 BYTE   W06
 BYTE   VOL   23*song09_mvl/mxv
 BYTE   W06
//  #03 //013   ----------------------------------------
 BYTE   VOL   23*song09_mvl/mxv
 BYTE   W06
 BYTE   VOL   24*song09_mvl/mxv
 BYTE   N60  Bn4  v040
 BYTE   W06
 BYTE   VOL   23*song09_mvl/mxv
 BYTE   W06
 BYTE   VOL   23*song09_mvl/mxv
 BYTE   W06
 BYTE   VOL   23*song09_mvl/mxv
 BYTE   W06
 BYTE   VOL   22*song09_mvl/mxv
 BYTE   W06
 BYTE   VOL   21*song09_mvl/mxv
 BYTE   W06
 BYTE   VOL   19*song09_mvl/mxv
 BYTE   W06
 BYTE   VOL   19*song09_mvl/mxv
 BYTE   W06
 BYTE   VOL   15*song09_mvl/mxv
 BYTE   W06
 BYTE   VOL   13*song09_mvl/mxv
 BYTE   W06
 BYTE   VOL   3*song09_mvl/mxv
 BYTE   W06
 BYTE   VOL   13*song09_mvl/mxv
 BYTE   W04
 BYTE   N17  An4  v064
 BYTE   W02
 BYTE   VOL   21*song09_mvl/mxv
 BYTE   W06
 BYTE   VOL   22*song09_mvl/mxv
 BYTE   W06
 BYTE   VOL   26*song09_mvl/mxv
 BYTE   W04
 BYTE   N06  Gs4  v048
 BYTE   W02
//  #03 //014   ----------------------------------------
 BYTE   VOL   27*song09_mvl/mxv
 BYTE   W04
 BYTE   N16  An4  v072
 BYTE   W02
 BYTE   VOL   28*song09_mvl/mxv
 BYTE   W06
 BYTE   VOL   27*song09_mvl/mxv
 BYTE   W09
 BYTE   N05  Bn4  v060
 BYTE   W06
 BYTE   N44  Cs5  v048
 BYTE   W03
 BYTE   VOL   24*song09_mvl/mxv
 BYTE   W06
 BYTE   VOL   24*song09_mvl/mxv
 BYTE   W06
 BYTE   VOL   26*song09_mvl/mxv
 BYTE   W06
 BYTE   VOL   26*song09_mvl/mxv
 BYTE   W06
 BYTE   VOL   27*song09_mvl/mxv
 BYTE   W06
 BYTE   VOL   27*song09_mvl/mxv
 BYTE   W06
 BYTE   VOL   21*song09_mvl/mxv
 BYTE   W06
 BYTE   VOL   18*song09_mvl/mxv
 BYTE   W04
 BYTE   N16  An4  v064
 BYTE   W02
 BYTE   VOL   23*song09_mvl/mxv
 BYTE   W06
 BYTE   VOL   23*song09_mvl/mxv
 BYTE   W06
 BYTE   VOL   24*song09_mvl/mxv
 BYTE   W02
 BYTE   N05  Bn4  v056
 BYTE   W04
//  #03 //015   ----------------------------------------
 BYTE   VOL   24*song09_mvl/mxv
 BYTE   W02
 BYTE   N68  Cn5  v060
 BYTE   W04
 BYTE   VOL   25*song09_mvl/mxv
 BYTE   W06
 BYTE   VOL   24*song09_mvl/mxv
 BYTE   W06
 BYTE   VOL   23*song09_mvl/mxv
 BYTE   W06
 BYTE   VOL   23*song09_mvl/mxv
 BYTE   W06
 BYTE   VOL   23*song09_mvl/mxv
 BYTE   W06
 BYTE   VOL   22*song09_mvl/mxv
 BYTE   W06
 BYTE   VOL   20*song09_mvl/mxv
 BYTE   W06
 BYTE   VOL   20*song09_mvl/mxv
 BYTE   W06
 BYTE   VOL   17*song09_mvl/mxv
 BYTE   W06
 BYTE   VOL   15*song09_mvl/mxv
 BYTE   W06
 BYTE   VOL   8*song09_mvl/mxv
 BYTE   W06
 BYTE   VOL   18*song09_mvl/mxv
 BYTE   W04
 BYTE   N24  Cn5  v064
 BYTE   W02
 BYTE   VOL   23*song09_mvl/mxv
 BYTE   W06
 BYTE   VOL   23*song09_mvl/mxv
 BYTE   W06
 BYTE   VOL   27*song09_mvl/mxv
 BYTE   W06
//  #03 //016   ----------------------------------------
 BYTE   VOL   27*song09_mvl/mxv
 BYTE   W05
 BYTE   N12  Ds5
 BYTE   W01
 BYTE   VOL   29*song09_mvl/mxv
 BYTE   W06
 BYTE   VOL   28*song09_mvl/mxv
 BYTE   W06
 BYTE   VOL   28*song09_mvl/mxv
 BYTE   W04
 BYTE   N05  En5  v060
 BYTE   W02
 BYTE   VOL   27*song09_mvl/mxv
 BYTE   W04
 BYTE   N44  Cs5  v052
 BYTE   W02
 BYTE   VOL   27*song09_mvl/mxv
 BYTE   W12
 BYTE   VOL   27*song09_mvl/mxv
 BYTE   W12
 BYTE   VOL   27*song09_mvl/mxv
 BYTE   W12
 BYTE   VOL   26*song09_mvl/mxv
 BYTE   W06
 BYTE   VOL   22*song09_mvl/mxv
 BYTE   W06
 BYTE   VOL   23*song09_mvl/mxv
 BYTE   N22  Cs5  v060
 BYTE   W06
 BYTE   VOL   24*song09_mvl/mxv
 BYTE   W06
 BYTE   VOL   27*song09_mvl/mxv
 BYTE   W06
//  #03 //017   ----------------------------------------
 BYTE   VOL   27*song09_mvl/mxv
 BYTE   W05
 BYTE   N15  Ds5  v068
 BYTE   W01
 BYTE   VOL   29*song09_mvl/mxv
 BYTE   W17
 BYTE   N05  En5  v056
 BYTE   W05
 BYTE   N44  Cs5  v048
 BYTE   W14
 BYTE   VOL   28*song09_mvl/mxv
 BYTE   W06
 BYTE   VOL   27*song09_mvl/mxv
 BYTE   W06
 BYTE   VOL   26*song09_mvl/mxv
 BYTE   W06
 BYTE   VOL   24*song09_mvl/mxv
 BYTE   W06
 BYTE   VOL   19*song09_mvl/mxv
 BYTE   W06
 BYTE   VOL   16*song09_mvl/mxv
 BYTE   W05
 BYTE   N21  Cs5  v068
 BYTE   W01
 BYTE   VOL   22*song09_mvl/mxv
 BYTE   W06
 BYTE   VOL   23*song09_mvl/mxv
 BYTE   W06
 BYTE   VOL   27*song09_mvl/mxv
 BYTE   W06
//  #03 //018   ----------------------------------------
 BYTE   VOL   28*song09_mvl/mxv
 BYTE   W06
 BYTE   VOL   17*song09_mvl/mxv
 BYTE   N68
 BYTE   W06
 BYTE   VOL   17*song09_mvl/mxv
 BYTE   W06
 BYTE   VOL   19*song09_mvl/mxv
 BYTE   W06
 BYTE   VOL   19*song09_mvl/mxv
 BYTE   W06
 BYTE   VOL   20*song09_mvl/mxv
 BYTE   W06
 BYTE   VOL   21*song09_mvl/mxv
 BYTE   W06
 BYTE   VOL   23*song09_mvl/mxv
 BYTE   W06
 BYTE   VOL   23*song09_mvl/mxv
 BYTE   W06
 BYTE   VOL   25*song09_mvl/mxv
 BYTE   W06
 BYTE   VOL   26*song09_mvl/mxv
 BYTE   W06
 BYTE   VOL   27*song09_mvl/mxv
 BYTE   W06
 BYTE   VOL   28*song09_mvl/mxv
 BYTE   W05
 BYTE   N16  Ds5  v060
 BYTE   W01
 BYTE   VOL   29*song09_mvl/mxv
 BYTE   W15
 BYTE   N08  Cs5  v056
 BYTE   W03
//  #03 //019   ----------------------------------------
 BYTE   W05
 BYTE   N60  Cn5  v052
 BYTE   W07
 BYTE   VOL   28*song09_mvl/mxv
 BYTE   W06
 BYTE   VOL   27*song09_mvl/mxv
 BYTE   W06
 BYTE   VOL   25*song09_mvl/mxv
 BYTE   W06
 BYTE   VOL   23*song09_mvl/mxv
 BYTE   W06
 BYTE   VOL   21*song09_mvl/mxv
 BYTE   W06
 BYTE   VOL   18*song09_mvl/mxv
 BYTE   W06
 BYTE   VOL   16*song09_mvl/mxv
 BYTE   W06
 BYTE   VOL   11*song09_mvl/mxv
 BYTE   W06
 BYTE   VOL   8*song09_mvl/mxv
 BYTE   W06
 BYTE   VOL   2*song09_mvl/mxv
 BYTE   W06
 BYTE   VOL   0*song09_mvl/mxv
 BYTE   W12
 BYTE   VOL   0*song09_mvl/mxv
 BYTE   W06
 BYTE   VOL   2*song09_mvl/mxv
 BYTE   W06
//  #03 //020   ----------------------------------------
 BYTE   VOICE   16
 BYTE   VOL   1*song09_mvl/mxv
 BYTE   PAN   c_v-41
 BYTE   VOL   8*song09_mvl/mxv
 BYTE   W06
 BYTE   VOL   13*song09_mvl/mxv
 BYTE   W18
 BYTE   N07  As2  v112
 BYTE   W08
 BYTE   N16  As2  v072
 BYTE   W17
 BYTE   N07  As2  v100
 BYTE   W08
 BYTE   N15  As2  v056
 BYTE   W16
 BYTE   N07  As2  v092
 BYTE   W08
 BYTE   As2  v080
 BYTE   W07
 BYTE   As2  v068
 BYTE   W08
//  #03 //021   ----------------------------------------
 BYTE   PATT
  POIN2 Label_012140F4
//  #03 //022   ----------------------------------------
 BYTE   PATT
  POIN2 Label_01214120
//  #03 //023   ----------------------------------------
 BYTE   W01
 BYTE   N07  As2  v100
 BYTE   W08
 BYTE   N04  As2  v060
 BYTE   W04
 BYTE   N07  As2  v088
 BYTE   W08
 BYTE   N03  As2  v048
 BYTE   W03
 BYTE   N07  As2  v092
 BYTE   W08
 BYTE   N15  As2  v052
 BYTE   W16
 BYTE   N07  As2  v096
 BYTE   W48
//  #03 //024   ----------------------------------------
 BYTE   VOICE   19
 BYTE   VOL   23*song09_mvl/mxv
 BYTE   PAN   c_v+1
 BYTE   VOL   28*song09_mvl/mxv
 BYTE   W01
 BYTE   N23  As1  v056
 BYTE   W17
 BYTE   VOL   28*song09_mvl/mxv
 BYTE   W06
 BYTE   N23
 BYTE   W06
 BYTE   VOL   28*song09_mvl/mxv
 BYTE   W12
 BYTE   VOL   29*song09_mvl/mxv
 BYTE   W06
 BYTE   N23  As1  v052
 BYTE   W06
 BYTE   VOL   30*song09_mvl/mxv
 BYTE   W12
 BYTE   VOL   30*song09_mvl/mxv
 BYTE   W06
 BYTE   N07  As1  v056
 BYTE   W06
 BYTE   VOL   30*song09_mvl/mxv
 BYTE   W01
 BYTE   N07  As1  v044
 BYTE   W09
 BYTE   N08  As1  v036
 BYTE   W02
 BYTE   VOL   31*song09_mvl/mxv
 BYTE   W06
//  #03 //025   ----------------------------------------
 BYTE   VOL   31*song09_mvl/mxv
 BYTE   N11  Gs1  v056
 BYTE   W12
 BYTE   VOL   32*song09_mvl/mxv
 BYTE   N11  Gs1  v052
 BYTE   W12
 BYTE   VOL   32*song09_mvl/mxv
 BYTE   N23  Gs1  v056
 BYTE   W12
 BYTE   VOL   33*song09_mvl/mxv
 BYTE   W06
 BYTE   VOL   34*song09_mvl/mxv
 BYTE   W05
 BYTE   N23
 BYTE   W07
 BYTE   VOL   34*song09_mvl/mxv
 BYTE   W12
 BYTE   VOL   34*song09_mvl/mxv
 BYTE   W05
 BYTE   N07
 BYTE   W07
 BYTE   VOL   35*song09_mvl/mxv
 BYTE   W02
 BYTE   N07  Gs1  v036
 BYTE   W08
 BYTE   N08  Gs1  v040
 BYTE   W02
 BYTE   VOL   35*song09_mvl/mxv
 BYTE   W06
//  #03 //026   ----------------------------------------
 BYTE   N23  Fs1  v064
 BYTE   W06
 BYTE   VOL   37*song09_mvl/mxv
 BYTE   W17
 BYTE   N23  Fs1  v056
 BYTE   W24
 BYTE   W01
 BYTE   N23
 BYTE   W23
 BYTE   N07
 BYTE   W08
 BYTE   N08  Fs1  v036
 BYTE   W09
 BYTE   N07  Fs1  v040
 BYTE   W08
//  #03 //027   ----------------------------------------
 BYTE   N11  Fs1  v044
 BYTE   W12
 BYTE   Fs1  v052
 BYTE   W12
 BYTE   N23  Fs1  v060
 BYTE   W23
 BYTE   N24  Fs1  v056
 BYTE   W24
 BYTE   W01
 BYTE   N07
 BYTE   W08
 BYTE   Fs1  v036
 BYTE   W07
 BYTE   N08  Fs1  v044
 BYTE   W09
//  #03 //028   ----------------------------------------
 BYTE   N23  Fn1  v064
 BYTE   W23
 BYTE   Fn1  v056
 BYTE   W24
 BYTE   N24  Fn1  v064
 BYTE   W24
 BYTE   W01
 BYTE   N07  Fn1  v056
 BYTE   W08
 BYTE   Fn1  v048
 BYTE   W08
 BYTE   N08
 BYTE   W08
//  #03 //029   ----------------------------------------
 BYTE   N11
 BYTE   W12
 BYTE   Fn1  v052
 BYTE   W12
 BYTE   N23  Fn1  v056
 BYTE   W24
 BYTE   Fn1  v064
 BYTE   W24
 BYTE   N07  Fn1  v056
 BYTE   W08
 BYTE   Fn1  v040
 BYTE   W08
 BYTE   N08  Fn1  v048
 BYTE   W08
//  #03 //030   ----------------------------------------
 BYTE   N23  As1  v056
 BYTE   W24
 BYTE   N23
 BYTE   W24
 BYTE   N23
 BYTE   W24
 BYTE   N07
 BYTE   W07
 BYTE   As1  v036
 BYTE   W08
 BYTE   N08  As1  v040
 BYTE   W09
//  #03 //031   ----------------------------------------
 BYTE   N12  As1  v052
 BYTE   W12
 BYTE   N11
 BYTE   W12
 BYTE   N23  As1  v056
 BYTE   W23
 BYTE   N24
 BYTE   W24
 BYTE   W01
 BYTE   N07
 BYTE   W08
 BYTE   As1  v044
 BYTE   W07
 BYTE   N08
 BYTE   W09
//  #03 //032   ----------------------------------------
 BYTE   N23  Bn1  v056
 BYTE   W23
 BYTE   N24  Bn1  v052
 BYTE   W24
 BYTE   W01
 BYTE   Bn1  v056
 BYTE   W24
 BYTE   N07
 BYTE   W07
 BYTE   Bn1  v048
 BYTE   W08
 BYTE   N08  Bn1  v044
 BYTE   W09
//  #03 //033   ----------------------------------------
 BYTE   N11  Bn1  v048
 BYTE   W12
 BYTE   Bn1  v056
 BYTE   W12
 BYTE   N23
 BYTE   W24
 BYTE   N23
 BYTE   W24
 BYTE   N07
 BYTE   W08
 BYTE   Bn1  v036
 BYTE   W07
 BYTE   N08  Bn1  v032
 BYTE   W09
//  #03 //034   ----------------------------------------
 BYTE   N24  As1  v060
 BYTE   W24
 BYTE   N23  As1  v056
 BYTE   W24
 BYTE   N23
 BYTE   W24
 BYTE   N07  As1  v060
 BYTE   W07
 BYTE   As1  v044
 BYTE   W08
 BYTE   N08  As1  v036
 BYTE   W09
//  #03 //035   ----------------------------------------
 BYTE   N12  As1  v040
 BYTE   W12
 BYTE   N11  As1  v056
 BYTE   W12
 BYTE   N23
 BYTE   W24
 BYTE   N24
 BYTE   W24
 BYTE   N07
 BYTE   W08
 BYTE   As1  v044
 BYTE   W07
 BYTE   N08  As1  v036
 BYTE   W09
//  #03 //036   ----------------------------------------
 BYTE   N23  Fs1  v056
 BYTE   W24
 BYTE   Gs1  v060
 BYTE   W24
 BYTE   N23
 BYTE   W24
 BYTE   N07  Fs1  v056
 BYTE   W07
 BYTE   Fs1  v044
 BYTE   W08
 BYTE   Fs1  v032
 BYTE   W08
 BYTE   N11  Gs1  v044
 BYTE   W01
//  #03 //037   ----------------------------------------
 BYTE   W06
 BYTE   VOL   36*song09_mvl/mxv
 BYTE   W05
 BYTE   N11  Gs1  v052
 BYTE   W13
 BYTE   N23  Gs1  v056
 BYTE   W24
 BYTE   N23
 BYTE   W18
 BYTE   VOL   35*song09_mvl/mxv
 BYTE   W06
 BYTE   N07
 BYTE   W07
 BYTE   Gs1  v044
 BYTE   W08
 BYTE   Gs1  v040
 BYTE   W08
 BYTE   N23  Gs1  v048
 BYTE   W01
//  #03 //038   ----------------------------------------
 BYTE   W18
 BYTE   VOL   35*song09_mvl/mxv
 BYTE   W05
 BYTE   N23  Gs1  v056
 BYTE   W19
 BYTE   VOL   34*song09_mvl/mxv
 BYTE   W05
 BYTE   N23
 BYTE   W24
 BYTE   W01
 BYTE   N07  Fn1
 BYTE   W06
 BYTE   VOL   34*song09_mvl/mxv
 BYTE   W01
 BYTE   N07  Fn1  v040
 BYTE   W08
 BYTE   N07
 BYTE   W03
 BYTE   VOL   34*song09_mvl/mxv
 BYTE   W05
 BYTE   N11  Fs1
 BYTE   W01
//  #03 //039   ----------------------------------------
 BYTE   W06
 BYTE   VOL   33*song09_mvl/mxv
 BYTE   W06
 BYTE   N11  Fs1  v056
 BYTE   W12
 BYTE   VOL   32*song09_mvl/mxv
 BYTE   N23
 BYTE   W12
 BYTE   VOL   31*song09_mvl/mxv
 BYTE   W11
 BYTE   N24  Fs1  v048
 BYTE   W07
 BYTE   VOL   30*song09_mvl/mxv
 BYTE   W12
 BYTE   VOL   29*song09_mvl/mxv
 BYTE   W06
 BYTE   N07  Fs1  v056
 BYTE   W06
 BYTE   VOL   28*song09_mvl/mxv
 BYTE   W01
 BYTE   N07  Fs1  v040
 BYTE   W08
 BYTE   N08  Fs1  v052
 BYTE   W09
//  #03 //040   ----------------------------------------
 BYTE   VOL   25*song09_mvl/mxv
 BYTE   W96
//  #03 //041   ----------------------------------------
 BYTE   VOICE   11
 BYTE   VOL   19*song09_mvl/mxv
 BYTE   W01
 BYTE   N44  Ds3  v124
 BYTE   W05
 BYTE   VOL   19*song09_mvl/mxv
 BYTE   W06
 BYTE   VOL   19*song09_mvl/mxv
 BYTE   W06
 BYTE   VOL   20*song09_mvl/mxv
 BYTE   W06
 BYTE   VOL   20*song09_mvl/mxv
 BYTE   W06
 BYTE   VOL   20*song09_mvl/mxv
 BYTE   W06
 BYTE   VOL   20*song09_mvl/mxv
 BYTE   W06
 BYTE   VOL   21*song09_mvl/mxv
 BYTE   W06
 BYTE   VOL   20*song09_mvl/mxv
 BYTE   W01
 BYTE   TIE  Dn3  v120
 BYTE   W05
 BYTE   VOL   17*song09_mvl/mxv
 BYTE   W06
 BYTE   VOL   14*song09_mvl/mxv
 BYTE   W06
 BYTE   VOL   11*song09_mvl/mxv
 BYTE   W06
 BYTE   VOL   11*song09_mvl/mxv
 BYTE   W06
 BYTE   VOL   12*song09_mvl/mxv
 BYTE   W06
 BYTE   VOL   13*song09_mvl/mxv
 BYTE   W06
 BYTE   VOL   13*song09_mvl/mxv
 BYTE   W06
//  #03 //042   ----------------------------------------
 BYTE   VOL   14*song09_mvl/mxv
 BYTE   W06
 BYTE   VOL   14*song09_mvl/mxv
 BYTE   W06
 BYTE   VOL   15*song09_mvl/mxv
 BYTE   W06
 BYTE   VOL   15*song09_mvl/mxv
 BYTE   W06
 BYTE   VOL   16*song09_mvl/mxv
 BYTE   W06
 BYTE   VOL   17*song09_mvl/mxv
 BYTE   W06
 BYTE   VOL   17*song09_mvl/mxv
 BYTE   W06
 BYTE   VOL   18*song09_mvl/mxv
 BYTE   W06
 BYTE   VOL   18*song09_mvl/mxv
 BYTE   W06
 BYTE   VOL   19*song09_mvl/mxv
 BYTE   W06
 BYTE   VOL   19*song09_mvl/mxv
 BYTE   W06
 BYTE   VOL   20*song09_mvl/mxv
 BYTE   W06
 BYTE   VOL   20*song09_mvl/mxv
 BYTE   W06
 BYTE   VOL   20*song09_mvl/mxv
 BYTE   W12
 BYTE   VOL   22*song09_mvl/mxv
 BYTE   W05
 BYTE   EOT
 BYTE   TIE  Ds3
 BYTE   W01
//  #03 //043   ----------------------------------------
 BYTE   VOL   22*song09_mvl/mxv
 BYTE   W06
 BYTE   VOL   19*song09_mvl/mxv
 BYTE   W06
 BYTE   VOL   19*song09_mvl/mxv
 BYTE   W06
 BYTE   VOL   17*song09_mvl/mxv
 BYTE   W06
 BYTE   VOL   17*song09_mvl/mxv
 BYTE   W06
 BYTE   VOL   17*song09_mvl/mxv
 BYTE   W06
 BYTE   VOL   18*song09_mvl/mxv
 BYTE   W06
 BYTE   VOL   18*song09_mvl/mxv
 BYTE   W06
 BYTE   VOL   19*song09_mvl/mxv
 BYTE   W06
 BYTE   VOL   19*song09_mvl/mxv
 BYTE   W06
 BYTE   VOL   20*song09_mvl/mxv
 BYTE   W06
 BYTE   VOL   20*song09_mvl/mxv
 BYTE   W06
 BYTE   VOL   20*song09_mvl/mxv
 BYTE   W06
 BYTE   VOL   22*song09_mvl/mxv
 BYTE   W06
 BYTE   VOL   22*song09_mvl/mxv
 BYTE   W06
 BYTE   VOL   23*song09_mvl/mxv
 BYTE   W06
//  #03 //044   ----------------------------------------
 BYTE   VOL   23*song09_mvl/mxv
 BYTE   W06
 BYTE   VOL   26*song09_mvl/mxv
 BYTE   W06
 BYTE   VOL   27*song09_mvl/mxv
 BYTE   W06
 BYTE   VOL   28*song09_mvl/mxv
 BYTE   W06
 BYTE   VOL   29*song09_mvl/mxv
 BYTE   W06
 BYTE   VOL   31*song09_mvl/mxv
 BYTE   W06
 BYTE   VOL   32*song09_mvl/mxv
 BYTE   W06
 BYTE   VOL   37*song09_mvl/mxv
 BYTE   W07
 BYTE   EOT
 BYTE   W28
 BYTE   W01
 BYTE   VOICE   19
 BYTE   VOL   17*song09_mvl/mxv
 BYTE   PAN   c_v+0
 BYTE   VOL   10*song09_mvl/mxv
 BYTE   W02
 BYTE   N07  As1  v100
 BYTE   W10
 BYTE   VOL   10*song09_mvl/mxv
 BYTE   W06
//  #03 //045   ----------------------------------------
 BYTE   VOL   10*song09_mvl/mxv
 BYTE   W06
 BYTE   VOL   10*song09_mvl/mxv
 BYTE   W02
 BYTE   N06  As1  v096
 BYTE   W04
 BYTE   VOL   10*song09_mvl/mxv
 BYTE   W06
 BYTE   VOL   10*song09_mvl/mxv
 BYTE   W06
 BYTE   VOL   11*song09_mvl/mxv
 BYTE   W06
 BYTE   VOL   11*song09_mvl/mxv
 BYTE   W02
 BYTE   N03  As1  v100
 BYTE   W08
 BYTE   As1  v080
 BYTE   W02
 BYTE   VOL   11*song09_mvl/mxv
 BYTE   W06
 BYTE   VOL   11*song09_mvl/mxv
 BYTE   N03
 BYTE   W06
 BYTE   VOL   12*song09_mvl/mxv
 BYTE   W02
 BYTE   N03  As1  v084
 BYTE   W04
 BYTE   VOL   12*song09_mvl/mxv
 BYTE   W06
 BYTE   VOL   12*song09_mvl/mxv
 BYTE   W02
 BYTE   N03
 BYTE   W04
 BYTE   VOL   13*song09_mvl/mxv
 BYTE   W06
 BYTE   VOL   13*song09_mvl/mxv
 BYTE   W02
 BYTE   N06  As1  v092
 BYTE   W04
 BYTE   VOL   13*song09_mvl/mxv
 BYTE   W06
 BYTE   VOL   14*song09_mvl/mxv
 BYTE   W06
//  #03 //046   ----------------------------------------
 BYTE   W06
 BYTE   VOL   14*song09_mvl/mxv
 BYTE   W02
 BYTE   N07
 BYTE   W04
 BYTE   VOL   14*song09_mvl/mxv
 BYTE   W06
 BYTE   VOL   15*song09_mvl/mxv
 BYTE   W06
 BYTE   VOL   15*song09_mvl/mxv
 BYTE   W06
 BYTE   VOL   15*song09_mvl/mxv
 BYTE   W02
 BYTE   N03  As1  v096
 BYTE   W04
 BYTE   VOL   15*song09_mvl/mxv
 BYTE   W04
 BYTE   N03  As1  v084
 BYTE   W02
 BYTE   VOL   16*song09_mvl/mxv
 BYTE   W06
 BYTE   VOICE   16
 BYTE   VOL   78*song09_mvl/mxv
 BYTE   W24
 BYTE   W01
 BYTE   N30  As2  v048
 BYTE   W23
//  #03 //047   ----------------------------------------
 BYTE   W24
 BYTE   W02
 BYTE   N14
 BYTE   W15
 BYTE   N16  As2  v036
 BYTE   W18
 BYTE   N19  As2  v044
 BYTE   W36
 BYTE   N32  As2  v048
 BYTE   W01
//  #03 //048   ----------------------------------------
 BYTE   W32
 BYTE   N15  As2  v032
 BYTE   W16
 BYTE   VOICE   16
 BYTE   VOL   19*song09_mvl/mxv
 BYTE   PAN   c_v-42
 BYTE   VOL   15*song09_mvl/mxv
 BYTE   W24
 BYTE   GoTo
  POIN2 Label_012140DD
//  #03 //049   ----------------------------------------
 BYTE   N07  As2  v112
 BYTE   W08
 BYTE   N16  As2  v072
 BYTE   W16
 BYTE   W01
 BYTE   N07  As2  v100
 BYTE   W08
 BYTE   N15  As2  v056
 BYTE   W16
 BYTE   N07  As2  v092
 BYTE   W08
 BYTE   As2  v080
 BYTE   W07
 BYTE   As2  v068
 BYTE   W08
 BYTE   FINE

//**************** Track 4 (Midi-Chn.3) ****************//

song09_004:
//  #04 //000   ----------------------------------------
 BYTE   KEYSH   song09_key+0
 BYTE   VOICE   11
 BYTE   MODT 0
 BYTE   LFOS 44
 BYTE   MOD 0
 BYTE   VOL   49*song09_mvl/mxv
 BYTE   PAN   c_v+10
 BYTE   VOL   32*song09_mvl/mxv
 BYTE   N23  As0  v108
 BYTE   W24
 BYTE   As0  v112
 BYTE   W24
 BYTE   As0  v120
 BYTE   W24
 BYTE   N08  As0  v112
 BYTE   W08
 BYTE   N07  As0  v100
 BYTE   W08
 BYTE   As0  v084
 BYTE   W08
//  #04 //001   ----------------------------------------
 BYTE   N11  As0  v100
 BYTE   W12
 BYTE   N11
 BYTE   W12
 BYTE   N21  As0  v112
 BYTE   W23
 BYTE   N23
 BYTE   W24
 BYTE   W01
 BYTE   N07  As0  v127
 BYTE   W08
 BYTE   As0  v080
 BYTE   W08
 BYTE   As0  v084
 BYTE   W08
//  #04 //002   ----------------------------------------
 BYTE   W30
Label_0121471D:
 BYTE   VOL   32*song09_mvl/mxv
 BYTE   W66
//  #04 //003   ----------------------------------------
 BYTE   W96
//  #04 //004   ----------------------------------------
 BYTE   W96
//  #04 //005   ----------------------------------------
 BYTE   W96
//  #04 //006   ----------------------------------------
 BYTE   W96
//  #04 //007   ----------------------------------------
 BYTE   W96
//  #04 //008   ----------------------------------------
 BYTE   W96
//  #04 //009   ----------------------------------------
 BYTE   W84
 BYTE   VOICE   52
 BYTE   VOL   57*song09_mvl/mxv
 BYTE   N03  Bn3  v048
 BYTE   W04
 BYTE   Cs4  v040
 BYTE   W02
 BYTE   VOL   55*song09_mvl/mxv
 BYTE   W02
 BYTE   N03  Ds4  v052
 BYTE   W04
//  #04 //010   ----------------------------------------
 BYTE   VOL   53*song09_mvl/mxv
 BYTE   N44  En4  v048
 BYTE   W06
 BYTE   VOL   51*song09_mvl/mxv
 BYTE   W12
 BYTE   VOL   51*song09_mvl/mxv
 BYTE   W12
 BYTE   VOL   52*song09_mvl/mxv
 BYTE   W12
 BYTE   VOL   53*song09_mvl/mxv
 BYTE   W06
 BYTE   N44  Fs4  v036
 BYTE   W06
 BYTE   VOL   53*song09_mvl/mxv
 BYTE   W12
 BYTE   VOL   54*song09_mvl/mxv
 BYTE   W12
 BYTE   VOL   55*song09_mvl/mxv
 BYTE   W12
 BYTE   VOL   56*song09_mvl/mxv
 BYTE   W06
//  #04 //011   ----------------------------------------
 BYTE   N68  Gs4  v040
 BYTE   W06
 BYTE   VOL   57*song09_mvl/mxv
 BYTE   W12
 BYTE   VOL   57*song09_mvl/mxv
 BYTE   W12
 BYTE   VOL   57*song09_mvl/mxv
 BYTE   W12
 BYTE   VOL   56*song09_mvl/mxv
 BYTE   W06
 BYTE   VOL   54*song09_mvl/mxv
 BYTE   W06
 BYTE   VOL   53*song09_mvl/mxv
 BYTE   W06
 BYTE   VOL   51*song09_mvl/mxv
 BYTE   W06
 BYTE   VOL   47*song09_mvl/mxv
 BYTE   W06
 BYTE   VOL   37*song09_mvl/mxv
 BYTE   N15  Fs4  v044
 BYTE   W06
 BYTE   VOL   40*song09_mvl/mxv
 BYTE   W06
 BYTE   VOL   46*song09_mvl/mxv
 BYTE   W04
 BYTE   N07  En4  v040
 BYTE   W02
 BYTE   VOL   53*song09_mvl/mxv
 BYTE   W06
//  #04 //012   ----------------------------------------
 BYTE   VOL   57*song09_mvl/mxv
 BYTE   N44  Fs4
 BYTE   W06
 BYTE   VOL   56*song09_mvl/mxv
 BYTE   W06
 BYTE   VOL   54*song09_mvl/mxv
 BYTE   W06
 BYTE   VOL   53*song09_mvl/mxv
 BYTE   W06
 BYTE   VOL   51*song09_mvl/mxv
 BYTE   W06
 BYTE   VOL   50*song09_mvl/mxv
 BYTE   W06
 BYTE   VOL   49*song09_mvl/mxv
 BYTE   W06
 BYTE   VOL   47*song09_mvl/mxv
 BYTE   W06
 BYTE   VOL   45*song09_mvl/mxv
 BYTE   N44  Ds4  v024
 BYTE   W06
 BYTE   VOL   45*song09_mvl/mxv
 BYTE   W06
 BYTE   VOL   45*song09_mvl/mxv
 BYTE   W06
 BYTE   VOL   45*song09_mvl/mxv
 BYTE   W06
 BYTE   VOL   46*song09_mvl/mxv
 BYTE   W06
 BYTE   VOL   47*song09_mvl/mxv
 BYTE   W06
 BYTE   VOL   48*song09_mvl/mxv
 BYTE   W12
//  #04 //013   ----------------------------------------
 BYTE   N66  Bn3  v032
 BYTE   W30
 BYTE   VOL   47*song09_mvl/mxv
 BYTE   W12
 BYTE   VOL   46*song09_mvl/mxv
 BYTE   W18
 BYTE   VOL   45*song09_mvl/mxv
 BYTE   W12
 BYTE   VOL   45*song09_mvl/mxv
 BYTE   N15  An3  v040
 BYTE   W06
 BYTE   VOL   49*song09_mvl/mxv
 BYTE   W06
 BYTE   VOL   51*song09_mvl/mxv
 BYTE   W04
 BYTE   N07  Gs3  v044
 BYTE   W02
 BYTE   VOL   55*song09_mvl/mxv
 BYTE   W06
//  #04 //014   ----------------------------------------
 BYTE   VOL   57*song09_mvl/mxv
 BYTE   N15  An3
 BYTE   W06
 BYTE   VOL   53*song09_mvl/mxv
 BYTE   W06
 BYTE   VOL   51*song09_mvl/mxv
 BYTE   W04
 BYTE   N07  Bn3
 BYTE   W02
 BYTE   VOL   48*song09_mvl/mxv
 BYTE   W06
 BYTE   VOL   45*song09_mvl/mxv
 BYTE   N44  Cs4
 BYTE   W06
 BYTE   VOL   45*song09_mvl/mxv
 BYTE   W06
 BYTE   VOL   46*song09_mvl/mxv
 BYTE   W06
 BYTE   VOL   48*song09_mvl/mxv
 BYTE   W06
 BYTE   VOL   49*song09_mvl/mxv
 BYTE   W06
 BYTE   VOL   51*song09_mvl/mxv
 BYTE   W06
 BYTE   VOL   46*song09_mvl/mxv
 BYTE   W06
 BYTE   VOL   36*song09_mvl/mxv
 BYTE   W06
 BYTE   VOL   41*song09_mvl/mxv
 BYTE   N15  An3  v048
 BYTE   W16
 BYTE   N07  Bn3  v044
 BYTE   W08
//  #04 //015   ----------------------------------------
 BYTE   VOL   34*song09_mvl/mxv
 BYTE   N68  Cn4  v048
 BYTE   W06
 BYTE   VOL   34*song09_mvl/mxv
 BYTE   W06
 BYTE   VOL   36*song09_mvl/mxv
 BYTE   W06
 BYTE   VOL   37*song09_mvl/mxv
 BYTE   W06
 BYTE   VOL   38*song09_mvl/mxv
 BYTE   W06
 BYTE   VOL   40*song09_mvl/mxv
 BYTE   W06
 BYTE   VOL   40*song09_mvl/mxv
 BYTE   W06
 BYTE   VOL   42*song09_mvl/mxv
 BYTE   W06
 BYTE   VOL   44*song09_mvl/mxv
 BYTE   W06
 BYTE   VOL   45*song09_mvl/mxv
 BYTE   W06
 BYTE   VOL   47*song09_mvl/mxv
 BYTE   W06
 BYTE   VOL   49*song09_mvl/mxv
 BYTE   W06
 BYTE   VOL   50*song09_mvl/mxv
 BYTE   N23  Cn4  v044
 BYTE   W06
 BYTE   VOL   51*song09_mvl/mxv
 BYTE   W06
 BYTE   VOL   53*song09_mvl/mxv
 BYTE   W06
 BYTE   VOL   54*song09_mvl/mxv
 BYTE   W06
//  #04 //016   ----------------------------------------
 BYTE   VOL   56*song09_mvl/mxv
 BYTE   N15  Ds4
 BYTE   W06
 BYTE   VOL   57*song09_mvl/mxv
 BYTE   W06
 BYTE   VOL   55*song09_mvl/mxv
 BYTE   W04
 BYTE   N07  En4  v032
 BYTE   W02
 BYTE   VOL   53*song09_mvl/mxv
 BYTE   W06
 BYTE   VOL   51*song09_mvl/mxv
 BYTE   N44  Cs4  v044
 BYTE   W18
 BYTE   VOL   53*song09_mvl/mxv
 BYTE   W06
 BYTE   VOL   50*song09_mvl/mxv
 BYTE   W06
 BYTE   VOL   46*song09_mvl/mxv
 BYTE   W06
 BYTE   VOL   40*song09_mvl/mxv
 BYTE   W06
 BYTE   VOL   35*song09_mvl/mxv
 BYTE   W06
 BYTE   VOL   44*song09_mvl/mxv
 BYTE   N23
 BYTE   W06
 BYTE   VOL   47*song09_mvl/mxv
 BYTE   W06
 BYTE   VOL   51*song09_mvl/mxv
 BYTE   W06
 BYTE   VOL   53*song09_mvl/mxv
 BYTE   W06
//  #04 //017   ----------------------------------------
 BYTE   VOL   52*song09_mvl/mxv
 BYTE   N15  Ds4
 BYTE   W06
 BYTE   VOL   51*song09_mvl/mxv
 BYTE   W06
 BYTE   VOL   49*song09_mvl/mxv
 BYTE   W04
 BYTE   N07  En4
 BYTE   W02
 BYTE   VOL   48*song09_mvl/mxv
 BYTE   W06
 BYTE   VOL   46*song09_mvl/mxv
 BYTE   N44  Cs4
 BYTE   W06
 BYTE   VOL   45*song09_mvl/mxv
 BYTE   W06
 BYTE   VOL   44*song09_mvl/mxv
 BYTE   W06
 BYTE   VOL   43*song09_mvl/mxv
 BYTE   W12
 BYTE   VOL   44*song09_mvl/mxv
 BYTE   W12
 BYTE   VOL   45*song09_mvl/mxv
 BYTE   W06
 BYTE   VOL   45*song09_mvl/mxv
 BYTE   N21
 BYTE   W06
 BYTE   VOL   47*song09_mvl/mxv
 BYTE   W06
 BYTE   VOL   50*song09_mvl/mxv
 BYTE   W06
 BYTE   VOL   55*song09_mvl/mxv
 BYTE   W06
//  #04 //018   ----------------------------------------
 BYTE   VOL   45*song09_mvl/mxv
 BYTE   N68  Cs4  v032
 BYTE   W06
 BYTE   VOL   37*song09_mvl/mxv
 BYTE   W06
 BYTE   VOL   38*song09_mvl/mxv
 BYTE   W06
 BYTE   VOL   40*song09_mvl/mxv
 BYTE   W06
 BYTE   VOL   41*song09_mvl/mxv
 BYTE   W06
 BYTE   VOL   44*song09_mvl/mxv
 BYTE   W06
 BYTE   VOL   45*song09_mvl/mxv
 BYTE   W06
 BYTE   VOL   47*song09_mvl/mxv
 BYTE   W06
 BYTE   VOL   49*song09_mvl/mxv
 BYTE   W06
 BYTE   VOL   51*song09_mvl/mxv
 BYTE   W06
 BYTE   VOL   53*song09_mvl/mxv
 BYTE   W06
 BYTE   VOL   54*song09_mvl/mxv
 BYTE   W06
 BYTE   VOL   57*song09_mvl/mxv
 BYTE   N15  Ds4  v036
 BYTE   W12
 BYTE   VOL   55*song09_mvl/mxv
 BYTE   W04
 BYTE   N07  Cs4  v040
 BYTE   W02
 BYTE   VOL   53*song09_mvl/mxv
 BYTE   W06
//  #04 //019   ----------------------------------------
 BYTE   VOL   52*song09_mvl/mxv
 BYTE   N90  Cn4  v044
 BYTE   W06
 BYTE   VOL   51*song09_mvl/mxv
 BYTE   W06
 BYTE   VOL   49*song09_mvl/mxv
 BYTE   W06
 BYTE   VOL   49*song09_mvl/mxv
 BYTE   W06
 BYTE   VOL   47*song09_mvl/mxv
 BYTE   W06
 BYTE   VOL   46*song09_mvl/mxv
 BYTE   W06
 BYTE   VOL   45*song09_mvl/mxv
 BYTE   W06
 BYTE   VOL   45*song09_mvl/mxv
 BYTE   W06
 BYTE   VOL   44*song09_mvl/mxv
 BYTE   W12
 BYTE   VOL   43*song09_mvl/mxv
 BYTE   W06
 BYTE   VOL   42*song09_mvl/mxv
 BYTE   W06
 BYTE   VOL   40*song09_mvl/mxv
 BYTE   W06
 BYTE   VOL   40*song09_mvl/mxv
 BYTE   W06
 BYTE   VOL   37*song09_mvl/mxv
 BYTE   W06
 BYTE   VOL   34*song09_mvl/mxv
 BYTE   W06
//  #04 //020   ----------------------------------------
 BYTE   VOL   30*song09_mvl/mxv
 BYTE   W24
 BYTE   VOL   29*song09_mvl/mxv
 BYTE   W12
 BYTE   VOL   28*song09_mvl/mxv
 BYTE   W12
 BYTE   VOL   28*song09_mvl/mxv
 BYTE   W12
 BYTE   VOL   27*song09_mvl/mxv
 BYTE   W12
 BYTE   VOL   27*song09_mvl/mxv
 BYTE   W12
 BYTE   VOL   27*song09_mvl/mxv
 BYTE   W12
//  #04 //021   ----------------------------------------
 BYTE   VOL   26*song09_mvl/mxv
 BYTE   W12
 BYTE   VOL   25*song09_mvl/mxv
 BYTE   W12
 BYTE   VOL   24*song09_mvl/mxv
 BYTE   W12
 BYTE   VOL   23*song09_mvl/mxv
 BYTE   W12
 BYTE   VOL   23*song09_mvl/mxv
 BYTE   W12
 BYTE   VOL   23*song09_mvl/mxv
 BYTE   W12
 BYTE   VOL   22*song09_mvl/mxv
 BYTE   W12
 BYTE   VOL   22*song09_mvl/mxv
 BYTE   W12
//  #04 //022   ----------------------------------------
 BYTE   W06
 BYTE   VOL   21*song09_mvl/mxv
 BYTE   W12
 BYTE   VOL   20*song09_mvl/mxv
 BYTE   W12
 BYTE   VOL   20*song09_mvl/mxv
 BYTE   W12
 BYTE   VOL   20*song09_mvl/mxv
 BYTE   W12
 BYTE   VOL   19*song09_mvl/mxv
 BYTE   W12
 BYTE   VOL   19*song09_mvl/mxv
 BYTE   W12
 BYTE   VOL   18*song09_mvl/mxv
 BYTE   W12
 BYTE   VOL   18*song09_mvl/mxv
 BYTE   W06
//  #04 //023   ----------------------------------------
 BYTE   W06
 BYTE   VOL   18*song09_mvl/mxv
 BYTE   W12
 BYTE   VOL   17*song09_mvl/mxv
 BYTE   W12
 BYTE   VOL   17*song09_mvl/mxv
 BYTE   W12
 BYTE   VOL   16*song09_mvl/mxv
 BYTE   W12
 BYTE   VOL   15*song09_mvl/mxv
 BYTE   W12
 BYTE   VOL   22*song09_mvl/mxv
 BYTE   PAN   c_v-24
 BYTE   W02
 BYTE   VOICE   11
 BYTE   W04
 BYTE   VOL   21*song09_mvl/mxv
 BYTE   W12
 BYTE   VOL   20*song09_mvl/mxv
 BYTE   W12
//  #04 //024   ----------------------------------------
 BYTE   VOL   20*song09_mvl/mxv
 BYTE   N96  As3  v064
 BYTE   W12
 BYTE   VOL   19*song09_mvl/mxv
 BYTE   W12
 BYTE   VOL   18*song09_mvl/mxv
 BYTE   W18
 BYTE   VOL   19*song09_mvl/mxv
 BYTE   W06
 BYTE   VOL   19*song09_mvl/mxv
 BYTE   W06
 BYTE   VOL   20*song09_mvl/mxv
 BYTE   W12
 BYTE   VOL   20*song09_mvl/mxv
 BYTE   W06
 BYTE   VOL   21*song09_mvl/mxv
 BYTE   W12
 BYTE   VOL   22*song09_mvl/mxv
 BYTE   W06
 BYTE   VOL   22*song09_mvl/mxv
 BYTE   W06
//  #04 //025   ----------------------------------------
 BYTE   VOL   23*song09_mvl/mxv
 BYTE   W01
 BYTE   N92  Gs3  v056
 BYTE   W11
 BYTE   VOL   23*song09_mvl/mxv
 BYTE   W06
 BYTE   VOL   24*song09_mvl/mxv
 BYTE   W06
 BYTE   VOL   25*song09_mvl/mxv
 BYTE   W12
 BYTE   VOL   26*song09_mvl/mxv
 BYTE   W06
 BYTE   VOL   27*song09_mvl/mxv
 BYTE   W12
 BYTE   VOL   27*song09_mvl/mxv
 BYTE   W06
 BYTE   VOL   28*song09_mvl/mxv
 BYTE   W06
 BYTE   VOL   28*song09_mvl/mxv
 BYTE   W12
 BYTE   VOL   29*song09_mvl/mxv
 BYTE   W06
 BYTE   VOL   30*song09_mvl/mxv
 BYTE   W11
 BYTE   TIE  Fs3
 BYTE   W01
//  #04 //026   ----------------------------------------
 BYTE   VOL   30*song09_mvl/mxv
 BYTE   W06
 BYTE   VOL   31*song09_mvl/mxv
 BYTE   W06
 BYTE   VOL   32*song09_mvl/mxv
 BYTE   W12
 BYTE   VOL   33*song09_mvl/mxv
 BYTE   W06
 BYTE   VOL   34*song09_mvl/mxv
 BYTE   W06
 BYTE   VOL   34*song09_mvl/mxv
 BYTE   W12
 BYTE   VOL   35*song09_mvl/mxv
 BYTE   W06
 BYTE   VOL   36*song09_mvl/mxv
 BYTE   W12
 BYTE   VOL   37*song09_mvl/mxv
 BYTE   W06
 BYTE   VOL   37*song09_mvl/mxv
 BYTE   W06
 BYTE   VOL   39*song09_mvl/mxv
 BYTE   W18
//  #04 //027   ----------------------------------------
 BYTE   W12
 BYTE   VOL   38*song09_mvl/mxv
 BYTE   W12
 BYTE   VOL   37*song09_mvl/mxv
 BYTE   W12
 BYTE   VOL   37*song09_mvl/mxv
 BYTE   W12
 BYTE   VOL   36*song09_mvl/mxv
 BYTE   W18
 BYTE   VOL   35*song09_mvl/mxv
 BYTE   W12
 BYTE   VOL   34*song09_mvl/mxv
 BYTE   W12
 BYTE   VOL   34*song09_mvl/mxv
 BYTE   W04
 BYTE   EOT
 BYTE   TIE  Fn3  v060
 BYTE   W02
//  #04 //028   ----------------------------------------
 BYTE   W06
 BYTE   VOL   33*song09_mvl/mxv
 BYTE   W12
 BYTE   VOL   32*song09_mvl/mxv
 BYTE   W18
 BYTE   VOL   31*song09_mvl/mxv
 BYTE   W12
 BYTE   VOL   30*song09_mvl/mxv
 BYTE   W12
 BYTE   VOL   30*song09_mvl/mxv
 BYTE   W12
 BYTE   VOL   29*song09_mvl/mxv
 BYTE   W18
 BYTE   VOL   28*song09_mvl/mxv
 BYTE   W06
//  #04 //029   ----------------------------------------
 BYTE   W06
 BYTE   VOL   28*song09_mvl/mxv
 BYTE   W12
 BYTE   VOL   27*song09_mvl/mxv
 BYTE   W12
 BYTE   VOL   27*song09_mvl/mxv
 BYTE   W18
 BYTE   VOL   26*song09_mvl/mxv
 BYTE   W12
 BYTE   VOL   25*song09_mvl/mxv
 BYTE   W12
 BYTE   VOL   24*song09_mvl/mxv
 BYTE   W12
 BYTE   VOL   23*song09_mvl/mxv
 BYTE   W10
 BYTE   EOT
 BYTE   W01
 BYTE   TIE  As3  v056
 BYTE   W01
//  #04 //030   ----------------------------------------
 BYTE   W06
 BYTE   VOL   22*song09_mvl/mxv
 BYTE   W18
 BYTE   VOL   23*song09_mvl/mxv
 BYTE   W12
 BYTE   VOL   23*song09_mvl/mxv
 BYTE   W12
 BYTE   VOL   24*song09_mvl/mxv
 BYTE   W12
 BYTE   VOL   25*song09_mvl/mxv
 BYTE   W12
 BYTE   VOL   26*song09_mvl/mxv
 BYTE   W12
 BYTE   VOL   27*song09_mvl/mxv
 BYTE   W12
//  #04 //031   ----------------------------------------
 BYTE   VOL   27*song09_mvl/mxv
 BYTE   W12
 BYTE   VOL   28*song09_mvl/mxv
 BYTE   W06
 BYTE   VOL   28*song09_mvl/mxv
 BYTE   W12
 BYTE   VOL   29*song09_mvl/mxv
 BYTE   W12
 BYTE   VOL   30*song09_mvl/mxv
 BYTE   W12
 BYTE   VOL   30*song09_mvl/mxv
 BYTE   W12
 BYTE   VOL   31*song09_mvl/mxv
 BYTE   W12
 BYTE   VOL   32*song09_mvl/mxv
 BYTE   W06
 BYTE   VOL   33*song09_mvl/mxv
 BYTE   W12
//  #04 //032   ----------------------------------------
 BYTE   VOL   34*song09_mvl/mxv
 BYTE   W18
 BYTE   VOL   35*song09_mvl/mxv
 BYTE   W24
 BYTE   VOL   36*song09_mvl/mxv
 BYTE   W18
 BYTE   VOL   37*song09_mvl/mxv
 BYTE   W24
 BYTE   VOL   37*song09_mvl/mxv
 BYTE   W11
 BYTE   EOT
 BYTE   N92  Bn3  v060
 BYTE   W01
//  #04 //033   ----------------------------------------
 BYTE   W06
 BYTE   VOL   38*song09_mvl/mxv
 BYTE   W24
 BYTE   VOL   39*song09_mvl/mxv
 BYTE   W18
 BYTE   VOL   40*song09_mvl/mxv
 BYTE   W24
 BYTE   VOL   40*song09_mvl/mxv
 BYTE   W18
 BYTE   VOL   41*song09_mvl/mxv
 BYTE   W05
 BYTE   TIE  As3  v040
 BYTE   W01
//  #04 //034   ----------------------------------------
 BYTE   W06
 BYTE   VOL   40*song09_mvl/mxv
 BYTE   W06
 BYTE   VOL   40*song09_mvl/mxv
 BYTE   W06
 BYTE   VOL   39*song09_mvl/mxv
 BYTE   W06
 BYTE   VOL   38*song09_mvl/mxv
 BYTE   W06
 BYTE   VOL   37*song09_mvl/mxv
 BYTE   W06
 BYTE   VOL   37*song09_mvl/mxv
 BYTE   W06
 BYTE   VOL   36*song09_mvl/mxv
 BYTE   W06
 BYTE   VOL   35*song09_mvl/mxv
 BYTE   W06
 BYTE   VOL   34*song09_mvl/mxv
 BYTE   W06
 BYTE   VOL   34*song09_mvl/mxv
 BYTE   W06
 BYTE   VOL   33*song09_mvl/mxv
 BYTE   W06
 BYTE   VOL   32*song09_mvl/mxv
 BYTE   W06
 BYTE   VOL   31*song09_mvl/mxv
 BYTE   W06
 BYTE   VOL   30*song09_mvl/mxv
 BYTE   W06
 BYTE   VOL   30*song09_mvl/mxv
 BYTE   W06
//  #04 //035   ----------------------------------------
 BYTE   VOL   29*song09_mvl/mxv
 BYTE   W06
 BYTE   VOL   28*song09_mvl/mxv
 BYTE   W06
 BYTE   VOL   28*song09_mvl/mxv
 BYTE   W06
 BYTE   VOL   27*song09_mvl/mxv
 BYTE   W06
 BYTE   VOL   27*song09_mvl/mxv
 BYTE   W06
 BYTE   VOL   26*song09_mvl/mxv
 BYTE   W06
 BYTE   VOL   25*song09_mvl/mxv
 BYTE   W06
 BYTE   VOL   24*song09_mvl/mxv
 BYTE   W06
 BYTE   VOL   23*song09_mvl/mxv
 BYTE   W06
 BYTE   VOL   23*song09_mvl/mxv
 BYTE   W06
 BYTE   VOL   22*song09_mvl/mxv
 BYTE   W06
 BYTE   VOL   22*song09_mvl/mxv
 BYTE   W06
 BYTE   VOL   21*song09_mvl/mxv
 BYTE   W06
 BYTE   VOL   20*song09_mvl/mxv
 BYTE   W06
 BYTE   VOL   20*song09_mvl/mxv
 BYTE   W06
 BYTE   VOL   19*song09_mvl/mxv
 BYTE   W06
//  #04 //036   ----------------------------------------
 BYTE   VOL   19*song09_mvl/mxv
 BYTE   W01
 BYTE   EOT
 BYTE   W01
 BYTE   TIE  Ds3  v056
 BYTE   W04
 BYTE   VOL   18*song09_mvl/mxv
 BYTE   W06
 BYTE   VOL   18*song09_mvl/mxv
 BYTE   W06
 BYTE   VOL   17*song09_mvl/mxv
 BYTE   W06
 BYTE   VOL   17*song09_mvl/mxv
 BYTE   W06
 BYTE   VOL   16*song09_mvl/mxv
 BYTE   W06
 BYTE   VOL   15*song09_mvl/mxv
 BYTE   W06
 BYTE   VOL   15*song09_mvl/mxv
 BYTE   W06
 BYTE   VOL   14*song09_mvl/mxv
 BYTE   W06
 BYTE   VOL   13*song09_mvl/mxv
 BYTE   W06
 BYTE   VOL   12*song09_mvl/mxv
 BYTE   W12
 BYTE   VOL   13*song09_mvl/mxv
 BYTE   W06
 BYTE   VOL   13*song09_mvl/mxv
 BYTE   W06
 BYTE   VOL   14*song09_mvl/mxv
 BYTE   W06
 BYTE   VOL   14*song09_mvl/mxv
 BYTE   W06
//  #04 //037   ----------------------------------------
 BYTE   VOL   15*song09_mvl/mxv
 BYTE   W06
 BYTE   VOL   16*song09_mvl/mxv
 BYTE   W06
 BYTE   VOL   17*song09_mvl/mxv
 BYTE   W06
 BYTE   VOL   17*song09_mvl/mxv
 BYTE   W06
 BYTE   VOL   18*song09_mvl/mxv
 BYTE   W06
 BYTE   VOL   18*song09_mvl/mxv
 BYTE   W06
 BYTE   VOL   19*song09_mvl/mxv
 BYTE   W06
 BYTE   VOL   19*song09_mvl/mxv
 BYTE   W06
 BYTE   VOL   20*song09_mvl/mxv
 BYTE   W06
 BYTE   VOL   21*song09_mvl/mxv
 BYTE   W06
 BYTE   VOL   22*song09_mvl/mxv
 BYTE   W06
 BYTE   VOL   22*song09_mvl/mxv
 BYTE   W06
 BYTE   VOL   23*song09_mvl/mxv
 BYTE   W06
 BYTE   VOL   23*song09_mvl/mxv
 BYTE   W06
 BYTE   VOL   24*song09_mvl/mxv
 BYTE   W06
 BYTE   VOL   26*song09_mvl/mxv
 BYTE   W06
//  #04 //038   ----------------------------------------
 BYTE   VOL   27*song09_mvl/mxv
 BYTE   W24
 BYTE   VOL   27*song09_mvl/mxv
 BYTE   W18
 BYTE   VOL   26*song09_mvl/mxv
 BYTE   W12
 BYTE   VOL   25*song09_mvl/mxv
 BYTE   W12
 BYTE   VOL   24*song09_mvl/mxv
 BYTE   W12
 BYTE   VOL   23*song09_mvl/mxv
 BYTE   W12
 BYTE   VOL   23*song09_mvl/mxv
 BYTE   W06
//  #04 //039   ----------------------------------------
 BYTE   VOL   22*song09_mvl/mxv
 BYTE   W06
 BYTE   VOL   22*song09_mvl/mxv
 BYTE   W06
 BYTE   VOL   21*song09_mvl/mxv
 BYTE   W06
 BYTE   VOL   20*song09_mvl/mxv
 BYTE   W06
 BYTE   VOL   20*song09_mvl/mxv
 BYTE   W06
 BYTE   VOL   19*song09_mvl/mxv
 BYTE   W06
 BYTE   VOL   19*song09_mvl/mxv
 BYTE   W06
 BYTE   VOL   18*song09_mvl/mxv
 BYTE   W06
 BYTE   VOL   17*song09_mvl/mxv
 BYTE   W06
 BYTE   VOL   16*song09_mvl/mxv
 BYTE   W06
 BYTE   VOL   14*song09_mvl/mxv
 BYTE   W06
 BYTE   VOL   14*song09_mvl/mxv
 BYTE   W06
 BYTE   VOL   13*song09_mvl/mxv
 BYTE   W06
 BYTE   VOL   10*song09_mvl/mxv
 BYTE   W06
 BYTE   VOL   9*song09_mvl/mxv
 BYTE   W06
 BYTE   VOL   6*song09_mvl/mxv
 BYTE   W02
 BYTE   VOICE   11
 BYTE   W03
 BYTE   EOT
 BYTE   W01
//  #04 //040   ----------------------------------------
 BYTE   VOL   5*song09_mvl/mxv
 BYTE   TIE  As2  v112
 BYTE   W06
 BYTE   VOL   6*song09_mvl/mxv
 BYTE   W06
 BYTE   VOL   8*song09_mvl/mxv
 BYTE   W06
 BYTE   VOL   10*song09_mvl/mxv
 BYTE   W06
 BYTE   VOL   11*song09_mvl/mxv
 BYTE   W12
 BYTE   VOL   11*song09_mvl/mxv
 BYTE   W06
 BYTE   VOL   11*song09_mvl/mxv
 BYTE   W12
 BYTE   VOL   12*song09_mvl/mxv
 BYTE   W06
 BYTE   VOL   13*song09_mvl/mxv
 BYTE   W06
 BYTE   VOL   13*song09_mvl/mxv
 BYTE   W12
 BYTE   VOL   14*song09_mvl/mxv
 BYTE   W06
 BYTE   VOL   14*song09_mvl/mxv
 BYTE   W06
 BYTE   VOL   15*song09_mvl/mxv
 BYTE   W06
//  #04 //041   ----------------------------------------
 BYTE   W06
 BYTE   VOL   16*song09_mvl/mxv
 BYTE   W12
 BYTE   VOL   17*song09_mvl/mxv
 BYTE   W06
 BYTE   VOL   17*song09_mvl/mxv
 BYTE   W06
 BYTE   VOL   18*song09_mvl/mxv
 BYTE   W12
 BYTE   VOL   19*song09_mvl/mxv
 BYTE   W12
 BYTE   VOL   20*song09_mvl/mxv
 BYTE   W06
 BYTE   VOL   21*song09_mvl/mxv
 BYTE   W06
 BYTE   VOL   22*song09_mvl/mxv
 BYTE   W06
 BYTE   VOL   22*song09_mvl/mxv
 BYTE   W06
 BYTE   VOL   23*song09_mvl/mxv
 BYTE   W06
 BYTE   VOL   24*song09_mvl/mxv
 BYTE   W06
 BYTE   VOL   26*song09_mvl/mxv
 BYTE   W06
//  #04 //042   ----------------------------------------
 BYTE   VOL   27*song09_mvl/mxv
 BYTE   W06
 BYTE   VOL   28*song09_mvl/mxv
 BYTE   W06
 BYTE   VOL   28*song09_mvl/mxv
 BYTE   W06
 BYTE   VOL   30*song09_mvl/mxv
 BYTE   W06
 BYTE   VOL   31*song09_mvl/mxv
 BYTE   W06
 BYTE   VOL   33*song09_mvl/mxv
 BYTE   W06
 BYTE   VOL   34*song09_mvl/mxv
 BYTE   W06
 BYTE   VOL   37*song09_mvl/mxv
 BYTE   W06
 BYTE   VOL   37*song09_mvl/mxv
 BYTE   W06
 BYTE   VOL   40*song09_mvl/mxv
 BYTE   W06
 BYTE   VOL   41*song09_mvl/mxv
 BYTE   W06
 BYTE   VOL   44*song09_mvl/mxv
 BYTE   W06
 BYTE   VOL   45*song09_mvl/mxv
 BYTE   W06
 BYTE   VOL   49*song09_mvl/mxv
 BYTE   W06
 BYTE   VOL   51*song09_mvl/mxv
 BYTE   W06
 BYTE   VOL   54*song09_mvl/mxv
 BYTE   W04
 BYTE   EOT
 BYTE   W01
 BYTE   TIE  Cn3  v104
 BYTE   W01
//  #04 //043   ----------------------------------------
 BYTE   VOL   56*song09_mvl/mxv
 BYTE   W06
 BYTE   VOL   57*song09_mvl/mxv
 BYTE   W06
 BYTE   VOL   51*song09_mvl/mxv
 BYTE   W06
 BYTE   VOL   46*song09_mvl/mxv
 BYTE   W06
 BYTE   VOL   42*song09_mvl/mxv
 BYTE   W12
 BYTE   VOL   43*song09_mvl/mxv
 BYTE   W06
 BYTE   VOL   44*song09_mvl/mxv
 BYTE   W06
 BYTE   VOL   45*song09_mvl/mxv
 BYTE   W06
 BYTE   VOL   46*song09_mvl/mxv
 BYTE   W06
 BYTE   VOL   47*song09_mvl/mxv
 BYTE   W06
 BYTE   VOL   48*song09_mvl/mxv
 BYTE   W06
 BYTE   VOL   50*song09_mvl/mxv
 BYTE   W06
 BYTE   VOL   51*song09_mvl/mxv
 BYTE   W06
 BYTE   VOL   52*song09_mvl/mxv
 BYTE   W06
 BYTE   VOL   54*song09_mvl/mxv
 BYTE   W06
//  #04 //044   ----------------------------------------
 BYTE   VOL   56*song09_mvl/mxv
 BYTE   W06
 BYTE   VOL   57*song09_mvl/mxv
 BYTE   W06
 BYTE   VOL   59*song09_mvl/mxv
 BYTE   W06
 BYTE   VOL   62*song09_mvl/mxv
 BYTE   W06
 BYTE   VOL   64*song09_mvl/mxv
 BYTE   W06
 BYTE   VOL   68*song09_mvl/mxv
 BYTE   W06
 BYTE   VOL   69*song09_mvl/mxv
 BYTE   W06
 BYTE   VOL   73*song09_mvl/mxv
 BYTE   W06
 BYTE   VOL   76*song09_mvl/mxv
 BYTE   W02
 BYTE   EOT
 BYTE   W04
 BYTE   VOL   80*song09_mvl/mxv
 BYTE   W12
 BYTE   VOL   49*song09_mvl/mxv
 BYTE   PAN   c_v+10
 BYTE   W04
 BYTE   VOICE   11
 BYTE   W02
 BYTE   VOL   22*song09_mvl/mxv
 BYTE   N23  As0  v112
 BYTE   W06
 BYTE   VOL   22*song09_mvl/mxv
 BYTE   W06
 BYTE   VOL   23*song09_mvl/mxv
 BYTE   W06
 BYTE   VOL   23*song09_mvl/mxv
 BYTE   W06
//  #04 //045   ----------------------------------------
 BYTE   VOL   25*song09_mvl/mxv
 BYTE   N23  As0  v120
 BYTE   W06
 BYTE   VOL   26*song09_mvl/mxv
 BYTE   W06
 BYTE   VOL   27*song09_mvl/mxv
 BYTE   W06
 BYTE   VOL   28*song09_mvl/mxv
 BYTE   W06
 BYTE   VOL   28*song09_mvl/mxv
 BYTE   N08  As0  v112
 BYTE   W06
 BYTE   VOL   29*song09_mvl/mxv
 BYTE   W02
 BYTE   N07  As0  v100
 BYTE   W04
 BYTE   VOL   30*song09_mvl/mxv
 BYTE   W04
 BYTE   N07  As0  v084
 BYTE   W02
 BYTE   VOL   30*song09_mvl/mxv
 BYTE   W06
 BYTE   VOL   32*song09_mvl/mxv
 BYTE   N11  As0  v100
 BYTE   W06
 BYTE   VOL   33*song09_mvl/mxv
 BYTE   W06
 BYTE   VOL   34*song09_mvl/mxv
 BYTE   N11
 BYTE   W06
 BYTE   VOL   34*song09_mvl/mxv
 BYTE   W06
 BYTE   VOL   36*song09_mvl/mxv
 BYTE   N21  As0  v112
 BYTE   W06
 BYTE   VOL   37*song09_mvl/mxv
 BYTE   W06
 BYTE   VOL   37*song09_mvl/mxv
 BYTE   W06
 BYTE   VOL   38*song09_mvl/mxv
 BYTE   W05
 BYTE   N23
 BYTE   W01
//  #04 //046   ----------------------------------------
 BYTE   VOL   39*song09_mvl/mxv
 BYTE   W06
 BYTE   VOL   40*song09_mvl/mxv
 BYTE   W06
 BYTE   VOL   41*song09_mvl/mxv
 BYTE   W06
 BYTE   VOL   42*song09_mvl/mxv
 BYTE   W06
 BYTE   VOL   44*song09_mvl/mxv
 BYTE   N07  As0  v127
 BYTE   W06
 BYTE   VOL   44*song09_mvl/mxv
 BYTE   W02
 BYTE   N07  As0  v080
 BYTE   W04
 BYTE   VOL   45*song09_mvl/mxv
 BYTE   W04
 BYTE   N07  As0  v084
 BYTE   W02
 BYTE   VOL   46*song09_mvl/mxv
 BYTE   W06
 BYTE   VOL   47*song09_mvl/mxv
 BYTE   N23  As0  v108
 BYTE   W06
 BYTE   VOL   49*song09_mvl/mxv
 BYTE   W18
 BYTE   N23  As0  v112
 BYTE   W24
//  #04 //047   ----------------------------------------
 BYTE   As0  v120
 BYTE   W24
 BYTE   N08  As0  v112
 BYTE   W08
 BYTE   N07  As0  v100
 BYTE   W08
 BYTE   As0  v084
 BYTE   W08
 BYTE   N11  As0  v100
 BYTE   W12
 BYTE   N11
 BYTE   W12
 BYTE   N21  As0  v112
 BYTE   W23
 BYTE   N23
 BYTE   W01
//  #04 //048   ----------------------------------------
 BYTE   W24
 BYTE   N07  As0  v127
 BYTE   W08
 BYTE   As0  v080
 BYTE   W08
 BYTE   N03  As0  v084
 BYTE   W32
 BYTE   GoTo
  POIN2 Label_0121471D
//  #04 //049   ----------------------------------------
 BYTE   W24
 BYTE   W44
 BYTE   FINE

//**************** Track 5 (Midi-Chn.4) ****************//

song09_005:
//  #05 //000   ----------------------------------------
 BYTE   KEYSH   song09_key+0
 BYTE   VOICE   40
 BYTE   MODT 0
 BYTE   LFOS 44
 BYTE   MOD 0
 BYTE   VOL   80*song09_mvl/mxv
 BYTE   PAN   c_v-4
 BYTE   VOL   80*song09_mvl/mxv
 BYTE   W96
//  #05 //001   ----------------------------------------
 BYTE   W96
//  #05 //002   ----------------------------------------
 BYTE   VOL   75*song09_mvl/mxv
 BYTE   N36  As2  v120
 BYTE   W06
 BYTE   VOL   53*song09_mvl/mxv
 BYTE   W24
Label_012113B6:
 BYTE   PAN   c_v-4
 BYTE   W17
 BYTE   N40  Cn3  v124
 BYTE   W48
 BYTE   Cs3  v108
 BYTE   W01
//  #05 //003   ----------------------------------------
 BYTE   W48
 BYTE   N20  Ds3
 BYTE   W23
 BYTE   N06  Cs3  v127
 BYTE   W19
 BYTE   N04  Cn3  v112
 BYTE   W06
//  #05 //004   ----------------------------------------
 BYTE   N40  As2  v108
 BYTE   W44
 BYTE   W03
 BYTE   N21  Gs2  v116
 BYTE   W24
 BYTE   N06  Fn2  v120
 BYTE   W18
 BYTE   N04  Cn3
 BYTE   W06
 BYTE   N60  As2  v108
 BYTE   W01
//  #05 //005   ----------------------------------------
 BYTE   W72
 BYTE   N21  Cn3  v127
 BYTE   W24
//  #05 //006   ----------------------------------------
 BYTE   N40  Cs3  v112
 BYTE   W48
 BYTE   Ds3
 BYTE   W48
//  #05 //007   ----------------------------------------
 BYTE   En3  v100
 BYTE   W48
 BYTE   N22  Fs3
 BYTE   W24
 BYTE   N06  En3  v112
 BYTE   W17
 BYTE   N03  Ds3  v108
 BYTE   W07
//  #05 //008   ----------------------------------------
 BYTE   N40  Cs3  v112
 BYTE   W44
 BYTE   W03
 BYTE   N22  Bn2  v108
 BYTE   W24
 BYTE   W01
 BYTE   N07  Gs2  v120
 BYTE   W17
 BYTE   N04  Ds3  v112
 BYTE   W06
 BYTE   N72  Cs3
 BYTE   W01
//  #05 //009   ----------------------------------------
 BYTE   W96
//  #05 //010   ----------------------------------------
 BYTE   VOL   61*song09_mvl/mxv
 BYTE   W04
 BYTE   TIE  Cs3  v044
 BYTE   W14
 BYTE   VOL   62*song09_mvl/mxv
 BYTE   W12
 BYTE   VOL   63*song09_mvl/mxv
 BYTE   W06
 BYTE   VOL   64*song09_mvl/mxv
 BYTE   W06
 BYTE   VOL   66*song09_mvl/mxv
 BYTE   W12
 BYTE   VOL   66*song09_mvl/mxv
 BYTE   W12
 BYTE   VOL   68*song09_mvl/mxv
 BYTE   W06
 BYTE   VOL   68*song09_mvl/mxv
 BYTE   W06
 BYTE   VOL   69*song09_mvl/mxv
 BYTE   W12
 BYTE   VOL   70*song09_mvl/mxv
 BYTE   W06
//  #05 //011   ----------------------------------------
 BYTE   W06
 BYTE   VOL   71*song09_mvl/mxv
 BYTE   W06
 BYTE   VOL   73*song09_mvl/mxv
 BYTE   W06
 BYTE   VOL   73*song09_mvl/mxv
 BYTE   W12
 BYTE   VOL   74*song09_mvl/mxv
 BYTE   W12
 BYTE   VOL   75*song09_mvl/mxv
 BYTE   W02
 BYTE   EOT
 BYTE   W04
 BYTE   VOL   76*song09_mvl/mxv
 BYTE   W04
 BYTE   N44  Cn3  v064
 BYTE   W02
 BYTE   VOL   78*song09_mvl/mxv
 BYTE   W12
 BYTE   VOL   80*song09_mvl/mxv
 BYTE   W30
//  #05 //012   ----------------------------------------
 BYTE   W04
 BYTE   TIE  Bn2  v052
 BYTE   W24
 BYTE   W02
 BYTE   VOL   78*song09_mvl/mxv
 BYTE   W24
 BYTE   VOL   78*song09_mvl/mxv
 BYTE   W24
 BYTE   VOL   76*song09_mvl/mxv
 BYTE   W18
//  #05 //013   ----------------------------------------
 BYTE   W06
 BYTE   VOL   75*song09_mvl/mxv
 BYTE   W12
 BYTE   VOL   74*song09_mvl/mxv
 BYTE   W12
 BYTE   VOL   73*song09_mvl/mxv
 BYTE   W06
 BYTE   VOL   73*song09_mvl/mxv
 BYTE   W06
 BYTE   VOL   71*song09_mvl/mxv
 BYTE   W06
 BYTE   VOL   70*song09_mvl/mxv
 BYTE   W06
 BYTE   VOL   69*song09_mvl/mxv
 BYTE   W06
 BYTE   VOL   68*song09_mvl/mxv
 BYTE   W06
 BYTE   VOL   66*song09_mvl/mxv
 BYTE   W06
 BYTE   VOL   62*song09_mvl/mxv
 BYTE   W06
 BYTE   VOL   59*song09_mvl/mxv
 BYTE   W06
 BYTE   EOT
 BYTE   VOL   54*song09_mvl/mxv
 BYTE   W06
 BYTE   VOL   50*song09_mvl/mxv
 BYTE   W06
//  #05 //014   ----------------------------------------
 BYTE   VOL   56*song09_mvl/mxv
 BYTE   W04
 BYTE   TIE  An2  v056
 BYTE   W02
 BYTE   VOL   59*song09_mvl/mxv
 BYTE   W24
 BYTE   VOL   59*song09_mvl/mxv
 BYTE   W18
 BYTE   VOL   61*song09_mvl/mxv
 BYTE   W12
 BYTE   VOL   61*song09_mvl/mxv
 BYTE   W18
 BYTE   VOL   62*song09_mvl/mxv
 BYTE   W12
 BYTE   VOL   63*song09_mvl/mxv
 BYTE   W06
//  #05 //015   ----------------------------------------
 BYTE   W06
 BYTE   VOL   64*song09_mvl/mxv
 BYTE   W12
 BYTE   VOL   66*song09_mvl/mxv
 BYTE   W02
 BYTE   EOT
 BYTE   W08
 BYTE   TIE  Gs2  v060
 BYTE   W08
 BYTE   VOL   66*song09_mvl/mxv
 BYTE   W18
 BYTE   VOL   68*song09_mvl/mxv
 BYTE   W12
 BYTE   VOL   68*song09_mvl/mxv
 BYTE   W12
 BYTE   VOL   69*song09_mvl/mxv
 BYTE   W12
 BYTE   VOL   70*song09_mvl/mxv
 BYTE   W06
//  #05 //016   ----------------------------------------
 BYTE   W12
 BYTE   VOL   71*song09_mvl/mxv
 BYTE   W12
 BYTE   VOL   73*song09_mvl/mxv
 BYTE   W18
 BYTE   VOL   73*song09_mvl/mxv
 BYTE   W03
 BYTE   EOT
 BYTE   W07
 BYTE   N44  An2
 BYTE   W02
 BYTE   VOL   74*song09_mvl/mxv
 BYTE   W12
 BYTE   VOL   76*song09_mvl/mxv
 BYTE   W30
//  #05 //017   ----------------------------------------
 BYTE   W04
 BYTE   N80  Gs2
 BYTE   W14
 BYTE   VOL   75*song09_mvl/mxv
 BYTE   W18
 BYTE   VOL   74*song09_mvl/mxv
 BYTE   W18
 BYTE   VOL   73*song09_mvl/mxv
 BYTE   W24
 BYTE   VOL   73*song09_mvl/mxv
 BYTE   W18
//  #05 //018   ----------------------------------------
 BYTE   VOL   71*song09_mvl/mxv
 BYTE   W04
 BYTE   TIE  Gs2  v056
 BYTE   W14
 BYTE   VOL   70*song09_mvl/mxv
 BYTE   W24
 BYTE   VOL   69*song09_mvl/mxv
 BYTE   W24
 BYTE   VOL   68*song09_mvl/mxv
 BYTE   W18
 BYTE   VOL   66*song09_mvl/mxv
 BYTE   W12
//  #05 //019   ----------------------------------------
 BYTE   W06
 BYTE   VOL   66*song09_mvl/mxv
 BYTE   W12
 BYTE   VOL   64*song09_mvl/mxv
 BYTE   W06
 BYTE   VOL   63*song09_mvl/mxv
 BYTE   W06
 BYTE   VOL   62*song09_mvl/mxv
 BYTE   W12
 BYTE   VOL   61*song09_mvl/mxv
 BYTE   W06
 BYTE   VOL   59*song09_mvl/mxv
 BYTE   W06
 BYTE   VOL   57*song09_mvl/mxv
 BYTE   W06
 BYTE   VOL   56*song09_mvl/mxv
 BYTE   W06
 BYTE   VOL   54*song09_mvl/mxv
 BYTE   W06
 BYTE   VOL   51*song09_mvl/mxv
 BYTE   W06
 BYTE   VOL   45*song09_mvl/mxv
 BYTE   W06
 BYTE   VOL   39*song09_mvl/mxv
 BYTE   W06
 BYTE   VOL   23*song09_mvl/mxv
 BYTE   W02
 BYTE   EOT
 BYTE   W04
//  #05 //020   ----------------------------------------
 BYTE   VOL   53*song09_mvl/mxv
 BYTE   N36  As2  v120
 BYTE   W44
 BYTE   W03
 BYTE   N40  Cn3  v124
 BYTE   W48
 BYTE   Cs3  v108
 BYTE   W01
//  #05 //021   ----------------------------------------
 BYTE   W48
 BYTE   N20  Ds3
 BYTE   W23
 BYTE   N06  Cs3  v127
 BYTE   W19
 BYTE   N04  Cn3  v104
 BYTE   W06
//  #05 //022   ----------------------------------------
 BYTE   N40  As2  v108
 BYTE   W44
 BYTE   W03
 BYTE   N21  Gs2  v116
 BYTE   W24
 BYTE   N09  Fn2  v120
 BYTE   W18
 BYTE   N04  Cn3  v116
 BYTE   W06
 BYTE   N60  As2  v108
 BYTE   W01
//  #05 //023   ----------------------------------------
 BYTE   W96
//  #05 //024   ----------------------------------------
 BYTE   W48
 BYTE   VOL   57*song09_mvl/mxv
 BYTE   W01
 BYTE   N21  As1  v076
 BYTE   W05
 BYTE   VOL   53*song09_mvl/mxv
 BYTE   W06
 BYTE   VOL   61*song09_mvl/mxv
 BYTE   W06
 BYTE   VOL   73*song09_mvl/mxv
 BYTE   W06
 BYTE   VOL   80*song09_mvl/mxv
 BYTE   W01
 BYTE   N19  Ds2  v092
 BYTE   W21
 BYTE   N68  Fn2  v084
 BYTE   W02
//  #05 //025   ----------------------------------------
 BYTE   VOL   74*song09_mvl/mxv
 BYTE   W06
 BYTE   VOL   61*song09_mvl/mxv
 BYTE   W06
 BYTE   VOL   52*song09_mvl/mxv
 BYTE   W06
 BYTE   VOL   54*song09_mvl/mxv
 BYTE   W06
 BYTE   VOL   55*song09_mvl/mxv
 BYTE   W06
 BYTE   VOL   59*song09_mvl/mxv
 BYTE   W06
 BYTE   VOL   59*song09_mvl/mxv
 BYTE   W06
 BYTE   VOL   63*song09_mvl/mxv
 BYTE   W06
 BYTE   VOL   66*song09_mvl/mxv
 BYTE   W06
 BYTE   VOL   68*song09_mvl/mxv
 BYTE   W06
 BYTE   VOL   70*song09_mvl/mxv
 BYTE   W06
 BYTE   VOL   74*song09_mvl/mxv
 BYTE   W05
 BYTE   N21  Gs2  v080
 BYTE   W01
 BYTE   VOL   75*song09_mvl/mxv
 BYTE   W06
 BYTE   VOL   80*song09_mvl/mxv
 BYTE   W06
 BYTE   VOL   75*song09_mvl/mxv
 BYTE   W06
 BYTE   VOL   70*song09_mvl/mxv
 BYTE   W05
 BYTE   N68  Fs2  v092
 BYTE   W01
//  #05 //026   ----------------------------------------
 BYTE   VOL   66*song09_mvl/mxv
 BYTE   W06
 BYTE   VOL   61*song09_mvl/mxv
 BYTE   W12
 BYTE   VOL   62*song09_mvl/mxv
 BYTE   W06
 BYTE   VOL   63*song09_mvl/mxv
 BYTE   W06
 BYTE   VOL   66*song09_mvl/mxv
 BYTE   W06
 BYTE   VOL   66*song09_mvl/mxv
 BYTE   W06
 BYTE   VOL   68*song09_mvl/mxv
 BYTE   W06
 BYTE   VOL   69*song09_mvl/mxv
 BYTE   W06
 BYTE   VOL   71*song09_mvl/mxv
 BYTE   W06
 BYTE   VOL   73*song09_mvl/mxv
 BYTE   W06
 BYTE   VOL   75*song09_mvl/mxv
 BYTE   W06
 BYTE   VOL   76*song09_mvl/mxv
 BYTE   N07  Fn2  v088
 BYTE   W06
 BYTE   VOL   80*song09_mvl/mxv
 BYTE   W07
 BYTE   N09  Ds2
 BYTE   W05
 BYTE   VOL   76*song09_mvl/mxv
 BYTE   W06
//  #05 //027   ----------------------------------------
 BYTE   VOL   73*song09_mvl/mxv
 BYTE   W02
 BYTE   N92  As1  v080
 BYTE   W04
 BYTE   VOL   59*song09_mvl/mxv
 BYTE   W06
 BYTE   VOL   53*song09_mvl/mxv
 BYTE   W06
 BYTE   VOL   55*song09_mvl/mxv
 BYTE   W06
 BYTE   VOL   56*song09_mvl/mxv
 BYTE   W06
 BYTE   VOL   59*song09_mvl/mxv
 BYTE   W06
 BYTE   VOL   59*song09_mvl/mxv
 BYTE   W06
 BYTE   VOL   62*song09_mvl/mxv
 BYTE   W06
 BYTE   VOL   63*song09_mvl/mxv
 BYTE   W06
 BYTE   VOL   59*song09_mvl/mxv
 BYTE   W06
 BYTE   VOL   59*song09_mvl/mxv
 BYTE   W06
 BYTE   VOL   52*song09_mvl/mxv
 BYTE   W06
 BYTE   VOL   49*song09_mvl/mxv
 BYTE   W06
 BYTE   VOL   39*song09_mvl/mxv
 BYTE   W06
 BYTE   VOL   30*song09_mvl/mxv
 BYTE   W06
 BYTE   VOL   8*song09_mvl/mxv
 BYTE   W06
//  #05 //028   ----------------------------------------
 BYTE   VOL   0*song09_mvl/mxv
 BYTE   W18
 BYTE   VOL   80*song09_mvl/mxv
 BYTE   W06
 BYTE   N21  Bn1  v060
 BYTE   W23
 BYTE   N22  Cs2  v068
 BYTE   W24
 BYTE   W01
 BYTE   N21  Ds2
 BYTE   W23
 BYTE   N56  Fn2  v088
 BYTE   W01
//  #05 //029   ----------------------------------------
 BYTE   VOL   76*song09_mvl/mxv
 BYTE   W06
 BYTE   VOL   61*song09_mvl/mxv
 BYTE   W06
 BYTE   VOL   61*song09_mvl/mxv
 BYTE   W06
 BYTE   VOL   63*song09_mvl/mxv
 BYTE   W06
 BYTE   VOL   66*song09_mvl/mxv
 BYTE   W06
 BYTE   VOL   68*song09_mvl/mxv
 BYTE   W06
 BYTE   VOL   69*song09_mvl/mxv
 BYTE   W06
 BYTE   VOL   71*song09_mvl/mxv
 BYTE   W06
 BYTE   VOL   73*song09_mvl/mxv
 BYTE   W06
 BYTE   VOL   75*song09_mvl/mxv
 BYTE   W06
 BYTE   VOL   78*song09_mvl/mxv
 BYTE   N08  Ds2  v092
 BYTE   W06
 BYTE   VOL   80*song09_mvl/mxv
 BYTE   W06
 BYTE   N08  Cs2  v084
 BYTE   W12
 BYTE   N09  Bn1  v080
 BYTE   W12
//  #05 //030   ----------------------------------------
 BYTE   VOL   76*song09_mvl/mxv
 BYTE   TIE  As1  v076
 BYTE   W06
 BYTE   VOL   61*song09_mvl/mxv
 BYTE   W06
 BYTE   VOL   52*song09_mvl/mxv
 BYTE   W06
 BYTE   VOL   39*song09_mvl/mxv
 BYTE   W06
 BYTE   VOL   34*song09_mvl/mxv
 BYTE   W06
 BYTE   VOL   35*song09_mvl/mxv
 BYTE   W06
 BYTE   VOL   36*song09_mvl/mxv
 BYTE   W06
 BYTE   VOL   38*song09_mvl/mxv
 BYTE   W06
 BYTE   VOL   39*song09_mvl/mxv
 BYTE   W06
 BYTE   VOL   40*song09_mvl/mxv
 BYTE   W06
 BYTE   VOL   41*song09_mvl/mxv
 BYTE   W06
 BYTE   VOL   44*song09_mvl/mxv
 BYTE   W06
 BYTE   VOL   45*song09_mvl/mxv
 BYTE   W06
 BYTE   VOL   46*song09_mvl/mxv
 BYTE   W06
 BYTE   VOL   48*song09_mvl/mxv
 BYTE   W06
 BYTE   VOL   50*song09_mvl/mxv
 BYTE   W06
//  #05 //031   ----------------------------------------
 BYTE   VOL   51*song09_mvl/mxv
 BYTE   W06
 BYTE   VOL   52*song09_mvl/mxv
 BYTE   W06
 BYTE   VOL   55*song09_mvl/mxv
 BYTE   W06
 BYTE   VOL   54*song09_mvl/mxv
 BYTE   W06
 BYTE   VOL   53*song09_mvl/mxv
 BYTE   W06
 BYTE   VOL   51*song09_mvl/mxv
 BYTE   W06
 BYTE   VOL   51*song09_mvl/mxv
 BYTE   W06
 BYTE   VOL   49*song09_mvl/mxv
 BYTE   W06
 BYTE   VOL   47*song09_mvl/mxv
 BYTE   W06
 BYTE   VOL   45*song09_mvl/mxv
 BYTE   W06
 BYTE   VOL   43*song09_mvl/mxv
 BYTE   W06
 BYTE   VOL   39*song09_mvl/mxv
 BYTE   W06
 BYTE   VOL   37*song09_mvl/mxv
 BYTE   W06
 BYTE   VOL   30*song09_mvl/mxv
 BYTE   W06
 BYTE   VOL   26*song09_mvl/mxv
 BYTE   W06
 BYTE   VOL   16*song09_mvl/mxv
 BYTE   W06
//  #05 //032   ----------------------------------------
 BYTE   EOT
 BYTE   VOL   8*song09_mvl/mxv
 BYTE   W06
 BYTE   VOL   0*song09_mvl/mxv
 BYTE   W36
 BYTE   VOL   11*song09_mvl/mxv
 BYTE   W06
 BYTE   VOL   80*song09_mvl/mxv
 BYTE   N20  As1  v080
 BYTE   W23
 BYTE   Ds2  v084
 BYTE   W23
 BYTE   N72  Fn2
 BYTE   W02
//  #05 //033   ----------------------------------------
 BYTE   W06
 BYTE   VOL   49*song09_mvl/mxv
 BYTE   W06
 BYTE   VOL   50*song09_mvl/mxv
 BYTE   W06
 BYTE   VOL   51*song09_mvl/mxv
 BYTE   W06
 BYTE   VOL   54*song09_mvl/mxv
 BYTE   W06
 BYTE   VOL   56*song09_mvl/mxv
 BYTE   W06
 BYTE   VOL   59*song09_mvl/mxv
 BYTE   W06
 BYTE   VOL   61*song09_mvl/mxv
 BYTE   W06
 BYTE   VOL   63*song09_mvl/mxv
 BYTE   W06
 BYTE   VOL   66*song09_mvl/mxv
 BYTE   W06
 BYTE   VOL   68*song09_mvl/mxv
 BYTE   W06
 BYTE   VOL   71*song09_mvl/mxv
 BYTE   W05
 BYTE   N21  Gs2  v080
 BYTE   W01
 BYTE   VOL   73*song09_mvl/mxv
 BYTE   W06
 BYTE   VOL   76*song09_mvl/mxv
 BYTE   W06
 BYTE   VOL   80*song09_mvl/mxv
 BYTE   W06
 BYTE   VOL   78*song09_mvl/mxv
 BYTE   W05
 BYTE   N60  Fs2
 BYTE   W01
//  #05 //034   ----------------------------------------
 BYTE   VOL   75*song09_mvl/mxv
 BYTE   W06
 BYTE   VOL   53*song09_mvl/mxv
 BYTE   W06
 BYTE   VOL   54*song09_mvl/mxv
 BYTE   W06
 BYTE   VOL   57*song09_mvl/mxv
 BYTE   W06
 BYTE   VOL   57*song09_mvl/mxv
 BYTE   W06
 BYTE   VOL   61*song09_mvl/mxv
 BYTE   W06
 BYTE   VOL   61*song09_mvl/mxv
 BYTE   W06
 BYTE   VOL   64*song09_mvl/mxv
 BYTE   W06
 BYTE   VOL   66*song09_mvl/mxv
 BYTE   W06
 BYTE   VOL   68*song09_mvl/mxv
 BYTE   W06
 BYTE   VOL   69*song09_mvl/mxv
 BYTE   N08  Gs2  v084
 BYTE   W06
 BYTE   VOL   73*song09_mvl/mxv
 BYTE   W05
 BYTE   N09  Fs2  v088
 BYTE   W01
 BYTE   VOL   73*song09_mvl/mxv
 BYTE   W06
 BYTE   VOL   76*song09_mvl/mxv
 BYTE   W06
 BYTE   VOL   78*song09_mvl/mxv
 BYTE   N08  Gs2  v084
 BYTE   W06
 BYTE   VOL   80*song09_mvl/mxv
 BYTE   W06
//  #05 //035   ----------------------------------------
 BYTE   N68  As2  v092
 BYTE   W06
 BYTE   VOL   28*song09_mvl/mxv
 BYTE   W06
 BYTE   VOL   29*song09_mvl/mxv
 BYTE   W06
 BYTE   VOL   34*song09_mvl/mxv
 BYTE   W06
 BYTE   VOL   36*song09_mvl/mxv
 BYTE   W06
 BYTE   VOL   43*song09_mvl/mxv
 BYTE   W06
 BYTE   VOL   45*song09_mvl/mxv
 BYTE   W06
 BYTE   VOL   52*song09_mvl/mxv
 BYTE   W06
 BYTE   VOL   55*song09_mvl/mxv
 BYTE   W06
 BYTE   VOL   62*song09_mvl/mxv
 BYTE   W06
 BYTE   VOL   66*song09_mvl/mxv
 BYTE   W06
 BYTE   VOL   74*song09_mvl/mxv
 BYTE   W06
 BYTE   VOL   80*song09_mvl/mxv
 BYTE   N20  As2  v080
 BYTE   W24
//  #05 //036   ----------------------------------------
 BYTE   W01
 BYTE   N21
 BYTE   W23
 BYTE   VOL   75*song09_mvl/mxv
 BYTE   N44  Gs2
 BYTE   W06
 BYTE   VOL   57*song09_mvl/mxv
 BYTE   W06
 BYTE   VOL   59*song09_mvl/mxv
 BYTE   W06
 BYTE   VOL   63*song09_mvl/mxv
 BYTE   W06
 BYTE   VOL   66*song09_mvl/mxv
 BYTE   W06
 BYTE   VOL   70*song09_mvl/mxv
 BYTE   W06
 BYTE   VOL   73*song09_mvl/mxv
 BYTE   W06
 BYTE   VOL   78*song09_mvl/mxv
 BYTE   W05
 BYTE   N22  Fs2  v092
 BYTE   W01
 BYTE   VOL   80*song09_mvl/mxv
 BYTE   W23
 BYTE   N23  Ds2
 BYTE   W01
//  #05 //037   ----------------------------------------
 BYTE   W23
 BYTE   N22  Cs2
 BYTE   W24
 BYTE   W01
 BYTE   VOL   69*song09_mvl/mxv
 BYTE   N48  Fs2  v080
 BYTE   W06
 BYTE   VOL   44*song09_mvl/mxv
 BYTE   W06
 BYTE   VOL   45*song09_mvl/mxv
 BYTE   W06
 BYTE   VOL   53*song09_mvl/mxv
 BYTE   W06
 BYTE   VOL   56*song09_mvl/mxv
 BYTE   W06
 BYTE   VOL   63*song09_mvl/mxv
 BYTE   W06
 BYTE   VOL   66*song09_mvl/mxv
 BYTE   W06
 BYTE   VOL   75*song09_mvl/mxv
 BYTE   W06
//  #05 //038   ----------------------------------------
 BYTE   VOL   80*song09_mvl/mxv
 BYTE   W01
 BYTE   TIE  Ds2  v068
 BYTE   W05
 BYTE   VOL   64*song09_mvl/mxv
 BYTE   W06
 BYTE   VOL   59*song09_mvl/mxv
 BYTE   W06
 BYTE   VOL   45*song09_mvl/mxv
 BYTE   W12
 BYTE   VOL   46*song09_mvl/mxv
 BYTE   W06
 BYTE   VOL   47*song09_mvl/mxv
 BYTE   W06
 BYTE   VOL   48*song09_mvl/mxv
 BYTE   W06
 BYTE   VOL   49*song09_mvl/mxv
 BYTE   W06
 BYTE   VOL   50*song09_mvl/mxv
 BYTE   W06
 BYTE   VOL   51*song09_mvl/mxv
 BYTE   W06
 BYTE   VOL   52*song09_mvl/mxv
 BYTE   W12
 BYTE   VOL   54*song09_mvl/mxv
 BYTE   W06
 BYTE   VOL   55*song09_mvl/mxv
 BYTE   W06
 BYTE   VOL   56*song09_mvl/mxv
 BYTE   W06
//  #05 //039   ----------------------------------------
 BYTE   VOL   57*song09_mvl/mxv
 BYTE   W06
 BYTE   VOL   59*song09_mvl/mxv
 BYTE   W06
 BYTE   VOL   57*song09_mvl/mxv
 BYTE   W06
 BYTE   VOL   56*song09_mvl/mxv
 BYTE   W06
 BYTE   VOL   55*song09_mvl/mxv
 BYTE   W06
 BYTE   VOL   52*song09_mvl/mxv
 BYTE   W06
 BYTE   VOL   51*song09_mvl/mxv
 BYTE   W06
 BYTE   VOL   47*song09_mvl/mxv
 BYTE   W06
 BYTE   VOL   44*song09_mvl/mxv
 BYTE   W06
 BYTE   VOL   37*song09_mvl/mxv
 BYTE   W06
 BYTE   VOL   30*song09_mvl/mxv
 BYTE   W06
 BYTE   VOL   14*song09_mvl/mxv
 BYTE   W06
 BYTE   VOL   0*song09_mvl/mxv
 BYTE   W03
 BYTE   EOT
 BYTE   W15
 BYTE   PAN   c_v-9
 BYTE   VOL   61*song09_mvl/mxv
 BYTE   W02
 BYTE   VOICE   40
 BYTE   W04
//  #05 //040   ----------------------------------------
 BYTE   VOL   59*song09_mvl/mxv
 BYTE   TIE  Ds2  v064
 BYTE   W06
 BYTE   VOL   46*song09_mvl/mxv
 BYTE   W06
 BYTE   VOL   39*song09_mvl/mxv
 BYTE   W06
 BYTE   VOL   35*song09_mvl/mxv
 BYTE   W06
 BYTE   VOL   36*song09_mvl/mxv
 BYTE   W06
 BYTE   VOL   37*song09_mvl/mxv
 BYTE   W06
 BYTE   VOL   37*song09_mvl/mxv
 BYTE   W06
 BYTE   VOL   39*song09_mvl/mxv
 BYTE   W06
 BYTE   VOL   40*song09_mvl/mxv
 BYTE   W06
 BYTE   VOL   40*song09_mvl/mxv
 BYTE   W06
 BYTE   VOL   41*song09_mvl/mxv
 BYTE   W06
 BYTE   VOL   43*song09_mvl/mxv
 BYTE   W12
 BYTE   VOL   45*song09_mvl/mxv
 BYTE   W06
 BYTE   VOL   45*song09_mvl/mxv
 BYTE   W06
 BYTE   VOL   46*song09_mvl/mxv
 BYTE   W06
//  #05 //041   ----------------------------------------
 BYTE   VOL   47*song09_mvl/mxv
 BYTE   W06
 BYTE   VOL   49*song09_mvl/mxv
 BYTE   W06
 BYTE   VOL   50*song09_mvl/mxv
 BYTE   W06
 BYTE   VOL   51*song09_mvl/mxv
 BYTE   W06
 BYTE   VOL   51*song09_mvl/mxv
 BYTE   W06
 BYTE   VOL   53*song09_mvl/mxv
 BYTE   W06
 BYTE   VOL   54*song09_mvl/mxv
 BYTE   W06
 BYTE   VOL   55*song09_mvl/mxv
 BYTE   W04
 BYTE   EOT
 BYTE   TIE  Fn2  v048
 BYTE   W02
 BYTE   VOL   57*song09_mvl/mxv
 BYTE   W06
 BYTE   VOL   52*song09_mvl/mxv
 BYTE   W06
 BYTE   VOL   51*song09_mvl/mxv
 BYTE   W06
 BYTE   VOL   46*song09_mvl/mxv
 BYTE   W06
 BYTE   VOL   44*song09_mvl/mxv
 BYTE   W06
 BYTE   VOL   45*song09_mvl/mxv
 BYTE   W06
 BYTE   VOL   45*song09_mvl/mxv
 BYTE   W06
 BYTE   VOL   47*song09_mvl/mxv
 BYTE   W06
//  #05 //042   ----------------------------------------
 BYTE   VOL   49*song09_mvl/mxv
 BYTE   W06
 BYTE   VOL   51*song09_mvl/mxv
 BYTE   W06
 BYTE   VOL   51*song09_mvl/mxv
 BYTE   W06
 BYTE   VOL   54*song09_mvl/mxv
 BYTE   W06
 BYTE   VOL   55*song09_mvl/mxv
 BYTE   W06
 BYTE   VOL   57*song09_mvl/mxv
 BYTE   W06
 BYTE   VOL   59*song09_mvl/mxv
 BYTE   W06
 BYTE   VOL   61*song09_mvl/mxv
 BYTE   W06
 BYTE   VOL   61*song09_mvl/mxv
 BYTE   W06
 BYTE   VOL   64*song09_mvl/mxv
 BYTE   W06
 BYTE   VOL   66*song09_mvl/mxv
 BYTE   W06
 BYTE   VOL   68*song09_mvl/mxv
 BYTE   W01
 BYTE   EOT
 BYTE   W03
 BYTE   N24  Fn2  v056
 BYTE   W02
 BYTE   VOL   69*song09_mvl/mxv
 BYTE   W06
 BYTE   VOL   71*song09_mvl/mxv
 BYTE   W06
 BYTE   VOL   73*song09_mvl/mxv
 BYTE   W06
 BYTE   VOL   75*song09_mvl/mxv
 BYTE   W05
 BYTE   N92  Ds2  v052
 BYTE   W01
//  #05 //043   ----------------------------------------
 BYTE   VOL   76*song09_mvl/mxv
 BYTE   W12
 BYTE   VOL   70*song09_mvl/mxv
 BYTE   W06
 BYTE   VOL   61*song09_mvl/mxv
 BYTE   W06
 BYTE   VOL   57*song09_mvl/mxv
 BYTE   W06
 BYTE   VOL   54*song09_mvl/mxv
 BYTE   W06
 BYTE   VOL   56*song09_mvl/mxv
 BYTE   W06
 BYTE   VOL   57*song09_mvl/mxv
 BYTE   W06
 BYTE   VOL   61*song09_mvl/mxv
 BYTE   W06
 BYTE   VOL   62*song09_mvl/mxv
 BYTE   W06
 BYTE   VOL   64*song09_mvl/mxv
 BYTE   W06
 BYTE   VOL   68*song09_mvl/mxv
 BYTE   W06
 BYTE   VOL   69*song09_mvl/mxv
 BYTE   W06
 BYTE   VOL   71*song09_mvl/mxv
 BYTE   W06
 BYTE   VOL   73*song09_mvl/mxv
 BYTE   W06
 BYTE   VOL   76*song09_mvl/mxv
 BYTE   W06
//  #05 //044   ----------------------------------------
 BYTE   VOL   80*song09_mvl/mxv
 BYTE   N21  Ds2  v068
 BYTE   W24
 BYTE   W01
 BYTE   N19  Ds2  v076
 BYTE   W68
 BYTE   W03
//  #05 //045   ----------------------------------------
 BYTE   W48
 BYTE   VOL   57*song09_mvl/mxv
 BYTE   N48  Cn2  v108
 BYTE   W06
 BYTE   VOL   48*song09_mvl/mxv
 BYTE   W06
 BYTE   VOL   45*song09_mvl/mxv
 BYTE   W30
 BYTE   VOL   46*song09_mvl/mxv
 BYTE   W06
//  #05 //046   ----------------------------------------
 BYTE   W01
 BYTE   N44  Dn2
 BYTE   W17
 BYTE   VOL   47*song09_mvl/mxv
 BYTE   W24
 BYTE   VOL   48*song09_mvl/mxv
 BYTE   W05
 BYTE   N48  Ds2  v100
 BYTE   W19
 BYTE   VOL   49*song09_mvl/mxv
 BYTE   W12
 BYTE   VOL   50*song09_mvl/mxv
 BYTE   W18
//  #05 //047   ----------------------------------------
 BYTE   VOL   51*song09_mvl/mxv
 BYTE   W01
 BYTE   N44  Fn2
 BYTE   W05
 BYTE   VOL   51*song09_mvl/mxv
 BYTE   W12
 BYTE   VOL   52*song09_mvl/mxv
 BYTE   W12
 BYTE   VOL   53*song09_mvl/mxv
 BYTE   W06
 BYTE   VOL   54*song09_mvl/mxv
 BYTE   W06
 BYTE   VOL   55*song09_mvl/mxv
 BYTE   W06
 BYTE   N44  Gn2  v104
 BYTE   W12
 BYTE   VOL   57*song09_mvl/mxv
 BYTE   W06
 BYTE   VOL   57*song09_mvl/mxv
 BYTE   W12
 BYTE   VOL   59*song09_mvl/mxv
 BYTE   W06
 BYTE   VOL   59*song09_mvl/mxv
 BYTE   W06
 BYTE   VOL   61*song09_mvl/mxv
 BYTE   W05
 BYTE   N44  Gs2  v096
 BYTE   W01
//  #05 //048   ----------------------------------------
 BYTE   W06
 BYTE   VOL   62*song09_mvl/mxv
 BYTE   W06
 BYTE   VOL   64*song09_mvl/mxv
 BYTE   W06
 BYTE   VOL   66*song09_mvl/mxv
 BYTE   W06
 BYTE   VOL   69*song09_mvl/mxv
 BYTE   W06
 BYTE   VOL   73*song09_mvl/mxv
 BYTE   W12
 BYTE   VOL   75*song09_mvl/mxv
 BYTE   W06
 BYTE   VOICE   40
 BYTE   N42  As2  v127
 BYTE   W06
 BYTE   VOL   53*song09_mvl/mxv
 BYTE   W18
 BYTE   GoTo
  POIN2 Label_012113B6
//  #05 //049   ----------------------------------------
 BYTE   W23
 BYTE   N40  Cn3  v124
 BYTE   W01
 BYTE   W44
 BYTE   FINE

//**************** Track 6 (Midi-Chn.5) ****************//

song09_006:
//  #06 //000   ----------------------------------------
 BYTE   KEYSH   song09_key+0
 BYTE   VOICE   40
 BYTE   MODT 0
 BYTE   LFOS 44
 BYTE   MOD 0
 BYTE   VOL   68*song09_mvl/mxv
 BYTE   PAN   c_v-14
 BYTE   VOL   68*song09_mvl/mxv
 BYTE   W96
//  #06 //001   ----------------------------------------
 BYTE   W96
//  #06 //002   ----------------------------------------
 BYTE   N42  Fn2  v072
 BYTE   W30
Label_011F95FA:
 BYTE   PAN   c_v-14
 BYTE   W18
 BYTE   N42  Fs2  v068
 BYTE   W44
 BYTE   W03
 BYTE   Fn2  v076
 BYTE   W01
//  #06 //003   ----------------------------------------
 BYTE   W48
 BYTE   N23  Fs2
 BYTE   W23
 BYTE   N04  Fn2  v080
 BYTE   W18
 BYTE   Ds2
 BYTE   W06
 BYTE   N44  Cs2
 BYTE   W01
//  #06 //004   ----------------------------------------
 BYTE   W48
 BYTE   N22  Cn2  v072
 BYTE   W24
 BYTE   N08  Gs1  v080
 BYTE   W17
 BYTE   N03  Ds2
 BYTE   W07
//  #06 //005   ----------------------------------------
 BYTE   N52  Cs2  v068
 BYTE   W72
 BYTE   N23  Ds2  v092
 BYTE   W24
//  #06 //006   ----------------------------------------
 BYTE   N42  En2  v072
 BYTE   W48
 BYTE   An2  v068
 BYTE   W44
 BYTE   W03
 BYTE   Gs2  v076
 BYTE   W01
//  #06 //007   ----------------------------------------
 BYTE   W48
 BYTE   N23  An2
 BYTE   W23
 BYTE   N04  Gs2  v080
 BYTE   W19
 BYTE   N03  Fs2  v084
 BYTE   W05
 BYTE   N44  En2  v072
 BYTE   W01
//  #06 //008   ----------------------------------------
 BYTE   W48
 BYTE   N22  Ds2
 BYTE   W24
 BYTE   N08  Bn1  v080
 BYTE   W17
 BYTE   N03  Fs2  v076
 BYTE   W07
//  #06 //009   ----------------------------------------
 BYTE   N78  En2  v068
 BYTE   W96
//  #06 //010   ----------------------------------------
 BYTE   W04
 BYTE   TIE  En2  v044
 BYTE   W20
 BYTE   VOL   66*song09_mvl/mxv
 BYTE   W18
 BYTE   VOL   66*song09_mvl/mxv
 BYTE   W18
 BYTE   VOL   64*song09_mvl/mxv
 BYTE   W06
 BYTE   VOL   63*song09_mvl/mxv
 BYTE   W12
 BYTE   VOL   62*song09_mvl/mxv
 BYTE   W12
 BYTE   VOL   61*song09_mvl/mxv
 BYTE   W06
//  #06 //011   ----------------------------------------
 BYTE   W06
 BYTE   VOL   59*song09_mvl/mxv
 BYTE   W12
 BYTE   VOL   57*song09_mvl/mxv
 BYTE   W06
 BYTE   VOL   57*song09_mvl/mxv
 BYTE   W06
 BYTE   VOL   56*song09_mvl/mxv
 BYTE   W12
 BYTE   VOL   53*song09_mvl/mxv
 BYTE   W06
 BYTE   VOL   52*song09_mvl/mxv
 BYTE   W06
 BYTE   VOL   49*song09_mvl/mxv
 BYTE   W06
 BYTE   VOL   47*song09_mvl/mxv
 BYTE   W06
 BYTE   VOL   45*song09_mvl/mxv
 BYTE   W06
 BYTE   VOL   42*song09_mvl/mxv
 BYTE   W06
 BYTE   VOL   39*song09_mvl/mxv
 BYTE   W06
 BYTE   VOL   45*song09_mvl/mxv
 BYTE   W02
 BYTE   EOT
 BYTE   W04
 BYTE   VOL   64*song09_mvl/mxv
 BYTE   W06
//  #06 //012   ----------------------------------------
 BYTE   VOL   68*song09_mvl/mxv
 BYTE   W04
 BYTE   TIE  Ds2  v056
 BYTE   W14
 BYTE   VOL   66*song09_mvl/mxv
 BYTE   W12
 BYTE   VOL   66*song09_mvl/mxv
 BYTE   W18
 BYTE   VOL   64*song09_mvl/mxv
 BYTE   W06
 BYTE   VOL   63*song09_mvl/mxv
 BYTE   W12
 BYTE   VOL   62*song09_mvl/mxv
 BYTE   W06
 BYTE   VOL   61*song09_mvl/mxv
 BYTE   W06
 BYTE   VOL   61*song09_mvl/mxv
 BYTE   W06
 BYTE   VOL   59*song09_mvl/mxv
 BYTE   W06
 BYTE   VOL   59*song09_mvl/mxv
 BYTE   W06
//  #06 //013   ----------------------------------------
 BYTE   VOL   57*song09_mvl/mxv
 BYTE   W06
 BYTE   VOL   57*song09_mvl/mxv
 BYTE   W06
 BYTE   VOL   56*song09_mvl/mxv
 BYTE   W06
 BYTE   VOL   52*song09_mvl/mxv
 BYTE   W06
 BYTE   VOL   51*song09_mvl/mxv
 BYTE   W06
 BYTE   VOL   49*song09_mvl/mxv
 BYTE   W06
 BYTE   VOL   47*song09_mvl/mxv
 BYTE   W03
 BYTE   EOT
 BYTE   W03
 BYTE   VOL   41*song09_mvl/mxv
 BYTE   W06
 BYTE   VOL   39*song09_mvl/mxv
 BYTE   W04
 BYTE   TIE  En2  v044
 BYTE   W02
 BYTE   VOL   59*song09_mvl/mxv
 BYTE   W30
 BYTE   VOL   61*song09_mvl/mxv
 BYTE   W12
//  #06 //014   ----------------------------------------
 BYTE   W18
 BYTE   VOL   61*song09_mvl/mxv
 BYTE   W36
 BYTE   VOL   62*song09_mvl/mxv
 BYTE   W30
 BYTE   VOL   63*song09_mvl/mxv
 BYTE   W12
//  #06 //015   ----------------------------------------
 BYTE   W18
 BYTE   VOL   64*song09_mvl/mxv
 BYTE   W36
 BYTE   VOL   66*song09_mvl/mxv
 BYTE   W24
 BYTE   VOL   66*song09_mvl/mxv
 BYTE   W08
 BYTE   EOT
 BYTE   W10
//  #06 //016   ----------------------------------------
 BYTE   TIE  En2  v060
 BYTE   W96
//  #06 //017   ----------------------------------------
 BYTE   W06
 BYTE   VOL   66*song09_mvl/mxv
 BYTE   W80
 BYTE   EOT
 BYTE   W10
//  #06 //018   ----------------------------------------
 BYTE   TIE  Ds2  v064
 BYTE   W24
 BYTE   VOL   64*song09_mvl/mxv
 BYTE   W18
 BYTE   VOL   63*song09_mvl/mxv
 BYTE   W18
 BYTE   VOL   62*song09_mvl/mxv
 BYTE   W12
 BYTE   VOL   61*song09_mvl/mxv
 BYTE   W12
 BYTE   VOL   61*song09_mvl/mxv
 BYTE   W06
 BYTE   VOL   59*song09_mvl/mxv
 BYTE   W06
//  #06 //019   ----------------------------------------
 BYTE   W06
 BYTE   VOL   59*song09_mvl/mxv
 BYTE   W06
 BYTE   VOL   57*song09_mvl/mxv
 BYTE   W06
 BYTE   VOL   57*song09_mvl/mxv
 BYTE   W06
 BYTE   VOL   57*song09_mvl/mxv
 BYTE   W06
 BYTE   VOL   56*song09_mvl/mxv
 BYTE   W06
 BYTE   VOL   55*song09_mvl/mxv
 BYTE   W06
 BYTE   VOL   53*song09_mvl/mxv
 BYTE   W06
 BYTE   VOL   52*song09_mvl/mxv
 BYTE   W06
 BYTE   VOL   51*song09_mvl/mxv
 BYTE   W06
 BYTE   VOL   49*song09_mvl/mxv
 BYTE   W06
 BYTE   VOL   46*song09_mvl/mxv
 BYTE   W06
 BYTE   VOL   45*song09_mvl/mxv
 BYTE   W06
 BYTE   VOL   41*song09_mvl/mxv
 BYTE   W06
 BYTE   VOL   40*song09_mvl/mxv
 BYTE   W03
 BYTE   EOT
 BYTE   W03
 BYTE   VOL   32*song09_mvl/mxv
 BYTE   W06
//  #06 //020   ----------------------------------------
 BYTE   VOL   68*song09_mvl/mxv
 BYTE   N42  Fn2  v072
 BYTE   W48
 BYTE   Fs2  v068
 BYTE   W44
 BYTE   W03
 BYTE   Fn2  v076
 BYTE   W01
//  #06 //021   ----------------------------------------
 BYTE   W48
 BYTE   N23  Fs2
 BYTE   W23
 BYTE   N04  Fn2  v080
 BYTE   W18
 BYTE   Ds2  v076
 BYTE   W06
 BYTE   N44  Cs2  v080
 BYTE   W01
//  #06 //022   ----------------------------------------
 BYTE   W48
 BYTE   N22  Cn2  v072
 BYTE   W24
 BYTE   N08  Gs1  v080
 BYTE   W17
 BYTE   N03  Ds2  v076
 BYTE   W07
//  #06 //023   ----------------------------------------
 BYTE   N48  Cs2  v068
 BYTE   W96
//  #06 //024   ----------------------------------------
 BYTE   VOICE   0
 BYTE   VOL   37*song09_mvl/mxv
 BYTE   PAN   c_v+0
 BYTE   W16
 BYTE   N01  Bn3  v052
 BYTE   W12
 BYTE   Ds4  v056
 BYTE   W12
 BYTE   Fn4
 BYTE   W12
 BYTE   As3
 BYTE   W12
 BYTE   Bn3  v032
 BYTE   W12
 BYTE   Ds4  v048
 BYTE   W12
 BYTE   Fn4  v056
 BYTE   W08
//  #06 //025   ----------------------------------------
 BYTE   W04
 BYTE   Gs3
 BYTE   W12
 BYTE   Bn3  v032
 BYTE   W12
 BYTE   Ds4  v040
 BYTE   W12
 BYTE   Fn4  v048
 BYTE   W12
 BYTE   Gs3
 BYTE   W12
 BYTE   Bn3  v036
 BYTE   W12
 BYTE   Ds4  v040
 BYTE   W12
 BYTE   Fn4  v048
 BYTE   W08
//  #06 //026   ----------------------------------------
Label_011F9763:
 BYTE   W04
 BYTE   N01  Fs3  v052
 BYTE   W12
 BYTE   As3  v044
 BYTE   W12
 BYTE   Ds4  v040
 BYTE   W12
 BYTE   Fn4
 BYTE   W12
 BYTE   Fs3  v036
 BYTE   W12
 BYTE   As3  v040
 BYTE   W12
 BYTE   Ds4
 BYTE   W12
 BYTE   Fn4  v036
 BYTE   W08
 BYTE   PEND 
//  #06 //027   ----------------------------------------
 BYTE   W04
 BYTE   Fs3  v040
 BYTE   W12
 BYTE   As3  v036
 BYTE   W12
 BYTE   Ds4  v032
 BYTE   W12
 BYTE   Fn4  v036
 BYTE   W12
 BYTE   Fs3
 BYTE   W12
 BYTE   As3
 BYTE   W12
 BYTE   Ds4  v032
 BYTE   W12
 BYTE   Fs4  v040
 BYTE   W08
//  #06 //028   ----------------------------------------
 BYTE   W04
 BYTE   Fn3
 BYTE   W12
 BYTE   Gs3  v044
 BYTE   W12
 BYTE   Bn3  v040
 BYTE   W12
 BYTE   Ds4  v044
 BYTE   W12
 BYTE   Fn3  v032
 BYTE   W12
 BYTE   Gs3  v028
 BYTE   W12
 BYTE   Bn3  v036
 BYTE   W12
 BYTE   Ds4  v040
 BYTE   W08
//  #06 //029   ----------------------------------------
 BYTE   W04
 BYTE   Fn3  v044
 BYTE   W12
 BYTE   Gs3  v028
 BYTE   W12
 BYTE   Bn3  v036
 BYTE   W12
 BYTE   Ds4
 BYTE   W12
 BYTE   Fn3  v044
 BYTE   W12
 BYTE   Gs3  v032
 BYTE   W12
 BYTE   Bn3
 BYTE   W12
 BYTE   Ds4  v044
 BYTE   W08
//  #06 //030   ----------------------------------------
 BYTE   W04
 BYTE   Ds3  v048
 BYTE   W12
 BYTE   Gs3  v044
 BYTE   W12
 BYTE   As3  v036
 BYTE   W12
 BYTE   Ds4
 BYTE   W12
 BYTE   Ds3  v032
 BYTE   W12
 BYTE   Fs3  v036
 BYTE   W12
 BYTE   As3  v032
 BYTE   W11
 BYTE   Ds4
 BYTE   W09
//  #06 //031   ----------------------------------------
 BYTE   W03
 BYTE   Ds3
 BYTE   W12
 BYTE   Fn3  v044
 BYTE   W13
 BYTE   As3  v036
 BYTE   W11
 BYTE   Ds4  v048
 BYTE   W13
 BYTE   Ds3  v036
 BYTE   W12
 BYTE   Fs3  v052
 BYTE   W12
 BYTE   As3  v044
 BYTE   W12
 BYTE   Ds4  v036
 BYTE   W08
//  #06 //032   ----------------------------------------
 BYTE   W04
 BYTE   Gs3  v068
 BYTE   W12
 BYTE   As3  v052
 BYTE   W12
 BYTE   Ds4  v056
 BYTE   W12
 BYTE   Fn4
 BYTE   W12
 BYTE   Gs3
 BYTE   W12
 BYTE   As3  v032
 BYTE   W12
 BYTE   Ds4  v048
 BYTE   W12
 BYTE   Fn4  v056
 BYTE   W08
//  #06 //033   ----------------------------------------
 BYTE   W04
 BYTE   Gs3
 BYTE   W12
 BYTE   Bn3  v040
 BYTE   W12
 BYTE   Ds4
 BYTE   W12
 BYTE   Fn4  v048
 BYTE   W12
 BYTE   Gs3
 BYTE   W12
 BYTE   Bn3  v036
 BYTE   W12
 BYTE   Ds4  v040
 BYTE   W12
 BYTE   Fn4  v048
 BYTE   W08
//  #06 //034   ----------------------------------------
 BYTE   PATT
  POIN2 Label_011F9763
//  #06 //035   ----------------------------------------
 BYTE   W04
 BYTE   N01  Fs3  v040
 BYTE   W12
 BYTE   As3  v036
 BYTE   W12
 BYTE   Ds4  v032
 BYTE   W12
 BYTE   Fs4  v036
 BYTE   W12
 BYTE   Fs3
 BYTE   W12
 BYTE   As3
 BYTE   W12
 BYTE   Cs4  v032
 BYTE   W12
 BYTE   Fs4  v040
 BYTE   W08
//  #06 //036   ----------------------------------------
 BYTE   W04
 BYTE   Fs3
 BYTE   W12
 BYTE   Gs3  v044
 BYTE   W12
 BYTE   Cn4  v040
 BYTE   W12
 BYTE   Ds4  v044
 BYTE   W12
 BYTE   Fs3  v032
 BYTE   W12
 BYTE   Gs3  v028
 BYTE   W12
 BYTE   Cn4  v036
 BYTE   W12
 BYTE   Ds4  v040
 BYTE   W02
 BYTE   VOL   36*song09_mvl/mxv
 BYTE   W06
//  #06 //037   ----------------------------------------
 BYTE   W04
 BYTE   N01  Fs3  v044
 BYTE   W12
 BYTE   Gs3  v028
 BYTE   W12
 BYTE   Cn4  v036
 BYTE   W12
 BYTE   Ds4
 BYTE   W02
 BYTE   VOL   35*song09_mvl/mxv
 BYTE   W10
 BYTE   N01  Fs3  v044
 BYTE   W12
 BYTE   Gs3  v032
 BYTE   W08
 BYTE   VOL   35*song09_mvl/mxv
 BYTE   W04
 BYTE   N01  Bn3
 BYTE   W12
 BYTE   Ds4  v044
 BYTE   W08
//  #06 //038   ----------------------------------------
 BYTE   W04
 BYTE   Fs3  v048
 BYTE   W02
 BYTE   VOL   34*song09_mvl/mxv
 BYTE   W10
 BYTE   N01  As3  v044
 BYTE   W12
 BYTE   Ds4  v036
 BYTE   W12
 BYTE   Gs4
 BYTE   W02
 BYTE   VOL   34*song09_mvl/mxv
 BYTE   W06
 BYTE   VOL   34*song09_mvl/mxv
 BYTE   W04
 BYTE   N01  Fs3  v032
 BYTE   W12
 BYTE   As3  v036
 BYTE   W02
 BYTE   VOL   33*song09_mvl/mxv
 BYTE   W10
 BYTE   N01  Ds4  v032
 BYTE   W02
 BYTE   VOL   32*song09_mvl/mxv
 BYTE   W09
 BYTE   N01  Fs4
 BYTE   W09
//  #06 //039   ----------------------------------------
 BYTE   W03
 BYTE   Fs3
 BYTE   W03
 BYTE   VOL   32*song09_mvl/mxv
 BYTE   W09
 BYTE   N01  As3  v044
 BYTE   W03
 BYTE   VOL   31*song09_mvl/mxv
 BYTE   W06
 BYTE   VOL   30*song09_mvl/mxv
 BYTE   W04
 BYTE   N01  Ds4  v036
 BYTE   W08
 BYTE   VOL   30*song09_mvl/mxv
 BYTE   W03
 BYTE   N01  Fs4  v048
 BYTE   W03
 BYTE   VOL   29*song09_mvl/mxv
 BYTE   W10
 BYTE   N01  Fs3  v036
 BYTE   W02
 BYTE   VOL   28*song09_mvl/mxv
 BYTE   W10
 BYTE   N01  As3  v052
 BYTE   W02
 BYTE   VOL   27*song09_mvl/mxv
 BYTE   W10
 BYTE   N01  Ds4  v044
 BYTE   W02
 BYTE   VOL   25*song09_mvl/mxv
 BYTE   W10
 BYTE   N01  Fs4  v036
 BYTE   W02
 BYTE   VOL   23*song09_mvl/mxv
 BYTE   W06
//  #06 //040   ----------------------------------------
 BYTE   VOICE   40
 BYTE   VOL   43*song09_mvl/mxv
 BYTE   PAN   c_v-34
 BYTE   VOL   41*song09_mvl/mxv
 BYTE   TIE  As2  v052
 BYTE   W06
 BYTE   VOL   34*song09_mvl/mxv
 BYTE   W06
 BYTE   VOL   30*song09_mvl/mxv
 BYTE   W06
 BYTE   VOL   24*song09_mvl/mxv
 BYTE   W12
 BYTE   VOL   26*song09_mvl/mxv
 BYTE   W06
 BYTE   VOL   27*song09_mvl/mxv
 BYTE   W06
 BYTE   VOL   27*song09_mvl/mxv
 BYTE   W06
 BYTE   VOL   28*song09_mvl/mxv
 BYTE   W06
 BYTE   VOL   29*song09_mvl/mxv
 BYTE   W06
 BYTE   VOL   30*song09_mvl/mxv
 BYTE   W06
 BYTE   VOL   31*song09_mvl/mxv
 BYTE   W06
 BYTE   VOL   32*song09_mvl/mxv
 BYTE   W06
 BYTE   VOL   34*song09_mvl/mxv
 BYTE   W06
 BYTE   VOL   34*song09_mvl/mxv
 BYTE   W06
 BYTE   VOL   35*song09_mvl/mxv
 BYTE   W06
//  #06 //041   ----------------------------------------
 BYTE   VOL   36*song09_mvl/mxv
 BYTE   W06
 BYTE   VOL   37*song09_mvl/mxv
 BYTE   W06
 BYTE   VOL   38*song09_mvl/mxv
 BYTE   W06
 BYTE   VOL   40*song09_mvl/mxv
 BYTE   W06
 BYTE   VOL   40*song09_mvl/mxv
 BYTE   W06
 BYTE   VOL   41*song09_mvl/mxv
 BYTE   W06
 BYTE   VOL   43*song09_mvl/mxv
 BYTE   W06
 BYTE   EOT
 BYTE   VOL   45*song09_mvl/mxv
 BYTE   W03
 BYTE   TIE  As2  v072
 BYTE   W03
 BYTE   VOL   43*song09_mvl/mxv
 BYTE   W06
 BYTE   VOL   41*song09_mvl/mxv
 BYTE   W06
 BYTE   VOL   41*song09_mvl/mxv
 BYTE   W06
 BYTE   VOL   38*song09_mvl/mxv
 BYTE   W06
 BYTE   VOL   39*song09_mvl/mxv
 BYTE   W06
 BYTE   VOL   40*song09_mvl/mxv
 BYTE   W06
 BYTE   VOL   40*song09_mvl/mxv
 BYTE   W06
 BYTE   VOL   41*song09_mvl/mxv
 BYTE   W06
//  #06 //042   ----------------------------------------
 BYTE   W06
 BYTE   VOL   43*song09_mvl/mxv
 BYTE   W06
 BYTE   VOL   44*song09_mvl/mxv
 BYTE   W06
 BYTE   VOL   45*song09_mvl/mxv
 BYTE   W06
 BYTE   VOL   45*song09_mvl/mxv
 BYTE   W06
 BYTE   VOL   46*song09_mvl/mxv
 BYTE   W06
 BYTE   VOL   47*song09_mvl/mxv
 BYTE   W06
 BYTE   VOL   49*song09_mvl/mxv
 BYTE   W12
 BYTE   VOL   50*song09_mvl/mxv
 BYTE   W06
 BYTE   VOL   51*song09_mvl/mxv
 BYTE   W06
 BYTE   VOL   51*song09_mvl/mxv
 BYTE   W01
 BYTE   EOT
 BYTE   W03
 BYTE   N24
 BYTE   W02
 BYTE   VOL   52*song09_mvl/mxv
 BYTE   W06
 BYTE   VOL   54*song09_mvl/mxv
 BYTE   W12
 BYTE   VOL   56*song09_mvl/mxv
 BYTE   W05
 BYTE   N92  An2  v068
 BYTE   W01
//  #06 //043   ----------------------------------------
 BYTE   VOL   57*song09_mvl/mxv
 BYTE   W06
 BYTE   VOL   52*song09_mvl/mxv
 BYTE   W06
 BYTE   VOL   50*song09_mvl/mxv
 BYTE   W06
 BYTE   VOL   45*song09_mvl/mxv
 BYTE   W06
 BYTE   VOL   46*song09_mvl/mxv
 BYTE   W06
 BYTE   VOL   49*song09_mvl/mxv
 BYTE   W06
 BYTE   VOL   49*song09_mvl/mxv
 BYTE   W06
 BYTE   VOL   51*song09_mvl/mxv
 BYTE   W06
 BYTE   VOL   52*song09_mvl/mxv
 BYTE   W06
 BYTE   VOL   55*song09_mvl/mxv
 BYTE   W06
 BYTE   VOL   56*song09_mvl/mxv
 BYTE   W06
 BYTE   VOL   57*song09_mvl/mxv
 BYTE   W06
 BYTE   VOL   59*song09_mvl/mxv
 BYTE   W06
 BYTE   VOL   61*song09_mvl/mxv
 BYTE   W06
 BYTE   VOL   62*song09_mvl/mxv
 BYTE   W06
 BYTE   VOL   66*song09_mvl/mxv
 BYTE   W05
 BYTE   N22  An2  v072
 BYTE   W01
//  #06 //044   ----------------------------------------
 BYTE   VOL   68*song09_mvl/mxv
 BYTE   W24
 BYTE   N21
 BYTE   W72
//  #06 //045   ----------------------------------------
 BYTE   W48
 BYTE   VOL   48*song09_mvl/mxv
 BYTE   W01
 BYTE   N44  Gs1  v084
 BYTE   W05
 BYTE   VOL   38*song09_mvl/mxv
 BYTE   W36
 BYTE   VOL   39*song09_mvl/mxv
 BYTE   W06
//  #06 //046   ----------------------------------------
 BYTE   N44  As1  v088
 BYTE   W18
 BYTE   VOL   40*song09_mvl/mxv
 BYTE   W12
 BYTE   VOL   40*song09_mvl/mxv
 BYTE   W18
 BYTE   N44  Cn2  v084
 BYTE   W06
 BYTE   VOL   41*song09_mvl/mxv
 BYTE   W18
 BYTE   VOL   41*song09_mvl/mxv
 BYTE   W18
 BYTE   VOL   42*song09_mvl/mxv
 BYTE   W06
//  #06 //047   ----------------------------------------
 BYTE   VOL   43*song09_mvl/mxv
 BYTE   N44  Dn2  v092
 BYTE   W18
 BYTE   VOL   44*song09_mvl/mxv
 BYTE   W06
 BYTE   VOL   45*song09_mvl/mxv
 BYTE   W06
 BYTE   VOL   45*song09_mvl/mxv
 BYTE   W12
 BYTE   VOL   46*song09_mvl/mxv
 BYTE   W06
 BYTE   N44  Ds2  v088
 BYTE   W06
 BYTE   VOL   47*song09_mvl/mxv
 BYTE   W06
 BYTE   VOL   48*song09_mvl/mxv
 BYTE   W06
 BYTE   VOL   49*song09_mvl/mxv
 BYTE   W12
 BYTE   VOL   50*song09_mvl/mxv
 BYTE   W06
 BYTE   VOL   51*song09_mvl/mxv
 BYTE   W06
 BYTE   VOL   52*song09_mvl/mxv
 BYTE   W05
 BYTE   N44  Fn2
 BYTE   W01
//  #06 //048   ----------------------------------------
 BYTE   W06
 BYTE   VOL   53*song09_mvl/mxv
 BYTE   W06
 BYTE   VOL   55*song09_mvl/mxv
 BYTE   W06
 BYTE   VOL   57*song09_mvl/mxv
 BYTE   W12
 BYTE   VOL   59*song09_mvl/mxv
 BYTE   W06
 BYTE   VOL   61*song09_mvl/mxv
 BYTE   W06
 BYTE   VOL   63*song09_mvl/mxv
 BYTE   W06
 BYTE   VOICE   40
 BYTE   VOL   68*song09_mvl/mxv
 BYTE   N44  Fn2  v080
 BYTE   W24
 BYTE   GoTo
  POIN2 Label_011F95FA
//  #06 //049   ----------------------------------------
 BYTE   W24
 BYTE   N42  Fs2  v068
 BYTE   W44
 BYTE   FINE

//**************** Track 7 (Midi-Chn.6) ****************//

song09_007:
//  #07 //000   ----------------------------------------
 BYTE   KEYSH   song09_key+0
 BYTE   VOICE   10
 BYTE   MODT 0
 BYTE   LFOS 44
 BYTE   MOD 0
 BYTE   VOL   80*song09_mvl/mxv
 BYTE   PAN   c_v-34
 BYTE   VOL   80*song09_mvl/mxv
 BYTE   W96
//  #07 //001   ----------------------------------------
 BYTE   W96
//  #07 //002   ----------------------------------------
 BYTE   N42  As1  v044
 BYTE   W30
Label_01214BCA:
 BYTE   VOL   80*song09_mvl/mxv
 BYTE   W18
 BYTE   N40  Cn2  v048
 BYTE   W48
//  #07 //003   ----------------------------------------
 BYTE   Cs2  v044
 BYTE   W48
 BYTE   N22  Ds2  v052
 BYTE   W24
 BYTE   N04  Cs2  v064
 BYTE   W13
 BYTE   N06  Cn2  v068
 BYTE   W11
//  #07 //004   ----------------------------------------
 BYTE   N40  As1  v052
 BYTE   W48
 BYTE   N23  Gs1
 BYTE   W24
 BYTE   N05  Fn1  v060
 BYTE   W13
 BYTE   N06  Cn2  v072
 BYTE   W11
//  #07 //005   ----------------------------------------
 BYTE   N56  As1  v040
 BYTE   W72
 BYTE   N20  Cn2  v068
 BYTE   W24
//  #07 //006   ----------------------------------------
 BYTE   N42  Cs2  v056
 BYTE   W48
 BYTE   N40  Ds2  v044
 BYTE   W48
//  #07 //007   ----------------------------------------
 BYTE   En2  v052
 BYTE   W48
 BYTE   N22  Fs2
 BYTE   W24
 BYTE   N05  En2  v060
 BYTE   W13
 BYTE   Ds2  v064
 BYTE   W11
//  #07 //008   ----------------------------------------
 BYTE   N44  Cs2  v052
 BYTE   W48
 BYTE   N20  Bn1
 BYTE   W24
 BYTE   N05  Gs1  v064
 BYTE   W13
 BYTE   N06  Ds2  v056
 BYTE   W11
//  #07 //009   ----------------------------------------
 BYTE   N68  Cs2  v044
 BYTE   W96
//  #07 //010   ----------------------------------------
 BYTE   VOL   62*song09_mvl/mxv
 BYTE   W18
 BYTE   VOL   59*song09_mvl/mxv
 BYTE   W06
 BYTE   VOL   37*song09_mvl/mxv
 BYTE   N42  Gs2  v052
 BYTE   W06
 BYTE   VOL   28*song09_mvl/mxv
 BYTE   W06
 BYTE   VOL   31*song09_mvl/mxv
 BYTE   W06
 BYTE   VOL   40*song09_mvl/mxv
 BYTE   W06
 BYTE   VOL   49*song09_mvl/mxv
 BYTE   W06
 BYTE   VOL   57*song09_mvl/mxv
 BYTE   W06
 BYTE   VOL   61*song09_mvl/mxv
 BYTE   W06
 BYTE   VOL   62*song09_mvl/mxv
 BYTE   W05
 BYTE   N15  En3  v032
 BYTE   W13
 BYTE   N13  Ds3
 BYTE   W12
//  #07 //011   ----------------------------------------
 BYTE   N44  Cs3  v036
 BYTE   W06
 BYTE   VOL   61*song09_mvl/mxv
 BYTE   W06
 BYTE   VOL   59*song09_mvl/mxv
 BYTE   W06
 BYTE   VOL   57*song09_mvl/mxv
 BYTE   W06
 BYTE   VOL   55*song09_mvl/mxv
 BYTE   W06
 BYTE   VOL   53*song09_mvl/mxv
 BYTE   W06
 BYTE   VOL   51*song09_mvl/mxv
 BYTE   W06
 BYTE   VOL   50*song09_mvl/mxv
 BYTE   W06
 BYTE   VOL   48*song09_mvl/mxv
 BYTE   N48  Cn3
 BYTE   W06
 BYTE   VOL   47*song09_mvl/mxv
 BYTE   W06
 BYTE   VOL   46*song09_mvl/mxv
 BYTE   W06
 BYTE   VOL   43*song09_mvl/mxv
 BYTE   W06
 BYTE   VOL   42*song09_mvl/mxv
 BYTE   W06
 BYTE   VOL   37*song09_mvl/mxv
 BYTE   W06
 BYTE   VOL   35*song09_mvl/mxv
 BYTE   W06
 BYTE   VOL   24*song09_mvl/mxv
 BYTE   W06
//  #07 //012   ----------------------------------------
 BYTE   VOL   18*song09_mvl/mxv
 BYTE   W06
 BYTE   VOL   31*song09_mvl/mxv
 BYTE   W06
 BYTE   VOL   37*song09_mvl/mxv
 BYTE   W06
 BYTE   VOL   57*song09_mvl/mxv
 BYTE   W06
 BYTE   VOL   53*song09_mvl/mxv
 BYTE   N36  Bn2  v044
 BYTE   W06
 BYTE   VOL   40*song09_mvl/mxv
 BYTE   W06
 BYTE   VOL   43*song09_mvl/mxv
 BYTE   W06
 BYTE   VOL   50*song09_mvl/mxv
 BYTE   W06
 BYTE   VOL   51*song09_mvl/mxv
 BYTE   W06
 BYTE   VOL   59*song09_mvl/mxv
 BYTE   W06
 BYTE   VOL   62*song09_mvl/mxv
 BYTE   W01
 BYTE   N18  An2  v036
 BYTE   W11
 BYTE   VOL   61*song09_mvl/mxv
 BYTE   W06
 BYTE   VOL   61*song09_mvl/mxv
 BYTE   W06
 BYTE   VOL   59*song09_mvl/mxv
 BYTE   N13  Gs2
 BYTE   W06
 BYTE   VOL   59*song09_mvl/mxv
 BYTE   W06
//  #07 //013   ----------------------------------------
 BYTE   VOL   57*song09_mvl/mxv
 BYTE   N44  Fs2
 BYTE   W06
 BYTE   VOL   57*song09_mvl/mxv
 BYTE   W06
 BYTE   VOL   56*song09_mvl/mxv
 BYTE   W06
 BYTE   VOL   55*song09_mvl/mxv
 BYTE   W06
 BYTE   VOL   54*song09_mvl/mxv
 BYTE   W06
 BYTE   VOL   52*song09_mvl/mxv
 BYTE   W12
 BYTE   VOL   51*song09_mvl/mxv
 BYTE   W06
 BYTE   N66  En2  v032
 BYTE   W06
 BYTE   VOL   49*song09_mvl/mxv
 BYTE   W12
 BYTE   VOL   46*song09_mvl/mxv
 BYTE   W06
 BYTE   VOL   45*song09_mvl/mxv
 BYTE   W06
 BYTE   VOL   41*song09_mvl/mxv
 BYTE   W06
 BYTE   VOL   38*song09_mvl/mxv
 BYTE   W06
 BYTE   VOL   26*song09_mvl/mxv
 BYTE   W06
//  #07 //014   ----------------------------------------
 BYTE   VOL   10*song09_mvl/mxv
 BYTE   W18
 BYTE   VOL   62*song09_mvl/mxv
 BYTE   W06
 BYTE   VOL   56*song09_mvl/mxv
 BYTE   N14  Fs2  v036
 BYTE   W06
 BYTE   VOL   49*song09_mvl/mxv
 BYTE   W06
 BYTE   VOL   48*song09_mvl/mxv
 BYTE   W01
 BYTE   N07  Gs2  v044
 BYTE   W05
 BYTE   VOL   45*song09_mvl/mxv
 BYTE   W05
 BYTE   N72  An2  v032
 BYTE   W01
 BYTE   VOL   43*song09_mvl/mxv
 BYTE   W06
 BYTE   VOL   45*song09_mvl/mxv
 BYTE   W06
 BYTE   VOL   46*song09_mvl/mxv
 BYTE   W06
 BYTE   VOL   50*song09_mvl/mxv
 BYTE   W06
 BYTE   VOL   51*song09_mvl/mxv
 BYTE   W06
 BYTE   VOL   53*song09_mvl/mxv
 BYTE   W06
 BYTE   VOL   55*song09_mvl/mxv
 BYTE   W06
 BYTE   VOL   56*song09_mvl/mxv
 BYTE   W06
//  #07 //015   ----------------------------------------
 BYTE   VOL   57*song09_mvl/mxv
 BYTE   W06
 BYTE   VOL   59*song09_mvl/mxv
 BYTE   W06
 BYTE   VOL   59*song09_mvl/mxv
 BYTE   W06
 BYTE   VOL   61*song09_mvl/mxv
 BYTE   W06
 BYTE   VOL   62*song09_mvl/mxv
 BYTE   N22  Gs2
 BYTE   W24
 BYTE   VOL   61*song09_mvl/mxv
 BYTE   N24  Fs2  v044
 BYTE   W12
 BYTE   VOL   61*song09_mvl/mxv
 BYTE   W06
 BYTE   VOL   59*song09_mvl/mxv
 BYTE   W06
 BYTE   N44  En2
 BYTE   W06
 BYTE   VOL   59*song09_mvl/mxv
 BYTE   W06
 BYTE   VOL   57*song09_mvl/mxv
 BYTE   W06
 BYTE   VOL   55*song09_mvl/mxv
 BYTE   W06
//  #07 //016   ----------------------------------------
 BYTE   VOL   54*song09_mvl/mxv
 BYTE   W06
 BYTE   VOL   51*song09_mvl/mxv
 BYTE   W06
 BYTE   VOL   47*song09_mvl/mxv
 BYTE   W06
 BYTE   VOL   53*song09_mvl/mxv
 BYTE   W06
 BYTE   VOL   57*song09_mvl/mxv
 BYTE   N14  Bn2  v040
 BYTE   W06
 BYTE   VOL   47*song09_mvl/mxv
 BYTE   W07
 BYTE   N07  Cs3  v036
 BYTE   W05
 BYTE   VOL   49*song09_mvl/mxv
 BYTE   W06
 BYTE   VOL   50*song09_mvl/mxv
 BYTE   N24  An2  v032
 BYTE   W06
 BYTE   VOL   51*song09_mvl/mxv
 BYTE   W06
 BYTE   VOL   51*song09_mvl/mxv
 BYTE   W06
 BYTE   VOL   52*song09_mvl/mxv
 BYTE   W06
 BYTE   VOL   53*song09_mvl/mxv
 BYTE   N30  Gs2  v024
 BYTE   W06
 BYTE   VOL   54*song09_mvl/mxv
 BYTE   W06
 BYTE   VOL   51*song09_mvl/mxv
 BYTE   W06
 BYTE   VOL   44*song09_mvl/mxv
 BYTE   W06
//  #07 //017   ----------------------------------------
 BYTE   VOL   34*song09_mvl/mxv
 BYTE   W06
 BYTE   VOL   28*song09_mvl/mxv
 BYTE   W06
 BYTE   VOL   38*song09_mvl/mxv
 BYTE   W06
 BYTE   VOL   46*song09_mvl/mxv
 BYTE   W06
 BYTE   VOL   45*song09_mvl/mxv
 BYTE   N14  Fs2  v040
 BYTE   W06
 BYTE   VOL   42*song09_mvl/mxv
 BYTE   W06
 BYTE   VOL   43*song09_mvl/mxv
 BYTE   W01
 BYTE   N07  Gs2  v044
 BYTE   W05
 BYTE   VOL   44*song09_mvl/mxv
 BYTE   W06
 BYTE   VOL   45*song09_mvl/mxv
 BYTE   N22  En2
 BYTE   W06
 BYTE   VOL   45*song09_mvl/mxv
 BYTE   W06
 BYTE   VOL   46*song09_mvl/mxv
 BYTE   W06
 BYTE   VOL   48*song09_mvl/mxv
 BYTE   W06
 BYTE   N24
 BYTE   W06
 BYTE   VOL   50*song09_mvl/mxv
 BYTE   W06
 BYTE   VOL   51*song09_mvl/mxv
 BYTE   W06
 BYTE   VOL   51*song09_mvl/mxv
 BYTE   W06
//  #07 //018   ----------------------------------------
 BYTE   VOL   52*song09_mvl/mxv
 BYTE   TIE  Fs2  v032
 BYTE   W06
 BYTE   VOL   54*song09_mvl/mxv
 BYTE   W12
 BYTE   VOL   57*song09_mvl/mxv
 BYTE   W12
 BYTE   VOL   56*song09_mvl/mxv
 BYTE   W12
 BYTE   VOL   55*song09_mvl/mxv
 BYTE   W12
 BYTE   VOL   54*song09_mvl/mxv
 BYTE   W06
 BYTE   VOL   53*song09_mvl/mxv
 BYTE   W06
 BYTE   VOL   51*song09_mvl/mxv
 BYTE   W12
 BYTE   VOL   49*song09_mvl/mxv
 BYTE   W06
 BYTE   VOL   48*song09_mvl/mxv
 BYTE   W06
 BYTE   VOL   45*song09_mvl/mxv
 BYTE   W06
//  #07 //019   ----------------------------------------
 BYTE   VOL   44*song09_mvl/mxv
 BYTE   W06
 BYTE   VOL   39*song09_mvl/mxv
 BYTE   W06
 BYTE   VOL   37*song09_mvl/mxv
 BYTE   W06
 BYTE   VOL   34*song09_mvl/mxv
 BYTE   W01
 BYTE   EOT
 BYTE   W05
 BYTE   VOL   54*song09_mvl/mxv
 BYTE   N22  Fs2  v044
 BYTE   W12
 BYTE   VOL   53*song09_mvl/mxv
 BYTE   W06
 BYTE   VOL   51*song09_mvl/mxv
 BYTE   W06
 BYTE   VOL   51*song09_mvl/mxv
 BYTE   N23  En2
 BYTE   W06
 BYTE   VOL   50*song09_mvl/mxv
 BYTE   W06
 BYTE   VOL   49*song09_mvl/mxv
 BYTE   W06
 BYTE   VOL   47*song09_mvl/mxv
 BYTE   W06
 BYTE   VOL   46*song09_mvl/mxv
 BYTE   N22  Ds2
 BYTE   W06
 BYTE   VOL   45*song09_mvl/mxv
 BYTE   W06
 BYTE   VOL   45*song09_mvl/mxv
 BYTE   W06
 BYTE   VOL   44*song09_mvl/mxv
 BYTE   W06
//  #07 //020   ----------------------------------------
 BYTE   VOL   53*song09_mvl/mxv
 BYTE   N42  Cs2  v048
 BYTE   W48
 BYTE   N40  Cn2
 BYTE   W48
//  #07 //021   ----------------------------------------
 BYTE   Cs2  v044
 BYTE   W48
 BYTE   N22  Ds2  v052
 BYTE   W24
 BYTE   N04  Cs2  v064
 BYTE   W13
 BYTE   N06  Cn2  v060
 BYTE   W11
//  #07 //022   ----------------------------------------
 BYTE   N40  As1  v052
 BYTE   W48
 BYTE   N23  Gs1
 BYTE   W24
 BYTE   N05  Fn1  v060
 BYTE   W13
 BYTE   N06  Cn2  v068
 BYTE   W11
//  #07 //023   ----------------------------------------
 BYTE   N54  As1  v040
 BYTE   W96
//  #07 //024   ----------------------------------------
 BYTE   VOICE   0
 BYTE   VOL   19*song09_mvl/mxv
 BYTE   PAN   c_v+46
 BYTE   VOL   29*song09_mvl/mxv
 BYTE   W18
 BYTE   N03  Bn3  v052
 BYTE   W12
 BYTE   N02  Ds4  v056
 BYTE   W12
 BYTE   Fn4
 BYTE   W12
 BYTE   As3
 BYTE   W12
 BYTE   N03  Bn3  v032
 BYTE   W12
 BYTE   N02  Ds4  v048
 BYTE   W12
 BYTE   N03  Fn4  v056
 BYTE   W06
//  #07 //025   ----------------------------------------
 BYTE   W06
 BYTE   N05  Gs3
 BYTE   W12
 BYTE   Bn3  v032
 BYTE   W12
 BYTE   Ds4  v040
 BYTE   W12
 BYTE   Fn4  v048
 BYTE   W12
 BYTE   Gs3
 BYTE   W12
 BYTE   Bn3  v036
 BYTE   W12
 BYTE   Ds4  v040
 BYTE   W12
 BYTE   Fn4  v048
 BYTE   W06
//  #07 //026   ----------------------------------------
Label_01214E00:
 BYTE   W06
 BYTE   N05  Fs3  v052
 BYTE   W12
 BYTE   As3  v044
 BYTE   W12
 BYTE   Ds4  v040
 BYTE   W12
 BYTE   Fn4
 BYTE   W12
 BYTE   Fs3  v036
 BYTE   W12
 BYTE   As3  v040
 BYTE   W12
 BYTE   Ds4
 BYTE   W12
 BYTE   Fn4  v036
 BYTE   W06
 BYTE   PEND 
//  #07 //027   ----------------------------------------
 BYTE   W06
 BYTE   Fs3  v040
 BYTE   W12
 BYTE   As3  v036
 BYTE   W12
 BYTE   Ds4  v032
 BYTE   W12
 BYTE   Fn4  v036
 BYTE   W12
 BYTE   Fs3
 BYTE   W12
 BYTE   As3
 BYTE   W12
 BYTE   Ds4  v032
 BYTE   W12
 BYTE   Fs4  v040
 BYTE   W06
//  #07 //028   ----------------------------------------
 BYTE   W06
 BYTE   Fn3
 BYTE   W12
 BYTE   Gs3  v044
 BYTE   W12
 BYTE   Bn3  v040
 BYTE   W12
 BYTE   Ds4  v044
 BYTE   W12
 BYTE   Fn3  v032
 BYTE   W12
 BYTE   Gs3  v028
 BYTE   W12
 BYTE   Bn3  v036
 BYTE   W12
 BYTE   Ds4  v040
 BYTE   W06
//  #07 //029   ----------------------------------------
 BYTE   W06
 BYTE   Fn3  v044
 BYTE   W12
 BYTE   Gs3  v028
 BYTE   W12
 BYTE   Bn3  v036
 BYTE   W12
 BYTE   Ds4
 BYTE   W12
 BYTE   Fn3  v044
 BYTE   W12
 BYTE   Gs3  v032
 BYTE   W12
 BYTE   Bn3
 BYTE   W12
 BYTE   Ds4  v044
 BYTE   W06
//  #07 //030   ----------------------------------------
 BYTE   W06
 BYTE   Ds3  v048
 BYTE   W12
 BYTE   Gs3  v044
 BYTE   W12
 BYTE   As3  v036
 BYTE   W12
 BYTE   Ds4
 BYTE   W12
 BYTE   Ds3  v032
 BYTE   W12
 BYTE   Fs3  v036
 BYTE   W12
 BYTE   As3  v032
 BYTE   W12
 BYTE   Ds4
 BYTE   W06
//  #07 //031   ----------------------------------------
 BYTE   W06
 BYTE   Ds3
 BYTE   W12
 BYTE   Fn3  v044
 BYTE   W12
 BYTE   As3  v036
 BYTE   W12
 BYTE   Ds4  v048
 BYTE   W12
 BYTE   Ds3  v036
 BYTE   W12
 BYTE   Fs3  v052
 BYTE   W12
 BYTE   As3  v044
 BYTE   W12
 BYTE   Ds4  v036
 BYTE   W06
//  #07 //032   ----------------------------------------
 BYTE   W06
 BYTE   Gs3  v068
 BYTE   W12
 BYTE   As3  v052
 BYTE   W12
 BYTE   Ds4  v056
 BYTE   W12
 BYTE   Fn4
 BYTE   W12
 BYTE   Gs3
 BYTE   W12
 BYTE   As3  v032
 BYTE   W12
 BYTE   Ds4  v048
 BYTE   W12
 BYTE   Fn4  v056
 BYTE   W06
//  #07 //033   ----------------------------------------
 BYTE   W06
 BYTE   Gs3
 BYTE   W12
 BYTE   Bn3  v040
 BYTE   W12
 BYTE   Ds4
 BYTE   W12
 BYTE   Fn4  v048
 BYTE   W12
 BYTE   Gs3
 BYTE   W12
 BYTE   Bn3  v036
 BYTE   W12
 BYTE   Ds4  v040
 BYTE   W12
 BYTE   Fn4  v048
 BYTE   W06
//  #07 //034   ----------------------------------------
 BYTE   PATT
  POIN2 Label_01214E00
//  #07 //035   ----------------------------------------
 BYTE   W06
 BYTE   N05  Fs3  v040
 BYTE   W12
 BYTE   As3  v036
 BYTE   W12
 BYTE   Ds4  v032
 BYTE   W12
 BYTE   Fs4  v036
 BYTE   W12
 BYTE   Fs3
 BYTE   W12
 BYTE   As3
 BYTE   W12
 BYTE   Cs4  v032
 BYTE   W12
 BYTE   Fs4  v040
 BYTE   W06
//  #07 //036   ----------------------------------------
 BYTE   W06
 BYTE   Fs3
 BYTE   W12
 BYTE   Gs3  v044
 BYTE   W12
 BYTE   Cn4  v040
 BYTE   W12
 BYTE   Ds4  v044
 BYTE   W12
 BYTE   Fs3  v032
 BYTE   W12
 BYTE   Gs3  v028
 BYTE   W12
 BYTE   Cn4  v036
 BYTE   W12
 BYTE   Ds4  v040
 BYTE   W06
//  #07 //037   ----------------------------------------
 BYTE   W06
 BYTE   VOL   28*song09_mvl/mxv
 BYTE   N05  Fs3  v044
 BYTE   W12
 BYTE   Gs3  v028
 BYTE   W12
 BYTE   Cn4  v036
 BYTE   W12
 BYTE   Ds4
 BYTE   W12
 BYTE   Fs3  v044
 BYTE   W06
 BYTE   VOL   28*song09_mvl/mxv
 BYTE   W06
 BYTE   N05  Gs3  v032
 BYTE   W12
 BYTE   Bn3
 BYTE   W12
 BYTE   Ds4  v044
 BYTE   W06
//  #07 //038   ----------------------------------------
 BYTE   W06
 BYTE   VOL   28*song09_mvl/mxv
 BYTE   N05  Fs3  v048
 BYTE   W12
 BYTE   As3  v044
 BYTE   W12
 BYTE   Ds4  v036
 BYTE   W12
 BYTE   VOL   27*song09_mvl/mxv
 BYTE   N05  Gs4
 BYTE   W12
 BYTE   Fs3  v032
 BYTE   W12
 BYTE   VOL   27*song09_mvl/mxv
 BYTE   N05  As3  v036
 BYTE   W12
 BYTE   VOL   27*song09_mvl/mxv
 BYTE   N05  Ds4  v032
 BYTE   W12
 BYTE   Fs4
 BYTE   W06
//  #07 //039   ----------------------------------------
 BYTE   W06
 BYTE   VOL   27*song09_mvl/mxv
 BYTE   N05  Fs3
 BYTE   W12
 BYTE   VOL   26*song09_mvl/mxv
 BYTE   N05  As3  v044
 BYTE   W12
 BYTE   VOL   25*song09_mvl/mxv
 BYTE   N04  Ds4  v036
 BYTE   W12
 BYTE   VOL   24*song09_mvl/mxv
 BYTE   N05  Fs4  v048
 BYTE   W06
 BYTE   VOL   23*song09_mvl/mxv
 BYTE   W06
 BYTE   N05  Fs3  v036
 BYTE   W06
 BYTE   VOL   23*song09_mvl/mxv
 BYTE   W06
 BYTE   N05  As3  v052
 BYTE   W06
 BYTE   VOL   21*song09_mvl/mxv
 BYTE   W06
 BYTE   N05  Ds4  v044
 BYTE   W06
 BYTE   VOL   20*song09_mvl/mxv
 BYTE   W06
 BYTE   N05  Fs4  v036
 BYTE   W06
//  #07 //040   ----------------------------------------
 BYTE   VOL   17*song09_mvl/mxv
 BYTE   W24
 BYTE   VOICE   10
 BYTE   VOL   47*song09_mvl/mxv
 BYTE   PAN   c_v-34
 BYTE   VOL   18*song09_mvl/mxv
 BYTE   N23  As1  v068
 BYTE   W06
 BYTE   VOL   20*song09_mvl/mxv
 BYTE   W06
 BYTE   VOL   20*song09_mvl/mxv
 BYTE   W06
 BYTE   VOL   22*song09_mvl/mxv
 BYTE   W06
 BYTE   VOL   23*song09_mvl/mxv
 BYTE   N22  Ds2  v060
 BYTE   W06
 BYTE   VOL   25*song09_mvl/mxv
 BYTE   W06
 BYTE   VOL   26*song09_mvl/mxv
 BYTE   W06
 BYTE   VOL   28*song09_mvl/mxv
 BYTE   W06
 BYTE   VOL   28*song09_mvl/mxv
 BYTE   N44  Fn2  v068
 BYTE   W06
 BYTE   VOL   31*song09_mvl/mxv
 BYTE   W06
 BYTE   VOL   32*song09_mvl/mxv
 BYTE   W06
 BYTE   VOL   34*song09_mvl/mxv
 BYTE   W06
//  #07 //041   ----------------------------------------
 BYTE   VOL   35*song09_mvl/mxv
 BYTE   W06
 BYTE   VOL   37*song09_mvl/mxv
 BYTE   W06
 BYTE   VOL   38*song09_mvl/mxv
 BYTE   W06
 BYTE   VOL   40*song09_mvl/mxv
 BYTE   W05
 BYTE   N28  Fs2  v060
 BYTE   W01
 BYTE   VOL   41*song09_mvl/mxv
 BYTE   W06
 BYTE   VOL   37*song09_mvl/mxv
 BYTE   W06
 BYTE   VOL   32*song09_mvl/mxv
 BYTE   W06
 BYTE   VOL   24*song09_mvl/mxv
 BYTE   W06
 BYTE   VOL   22*song09_mvl/mxv
 BYTE   W12
 BYTE   VOL   22*song09_mvl/mxv
 BYTE   W12
 BYTE   VOL   23*song09_mvl/mxv
 BYTE   N21  Ds2  v072
 BYTE   W12
 BYTE   VOL   23*song09_mvl/mxv
 BYTE   W11
 BYTE   N24  Fn2
 BYTE   W01
//  #07 //042   ----------------------------------------
 BYTE   W06
 BYTE   VOL   24*song09_mvl/mxv
 BYTE   W12
 BYTE   VOL   25*song09_mvl/mxv
 BYTE   W05
 BYTE   N48  As2  v068
 BYTE   W07
 BYTE   VOL   26*song09_mvl/mxv
 BYTE   W12
 BYTE   VOL   27*song09_mvl/mxv
 BYTE   W12
 BYTE   VOL   27*song09_mvl/mxv
 BYTE   W12
 BYTE   VOL   28*song09_mvl/mxv
 BYTE   W06
 BYTE   N32  Fn3  v044
 BYTE   W06
 BYTE   VOL   28*song09_mvl/mxv
 BYTE   W12
 BYTE   VOL   29*song09_mvl/mxv
 BYTE   W06
//  #07 //043   ----------------------------------------
 BYTE   W06
 BYTE   VOL   30*song09_mvl/mxv
 BYTE   W18
 BYTE   N23  Ds3  v056
 BYTE   W06
 BYTE   VOL   29*song09_mvl/mxv
 BYTE   W12
 BYTE   VOL   28*song09_mvl/mxv
 BYTE   W06
 BYTE   VOL   28*song09_mvl/mxv
 BYTE   N22  Fn3
 BYTE   W06
 BYTE   VOL   27*song09_mvl/mxv
 BYTE   W06
 BYTE   VOL   27*song09_mvl/mxv
 BYTE   W06
 BYTE   VOL   25*song09_mvl/mxv
 BYTE   W06
 BYTE   VOL   24*song09_mvl/mxv
 BYTE   N23  Fs3  v052
 BYTE   W06
 BYTE   VOL   23*song09_mvl/mxv
 BYTE   W06
 BYTE   VOL   22*song09_mvl/mxv
 BYTE   W06
 BYTE   VOL   20*song09_mvl/mxv
 BYTE   W06
//  #07 //044   ----------------------------------------
 BYTE   VOL   20*song09_mvl/mxv
 BYTE   N23  Gs3
 BYTE   W06
 BYTE   VOL   17*song09_mvl/mxv
 BYTE   W06
 BYTE   VOL   17*song09_mvl/mxv
 BYTE   W06
 BYTE   VOL   13*song09_mvl/mxv
 BYTE   W06
 BYTE   VOL   11*song09_mvl/mxv
 BYTE   N23  Ds3  v056
 BYTE   W06
 BYTE   VOL   8*song09_mvl/mxv
 BYTE   W06
 BYTE   VOL   6*song09_mvl/mxv
 BYTE   W06
 BYTE   VOL   1*song09_mvl/mxv
 BYTE   W06
 BYTE   VOL   0*song09_mvl/mxv
 BYTE   W48
//  #07 //045   ----------------------------------------
 BYTE   W48
 BYTE   VOL   80*song09_mvl/mxv
 BYTE   W48
//  #07 //046   ----------------------------------------
 BYTE   W96
//  #07 //047   ----------------------------------------
 BYTE   W96
//  #07 //048   ----------------------------------------
 BYTE   W48
 BYTE   VOICE   10
 BYTE   VOL   53*song09_mvl/mxv
 BYTE   N42  As1  v060
 BYTE   W24
 BYTE   GoTo
  POIN2 Label_01214BCA
//  #07 //049   ----------------------------------------
 BYTE   W24
 BYTE   N40  Cn2  v048
 BYTE   W44
 BYTE   FINE

//**************** Track 8 (Midi-Chn.7) ****************//

song09_008:
//  #08 //000   ----------------------------------------
 BYTE   KEYSH   song09_key+0
 BYTE   VOICE   14
 BYTE   MODT 0
 BYTE   LFOS 44
 BYTE   MOD 0
 BYTE   VOL   53*song09_mvl/mxv
 BYTE   PAN   c_v+0
 BYTE   VOL   53*song09_mvl/mxv
 BYTE   N92  As3  v032
 BYTE   W96
//  #08 //001   ----------------------------------------
 BYTE   N66
 BYTE   W96
//  #08 //002   ----------------------------------------
 BYTE   VOICE   15
 BYTE   VOL   80*song09_mvl/mxv
 BYTE   PAN   c_v+26
 BYTE   VOL   53*song09_mvl/mxv
 BYTE   W02
 BYTE   N40  Fn2  v060
 BYTE   W28
Label_0121504B:
 BYTE   W21
 BYTE   N36  Fs2  v056
 BYTE   W18
 BYTE   VOL   52*song09_mvl/mxv
 BYTE   W24
 BYTE   W03
//  #08 //003   ----------------------------------------
 BYTE   W01
 BYTE   N42  Fn2
 BYTE   W06
 BYTE   VOL   51*song09_mvl/mxv
 BYTE   W32
 BYTE   W03
 BYTE   VOL   51*song09_mvl/mxv
 BYTE   W07
 BYTE   N23  Fs2
 BYTE   W23
 BYTE   N05  Fn2  v060
 BYTE   W04
 BYTE   VOL   50*song09_mvl/mxv
 BYTE   W14
 BYTE   N06  Ds2  v056
 BYTE   W06
//  #08 //004   ----------------------------------------
 BYTE   N42  Cs2  v060
 BYTE   W15
 BYTE   VOL   49*song09_mvl/mxv
 BYTE   W32
 BYTE   W02
 BYTE   VOL   48*song09_mvl/mxv
 BYTE   N24  Cn2  v056
 BYTE   W24
 BYTE   N05  Gs1  v068
 BYTE   W11
 BYTE   VOL   47*song09_mvl/mxv
 BYTE   W07
 BYTE   N06  Ds2  v060
 BYTE   W05
//  #08 //005   ----------------------------------------
 BYTE   W01
 BYTE   N54  Cs2  v044
 BYTE   W21
 BYTE   VOL   46*song09_mvl/mxv
 BYTE   W32
 BYTE   W02
 BYTE   VOL   45*song09_mvl/mxv
 BYTE   W18
 BYTE   N21  Ds2  v068
 BYTE   W17
 BYTE   VOL   45*song09_mvl/mxv
 BYTE   W05
//  #08 //006   ----------------------------------------
 BYTE   W02
 BYTE   N40  En2  v060
 BYTE   W24
 BYTE   W03
 BYTE   VOL   44*song09_mvl/mxv
 BYTE   W22
 BYTE   N36  An2  v056
 BYTE   W13
 BYTE   VOL   43*song09_mvl/mxv
 BYTE   W32
//  #08 //007   ----------------------------------------
 BYTE   W01
 BYTE   N42  Gs2
 BYTE   W01
 BYTE   VOL   42*song09_mvl/mxv
 BYTE   W32
 BYTE   W03
 BYTE   VOL   41*song09_mvl/mxv
 BYTE   W12
 BYTE   N23  An2
 BYTE   W22
 BYTE   VOL   40*song09_mvl/mxv
 BYTE   W01
 BYTE   N05  Gs2  v060
 BYTE   W18
 BYTE   N07  Fs2
 BYTE   W06
//  #08 //008   ----------------------------------------
 BYTE   N44  En2
 BYTE   W09
 BYTE   VOL   40*song09_mvl/mxv
 BYTE   W32
 BYTE   W03
 BYTE   VOL   39*song09_mvl/mxv
 BYTE   W05
 BYTE   N24  Ds2  v056
 BYTE   W24
 BYTE   N05  Bn1  v068
 BYTE   W05
 BYTE   VOL   38*song09_mvl/mxv
 BYTE   W13
 BYTE   N06  Fs2  v056
 BYTE   W05
//  #08 //009   ----------------------------------------
 BYTE   W01
 BYTE   N66  En2  v044
 BYTE   W16
 BYTE   VOL   37*song09_mvl/mxv
 BYTE   W32
 BYTE   W02
 BYTE   VOL   37*song09_mvl/mxv
 BYTE   W32
 BYTE   W03
 BYTE   VOL   36*song09_mvl/mxv
 BYTE   W10
//  #08 //010   ----------------------------------------
 BYTE   VOICE   13
 BYTE   PAN   c_v+7
 BYTE   W22
 BYTE   N42  Gs1  v072
 BYTE   W02
 BYTE   VOL   34*song09_mvl/mxv
 BYTE   W03
 BYTE   VOL   35*song09_mvl/mxv
 BYTE   W02
 BYTE   VOL   36*song09_mvl/mxv
 BYTE   W01
 BYTE   VOL   37*song09_mvl/mxv
 BYTE   W02
 BYTE   VOL   38*song09_mvl/mxv
 BYTE   W01
 BYTE   VOL   39*song09_mvl/mxv
 BYTE   W02
 BYTE   VOL   40*song09_mvl/mxv
 BYTE   W01
 BYTE   VOL   41*song09_mvl/mxv
 BYTE   W02
 BYTE   VOL   43*song09_mvl/mxv
 BYTE   W01
 BYTE   VOL   45*song09_mvl/mxv
 BYTE   W02
 BYTE   VOL   46*song09_mvl/mxv
 BYTE   W01
 BYTE   VOL   49*song09_mvl/mxv
 BYTE   W02
 BYTE   VOL   51*song09_mvl/mxv
 BYTE   W01
 BYTE   VOL   55*song09_mvl/mxv
 BYTE   W02
 BYTE   VOL   57*song09_mvl/mxv
 BYTE   W01
 BYTE   VOL   61*song09_mvl/mxv
 BYTE   W02
 BYTE   VOL   63*song09_mvl/mxv
 BYTE   W01
 BYTE   VOL   66*song09_mvl/mxv
 BYTE   W02
 BYTE   VOL   68*song09_mvl/mxv
 BYTE   W01
 BYTE   VOL   69*song09_mvl/mxv
 BYTE   W02
 BYTE   VOL   71*song09_mvl/mxv
 BYTE   W01
 BYTE   VOL   73*song09_mvl/mxv
 BYTE   W02
 BYTE   VOL   73*song09_mvl/mxv
 BYTE   W01
 BYTE   VOL   75*song09_mvl/mxv
 BYTE   W02
 BYTE   VOL   76*song09_mvl/mxv
 BYTE   W01
 BYTE   VOL   78*song09_mvl/mxv
 BYTE   W02
 BYTE   VOL   78*song09_mvl/mxv
 BYTE   N01  Cs2  v080
 BYTE   W01
 BYTE   VOL   80*song09_mvl/mxv
 BYTE   W01
 BYTE   N01  Ds2  v052
 BYTE   W01
 BYTE   N13  En2  v068
 BYTE   W14
 BYTE   Ds2  v060
 BYTE   W13
 BYTE   N44  Cs2
 BYTE   W01
//  #08 //011   ----------------------------------------
 BYTE   W03
 BYTE   VOL   78*song09_mvl/mxv
 BYTE   W03
 BYTE   VOL   78*song09_mvl/mxv
 BYTE   W03
 BYTE   VOL   76*song09_mvl/mxv
 BYTE   W03
 BYTE   VOL   75*song09_mvl/mxv
 BYTE   W03
 BYTE   VOL   74*song09_mvl/mxv
 BYTE   W03
 BYTE   VOL   73*song09_mvl/mxv
 BYTE   W03
 BYTE   VOL   71*song09_mvl/mxv
 BYTE   W03
 BYTE   VOL   70*song09_mvl/mxv
 BYTE   W03
 BYTE   VOL   69*song09_mvl/mxv
 BYTE   W03
 BYTE   VOL   68*song09_mvl/mxv
 BYTE   W03
 BYTE   VOL   66*song09_mvl/mxv
 BYTE   W03
 BYTE   VOL   66*song09_mvl/mxv
 BYTE   W03
 BYTE   VOL   64*song09_mvl/mxv
 BYTE   W03
 BYTE   VOL   63*song09_mvl/mxv
 BYTE   W03
 BYTE   VOL   62*song09_mvl/mxv
 BYTE   W02
 BYTE   N48  Cn2  v044
 BYTE   W01
 BYTE   VOL   61*song09_mvl/mxv
 BYTE   W22
 BYTE   VOL   59*song09_mvl/mxv
 BYTE   W17
 BYTE   VOL   59*song09_mvl/mxv
 BYTE   W05
 BYTE   VOL   57*song09_mvl/mxv
 BYTE   W04
//  #08 //012   ----------------------------------------
 BYTE   W02
 BYTE   VOL   57*song09_mvl/mxv
 BYTE   W05
 BYTE   VOL   56*song09_mvl/mxv
 BYTE   W06
 BYTE   VOL   55*song09_mvl/mxv
 BYTE   W06
 BYTE   VOL   52*song09_mvl/mxv
 BYTE   W05
 BYTE   VOL   49*song09_mvl/mxv
 BYTE   N36  Bn1  v048
 BYTE   W03
 BYTE   VOL   51*song09_mvl/mxv
 BYTE   W03
 BYTE   VOL   53*song09_mvl/mxv
 BYTE   W03
 BYTE   VOL   56*song09_mvl/mxv
 BYTE   W03
 BYTE   VOL   57*song09_mvl/mxv
 BYTE   W03
 BYTE   VOL   61*song09_mvl/mxv
 BYTE   W03
 BYTE   VOL   63*song09_mvl/mxv
 BYTE   W03
 BYTE   VOL   66*song09_mvl/mxv
 BYTE   W03
 BYTE   VOL   68*song09_mvl/mxv
 BYTE   W03
 BYTE   VOL   71*song09_mvl/mxv
 BYTE   W03
 BYTE   VOL   73*song09_mvl/mxv
 BYTE   W03
 BYTE   VOL   76*song09_mvl/mxv
 BYTE   W03
 BYTE   VOL   80*song09_mvl/mxv
 BYTE   W02
 BYTE   N19  An1  v060
 BYTE   W08
 BYTE   VOL   78*song09_mvl/mxv
 BYTE   W10
 BYTE   VOL   78*song09_mvl/mxv
 BYTE   W01
 BYTE   N14  Gs1  v068
 BYTE   W08
 BYTE   VOL   76*song09_mvl/mxv
 BYTE   W07
//  #08 //013   ----------------------------------------
 BYTE   N44  Fs1  v056
 BYTE   W03
 BYTE   VOL   75*song09_mvl/mxv
 BYTE   W10
 BYTE   VOL   74*song09_mvl/mxv
 BYTE   W10
 BYTE   VOL   73*song09_mvl/mxv
 BYTE   W09
 BYTE   VOL   73*song09_mvl/mxv
 BYTE   W10
 BYTE   VOL   71*song09_mvl/mxv
 BYTE   W04
 BYTE   N52  En1  v044
 BYTE   W06
 BYTE   VOL   70*song09_mvl/mxv
 BYTE   W10
 BYTE   VOL   69*song09_mvl/mxv
 BYTE   W09
 BYTE   VOL   68*song09_mvl/mxv
 BYTE   W10
 BYTE   VOL   68*song09_mvl/mxv
 BYTE   W10
 BYTE   VOL   66*song09_mvl/mxv
 BYTE   W05
//  #08 //014   ----------------------------------------
 BYTE   W05
 BYTE   VOL   66*song09_mvl/mxv
 BYTE   W09
 BYTE   VOL   64*song09_mvl/mxv
 BYTE   W09
 BYTE   N15  Fs1  v072
 BYTE   W01
 BYTE   VOL   63*song09_mvl/mxv
 BYTE   W03
 BYTE   VOL   62*song09_mvl/mxv
 BYTE   W03
 BYTE   VOL   61*song09_mvl/mxv
 BYTE   W03
 BYTE   VOL   61*song09_mvl/mxv
 BYTE   W03
 BYTE   VOL   59*song09_mvl/mxv
 BYTE   W03
 BYTE   VOL   57*song09_mvl/mxv
 BYTE   N07  Gs1  v068
 BYTE   W03
 BYTE   VOL   57*song09_mvl/mxv
 BYTE   W03
 BYTE   VOL   56*song09_mvl/mxv
 BYTE   W01
 BYTE   N72  An1  v056
 BYTE   W02
 BYTE   VOL   54*song09_mvl/mxv
 BYTE   W03
 BYTE   VOL   55*song09_mvl/mxv
 BYTE   W03
 BYTE   VOL   57*song09_mvl/mxv
 BYTE   W03
 BYTE   VOL   59*song09_mvl/mxv
 BYTE   W03
 BYTE   VOL   59*song09_mvl/mxv
 BYTE   W03
 BYTE   VOL   61*song09_mvl/mxv
 BYTE   W03
 BYTE   VOL   62*song09_mvl/mxv
 BYTE   W03
 BYTE   VOL   64*song09_mvl/mxv
 BYTE   W03
 BYTE   VOL   66*song09_mvl/mxv
 BYTE   W03
 BYTE   VOL   66*song09_mvl/mxv
 BYTE   W03
 BYTE   VOL   68*song09_mvl/mxv
 BYTE   W03
 BYTE   VOL   68*song09_mvl/mxv
 BYTE   W03
 BYTE   VOL   69*song09_mvl/mxv
 BYTE   W03
 BYTE   VOL   70*song09_mvl/mxv
 BYTE   W03
 BYTE   VOL   71*song09_mvl/mxv
 BYTE   W03
 BYTE   VOL   73*song09_mvl/mxv
 BYTE   W03
//  #08 //015   ----------------------------------------
 BYTE   VOL   73*song09_mvl/mxv
 BYTE   W03
 BYTE   VOL   74*song09_mvl/mxv
 BYTE   W06
 BYTE   VOL   75*song09_mvl/mxv
 BYTE   W03
 BYTE   VOL   76*song09_mvl/mxv
 BYTE   W03
 BYTE   VOL   78*song09_mvl/mxv
 BYTE   W06
 BYTE   VOL   78*song09_mvl/mxv
 BYTE   W03
 BYTE   VOL   80*song09_mvl/mxv
 BYTE   N22  Gs1  v048
 BYTE   W22
 BYTE   N23  Fs1  v056
 BYTE   W09
 BYTE   VOL   78*song09_mvl/mxv
 BYTE   W15
 BYTE   N44  En1  v060
 BYTE   W05
 BYTE   VOL   78*song09_mvl/mxv
 BYTE   W10
 BYTE   VOL   76*song09_mvl/mxv
 BYTE   W05
 BYTE   VOL   75*song09_mvl/mxv
 BYTE   W06
//  #08 //016   ----------------------------------------
 BYTE   W05
 BYTE   VOL   74*song09_mvl/mxv
 BYTE   W05
 BYTE   VOL   73*song09_mvl/mxv
 BYTE   W05
 BYTE   VOL   71*song09_mvl/mxv
 BYTE   W05
 BYTE   VOL   69*song09_mvl/mxv
 BYTE   W04
 BYTE   N14  Bn1
 BYTE   W01
 BYTE   VOL   66*song09_mvl/mxv
 BYTE   W05
 BYTE   VOL   59*song09_mvl/mxv
 BYTE   W09
 BYTE   N08  Cs2  v044
 BYTE   W09
 BYTE   N24  An1
 BYTE   W09
 BYTE   VOL   59*song09_mvl/mxv
 BYTE   W14
 BYTE   VOL   57*song09_mvl/mxv
 BYTE   W02
 BYTE   N24  Gs1  v040
 BYTE   W12
 BYTE   VOL   57*song09_mvl/mxv
 BYTE   W11
//  #08 //017   ----------------------------------------
 BYTE   W03
 BYTE   VOL   56*song09_mvl/mxv
 BYTE   W13
 BYTE   VOL   55*song09_mvl/mxv
 BYTE   W06
 BYTE   N15  Fs1  v072
 BYTE   W08
 BYTE   VOL   53*song09_mvl/mxv
 BYTE   W08
 BYTE   VOL   54*song09_mvl/mxv
 BYTE   N07  Gs1
 BYTE   W05
 BYTE   VOL   55*song09_mvl/mxv
 BYTE   W02
 BYTE   N24  En1  v056
 BYTE   W02
 BYTE   VOL   56*song09_mvl/mxv
 BYTE   W04
 BYTE   VOL   57*song09_mvl/mxv
 BYTE   W04
 BYTE   VOL   57*song09_mvl/mxv
 BYTE   W04
 BYTE   VOL   59*song09_mvl/mxv
 BYTE   W05
 BYTE   VOL   59*song09_mvl/mxv
 BYTE   W04
 BYTE   VOL   61*song09_mvl/mxv
 BYTE   W02
 BYTE   N24  En1  v052
 BYTE   W02
 BYTE   VOL   61*song09_mvl/mxv
 BYTE   W04
 BYTE   VOL   62*song09_mvl/mxv
 BYTE   W04
 BYTE   VOL   63*song09_mvl/mxv
 BYTE   W05
 BYTE   VOL   64*song09_mvl/mxv
 BYTE   W04
 BYTE   VOL   66*song09_mvl/mxv
 BYTE   W04
 BYTE   VOL   66*song09_mvl/mxv
 BYTE   W03
//  #08 //018   ----------------------------------------
 BYTE   TIE  Fs1  v044
 BYTE   W01
 BYTE   VOL   68*song09_mvl/mxv
 BYTE   W04
 BYTE   VOL   68*song09_mvl/mxv
 BYTE   W05
 BYTE   VOL   69*song09_mvl/mxv
 BYTE   W04
 BYTE   VOL   70*song09_mvl/mxv
 BYTE   W04
 BYTE   VOL   73*song09_mvl/mxv
 BYTE   W76
 BYTE   W01
 BYTE   VOL   71*song09_mvl/mxv
 BYTE   W01
//  #08 //019   ----------------------------------------
 BYTE   W19
 BYTE   EOT
 BYTE   W04
 BYTE   N23  Fs1  v052
 BYTE   W01
 BYTE   VOL   68*song09_mvl/mxv
 BYTE   W08
 BYTE   VOL   68*song09_mvl/mxv
 BYTE   W04
 BYTE   VOL   66*song09_mvl/mxv
 BYTE   W05
 BYTE   VOL   66*song09_mvl/mxv
 BYTE   W04
 BYTE   VOL   64*song09_mvl/mxv
 BYTE   W02
 BYTE   N23  En1
 BYTE   W02
 BYTE   VOL   63*song09_mvl/mxv
 BYTE   W04
 BYTE   VOL   62*song09_mvl/mxv
 BYTE   W04
 BYTE   VOL   61*song09_mvl/mxv
 BYTE   W04
 BYTE   VOL   61*song09_mvl/mxv
 BYTE   W04
 BYTE   VOL   59*song09_mvl/mxv
 BYTE   W04
 BYTE   VOL   59*song09_mvl/mxv
 BYTE   W02
 BYTE   N22  Ds1  v056
 BYTE   W03
 BYTE   VOL   57*song09_mvl/mxv
 BYTE   W04
 BYTE   VOL   57*song09_mvl/mxv
 BYTE   W04
 BYTE   VOL   56*song09_mvl/mxv
 BYTE   W04
 BYTE   VOL   55*song09_mvl/mxv
 BYTE   W04
 BYTE   VOL   53*song09_mvl/mxv
 BYTE   W06
//  #08 //020   ----------------------------------------
 BYTE   VOICE   15
 BYTE   PAN   c_v+26
 BYTE   W02
 BYTE   N40  Fn2  v060
 BYTE   W48
 BYTE   W01
 BYTE   N36  Fs2  v056
 BYTE   W44
 BYTE   W01
//  #08 //021   ----------------------------------------
 BYTE   W01
 BYTE   N42  Fn2
 BYTE   W48
 BYTE   N23  Fs2
 BYTE   W23
 BYTE   N05  Fn2  v060
 BYTE   W18
 BYTE   N06  Ds2  v056
 BYTE   W06
//  #08 //022   ----------------------------------------
 BYTE   N44  Cs2  v060
 BYTE   W48
 BYTE   W01
 BYTE   N24  Cn2  v056
 BYTE   W24
 BYTE   N05  Gs1  v068
 BYTE   W18
 BYTE   N06  Ds2  v060
 BYTE   W05
//  #08 //023   ----------------------------------------
 BYTE   W01
 BYTE   N54  Cs2  v044
 BYTE   W68
 BYTE   VOL   57*song09_mvl/mxv
 BYTE   W01
 BYTE   N23  An1  v076
 BYTE   W02
 BYTE   VOL   59*song09_mvl/mxv
 BYTE   W03
 BYTE   VOL   61*song09_mvl/mxv
 BYTE   W03
 BYTE   VOL   61*song09_mvl/mxv
 BYTE   W03
 BYTE   VOL   62*song09_mvl/mxv
 BYTE   W03
 BYTE   VOL   63*song09_mvl/mxv
 BYTE   W06
 BYTE   VOL   64*song09_mvl/mxv
 BYTE   W03
 BYTE   N44  Gs1  v056
 BYTE   W03
//  #08 //024   ----------------------------------------
 BYTE   VOL   66*song09_mvl/mxv
 BYTE   W03
 BYTE   VOL   64*song09_mvl/mxv
 BYTE   W02
 BYTE   VOL   63*song09_mvl/mxv
 BYTE   W01
 BYTE   VOL   62*song09_mvl/mxv
 BYTE   W02
 BYTE   VOL   61*song09_mvl/mxv
 BYTE   W01
 BYTE   VOL   61*song09_mvl/mxv
 BYTE   W02
 BYTE   VOL   59*song09_mvl/mxv
 BYTE   W01
 BYTE   VOL   59*song09_mvl/mxv
 BYTE   W02
 BYTE   VOL   57*song09_mvl/mxv
 BYTE   W01
 BYTE   VOL   56*song09_mvl/mxv
 BYTE   W02
 BYTE   VOL   55*song09_mvl/mxv
 BYTE   W01
 BYTE   VOL   53*song09_mvl/mxv
 BYTE   W02
 BYTE   VOL   51*song09_mvl/mxv
 BYTE   W01
 BYTE   VOL   50*song09_mvl/mxv
 BYTE   W02
 BYTE   VOL   48*song09_mvl/mxv
 BYTE   W01
 BYTE   VOL   45*song09_mvl/mxv
 BYTE   W02
 BYTE   VOL   43*song09_mvl/mxv
 BYTE   W01
 BYTE   VOL   40*song09_mvl/mxv
 BYTE   W02
 BYTE   VOL   37*song09_mvl/mxv
 BYTE   W01
 BYTE   VOL   34*song09_mvl/mxv
 BYTE   W02
 BYTE   VOL   30*song09_mvl/mxv
 BYTE   W01
 BYTE   VOL   26*song09_mvl/mxv
 BYTE   W02
 BYTE   VOL   21*song09_mvl/mxv
 BYTE   W01
 BYTE   VOL   16*song09_mvl/mxv
 BYTE   W02
 BYTE   VOL   10*song09_mvl/mxv
 BYTE   W01
 BYTE   VOL   4*song09_mvl/mxv
 BYTE   W02
 BYTE   VOL   0*song09_mvl/mxv
 BYTE   W07
 BYTE   VOL   40*song09_mvl/mxv
 BYTE   N21  As1  v052
 BYTE   W02
 BYTE   VOL   41*song09_mvl/mxv
 BYTE   W01
 BYTE   VOL   44*song09_mvl/mxv
 BYTE   W02
 BYTE   VOL   46*song09_mvl/mxv
 BYTE   W01
 BYTE   VOL   48*song09_mvl/mxv
 BYTE   W02
 BYTE   VOL   51*song09_mvl/mxv
 BYTE   W01
 BYTE   VOL   53*song09_mvl/mxv
 BYTE   W02
 BYTE   VOL   56*song09_mvl/mxv
 BYTE   W01
 BYTE   VOL   57*song09_mvl/mxv
 BYTE   W02
 BYTE   VOL   61*song09_mvl/mxv
 BYTE   W01
 BYTE   VOL   63*song09_mvl/mxv
 BYTE   W02
 BYTE   VOL   66*song09_mvl/mxv
 BYTE   W01
 BYTE   VOL   68*song09_mvl/mxv
 BYTE   W02
 BYTE   VOL   71*song09_mvl/mxv
 BYTE   W01
 BYTE   VOL   74*song09_mvl/mxv
 BYTE   W02
 BYTE   VOL   76*song09_mvl/mxv
 BYTE   N22  Ds2  v044
 BYTE   W01
 BYTE   VOL   80*song09_mvl/mxv
 BYTE   W02
 BYTE   VOL   78*song09_mvl/mxv
 BYTE   W01
 BYTE   VOL   76*song09_mvl/mxv
 BYTE   W02
 BYTE   VOL   74*song09_mvl/mxv
 BYTE   W01
 BYTE   VOL   73*song09_mvl/mxv
 BYTE   W02
 BYTE   VOL   70*song09_mvl/mxv
 BYTE   W01
 BYTE   VOL   68*song09_mvl/mxv
 BYTE   W02
 BYTE   VOL   66*song09_mvl/mxv
 BYTE   W01
 BYTE   VOL   64*song09_mvl/mxv
 BYTE   W02
 BYTE   VOL   62*song09_mvl/mxv
 BYTE   W01
 BYTE   VOL   61*song09_mvl/mxv
 BYTE   W02
 BYTE   VOL   59*song09_mvl/mxv
 BYTE   W01
 BYTE   VOL   57*song09_mvl/mxv
 BYTE   W02
 BYTE   VOL   56*song09_mvl/mxv
 BYTE   W01
 BYTE   VOL   54*song09_mvl/mxv
 BYTE   W02
 BYTE   VOL   52*song09_mvl/mxv
 BYTE   N68  Fn2  v040
 BYTE   W01
//  #08 //025   ----------------------------------------
 BYTE   VOL   51*song09_mvl/mxv
 BYTE   W02
 BYTE   VOL   49*song09_mvl/mxv
 BYTE   W01
 BYTE   VOL   47*song09_mvl/mxv
 BYTE   W02
 BYTE   VOL   45*song09_mvl/mxv
 BYTE   W01
 BYTE   VOL   44*song09_mvl/mxv
 BYTE   W15
 BYTE   VOL   45*song09_mvl/mxv
 BYTE   W08
 BYTE   VOL   45*song09_mvl/mxv
 BYTE   W08
 BYTE   VOL   46*song09_mvl/mxv
 BYTE   W08
 BYTE   VOL   47*song09_mvl/mxv
 BYTE   W07
 BYTE   VOL   48*song09_mvl/mxv
 BYTE   W08
 BYTE   VOL   49*song09_mvl/mxv
 BYTE   W08
 BYTE   VOL   50*song09_mvl/mxv
 BYTE   W02
 BYTE   N23  Gs2
 BYTE   W05
 BYTE   VOL   51*song09_mvl/mxv
 BYTE   W08
 BYTE   VOL   51*song09_mvl/mxv
 BYTE   W08
 BYTE   VOL   52*song09_mvl/mxv
 BYTE   W04
 BYTE   N68  Fs2  v044
 BYTE   W01
//  #08 //026   ----------------------------------------
 BYTE   W03
 BYTE   VOL   53*song09_mvl/mxv
 BYTE   W07
 BYTE   VOL   54*song09_mvl/mxv
 BYTE   W08
 BYTE   VOL   56*song09_mvl/mxv
 BYTE   W15
 BYTE   VOL   55*song09_mvl/mxv
 BYTE   W07
 BYTE   VOL   54*song09_mvl/mxv
 BYTE   W08
 BYTE   VOL   53*song09_mvl/mxv
 BYTE   W07
 BYTE   VOL   52*song09_mvl/mxv
 BYTE   W07
 BYTE   VOL   51*song09_mvl/mxv
 BYTE   W08
 BYTE   VOL   51*song09_mvl/mxv
 BYTE   W01
 BYTE   N11  Fn2  v040
 BYTE   W06
 BYTE   VOL   50*song09_mvl/mxv
 BYTE   W06
 BYTE   N11  Ds2  v032
 BYTE   W02
 BYTE   VOL   49*song09_mvl/mxv
 BYTE   W07
 BYTE   VOL   48*song09_mvl/mxv
 BYTE   W03
 BYTE   N96  As1  v040
 BYTE   W01
//  #08 //027   ----------------------------------------
 BYTE   W03
 BYTE   VOL   47*song09_mvl/mxv
 BYTE   W08
 BYTE   VOL   46*song09_mvl/mxv
 BYTE   W07
 BYTE   VOL   45*song09_mvl/mxv
 BYTE   W06
 BYTE   VOL   45*song09_mvl/mxv
 BYTE   W06
 BYTE   VOL   46*song09_mvl/mxv
 BYTE   W06
 BYTE   VOL   47*song09_mvl/mxv
 BYTE   W06
 BYTE   VOL   48*song09_mvl/mxv
 BYTE   W06
 BYTE   VOL   49*song09_mvl/mxv
 BYTE   W06
 BYTE   VOL   50*song09_mvl/mxv
 BYTE   W06
 BYTE   VOL   51*song09_mvl/mxv
 BYTE   W03
 BYTE   VOL   50*song09_mvl/mxv
 BYTE   W02
 BYTE   VOL   49*song09_mvl/mxv
 BYTE   W01
 BYTE   VOL   48*song09_mvl/mxv
 BYTE   W02
 BYTE   VOL   46*song09_mvl/mxv
 BYTE   W01
 BYTE   VOL   45*song09_mvl/mxv
 BYTE   W02
 BYTE   VOL   45*song09_mvl/mxv
 BYTE   W01
 BYTE   VOL   43*song09_mvl/mxv
 BYTE   W02
 BYTE   VOL   42*song09_mvl/mxv
 BYTE   W01
 BYTE   VOL   40*song09_mvl/mxv
 BYTE   W02
 BYTE   VOL   39*song09_mvl/mxv
 BYTE   W01
 BYTE   VOL   37*song09_mvl/mxv
 BYTE   W02
 BYTE   VOL   35*song09_mvl/mxv
 BYTE   W01
 BYTE   VOL   34*song09_mvl/mxv
 BYTE   W02
 BYTE   VOL   30*song09_mvl/mxv
 BYTE   W01
 BYTE   VOL   28*song09_mvl/mxv
 BYTE   W02
 BYTE   VOL   26*song09_mvl/mxv
 BYTE   W01
 BYTE   VOL   22*song09_mvl/mxv
 BYTE   W02
 BYTE   VOL   19*song09_mvl/mxv
 BYTE   W01
 BYTE   VOL   15*song09_mvl/mxv
 BYTE   W02
 BYTE   VOL   11*song09_mvl/mxv
 BYTE   W01
 BYTE   VOL   6*song09_mvl/mxv
 BYTE   W02
 BYTE   VOL   2*song09_mvl/mxv
 BYTE   W01
//  #08 //028   ----------------------------------------
 BYTE   VOL   0*song09_mvl/mxv
 BYTE   W24
 BYTE   VOL   80*song09_mvl/mxv
 BYTE   N21  Bn0  v028
 BYTE   N21  Bn1
 BYTE   W03
 BYTE   VOL   78*song09_mvl/mxv
 BYTE   W03
 BYTE   VOL   78*song09_mvl/mxv
 BYTE   W03
 BYTE   VOL   76*song09_mvl/mxv
 BYTE   W03
 BYTE   VOL   75*song09_mvl/mxv
 BYTE   W03
 BYTE   VOL   74*song09_mvl/mxv
 BYTE   W03
 BYTE   VOL   73*song09_mvl/mxv
 BYTE   W03
 BYTE   VOL   73*song09_mvl/mxv
 BYTE   W02
 BYTE   N21  Cs1  v032
 BYTE   N21  Cs2
 BYTE   W01
 BYTE   VOL   71*song09_mvl/mxv
 BYTE   W03
 BYTE   VOL   70*song09_mvl/mxv
 BYTE   W03
 BYTE   VOL   69*song09_mvl/mxv
 BYTE   W03
 BYTE   VOL   68*song09_mvl/mxv
 BYTE   W03
 BYTE   VOL   68*song09_mvl/mxv
 BYTE   W03
 BYTE   VOL   66*song09_mvl/mxv
 BYTE   W03
 BYTE   VOL   66*song09_mvl/mxv
 BYTE   W03
 BYTE   VOL   64*song09_mvl/mxv
 BYTE   W02
 BYTE   N21  Ds1
 BYTE   N21  Ds2
 BYTE   W01
 BYTE   VOL   63*song09_mvl/mxv
 BYTE   W03
 BYTE   VOL   62*song09_mvl/mxv
 BYTE   W03
 BYTE   VOL   61*song09_mvl/mxv
 BYTE   W03
 BYTE   VOL   61*song09_mvl/mxv
 BYTE   W03
 BYTE   VOL   59*song09_mvl/mxv
 BYTE   W03
 BYTE   VOL   59*song09_mvl/mxv
 BYTE   W03
 BYTE   VOL   57*song09_mvl/mxv
 BYTE   W03
 BYTE   VOL   57*song09_mvl/mxv
 BYTE   W01
 BYTE   N56  Fn1  v044
 BYTE   N56  Fn2
 BYTE   W02
//  #08 //029   ----------------------------------------
 BYTE   VOL   56*song09_mvl/mxv
 BYTE   W03
 BYTE   VOL   55*song09_mvl/mxv
 BYTE   W03
 BYTE   VOL   54*song09_mvl/mxv
 BYTE   W03
 BYTE   VOL   53*song09_mvl/mxv
 BYTE   W03
 BYTE   VOL   51*song09_mvl/mxv
 BYTE   W03
 BYTE   VOL   52*song09_mvl/mxv
 BYTE   W03
 BYTE   VOL   54*song09_mvl/mxv
 BYTE   W03
 BYTE   VOL   55*song09_mvl/mxv
 BYTE   W03
 BYTE   VOL   57*song09_mvl/mxv
 BYTE   W03
 BYTE   VOL   59*song09_mvl/mxv
 BYTE   W03
 BYTE   VOL   59*song09_mvl/mxv
 BYTE   W03
 BYTE   VOL   61*song09_mvl/mxv
 BYTE   W03
 BYTE   VOL   62*song09_mvl/mxv
 BYTE   W03
 BYTE   VOL   64*song09_mvl/mxv
 BYTE   W03
 BYTE   VOL   66*song09_mvl/mxv
 BYTE   W03
 BYTE   VOL   68*song09_mvl/mxv
 BYTE   W03
 BYTE   VOL   69*song09_mvl/mxv
 BYTE   W03
 BYTE   VOL   70*song09_mvl/mxv
 BYTE   W03
 BYTE   VOL   73*song09_mvl/mxv
 BYTE   W03
 BYTE   VOL   74*song09_mvl/mxv
 BYTE   W02
 BYTE   N07  Ds1
 BYTE   N07  Ds2
 BYTE   W01
 BYTE   VOL   75*song09_mvl/mxv
 BYTE   W03
 BYTE   VOL   78*song09_mvl/mxv
 BYTE   W03
 BYTE   VOL   80*song09_mvl/mxv
 BYTE   W05
 BYTE   N07  Cs1
 BYTE   N07  Cs2
 BYTE   W12
 BYTE   Bn0
 BYTE   N07  Bn1
 BYTE   W11
 BYTE   TIE  As0
 BYTE   TIE  As1
 BYTE   W02
//  #08 //030   ----------------------------------------
 BYTE   W03
 BYTE   VOL   78*song09_mvl/mxv
 BYTE   W02
 BYTE   VOL   78*song09_mvl/mxv
 BYTE   W01
 BYTE   VOL   76*song09_mvl/mxv
 BYTE   W02
 BYTE   VOL   75*song09_mvl/mxv
 BYTE   W01
 BYTE   VOL   73*song09_mvl/mxv
 BYTE   W02
 BYTE   VOL   73*song09_mvl/mxv
 BYTE   W01
 BYTE   VOL   70*song09_mvl/mxv
 BYTE   W02
 BYTE   VOL   68*song09_mvl/mxv
 BYTE   W01
 BYTE   VOL   66*song09_mvl/mxv
 BYTE   W02
 BYTE   VOL   64*song09_mvl/mxv
 BYTE   W01
 BYTE   VOL   61*song09_mvl/mxv
 BYTE   W02
 BYTE   VOL   57*song09_mvl/mxv
 BYTE   W01
 BYTE   VOL   53*song09_mvl/mxv
 BYTE   W02
 BYTE   VOL   48*song09_mvl/mxv
 BYTE   W01
 BYTE   VOL   40*song09_mvl/mxv
 BYTE   W05
 BYTE   VOL   41*song09_mvl/mxv
 BYTE   W05
 BYTE   VOL   42*song09_mvl/mxv
 BYTE   W05
 BYTE   VOL   43*song09_mvl/mxv
 BYTE   W05
 BYTE   VOL   44*song09_mvl/mxv
 BYTE   W05
 BYTE   VOL   45*song09_mvl/mxv
 BYTE   W05
 BYTE   VOL   45*song09_mvl/mxv
 BYTE   W05
 BYTE   VOL   46*song09_mvl/mxv
 BYTE   W05
 BYTE   VOL   47*song09_mvl/mxv
 BYTE   W05
 BYTE   VOL   48*song09_mvl/mxv
 BYTE   W05
 BYTE   VOL   49*song09_mvl/mxv
 BYTE   W05
 BYTE   VOL   50*song09_mvl/mxv
 BYTE   W05
 BYTE   VOL   51*song09_mvl/mxv
 BYTE   W05
 BYTE   VOL   51*song09_mvl/mxv
 BYTE   W05
 BYTE   VOL   52*song09_mvl/mxv
 BYTE   W02
//  #08 //031   ----------------------------------------
 BYTE   W03
 BYTE   VOL   53*song09_mvl/mxv
 BYTE   W05
 BYTE   VOL   54*song09_mvl/mxv
 BYTE   W05
 BYTE   VOL   55*song09_mvl/mxv
 BYTE   W05
 BYTE   VOL   56*song09_mvl/mxv
 BYTE   W05
 BYTE   VOL   57*song09_mvl/mxv
 BYTE   W05
 BYTE   VOL   57*song09_mvl/mxv
 BYTE   W05
 BYTE   VOL   59*song09_mvl/mxv
 BYTE   W05
 BYTE   VOL   59*song09_mvl/mxv
 BYTE   W05
 BYTE   VOL   61*song09_mvl/mxv
 BYTE   W05
 BYTE   VOL   61*song09_mvl/mxv
 BYTE   W05
 BYTE   VOL   62*song09_mvl/mxv
 BYTE   W05
 BYTE   VOL   63*song09_mvl/mxv
 BYTE   W05
 BYTE   VOL   64*song09_mvl/mxv
 BYTE   W05
 BYTE   VOL   66*song09_mvl/mxv
 BYTE   W05
 BYTE   VOL   66*song09_mvl/mxv
 BYTE   W05
 BYTE   VOL   68*song09_mvl/mxv
 BYTE   W05
 BYTE   VOL   68*song09_mvl/mxv
 BYTE   W05
 BYTE   VOL   69*song09_mvl/mxv
 BYTE   W05
 BYTE   VOL   70*song09_mvl/mxv
 BYTE   W01
 BYTE   EOT
 BYTE   As0  v046
 BYTE   W02
//  #08 //032   ----------------------------------------
 BYTE   W02
 BYTE   VOL   71*song09_mvl/mxv
 BYTE   W05
 BYTE   VOL   73*song09_mvl/mxv
 BYTE   W05
 BYTE   VOL   73*song09_mvl/mxv
 BYTE   W05
 BYTE   VOL   74*song09_mvl/mxv
 BYTE   W05
 BYTE   VOL   75*song09_mvl/mxv
 BYTE   W05
 BYTE   VOL   76*song09_mvl/mxv
 BYTE   W05
 BYTE   VOL   78*song09_mvl/mxv
 BYTE   W05
 BYTE   VOL   78*song09_mvl/mxv
 BYTE   W05
 BYTE   VOL   80*song09_mvl/mxv
 BYTE   W03
 BYTE   VOL   78*song09_mvl/mxv
 BYTE   W03
 BYTE   VOL   76*song09_mvl/mxv
 BYTE   N21  As0  v036
 BYTE   N21  As1  v040
 BYTE   W03
 BYTE   VOL   74*song09_mvl/mxv
 BYTE   W03
 BYTE   VOL   73*song09_mvl/mxv
 BYTE   W03
 BYTE   VOL   71*song09_mvl/mxv
 BYTE   W03
 BYTE   VOL   69*song09_mvl/mxv
 BYTE   W03
 BYTE   VOL   68*song09_mvl/mxv
 BYTE   W03
 BYTE   VOL   66*song09_mvl/mxv
 BYTE   W03
 BYTE   VOL   64*song09_mvl/mxv
 BYTE   W02
 BYTE   N20  Ds1  v044
 BYTE   N20  Ds2
 BYTE   W01
 BYTE   VOL   62*song09_mvl/mxv
 BYTE   W03
 BYTE   VOL   61*song09_mvl/mxv
 BYTE   W03
 BYTE   VOL   59*song09_mvl/mxv
 BYTE   W03
 BYTE   VOL   57*song09_mvl/mxv
 BYTE   W03
 BYTE   VOL   56*song09_mvl/mxv
 BYTE   W03
 BYTE   VOL   54*song09_mvl/mxv
 BYTE   W03
 BYTE   VOL   52*song09_mvl/mxv
 BYTE   W03
 BYTE   VOL   51*song09_mvl/mxv
 BYTE   W01
 BYTE   N68  Fn1
 BYTE   N68  Fn2
 BYTE   W02
//  #08 //033   ----------------------------------------
 BYTE   VOL   50*song09_mvl/mxv
 BYTE   W03
 BYTE   VOL   48*song09_mvl/mxv
 BYTE   W03
 BYTE   VOL   46*song09_mvl/mxv
 BYTE   W03
 BYTE   VOL   47*song09_mvl/mxv
 BYTE   W03
 BYTE   VOL   48*song09_mvl/mxv
 BYTE   W03
 BYTE   VOL   50*song09_mvl/mxv
 BYTE   W03
 BYTE   VOL   51*song09_mvl/mxv
 BYTE   W03
 BYTE   VOL   52*song09_mvl/mxv
 BYTE   W03
 BYTE   VOL   53*song09_mvl/mxv
 BYTE   W03
 BYTE   VOL   55*song09_mvl/mxv
 BYTE   W03
 BYTE   VOL   56*song09_mvl/mxv
 BYTE   W03
 BYTE   VOL   57*song09_mvl/mxv
 BYTE   W03
 BYTE   VOL   59*song09_mvl/mxv
 BYTE   W03
 BYTE   VOL   61*song09_mvl/mxv
 BYTE   W03
 BYTE   VOL   61*song09_mvl/mxv
 BYTE   W03
 BYTE   VOL   62*song09_mvl/mxv
 BYTE   W03
 BYTE   VOL   64*song09_mvl/mxv
 BYTE   W03
 BYTE   VOL   66*song09_mvl/mxv
 BYTE   W03
 BYTE   VOL   68*song09_mvl/mxv
 BYTE   W03
 BYTE   VOL   68*song09_mvl/mxv
 BYTE   W03
 BYTE   VOL   70*song09_mvl/mxv
 BYTE   W03
 BYTE   VOL   71*song09_mvl/mxv
 BYTE   W03
 BYTE   VOL   73*song09_mvl/mxv
 BYTE   W03
 BYTE   VOL   74*song09_mvl/mxv
 BYTE   W02
 BYTE   N21  Gs1  v040
 BYTE   N21  Gs2
 BYTE   W01
 BYTE   VOL   76*song09_mvl/mxv
 BYTE   W03
 BYTE   VOL   78*song09_mvl/mxv
 BYTE   W03
 BYTE   VOL   80*song09_mvl/mxv
 BYTE   W03
 BYTE   VOL   78*song09_mvl/mxv
 BYTE   W03
 BYTE   VOL   74*song09_mvl/mxv
 BYTE   W03
 BYTE   VOL   71*song09_mvl/mxv
 BYTE   W03
 BYTE   VOL   68*song09_mvl/mxv
 BYTE   W03
 BYTE   VOL   66*song09_mvl/mxv
 BYTE   W02
 BYTE   N56  Fs1  v044
 BYTE   N56  Fs2
 BYTE   W01
//  #08 //034   ----------------------------------------
 BYTE   VOL   62*song09_mvl/mxv
 BYTE   W03
 BYTE   VOL   59*song09_mvl/mxv
 BYTE   W03
 BYTE   VOL   57*song09_mvl/mxv
 BYTE   W03
 BYTE   VOL   54*song09_mvl/mxv
 BYTE   W03
 BYTE   VOL   51*song09_mvl/mxv
 BYTE   W09
 BYTE   VOL   51*song09_mvl/mxv
 BYTE   W04
 BYTE   VOL   50*song09_mvl/mxv
 BYTE   W04
 BYTE   VOL   49*song09_mvl/mxv
 BYTE   W04
 BYTE   VOL   48*song09_mvl/mxv
 BYTE   W05
 BYTE   VOL   47*song09_mvl/mxv
 BYTE   W04
 BYTE   VOL   46*song09_mvl/mxv
 BYTE   W04
 BYTE   VOL   45*song09_mvl/mxv
 BYTE   W05
 BYTE   VOL   45*song09_mvl/mxv
 BYTE   W04
 BYTE   VOL   44*song09_mvl/mxv
 BYTE   W04
 BYTE   VOL   43*song09_mvl/mxv
 BYTE   N10  Gs1
 BYTE   N10  Gs2
 BYTE   W04
 BYTE   VOL   42*song09_mvl/mxv
 BYTE   W05
 BYTE   VOL   41*song09_mvl/mxv
 BYTE   W03
 BYTE   N09  Fs1
 BYTE   N09  Fs2
 BYTE   W01
 BYTE   VOL   40*song09_mvl/mxv
 BYTE   W04
 BYTE   VOL   40*song09_mvl/mxv
 BYTE   W05
 BYTE   VOL   39*song09_mvl/mxv
 BYTE   W02
 BYTE   N09  Gs1
 BYTE   N09  Gs2
 BYTE   W02
 BYTE   VOL   38*song09_mvl/mxv
 BYTE   W04
 BYTE   VOL   37*song09_mvl/mxv
 BYTE   W04
 BYTE   VOL   37*song09_mvl/mxv
 BYTE   W03
//  #08 //035   ----------------------------------------
 BYTE   N68  As1  v040
 BYTE   N68  As2
 BYTE   W02
 BYTE   VOL   36*song09_mvl/mxv
 BYTE   W04
 BYTE   VOL   34*song09_mvl/mxv
 BYTE   W03
 BYTE   VOL   36*song09_mvl/mxv
 BYTE   W03
 BYTE   VOL   37*song09_mvl/mxv
 BYTE   W03
 BYTE   VOL   39*song09_mvl/mxv
 BYTE   W03
 BYTE   VOL   41*song09_mvl/mxv
 BYTE   W03
 BYTE   VOL   43*song09_mvl/mxv
 BYTE   W03
 BYTE   VOL   45*song09_mvl/mxv
 BYTE   W03
 BYTE   VOL   46*song09_mvl/mxv
 BYTE   W03
 BYTE   VOL   49*song09_mvl/mxv
 BYTE   W03
 BYTE   VOL   51*song09_mvl/mxv
 BYTE   W03
 BYTE   VOL   52*song09_mvl/mxv
 BYTE   W03
 BYTE   VOL   55*song09_mvl/mxv
 BYTE   W03
 BYTE   VOL   57*song09_mvl/mxv
 BYTE   W03
 BYTE   VOL   59*song09_mvl/mxv
 BYTE   W03
 BYTE   VOL   61*song09_mvl/mxv
 BYTE   W03
 BYTE   VOL   63*song09_mvl/mxv
 BYTE   W03
 BYTE   VOL   66*song09_mvl/mxv
 BYTE   W03
 BYTE   VOL   68*song09_mvl/mxv
 BYTE   W03
 BYTE   VOL   69*song09_mvl/mxv
 BYTE   W03
 BYTE   VOL   73*song09_mvl/mxv
 BYTE   W03
 BYTE   VOL   74*song09_mvl/mxv
 BYTE   W03
 BYTE   VOL   76*song09_mvl/mxv
 BYTE   W03
 BYTE   VOL   80*song09_mvl/mxv
 BYTE   W01
 BYTE   N20  As1
 BYTE   N20  As2
 BYTE   W02
 BYTE   VOL   78*song09_mvl/mxv
 BYTE   W03
 BYTE   VOL   78*song09_mvl/mxv
 BYTE   W03
 BYTE   VOL   76*song09_mvl/mxv
 BYTE   W03
 BYTE   VOL   75*song09_mvl/mxv
 BYTE   W03
 BYTE   VOL   74*song09_mvl/mxv
 BYTE   W03
 BYTE   VOL   73*song09_mvl/mxv
 BYTE   W03
 BYTE   VOL   73*song09_mvl/mxv
 BYTE   W03
//  #08 //036   ----------------------------------------
 BYTE   VOL   71*song09_mvl/mxv
 BYTE   N22  As1  v044
 BYTE   N22  As2
 BYTE   W03
 BYTE   VOL   70*song09_mvl/mxv
 BYTE   W03
 BYTE   VOL   69*song09_mvl/mxv
 BYTE   W03
 BYTE   VOL   68*song09_mvl/mxv
 BYTE   W03
 BYTE   VOL   68*song09_mvl/mxv
 BYTE   W03
 BYTE   VOL   66*song09_mvl/mxv
 BYTE   W03
 BYTE   VOL   66*song09_mvl/mxv
 BYTE   W03
 BYTE   VOL   64*song09_mvl/mxv
 BYTE   W03
 BYTE   VOL   63*song09_mvl/mxv
 BYTE   N44  Gs1
 BYTE   N44  Gs2
 BYTE   W03
 BYTE   VOL   62*song09_mvl/mxv
 BYTE   W03
 BYTE   VOL   61*song09_mvl/mxv
 BYTE   W32
 BYTE   VOL   59*song09_mvl/mxv
 BYTE   W10
 BYTE   N22  Fs1
 BYTE   N22  Fs2
 BYTE   W21
 BYTE   VOL   59*song09_mvl/mxv
 BYTE   W03
//  #08 //037   ----------------------------------------
 BYTE   N23  Ds1
 BYTE   N23  Ds2  v040
 BYTE   W24
 BYTE   N21  Cs1
 BYTE   N21  Cs2
 BYTE   W05
 BYTE   VOL   57*song09_mvl/mxv
 BYTE   W19
 BYTE   N44  Fs1  v036
 BYTE   N44  Fs2
 BYTE   W12
 BYTE   VOL   57*song09_mvl/mxv
 BYTE   W07
 BYTE   VOL   56*song09_mvl/mxv
 BYTE   W03
 BYTE   VOL   55*song09_mvl/mxv
 BYTE   W03
 BYTE   VOL   54*song09_mvl/mxv
 BYTE   W04
 BYTE   VOL   53*song09_mvl/mxv
 BYTE   W03
 BYTE   VOL   52*song09_mvl/mxv
 BYTE   W03
 BYTE   VOL   51*song09_mvl/mxv
 BYTE   W03
 BYTE   VOL   51*song09_mvl/mxv
 BYTE   W04
 BYTE   VOL   50*song09_mvl/mxv
 BYTE   W03
 BYTE   VOL   49*song09_mvl/mxv
 BYTE   W03
//  #08 //038   ----------------------------------------
 BYTE   VOL   48*song09_mvl/mxv
 BYTE   TIE  Ds1  v040
 BYTE   TIE  Ds2
 BYTE   W04
 BYTE   VOL   47*song09_mvl/mxv
 BYTE   W03
 BYTE   VOL   46*song09_mvl/mxv
 BYTE   W03
 BYTE   VOL   45*song09_mvl/mxv
 BYTE   W04
 BYTE   VOL   45*song09_mvl/mxv
 BYTE   W03
 BYTE   VOL   44*song09_mvl/mxv
 BYTE   W03
 BYTE   VOL   43*song09_mvl/mxv
 BYTE   W03
 BYTE   VOL   42*song09_mvl/mxv
 BYTE   W04
 BYTE   VOL   41*song09_mvl/mxv
 BYTE   W03
 BYTE   VOL   40*song09_mvl/mxv
 BYTE   W06
 BYTE   VOL   40*song09_mvl/mxv
 BYTE   W05
 BYTE   VOL   41*song09_mvl/mxv
 BYTE   W06
 BYTE   VOL   42*song09_mvl/mxv
 BYTE   W05
 BYTE   VOL   43*song09_mvl/mxv
 BYTE   W06
 BYTE   VOL   44*song09_mvl/mxv
 BYTE   W05
 BYTE   VOL   45*song09_mvl/mxv
 BYTE   W06
 BYTE   VOL   45*song09_mvl/mxv
 BYTE   W05
 BYTE   VOL   46*song09_mvl/mxv
 BYTE   W06
 BYTE   VOL   47*song09_mvl/mxv
 BYTE   W05
 BYTE   VOL   48*song09_mvl/mxv
 BYTE   W06
 BYTE   VOL   49*song09_mvl/mxv
 BYTE   W05
//  #08 //039   ----------------------------------------
 BYTE   VOL   50*song09_mvl/mxv
 BYTE   W05
 BYTE   VOL   49*song09_mvl/mxv
 BYTE   W03
 BYTE   VOL   48*song09_mvl/mxv
 BYTE   W03
 BYTE   VOL   47*song09_mvl/mxv
 BYTE   W03
 BYTE   VOL   46*song09_mvl/mxv
 BYTE   W03
 BYTE   VOL   45*song09_mvl/mxv
 BYTE   W01
 BYTE   VOL   45*song09_mvl/mxv
 BYTE   W03
 BYTE   VOL   44*song09_mvl/mxv
 BYTE   W02
 BYTE   VOL   43*song09_mvl/mxv
 BYTE   W01
 BYTE   VOL   42*song09_mvl/mxv
 BYTE   W03
 BYTE   VOL   41*song09_mvl/mxv
 BYTE   W02
 BYTE   VOL   40*song09_mvl/mxv
 BYTE   W01
 BYTE   VOL   40*song09_mvl/mxv
 BYTE   W02
 BYTE   VOL   39*song09_mvl/mxv
 BYTE   W01
 BYTE   VOL   38*song09_mvl/mxv
 BYTE   W02
 BYTE   VOL   37*song09_mvl/mxv
 BYTE   W01
 BYTE   VOL   37*song09_mvl/mxv
 BYTE   W02
 BYTE   VOL   36*song09_mvl/mxv
 BYTE   W01
 BYTE   VOL   35*song09_mvl/mxv
 BYTE   W02
 BYTE   VOL   34*song09_mvl/mxv
 BYTE   W01
 BYTE   VOL   33*song09_mvl/mxv
 BYTE   W02
 BYTE   VOL   31*song09_mvl/mxv
 BYTE   W01
 BYTE   VOL   30*song09_mvl/mxv
 BYTE   W02
 BYTE   VOL   29*song09_mvl/mxv
 BYTE   W01
 BYTE   VOL   28*song09_mvl/mxv
 BYTE   W02
 BYTE   VOL   27*song09_mvl/mxv
 BYTE   W01
 BYTE   VOL   25*song09_mvl/mxv
 BYTE   W02
 BYTE   VOL   23*song09_mvl/mxv
 BYTE   W01
 BYTE   VOL   22*song09_mvl/mxv
 BYTE   W02
 BYTE   VOL   20*song09_mvl/mxv
 BYTE   W01
 BYTE   VOL   19*song09_mvl/mxv
 BYTE   W02
 BYTE   VOL   17*song09_mvl/mxv
 BYTE   W01
 BYTE   VOL   15*song09_mvl/mxv
 BYTE   W02
 BYTE   VOL   13*song09_mvl/mxv
 BYTE   W01
 BYTE   VOL   11*song09_mvl/mxv
 BYTE   W02
 BYTE   VOL   9*song09_mvl/mxv
 BYTE   W01
 BYTE   VOL   6*song09_mvl/mxv
 BYTE   W02
 BYTE   VOL   5*song09_mvl/mxv
 BYTE   W01
 BYTE   EOT
 BYTE   Ds1  v051
 BYTE   VOL   2*song09_mvl/mxv
 BYTE   W02
 BYTE   VOL   1*song09_mvl/mxv
 BYTE   W01
 BYTE   VOL   0*song09_mvl/mxv
 BYTE   W24
//  #08 //040   ----------------------------------------
 BYTE   W18
 BYTE   PAN   c_v-14
 BYTE   W04
 BYTE   VOICE   13
 BYTE   W02
 BYTE   VOL   36*song09_mvl/mxv
 BYTE   N11  As1
 BYTE   W12
 BYTE   Gs1  v056
 BYTE   W12
 BYTE   Fs1  v044
 BYTE   W03
 BYTE   VOL   37*song09_mvl/mxv
 BYTE   W09
 BYTE   N11  Fn1  v056
 BYTE   W12
 BYTE   Ds1  v052
 BYTE   W06
 BYTE   VOL   37*song09_mvl/mxv
 BYTE   W06
 BYTE   N11  Cs1  v056
 BYTE   W11
 BYTE   VOL   38*song09_mvl/mxv
 BYTE   W01
//  #08 //041   ----------------------------------------
 BYTE   N11  Bn0  v052
 BYTE   W12
 BYTE   As0
 BYTE   W05
 BYTE   VOL   39*song09_mvl/mxv
 BYTE   W07
 BYTE   N11  Gs0  v060
 BYTE   W11
 BYTE   VOL   40*song09_mvl/mxv
 BYTE   W01
 BYTE   N11  Fs0  v048
 BYTE   W17
 BYTE   VOL   40*song09_mvl/mxv
 BYTE   W18
 BYTE   VOL   41*song09_mvl/mxv
 BYTE   W01
 BYTE   N11  Ds2  v044
 BYTE   W08
 BYTE   VOL   42*song09_mvl/mxv
 BYTE   W04
 BYTE   N11  Dn2  v052
 BYTE   W12
//  #08 //042   ----------------------------------------
 BYTE   Cn2  v056
 BYTE   W02
 BYTE   VOL   43*song09_mvl/mxv
 BYTE   W10
 BYTE   N11  As1  v060
 BYTE   W08
 BYTE   VOL   44*song09_mvl/mxv
 BYTE   W04
 BYTE   N11  Gs1
 BYTE   W05
 BYTE   VOL   45*song09_mvl/mxv
 BYTE   W07
 BYTE   N11  Gn1  v056
 BYTE   W01
 BYTE   VOL   45*song09_mvl/mxv
 BYTE   W09
 BYTE   VOL   46*song09_mvl/mxv
 BYTE   W02
 BYTE   N11  Fn1  v052
 BYTE   W12
 BYTE   Ds1  v064
 BYTE   W04
 BYTE   VOL   47*song09_mvl/mxv
 BYTE   W08
 BYTE   N11  Dn1  v060
 BYTE   W01
 BYTE   VOL   48*song09_mvl/mxv
 BYTE   W09
 BYTE   VOL   49*song09_mvl/mxv
 BYTE   W02
 BYTE   N11  Cn1  v068
 BYTE   W07
 BYTE   VOL   50*song09_mvl/mxv
 BYTE   W05
//  #08 //043   ----------------------------------------
 BYTE   W04
 BYTE   VOL   51*song09_mvl/mxv
 BYTE   W09
 BYTE   VOL   51*song09_mvl/mxv
 BYTE   W09
 BYTE   VOL   53*song09_mvl/mxv
 BYTE   W02
 BYTE   N11  Dn2  v072
 BYTE   W07
 BYTE   VOL   54*song09_mvl/mxv
 BYTE   W05
 BYTE   N11  Cn2  v052
 BYTE   W04
 BYTE   VOL   55*song09_mvl/mxv
 BYTE   W08
 BYTE   N11  As1  v060
 BYTE   W01
 BYTE   VOL   56*song09_mvl/mxv
 BYTE   W09
 BYTE   VOL   57*song09_mvl/mxv
 BYTE   W02
 BYTE   N11  An1  v064
 BYTE   W07
 BYTE   VOL   59*song09_mvl/mxv
 BYTE   W05
 BYTE   N11  Fs1
 BYTE   W03
 BYTE   VOL   61*song09_mvl/mxv
 BYTE   W09
 BYTE   VOL   62*song09_mvl/mxv
 BYTE   N11  Ds1  v068
 BYTE   W09
 BYTE   VOL   64*song09_mvl/mxv
 BYTE   W03
//  #08 //044   ----------------------------------------
 BYTE   N11  Dn1  v060
 BYTE   W06
 BYTE   VOL   66*song09_mvl/mxv
 BYTE   W06
 BYTE   N11  Cn1  v048
 BYTE   W03
 BYTE   VOL   68*song09_mvl/mxv
 BYTE   W09
 BYTE   VOL   70*song09_mvl/mxv
 BYTE   N11  As0  v072
 BYTE   W09
 BYTE   VOL   73*song09_mvl/mxv
 BYTE   W03
 BYTE   N13  An0  v064
 BYTE   W06
 BYTE   VOL   76*song09_mvl/mxv
 BYTE   W54
//  #08 //045   ----------------------------------------
 BYTE   W48
 BYTE   VOICE   14
 BYTE   VOL   51*song09_mvl/mxv
 BYTE   PAN   c_v+0
 BYTE   W48
//  #08 //046   ----------------------------------------
 BYTE   W06
 BYTE   VOL   53*song09_mvl/mxv
 BYTE   W42
 BYTE   N92  As3  v127
 BYTE   W48
//  #08 //047   ----------------------------------------
 BYTE   W48
 BYTE   N66  As3  v096
 BYTE   W48
//  #08 //048   ----------------------------------------
 BYTE   W48
 BYTE   VOICE   15
 BYTE   VOL   80*song09_mvl/mxv
 BYTE   PAN   c_v+26
 BYTE   VOL   53*song09_mvl/mxv
 BYTE   W02
 BYTE   N40  Fn2  v068
 BYTE   W22
 BYTE   GoTo
  POIN2 Label_0121504B
//  #08 //049   ----------------------------------------
 BYTE   W24
 BYTE   W03
 BYTE   N36  Fs2  v056
 BYTE   W40
 BYTE   W01
 BYTE   FINE

//**************** Track 9 (Midi-Chn.8) ****************//

song09_009:
//  #09 //000   ----------------------------------------
 BYTE   KEYSH   song09_key+0
 BYTE   VOICE   20
 BYTE   MODT 0
 BYTE   LFOS 44
 BYTE   MOD 0
 BYTE   VOL   53*song09_mvl/mxv
 BYTE   PAN   c_v+23
 BYTE   VOL   53*song09_mvl/mxv
 BYTE   W96
//  #09 //001   ----------------------------------------
 BYTE   W96
//  #09 //002   ----------------------------------------
 BYTE   VOICE   20
 BYTE   N42  Cs2  v064
 BYTE   W30
Label_0121102C:
 BYTE   W18
 BYTE   N42  Ds2  v068
 BYTE   W48
//  #09 //003   ----------------------------------------
 BYTE   N40  As2  v060
 BYTE   W44
 BYTE   W03
 BYTE   N19  As2  v068
 BYTE   W24
 BYTE   N05  As2  v060
 BYTE   W18
 BYTE   N04  Fs2  v076
 BYTE   W07
//  #09 //004   ----------------------------------------
 BYTE   N36  Fn2
 BYTE   W48
 BYTE   N23  Fn2  v068
 BYTE   W23
 BYTE   N05  Cn2
 BYTE   W18
 BYTE   Fn2  v072
 BYTE   W07
//  #09 //005   ----------------------------------------
 BYTE   N52  Fn2  v076
 BYTE   W72
 BYTE   N22  Gs2  v088
 BYTE   W23
 BYTE   N42  Gs2  v064
 BYTE   W01
//  #09 //006   ----------------------------------------
 BYTE   W48
 BYTE   Fs2  v068
 BYTE   W48
//  #09 //007   ----------------------------------------
 BYTE   N40  Cs3  v060
 BYTE   W44
 BYTE   W03
 BYTE   N19  Cs3  v068
 BYTE   W24
 BYTE   N05  Cs3  v060
 BYTE   W18
 BYTE   N03  An2  v068
 BYTE   W07
//  #09 //008   ----------------------------------------
 BYTE   N36  Gs2  v076
 BYTE   W48
 BYTE   N23  Gs2  v068
 BYTE   W23
 BYTE   N05  Ds2
 BYTE   W18
 BYTE   N03  Gs2
 BYTE   W07
//  #09 //009   ----------------------------------------
 BYTE   N76  Gs2  v076
 BYTE   W96
//  #09 //010   ----------------------------------------
 BYTE   VOICE   11
 BYTE   VOL   45*song09_mvl/mxv
 BYTE   PAN   c_v+0
 BYTE   VOL   38*song09_mvl/mxv
 BYTE   W04
 BYTE   TIE  En3
 BYTE   TIE  Cs4
 BYTE   W14
 BYTE   VOL   38*song09_mvl/mxv
 BYTE   W18
 BYTE   VOL   39*song09_mvl/mxv
 BYTE   W24
 BYTE   VOL   40*song09_mvl/mxv
 BYTE   W18
 BYTE   VOL   40*song09_mvl/mxv
 BYTE   W18
//  #09 //011   ----------------------------------------
 BYTE   VOL   40*song09_mvl/mxv
 BYTE   W18
 BYTE   VOL   41*song09_mvl/mxv
 BYTE   W24
 BYTE   VOL   42*song09_mvl/mxv
 BYTE   W09
 BYTE   EOT
 BYTE   W01
 BYTE   N44  Cn4  v060
 BYTE   W08
 BYTE   VOL   42*song09_mvl/mxv
 BYTE   W18
 BYTE   VOL   43*song09_mvl/mxv
 BYTE   W18
//  #09 //012   ----------------------------------------
 BYTE   W03
 BYTE   EOT
 BYTE   En3
 BYTE   W01
 BYTE   TIE  Ds3  v040
 BYTE   TIE  Bn3  v056
 BYTE   W14
 BYTE   VOL   42*song09_mvl/mxv
 BYTE   W18
 BYTE   VOL   42*song09_mvl/mxv
 BYTE   W18
 BYTE   VOL   41*song09_mvl/mxv
 BYTE   W18
 BYTE   VOL   40*song09_mvl/mxv
 BYTE   W18
 BYTE   VOL   40*song09_mvl/mxv
 BYTE   W06
//  #09 //013   ----------------------------------------
 BYTE   W12
 BYTE   VOL   40*song09_mvl/mxv
 BYTE   W18
 BYTE   VOL   39*song09_mvl/mxv
 BYTE   W12
 BYTE   VOL   38*song09_mvl/mxv
 BYTE   W09
 BYTE   EOT
 BYTE   Ds3
 BYTE   W01
 BYTE   TIE  En3  v064
 BYTE   W08
 BYTE   VOL   38*song09_mvl/mxv
 BYTE   W18
 BYTE   VOL   37*song09_mvl/mxv
 BYTE   W18
//  #09 //014   ----------------------------------------
 BYTE   VOL   37*song09_mvl/mxv
 BYTE   W03
 BYTE   EOT
 BYTE   Bn3
 BYTE   W01
 BYTE   TIE  An3
 BYTE   W14
 BYTE   VOL   36*song09_mvl/mxv
 BYTE   W12
 BYTE   VOL   37*song09_mvl/mxv
 BYTE   W06
 BYTE   VOL   37*song09_mvl/mxv
 BYTE   W06
 BYTE   VOL   37*song09_mvl/mxv
 BYTE   W06
 BYTE   VOL   38*song09_mvl/mxv
 BYTE   W06
 BYTE   VOL   38*song09_mvl/mxv
 BYTE   W06
 BYTE   VOL   39*song09_mvl/mxv
 BYTE   W06
 BYTE   VOL   40*song09_mvl/mxv
 BYTE   W06
 BYTE   VOL   40*song09_mvl/mxv
 BYTE   W06
 BYTE   VOL   40*song09_mvl/mxv
 BYTE   W06
 BYTE   VOL   41*song09_mvl/mxv
 BYTE   W06
 BYTE   VOL   42*song09_mvl/mxv
 BYTE   W06
//  #09 //015   ----------------------------------------
 BYTE   VOL   43*song09_mvl/mxv
 BYTE   W24
 BYTE   W03
 BYTE   EOT
 BYTE   W01
 BYTE   TIE  Gs3
 BYTE   W68
//  #09 //016   ----------------------------------------
 BYTE   W12
 BYTE   VOL   42*song09_mvl/mxv
 BYTE   W36
 BYTE   W03
 BYTE   EOT
 BYTE   W01
 BYTE   N42  An3  v060
 BYTE   W14
 BYTE   VOL   41*song09_mvl/mxv
 BYTE   W30
//  #09 //017   ----------------------------------------
 BYTE   TIE  Gs3  v068
 BYTE   W12
 BYTE   VOL   40*song09_mvl/mxv
 BYTE   W36
 BYTE   VOL   40*song09_mvl/mxv
 BYTE   W30
 BYTE   VOL   40*song09_mvl/mxv
 BYTE   W17
 BYTE   EOT
 BYTE   En3
 BYTE   W01
//  #09 //018   ----------------------------------------
 BYTE   VOL   39*song09_mvl/mxv
 BYTE   TIE  Ds3  v076
 BYTE   W24
 BYTE   VOL   38*song09_mvl/mxv
 BYTE   W18
 BYTE   VOL   38*song09_mvl/mxv
 BYTE   W06
 BYTE   VOL   37*song09_mvl/mxv
 BYTE   W18
 BYTE   VOL   37*song09_mvl/mxv
 BYTE   W12
 BYTE   VOL   37*song09_mvl/mxv
 BYTE   W06
 BYTE   VOL   36*song09_mvl/mxv
 BYTE   W12
//  #09 //019   ----------------------------------------
 BYTE   W06
 BYTE   VOL   34*song09_mvl/mxv
 BYTE   W06
 BYTE   VOL   34*song09_mvl/mxv
 BYTE   W12
 BYTE   VOL   34*song09_mvl/mxv
 BYTE   W06
 BYTE   VOL   33*song09_mvl/mxv
 BYTE   W12
 BYTE   VOL   32*song09_mvl/mxv
 BYTE   W06
 BYTE   VOL   30*song09_mvl/mxv
 BYTE   W12
 BYTE   VOL   29*song09_mvl/mxv
 BYTE   W06
 BYTE   VOL   28*song09_mvl/mxv
 BYTE   W06
 BYTE   VOL   27*song09_mvl/mxv
 BYTE   W12
 BYTE   VOL   24*song09_mvl/mxv
 BYTE   W06
 BYTE   VOL   34*song09_mvl/mxv
 BYTE   W05
 BYTE   EOT
 BYTE   EOT
 BYTE   Gs3
 BYTE   W01
//  #09 //020   ----------------------------------------
 BYTE   VOICE   20
 BYTE   VOL   40*song09_mvl/mxv
 BYTE   PAN   c_v+23
 BYTE   VOL   53*song09_mvl/mxv
 BYTE   N42  Cs2  v064
 BYTE   W48
 BYTE   Ds2  v068
 BYTE   W48
//  #09 //021   ----------------------------------------
 BYTE   N40  As2  v060
 BYTE   W44
 BYTE   W03
 BYTE   N19  As2  v068
 BYTE   W24
 BYTE   N05  As2  v060
 BYTE   W18
 BYTE   N04  Fs2  v068
 BYTE   W07
//  #09 //022   ----------------------------------------
 BYTE   N36  Fn2  v076
 BYTE   W48
 BYTE   N23  Fn2  v068
 BYTE   W23
 BYTE   N05  Cn2
 BYTE   W18
 BYTE   Fn2
 BYTE   W07
//  #09 //023   ----------------------------------------
 BYTE   N44  Fn2  v076
 BYTE   W72
 BYTE   W01
 BYTE   N20  Fn3  v096
 BYTE   W22
 BYTE   N96  Fn3  v088
 BYTE   W01
//  #09 //024   ----------------------------------------
 BYTE   W06
 BYTE   VOL   52*song09_mvl/mxv
 BYTE   W06
 BYTE   VOL   51*song09_mvl/mxv
 BYTE   W06
 BYTE   VOL   51*song09_mvl/mxv
 BYTE   W06
 BYTE   VOL   50*song09_mvl/mxv
 BYTE   W06
 BYTE   VOL   50*song09_mvl/mxv
 BYTE   W06
 BYTE   VOL   48*song09_mvl/mxv
 BYTE   W06
 BYTE   VOL   47*song09_mvl/mxv
 BYTE   W06
 BYTE   VOL   46*song09_mvl/mxv
 BYTE   W06
 BYTE   VOL   44*song09_mvl/mxv
 BYTE   W06
 BYTE   VOL   43*song09_mvl/mxv
 BYTE   W06
 BYTE   VOL   40*song09_mvl/mxv
 BYTE   W06
 BYTE   VOL   38*song09_mvl/mxv
 BYTE   W06
 BYTE   VOL   36*song09_mvl/mxv
 BYTE   W06
 BYTE   VOL   32*song09_mvl/mxv
 BYTE   W06
 BYTE   VOL   28*song09_mvl/mxv
 BYTE   W06
//  #09 //025   ----------------------------------------
 BYTE   VOL   24*song09_mvl/mxv
 BYTE   W96
//  #09 //026   ----------------------------------------
 BYTE   W96
//  #09 //027   ----------------------------------------
 BYTE   W96
//  #09 //028   ----------------------------------------
 BYTE   W96
//  #09 //029   ----------------------------------------
 BYTE   W96
//  #09 //030   ----------------------------------------
 BYTE   W96
//  #09 //031   ----------------------------------------
 BYTE   W96
//  #09 //032   ----------------------------------------
 BYTE   W96
//  #09 //033   ----------------------------------------
 BYTE   W96
//  #09 //034   ----------------------------------------
 BYTE   W96
//  #09 //035   ----------------------------------------
 BYTE   W96
//  #09 //036   ----------------------------------------
 BYTE   W96
//  #09 //037   ----------------------------------------
 BYTE   W96
//  #09 //038   ----------------------------------------
 BYTE   W96
//  #09 //039   ----------------------------------------
 BYTE   W90
 BYTE   VOL   27*song09_mvl/mxv
 BYTE   W02
 BYTE   VOICE   20
 BYTE   W04
//  #09 //040   ----------------------------------------
 BYTE   VOL   22*song09_mvl/mxv
 BYTE   TIE  Gs1  v096
 BYTE   W06
 BYTE   VOL   18*song09_mvl/mxv
 BYTE   W06
 BYTE   VOL   16*song09_mvl/mxv
 BYTE   W12
 BYTE   VOL   17*song09_mvl/mxv
 BYTE   W06
 BYTE   VOL   17*song09_mvl/mxv
 BYTE   W06
 BYTE   VOL   18*song09_mvl/mxv
 BYTE   W06
 BYTE   VOL   18*song09_mvl/mxv
 BYTE   W06
 BYTE   VOL   19*song09_mvl/mxv
 BYTE   W06
 BYTE   VOL   19*song09_mvl/mxv
 BYTE   W06
 BYTE   VOL   20*song09_mvl/mxv
 BYTE   W06
 BYTE   VOL   20*song09_mvl/mxv
 BYTE   W06
 BYTE   VOL   22*song09_mvl/mxv
 BYTE   W06
 BYTE   VOL   22*song09_mvl/mxv
 BYTE   W06
 BYTE   VOL   22*song09_mvl/mxv
 BYTE   W06
 BYTE   VOL   23*song09_mvl/mxv
 BYTE   W06
//  #09 //041   ----------------------------------------
 BYTE   VOL   23*song09_mvl/mxv
 BYTE   W06
 BYTE   VOL   24*song09_mvl/mxv
 BYTE   W06
 BYTE   VOL   25*song09_mvl/mxv
 BYTE   W06
 BYTE   EOT
 BYTE   VOL   27*song09_mvl/mxv
 BYTE   W05
 BYTE   N24  Gs1  v084
 BYTE   W01
 BYTE   VOL   27*song09_mvl/mxv
 BYTE   W06
 BYTE   VOL   27*song09_mvl/mxv
 BYTE   W06
 BYTE   VOL   28*song09_mvl/mxv
 BYTE   W06
 BYTE   VOL   29*song09_mvl/mxv
 BYTE   W06
 BYTE   VOL   30*song09_mvl/mxv
 BYTE   TIE  Gn1  v096
 BYTE   W06
 BYTE   VOL   27*song09_mvl/mxv
 BYTE   W06
 BYTE   VOL   24*song09_mvl/mxv
 BYTE   W06
 BYTE   VOL   22*song09_mvl/mxv
 BYTE   W12
 BYTE   VOL   23*song09_mvl/mxv
 BYTE   W06
 BYTE   VOL   23*song09_mvl/mxv
 BYTE   W12
//  #09 //042   ----------------------------------------
 BYTE   VOL   23*song09_mvl/mxv
 BYTE   W06
 BYTE   VOL   24*song09_mvl/mxv
 BYTE   W06
 BYTE   VOL   25*song09_mvl/mxv
 BYTE   W06
 BYTE   VOL   26*song09_mvl/mxv
 BYTE   W06
 BYTE   VOL   27*song09_mvl/mxv
 BYTE   W12
 BYTE   VOL   27*song09_mvl/mxv
 BYTE   W06
 BYTE   VOL   27*song09_mvl/mxv
 BYTE   W06
 BYTE   VOL   28*song09_mvl/mxv
 BYTE   W06
 BYTE   VOL   28*song09_mvl/mxv
 BYTE   W09
 BYTE   EOT
 BYTE   W03
 BYTE   VOL   29*song09_mvl/mxv
 BYTE   W06
 BYTE   VOL   29*song09_mvl/mxv
 BYTE   N23  Gn1  v112
 BYTE   W06
 BYTE   VOL   30*song09_mvl/mxv
 BYTE   W06
 BYTE   VOL   30*song09_mvl/mxv
 BYTE   W12
//  #09 //043   ----------------------------------------
 BYTE   VOL   32*song09_mvl/mxv
 BYTE   W01
 BYTE   N88  Fs1  v092
 BYTE   W11
 BYTE   VOL   32*song09_mvl/mxv
 BYTE   W12
 BYTE   VOL   33*song09_mvl/mxv
 BYTE   W12
 BYTE   VOL   34*song09_mvl/mxv
 BYTE   W06
 BYTE   VOL   34*song09_mvl/mxv
 BYTE   W06
 BYTE   VOL   36*song09_mvl/mxv
 BYTE   W06
 BYTE   VOL   37*song09_mvl/mxv
 BYTE   W06
 BYTE   VOL   37*song09_mvl/mxv
 BYTE   W06
 BYTE   VOL   39*song09_mvl/mxv
 BYTE   W06
 BYTE   VOL   40*song09_mvl/mxv
 BYTE   W06
 BYTE   VOL   40*song09_mvl/mxv
 BYTE   W06
 BYTE   VOL   42*song09_mvl/mxv
 BYTE   W06
 BYTE   VOL   43*song09_mvl/mxv
 BYTE   W06
//  #09 //044   ----------------------------------------
 BYTE   VOL   44*song09_mvl/mxv
 BYTE   N18  Fs1  v108
 BYTE   W06
 BYTE   VOL   45*song09_mvl/mxv
 BYTE   W06
 BYTE   VOL   46*song09_mvl/mxv
 BYTE   W06
 BYTE   VOL   47*song09_mvl/mxv
 BYTE   W06
 BYTE   VOL   49*song09_mvl/mxv
 BYTE   W01
 BYTE   N18  Fs1  v120
 BYTE   W05
 BYTE   VOL   50*song09_mvl/mxv
 BYTE   W06
 BYTE   VOL   51*song09_mvl/mxv
 BYTE   W06
 BYTE   VOL   53*song09_mvl/mxv
 BYTE   W54
//  #09 //045   ----------------------------------------
 BYTE   W24
 BYTE   VOICE   13
 BYTE   W18
 BYTE   VOL   31*song09_mvl/mxv
 BYTE   W06
 BYTE   VOL   27*song09_mvl/mxv
 BYTE   N44  Cn1  v068
 BYTE   W12
 BYTE   VOL   27*song09_mvl/mxv
 BYTE   W06
 BYTE   VOL   28*song09_mvl/mxv
 BYTE   W06
 BYTE   VOL   28*song09_mvl/mxv
 BYTE   W06
 BYTE   VOL   29*song09_mvl/mxv
 BYTE   W12
 BYTE   VOL   29*song09_mvl/mxv
 BYTE   W06
//  #09 //046   ----------------------------------------
 BYTE   VOL   30*song09_mvl/mxv
 BYTE   N44  Dn1  v064
 BYTE   W06
 BYTE   VOL   30*song09_mvl/mxv
 BYTE   W06
 BYTE   VOL   31*song09_mvl/mxv
 BYTE   W06
 BYTE   VOL   32*song09_mvl/mxv
 BYTE   W06
 BYTE   VOL   32*song09_mvl/mxv
 BYTE   W06
 BYTE   VOL   33*song09_mvl/mxv
 BYTE   W12
 BYTE   VOL   34*song09_mvl/mxv
 BYTE   W06
 BYTE   VOL   34*song09_mvl/mxv
 BYTE   N48  Ds1  v060
 BYTE   W06
 BYTE   VOL   34*song09_mvl/mxv
 BYTE   W06
 BYTE   VOL   35*song09_mvl/mxv
 BYTE   W06
 BYTE   VOL   36*song09_mvl/mxv
 BYTE   W06
 BYTE   VOL   37*song09_mvl/mxv
 BYTE   W06
 BYTE   VOL   37*song09_mvl/mxv
 BYTE   W12
 BYTE   VOL   37*song09_mvl/mxv
 BYTE   W06
//  #09 //047   ----------------------------------------
 BYTE   VOL   38*song09_mvl/mxv
 BYTE   W02
 BYTE   N44  Fn1
 BYTE   W04
 BYTE   VOL   39*song09_mvl/mxv
 BYTE   W06
 BYTE   VOL   40*song09_mvl/mxv
 BYTE   W06
 BYTE   VOL   40*song09_mvl/mxv
 BYTE   W06
 BYTE   VOL   40*song09_mvl/mxv
 BYTE   W06
 BYTE   VOL   41*song09_mvl/mxv
 BYTE   W12
 BYTE   VOL   42*song09_mvl/mxv
 BYTE   W06
 BYTE   VOL   43*song09_mvl/mxv
 BYTE   N44  Gn1
 BYTE   W06
 BYTE   VOL   43*song09_mvl/mxv
 BYTE   W06
 BYTE   VOL   44*song09_mvl/mxv
 BYTE   W06
 BYTE   VOL   45*song09_mvl/mxv
 BYTE   W06
 BYTE   VOL   45*song09_mvl/mxv
 BYTE   W06
 BYTE   VOL   46*song09_mvl/mxv
 BYTE   W12
 BYTE   VOL   46*song09_mvl/mxv
 BYTE   W06
//  #09 //048   ----------------------------------------
 BYTE   VOL   47*song09_mvl/mxv
 BYTE   N44  Gs1
 BYTE   W06
 BYTE   VOL   48*song09_mvl/mxv
 BYTE   W06
 BYTE   VOL   49*song09_mvl/mxv
 BYTE   W06
 BYTE   VOL   50*song09_mvl/mxv
 BYTE   W06
 BYTE   VOL   50*song09_mvl/mxv
 BYTE   W06
 BYTE   VOL   51*song09_mvl/mxv
 BYTE   W12
 BYTE   VOL   51*song09_mvl/mxv
 BYTE   W06
 BYTE   VOICE   20
 BYTE   VOL   53*song09_mvl/mxv
 BYTE   N42  Cs2  v072
 BYTE   W24
 BYTE   GoTo
  POIN2 Label_0121102C
//  #09 //049   ----------------------------------------
 BYTE   W24
 BYTE   N42  Ds2  v068
 BYTE   W44
 BYTE   FINE

//**************** Track 10 (Midi-Chn.9) ****************//

song09_010:
//  #10 //000   ----------------------------------------
 BYTE   KEYSH   song09_key+0
 BYTE   VOICE   39
 BYTE   MODT 0
 BYTE   LFOS 44
 BYTE   MOD 0
 BYTE   VOL   40*song09_mvl/mxv
 BYTE   PAN   c_v+23
 BYTE   VOL   33*song09_mvl/mxv
 BYTE   PAN   c_v-11
 BYTE   VOL   22*song09_mvl/mxv
 BYTE   W06
 BYTE   N20  As1  v108
 BYTE   W24
 BYTE   N19  As1  v088
 BYTE   W24
 BYTE   N20  As1  v092
 BYTE   W24
 BYTE   N04  As1  v096
 BYTE   W08
 BYTE   N03  As1  v068
 BYTE   W08
 BYTE   N04
 BYTE   W02
//  #10 //001   ----------------------------------------
 BYTE   W06
 BYTE   N05  As1  v084
 BYTE   W12
 BYTE   N06  As1  v088
 BYTE   W12
 BYTE   N19  As1  v100
 BYTE   W24
 BYTE   N20  As1  v088
 BYTE   W24
 BYTE   N04
 BYTE   W08
 BYTE   N03  As1  v068
 BYTE   W08
 BYTE   N01  As1  v064
 BYTE   W02
//  #10 //002   ----------------------------------------
 BYTE   VOICE   52
 BYTE   VOL   27*song09_mvl/mxv
 BYTE   PAN   c_v+32
 BYTE   VOL   40*song09_mvl/mxv
 BYTE   W01
 BYTE   N40  As2  v088
 BYTE   W28
 BYTE   W01
Label_01215860:
 BYTE   PAN   c_v+32
 BYTE   W20
 BYTE   N36  Cn3  v076
 BYTE   W44
 BYTE   W02
//  #10 //003   ----------------------------------------
 BYTE   N40  Cs3  v084
 BYTE   W48
 BYTE   W01
 BYTE   N22  Ds3
 BYTE   W23
 BYTE   N05  Cs3  v088
 BYTE   W18
 BYTE   Cn3  v092
 BYTE   W06
//  #10 //004   ----------------------------------------
 BYTE   N36  As2  v076
 BYTE   W48
 BYTE   W01
 BYTE   N23  Gs2  v084
 BYTE   W24
 BYTE   N05  Fn2  v080
 BYTE   W18
 BYTE   Cn3  v092
 BYTE   W05
//  #10 //005   ----------------------------------------
 BYTE   W01
 BYTE   N56  As2  v072
 BYTE   W72
 BYTE   W01
 BYTE   N21  Cn3  v088
 BYTE   W22
//  #10 //006   ----------------------------------------
 BYTE   W01
 BYTE   N36  Cs3  v076
 BYTE   W48
 BYTE   N40  Ds3
 BYTE   W44
 BYTE   W03
//  #10 //007   ----------------------------------------
 BYTE   W01
 BYTE   N36  En3  v072
 BYTE   W48
 BYTE   N22  Fs3  v068
 BYTE   W24
 BYTE   N05  En3  v080
 BYTE   W18
 BYTE   N06  Ds3
 BYTE   W05
//  #10 //008   ----------------------------------------
 BYTE   W01
 BYTE   N40  Cs3  v076
 BYTE   W48
 BYTE   W01
 BYTE   N23  Bn2  v068
 BYTE   W23
 BYTE   N05  Gs2  v088
 BYTE   W18
 BYTE   Ds3  v080
 BYTE   W05
//  #10 //009   ----------------------------------------
 BYTE   W01
 BYTE   N72  Cs3  v072
 BYTE   W92
 BYTE   W03
//  #10 //010   ----------------------------------------
 BYTE   W96
//  #10 //011   ----------------------------------------
 BYTE   W96
//  #10 //012   ----------------------------------------
 BYTE   W96
//  #10 //013   ----------------------------------------
 BYTE   W96
//  #10 //014   ----------------------------------------
 BYTE   W96
//  #10 //015   ----------------------------------------
 BYTE   W96
//  #10 //016   ----------------------------------------
 BYTE   W96
//  #10 //017   ----------------------------------------
 BYTE   W96
//  #10 //018   ----------------------------------------
 BYTE   W96
//  #10 //019   ----------------------------------------
 BYTE   W96
//  #10 //020   ----------------------------------------
 BYTE   W01
 BYTE   N40  As2  v088
 BYTE   W48
 BYTE   W01
 BYTE   N36  Cn3  v076
 BYTE   W44
 BYTE   W02
//  #10 //021   ----------------------------------------
 BYTE   N40  Cs3  v084
 BYTE   W48
 BYTE   W01
 BYTE   N22  Ds3
 BYTE   W23
 BYTE   N05  Cs3  v088
 BYTE   W18
 BYTE   Cn3  v084
 BYTE   W06
//  #10 //022   ----------------------------------------
 BYTE   N36  As2  v076
 BYTE   W48
 BYTE   W01
 BYTE   N23  Gs2  v084
 BYTE   W24
 BYTE   N05  Fn2  v080
 BYTE   W18
 BYTE   Cn3  v088
 BYTE   W05
//  #10 //023   ----------------------------------------
 BYTE   W01
 BYTE   N56  As2  v072
 BYTE   W92
 BYTE   W03
//  #10 //024   ----------------------------------------
 BYTE   VOICE   11
 BYTE   VOL   80*song09_mvl/mxv
 BYTE   PAN   c_v+38
 BYTE   VOL   28*song09_mvl/mxv
 BYTE   W01
 BYTE   TIE  Bn3  v068
 BYTE   W05
 BYTE   VOL   25*song09_mvl/mxv
 BYTE   W06
 BYTE   VOL   23*song09_mvl/mxv
 BYTE   W06
 BYTE   VOL   21*song09_mvl/mxv
 BYTE   W06
 BYTE   VOL   20*song09_mvl/mxv
 BYTE   W06
 BYTE   VOL   18*song09_mvl/mxv
 BYTE   W06
 BYTE   VOL   17*song09_mvl/mxv
 BYTE   W18
 BYTE   VOL   17*song09_mvl/mxv
 BYTE   W12
 BYTE   VOL   18*song09_mvl/mxv
 BYTE   W18
 BYTE   VOL   18*song09_mvl/mxv
 BYTE   W12
//  #10 //025   ----------------------------------------
 BYTE   W06
 BYTE   VOL   19*song09_mvl/mxv
 BYTE   W18
 BYTE   VOL   19*song09_mvl/mxv
 BYTE   W18
 BYTE   VOL   20*song09_mvl/mxv
 BYTE   W12
 BYTE   VOL   20*song09_mvl/mxv
 BYTE   W18
 BYTE   VOL   21*song09_mvl/mxv
 BYTE   W18
 BYTE   VOL   22*song09_mvl/mxv
 BYTE   W06
//  #10 //026   ----------------------------------------
 BYTE   W01
 BYTE   EOT
 BYTE   TIE  As3  v052
 BYTE   W11
 BYTE   VOL   22*song09_mvl/mxv
 BYTE   W18
 BYTE   VOL   23*song09_mvl/mxv
 BYTE   W12
 BYTE   VOL   23*song09_mvl/mxv
 BYTE   W18
 BYTE   VOL   24*song09_mvl/mxv
 BYTE   W18
 BYTE   VOL   25*song09_mvl/mxv
 BYTE   W18
//  #10 //027   ----------------------------------------
 BYTE   VOL   26*song09_mvl/mxv
 BYTE   W18
 BYTE   VOL   27*song09_mvl/mxv
 BYTE   W12
 BYTE   VOL   27*song09_mvl/mxv
 BYTE   W18
 BYTE   VOL   28*song09_mvl/mxv
 BYTE   W18
 BYTE   VOL   28*song09_mvl/mxv
 BYTE   W18
 BYTE   VOL   29*song09_mvl/mxv
 BYTE   W08
 BYTE   EOT
 BYTE   W01
 BYTE   TIE  Gs3  v056
 BYTE   W03
//  #10 //028   ----------------------------------------
 BYTE   W06
 BYTE   VOL   30*song09_mvl/mxv
 BYTE   W12
 BYTE   VOL   30*song09_mvl/mxv
 BYTE   W18
 BYTE   VOL   31*song09_mvl/mxv
 BYTE   W18
 BYTE   VOL   32*song09_mvl/mxv
 BYTE   W18
 BYTE   VOL   33*song09_mvl/mxv
 BYTE   W18
 BYTE   VOL   34*song09_mvl/mxv
 BYTE   W06
//  #10 //029   ----------------------------------------
 BYTE   W06
 BYTE   VOL   34*song09_mvl/mxv
 BYTE   W18
 BYTE   VOL   35*song09_mvl/mxv
 BYTE   W18
 BYTE   VOL   36*song09_mvl/mxv
 BYTE   W18
 BYTE   VOL   37*song09_mvl/mxv
 BYTE   W18
 BYTE   VOL   37*song09_mvl/mxv
 BYTE   W12
 BYTE   VOL   38*song09_mvl/mxv
 BYTE   W06
//  #10 //030   ----------------------------------------
 BYTE   W44
 BYTE   W02
 BYTE   EOT
 BYTE   W01
 BYTE   N48  Fs3
 BYTE   W48
 BYTE   N44  Fn3  v060
 BYTE   W01
//  #10 //031   ----------------------------------------
 BYTE   W44
 BYTE   W03
 BYTE   N48  Fs3  v052
 BYTE   W48
 BYTE   W01
//  #10 //032   ----------------------------------------
 BYTE   TIE  Gs3  v056
 BYTE   W12
 BYTE   VOL   37*song09_mvl/mxv
 BYTE   W06
 BYTE   VOL   35*song09_mvl/mxv
 BYTE   W06
 BYTE   VOL   34*song09_mvl/mxv
 BYTE   W06
 BYTE   VOL   32*song09_mvl/mxv
 BYTE   W06
 BYTE   VOL   31*song09_mvl/mxv
 BYTE   W06
 BYTE   VOL   28*song09_mvl/mxv
 BYTE   W06
 BYTE   VOL   28*song09_mvl/mxv
 BYTE   W06
 BYTE   VOL   26*song09_mvl/mxv
 BYTE   W06
 BYTE   VOL   25*song09_mvl/mxv
 BYTE   W06
 BYTE   VOL   22*song09_mvl/mxv
 BYTE   W18
 BYTE   VOL   23*song09_mvl/mxv
 BYTE   W06
 BYTE   VOL   23*song09_mvl/mxv
 BYTE   W06
//  #10 //033   ----------------------------------------
 BYTE   W06
 BYTE   VOL   24*song09_mvl/mxv
 BYTE   W06
 BYTE   VOL   25*song09_mvl/mxv
 BYTE   W06
 BYTE   VOL   26*song09_mvl/mxv
 BYTE   W12
 BYTE   VOL   27*song09_mvl/mxv
 BYTE   W06
 BYTE   VOL   27*song09_mvl/mxv
 BYTE   W06
 BYTE   VOL   28*song09_mvl/mxv
 BYTE   W12
 BYTE   VOL   28*song09_mvl/mxv
 BYTE   W06
 BYTE   VOL   29*song09_mvl/mxv
 BYTE   W06
 BYTE   VOL   30*song09_mvl/mxv
 BYTE   W12
 BYTE   VOL   30*song09_mvl/mxv
 BYTE   W12
 BYTE   VOL   31*song09_mvl/mxv
 BYTE   W03
 BYTE   EOT
 BYTE   W01
 BYTE   TIE  Fs3
 BYTE   W02
//  #10 //034   ----------------------------------------
 BYTE   VOL   33*song09_mvl/mxv
 BYTE   W06
 BYTE   VOL   32*song09_mvl/mxv
 BYTE   W06
 BYTE   VOL   31*song09_mvl/mxv
 BYTE   W06
 BYTE   VOL   30*song09_mvl/mxv
 BYTE   W06
 BYTE   VOL   30*song09_mvl/mxv
 BYTE   W06
 BYTE   VOL   28*song09_mvl/mxv
 BYTE   W06
 BYTE   VOL   28*song09_mvl/mxv
 BYTE   W06
 BYTE   VOL   27*song09_mvl/mxv
 BYTE   W06
 BYTE   VOL   27*song09_mvl/mxv
 BYTE   W06
 BYTE   VOL   25*song09_mvl/mxv
 BYTE   W06
 BYTE   VOL   24*song09_mvl/mxv
 BYTE   W06
 BYTE   VOL   23*song09_mvl/mxv
 BYTE   W12
 BYTE   VOL   23*song09_mvl/mxv
 BYTE   W06
 BYTE   VOL   24*song09_mvl/mxv
 BYTE   W12
//  #10 //035   ----------------------------------------
 BYTE   VOL   25*song09_mvl/mxv
 BYTE   W06
 BYTE   VOL   26*song09_mvl/mxv
 BYTE   W12
 BYTE   VOL   27*song09_mvl/mxv
 BYTE   W12
 BYTE   VOL   27*song09_mvl/mxv
 BYTE   W12
 BYTE   VOL   28*song09_mvl/mxv
 BYTE   W06
 BYTE   VOL   28*song09_mvl/mxv
 BYTE   W12
 BYTE   VOL   29*song09_mvl/mxv
 BYTE   W06
 BYTE   VOL   30*song09_mvl/mxv
 BYTE   W12
 BYTE   VOL   30*song09_mvl/mxv
 BYTE   W12
 BYTE   VOL   31*song09_mvl/mxv
 BYTE   W06
//  #10 //036   ----------------------------------------
 BYTE   W06
 BYTE   VOL   32*song09_mvl/mxv
 BYTE   W06
 BYTE   VOL   33*song09_mvl/mxv
 BYTE   W12
 BYTE   VOL   34*song09_mvl/mxv
 BYTE   W06
 BYTE   VOL   34*song09_mvl/mxv
 BYTE   W12
 BYTE   VOL   35*song09_mvl/mxv
 BYTE   W12
 BYTE   VOL   36*song09_mvl/mxv
 BYTE   W12
 BYTE   VOL   37*song09_mvl/mxv
 BYTE   W06
 BYTE   VOL   37*song09_mvl/mxv
 BYTE   W12
 BYTE   VOL   38*song09_mvl/mxv
 BYTE   W06
 BYTE   VOL   39*song09_mvl/mxv
 BYTE   W04
 BYTE   EOT
 BYTE   W01
 BYTE   TIE  Gs3
 BYTE   W01
//  #10 //037   ----------------------------------------
 BYTE   W06
 BYTE   VOL   40*song09_mvl/mxv
 BYTE   W12
 BYTE   VOL   40*song09_mvl/mxv
 BYTE   W12
 BYTE   VOL   41*song09_mvl/mxv
 BYTE   W06
 BYTE   VOL   42*song09_mvl/mxv
 BYTE   W12
 BYTE   VOL   43*song09_mvl/mxv
 BYTE   W06
 BYTE   VOL   44*song09_mvl/mxv
 BYTE   W12
 BYTE   VOL   45*song09_mvl/mxv
 BYTE   W12
 BYTE   VOL   45*song09_mvl/mxv
 BYTE   W12
 BYTE   VOL   46*song09_mvl/mxv
 BYTE   W06
//  #10 //038   ----------------------------------------
 BYTE   VOL   47*song09_mvl/mxv
 BYTE   W24
 BYTE   VOL   46*song09_mvl/mxv
 BYTE   W18
 BYTE   VOL   45*song09_mvl/mxv
 BYTE   W05
 BYTE   EOT
 BYTE   N48  Fn3  v052
 BYTE   W13
 BYTE   VOL   45*song09_mvl/mxv
 BYTE   W12
 BYTE   VOL   44*song09_mvl/mxv
 BYTE   W12
 BYTE   VOL   43*song09_mvl/mxv
 BYTE   W06
 BYTE   VOL   42*song09_mvl/mxv
 BYTE   W05
 BYTE   N96  Fs3
 BYTE   W01
//  #10 //039   ----------------------------------------
 BYTE   W06
 BYTE   VOL   41*song09_mvl/mxv
 BYTE   W06
 BYTE   VOL   40*song09_mvl/mxv
 BYTE   W06
 BYTE   VOL   40*song09_mvl/mxv
 BYTE   W06
 BYTE   VOL   39*song09_mvl/mxv
 BYTE   W06
 BYTE   VOL   38*song09_mvl/mxv
 BYTE   W06
 BYTE   VOL   37*song09_mvl/mxv
 BYTE   W06
 BYTE   VOL   36*song09_mvl/mxv
 BYTE   W06
 BYTE   VOL   35*song09_mvl/mxv
 BYTE   W06
 BYTE   VOL   33*song09_mvl/mxv
 BYTE   W06
 BYTE   VOL   32*song09_mvl/mxv
 BYTE   W06
 BYTE   VOL   29*song09_mvl/mxv
 BYTE   W06
 BYTE   VOL   28*song09_mvl/mxv
 BYTE   W06
 BYTE   VOL   23*song09_mvl/mxv
 BYTE   W06
 BYTE   VOL   21*song09_mvl/mxv
 BYTE   W06
 BYTE   VOL   17*song09_mvl/mxv
 BYTE   W06
//  #10 //040   ----------------------------------------
 BYTE   VOL   13*song09_mvl/mxv
 BYTE   W24
 BYTE   VOL   6*song09_mvl/mxv
 BYTE   PAN   c_v+32
 BYTE   VOL   22*song09_mvl/mxv
 BYTE   W01
 BYTE   VOICE   52
 BYTE   W01
 BYTE   N11  As2
 BYTE   W11
 BYTE   Gs2  v064
 BYTE   W11
 BYTE   VOL   23*song09_mvl/mxv
 BYTE   W01
 BYTE   N11  Fs2
 BYTE   W11
 BYTE   VOL   23*song09_mvl/mxv
 BYTE   N13  Fn2
 BYTE   W12
 BYTE   VOL   23*song09_mvl/mxv
 BYTE   W02
 BYTE   N11  Ds2
 BYTE   W10
 BYTE   VOL   24*song09_mvl/mxv
 BYTE   W01
 BYTE   N10  Cs2
 BYTE   W05
 BYTE   VOL   25*song09_mvl/mxv
 BYTE   W06
//  #10 //041   ----------------------------------------
 BYTE   N12  Bn1  v060
 BYTE   W06
 BYTE   VOL   25*song09_mvl/mxv
 BYTE   W06
 BYTE   N11  As1  v064
 BYTE   W06
 BYTE   VOL   26*song09_mvl/mxv
 BYTE   W06
 BYTE   N11  Gs1  v068
 BYTE   W06
 BYTE   VOL   27*song09_mvl/mxv
 BYTE   W06
 BYTE   N09  Fs1  v076
 BYTE   W06
 BYTE   VOL   27*song09_mvl/mxv
 BYTE   W12
 BYTE   VOL   27*song09_mvl/mxv
 BYTE   W12
 BYTE   VOL   28*song09_mvl/mxv
 BYTE   W07
 BYTE   N10  Ds3  v064
 BYTE   W05
 BYTE   VOL   28*song09_mvl/mxv
 BYTE   W06
 BYTE   N11  Dn3  v068
 BYTE   W06
 BYTE   VOL   28*song09_mvl/mxv
 BYTE   W06
//  #10 //042   ----------------------------------------
 BYTE   N11  Cn3  v064
 BYTE   W06
 BYTE   VOL   29*song09_mvl/mxv
 BYTE   W06
 BYTE   N10  As2
 BYTE   W06
 BYTE   VOL   29*song09_mvl/mxv
 BYTE   W05
 BYTE   N11  Gs2  v068
 BYTE   W01
 BYTE   VOL   30*song09_mvl/mxv
 BYTE   W11
 BYTE   N12  Gn2  v064
 BYTE   W01
 BYTE   VOL   30*song09_mvl/mxv
 BYTE   W11
 BYTE   N11  Fn2  v044
 BYTE   W01
 BYTE   VOL   30*song09_mvl/mxv
 BYTE   W10
 BYTE   N12  Ds2  v068
 BYTE   W02
 BYTE   VOL   31*song09_mvl/mxv
 BYTE   W11
 BYTE   N11  Dn2  v072
 BYTE   W01
 BYTE   VOL   32*song09_mvl/mxv
 BYTE   W06
 BYTE   VOL   32*song09_mvl/mxv
 BYTE   W05
 BYTE   N11  Cn2  v076
 BYTE   W07
 BYTE   VOL   33*song09_mvl/mxv
 BYTE   W06
//  #10 //043   ----------------------------------------
 BYTE   W06
 BYTE   VOL   34*song09_mvl/mxv
 BYTE   W12
 BYTE   VOL   34*song09_mvl/mxv
 BYTE   W08
 BYTE   N11  Dn3
 BYTE   W04
 BYTE   VOL   34*song09_mvl/mxv
 BYTE   W08
 BYTE   N10  Cn3  v056
 BYTE   W04
 BYTE   VOL   35*song09_mvl/mxv
 BYTE   W06
 BYTE   N11  As2  v072
 BYTE   W06
 BYTE   VOL   35*song09_mvl/mxv
 BYTE   W06
 BYTE   N11  An2  v064
 BYTE   W06
 BYTE   VOL   36*song09_mvl/mxv
 BYTE   W06
 BYTE   N11  Fs2
 BYTE   W06
 BYTE   VOL   37*song09_mvl/mxv
 BYTE   W06
 BYTE   N11  Ds2  v068
 BYTE   W06
 BYTE   VOL   37*song09_mvl/mxv
 BYTE   W06
//  #10 //044   ----------------------------------------
 BYTE   N11  Dn2  v064
 BYTE   W06
 BYTE   VOL   37*song09_mvl/mxv
 BYTE   W06
 BYTE   VOL   38*song09_mvl/mxv
 BYTE   N12  Cn2
 BYTE   W12
 BYTE   VOL   38*song09_mvl/mxv
 BYTE   N10  As1  v072
 BYTE   W12
 BYTE   VOL   39*song09_mvl/mxv
 BYTE   N10  An1  v076
 BYTE   W12
 BYTE   VOL   40*song09_mvl/mxv
 BYTE   W48
//  #10 //045   ----------------------------------------
 BYTE   W24
 BYTE   VOICE   52
 BYTE   PAN   c_v+23
 BYTE   W24
 BYTE   VOL   18*song09_mvl/mxv
 BYTE   N44  Gs2  v084
 BYTE   W12
 BYTE   VOL   18*song09_mvl/mxv
 BYTE   W06
 BYTE   VOL   18*song09_mvl/mxv
 BYTE   W12
 BYTE   VOL   19*song09_mvl/mxv
 BYTE   W06
 BYTE   VOL   19*song09_mvl/mxv
 BYTE   W06
 BYTE   VOL   19*song09_mvl/mxv
 BYTE   W06
//  #10 //046   ----------------------------------------
 BYTE   VOL   20*song09_mvl/mxv
 BYTE   N48  As2  v076
 BYTE   W06
 BYTE   VOL   20*song09_mvl/mxv
 BYTE   W12
 BYTE   VOL   21*song09_mvl/mxv
 BYTE   W12
 BYTE   VOL   21*song09_mvl/mxv
 BYTE   W06
 BYTE   VOL   22*song09_mvl/mxv
 BYTE   W06
 BYTE   VOL   22*song09_mvl/mxv
 BYTE   W06
 BYTE   VOL   22*song09_mvl/mxv
 BYTE   N44  Cn3  v072
 BYTE   W06
 BYTE   VOL   23*song09_mvl/mxv
 BYTE   W12
 BYTE   VOL   23*song09_mvl/mxv
 BYTE   W12
 BYTE   VOL   24*song09_mvl/mxv
 BYTE   W06
 BYTE   VOL   25*song09_mvl/mxv
 BYTE   W06
 BYTE   VOL   25*song09_mvl/mxv
 BYTE   W06
//  #10 //047   ----------------------------------------
 BYTE   VOL   26*song09_mvl/mxv
 BYTE   N44  Dn3  v064
 BYTE   W06
 BYTE   VOL   27*song09_mvl/mxv
 BYTE   W12
 BYTE   VOL   27*song09_mvl/mxv
 BYTE   W12
 BYTE   VOL   28*song09_mvl/mxv
 BYTE   W06
 BYTE   VOL   28*song09_mvl/mxv
 BYTE   W06
 BYTE   VOL   28*song09_mvl/mxv
 BYTE   W06
 BYTE   VOL   29*song09_mvl/mxv
 BYTE   N44  Ds3
 BYTE   W06
 BYTE   VOL   29*song09_mvl/mxv
 BYTE   W12
 BYTE   VOL   30*song09_mvl/mxv
 BYTE   W12
 BYTE   VOL   30*song09_mvl/mxv
 BYTE   W06
 BYTE   VOL   31*song09_mvl/mxv
 BYTE   W06
 BYTE   VOL   32*song09_mvl/mxv
 BYTE   W05
 BYTE   N42  Fn3  v076
 BYTE   W01
//  #10 //048   ----------------------------------------
 BYTE   VOL   32*song09_mvl/mxv
 BYTE   W06
 BYTE   VOL   33*song09_mvl/mxv
 BYTE   W12
 BYTE   VOL   34*song09_mvl/mxv
 BYTE   W12
 BYTE   VOL   34*song09_mvl/mxv
 BYTE   W06
 BYTE   VOL   35*song09_mvl/mxv
 BYTE   W06
 BYTE   VOL   35*song09_mvl/mxv
 BYTE   W06
 BYTE   VOICE   52
 BYTE   VOL   40*song09_mvl/mxv
 BYTE   W01
 BYTE   N40  As2  v104
 BYTE   W23
 BYTE   GoTo
  POIN2 Label_01215860
//  #10 //049   ----------------------------------------
 BYTE   W24
 BYTE   W02
 BYTE   N36  Cn3  v076
 BYTE   W42
 BYTE   FINE

//**************** Track 11 (Midi-Chn.10) ****************//

song09_011:
//  #11 //000   ----------------------------------------
 BYTE   KEYSH   song09_key+0
 BYTE   VOICE   21
 BYTE   MODT 0
 BYTE   LFOS 44
 BYTE   MOD 0
 BYTE   VOL   69*song09_mvl/mxv
 BYTE   PAN   c_v+12
 BYTE   VOL   69*song09_mvl/mxv
 BYTE   N12  As0  v120
 BYTE   W24
 BYTE   N13  As0  v124
 BYTE   W24
 BYTE   As0  v120
 BYTE   W24
 BYTE   N03  As0  v127
 BYTE   W08
 BYTE   As0  v108
 BYTE   W08
 BYTE   N04  As0  v100
 BYTE   W08
//  #11 //001   ----------------------------------------
 BYTE   As0  v116
 BYTE   W12
 BYTE   N05  As0  v120
 BYTE   W12
 BYTE   N13
 BYTE   W24
 BYTE   N15
 BYTE   W24
 BYTE   N04
 BYTE   W08
 BYTE   As0  v092
 BYTE   W08
 BYTE   As0  v084
 BYTE   W08
//  #11 //002   ----------------------------------------
 BYTE   VOICE   21
 BYTE   N12  As0  v104
 BYTE   W24
 BYTE   As0  v108
 BYTE   W06
Label_01215BDE:
 BYTE   W18
 BYTE   N12  As0  v108
 BYTE   W24
 BYTE   N03
 BYTE   W08
 BYTE   As0  v096
 BYTE   W08
 BYTE   As0  v088
 BYTE   W08
//  #11 //003   ----------------------------------------
Label_01215BEB:
 BYTE   N04  As0  v096
 BYTE   W12
 BYTE   As0  v104
 BYTE   W12
 BYTE   N12  As0  v112
 BYTE   W24
 BYTE   N13  As0  v120
 BYTE   W24
 BYTE   N03  As0  v108
 BYTE   W08
 BYTE   As0  v096
 BYTE   W08
 BYTE   As0  v084
 BYTE   W08
 BYTE   PEND 
//  #11 //004   ----------------------------------------
Label_01215C05:
 BYTE   N08  As0  v096
 BYTE   W24
 BYTE   N10  As0  v104
 BYTE   W24
 BYTE   As0  v108
 BYTE   W24
 BYTE   W01
 BYTE   N04
 BYTE   W07
 BYTE   N03  Fn0  v127
 BYTE   W08
 BYTE   N04  Fn0  v112
 BYTE   W08
 BYTE   PEND 
//  #11 //005   ----------------------------------------
 BYTE   N05  As0  v108
 BYTE   W12
 BYTE   N04
 BYTE   W12
 BYTE   N13
 BYTE   W24
 BYTE   N14
 BYTE   W24
 BYTE   W01
 BYTE   N23  Gs0  v116
 BYTE   W23
//  #11 //006   ----------------------------------------
 BYTE   N12  Cs1  v104
 BYTE   W24
 BYTE   Cs1  v108
 BYTE   W24
 BYTE   N12
 BYTE   W24
 BYTE   N03
 BYTE   W08
 BYTE   Cs1  v096
 BYTE   W08
 BYTE   Cs1  v088
 BYTE   W08
//  #11 //007   ----------------------------------------
 BYTE   N04  Cs1  v096
 BYTE   W12
 BYTE   Cs1  v104
 BYTE   W12
 BYTE   N12  Cs1  v112
 BYTE   W24
 BYTE   N13  Cs1  v120
 BYTE   W24
 BYTE   N03  Cs1  v108
 BYTE   W08
 BYTE   Cs1  v096
 BYTE   W08
 BYTE   Cs1  v084
 BYTE   W08
//  #11 //008   ----------------------------------------
 BYTE   N08  Cs1  v096
 BYTE   W24
 BYTE   N10  Cs1  v104
 BYTE   W24
 BYTE   Cs1  v108
 BYTE   W24
 BYTE   W01
 BYTE   N04
 BYTE   W07
 BYTE   N03  Gs0  v104
 BYTE   W08
 BYTE   N04  Gs0  v088
 BYTE   W08
//  #11 //009   ----------------------------------------
 BYTE   N05  Cs1  v108
 BYTE   W12
 BYTE   N04
 BYTE   W12
 BYTE   N13
 BYTE   W24
 BYTE   N14
 BYTE   W24
 BYTE   W01
 BYTE   N23  Bn0  v116
 BYTE   W23
//  #11 //010   ----------------------------------------
 BYTE   N19  An0  v100
 BYTE   W24
 BYTE   An0  v092
 BYTE   W24
 BYTE   N18
 BYTE   W24
 BYTE   N07
 BYTE   W08
 BYTE   An0  v064
 BYTE   W08
 BYTE   An0  v056
 BYTE   W08
//  #11 //011   ----------------------------------------
 BYTE   N11  An0  v064
 BYTE   W12
 BYTE   An0  v068
 BYTE   W12
 BYTE   N19  An0  v076
 BYTE   W24
 BYTE   N18  An0  v084
 BYTE   W24
 BYTE   N07  An0  v088
 BYTE   W08
 BYTE   An0  v056
 BYTE   W08
 BYTE   An0  v060
 BYTE   W08
//  #11 //012   ----------------------------------------
 BYTE   N18  Gs0  v076
 BYTE   W24
 BYTE   Gs0  v072
 BYTE   W24
 BYTE   N18
 BYTE   W24
 BYTE   N07
 BYTE   W08
 BYTE   Gs0  v052
 BYTE   W08
 BYTE   Gs0  v056
 BYTE   W08
//  #11 //013   ----------------------------------------
 BYTE   N11  Gs0  v060
 BYTE   W12
 BYTE   Gs0  v064
 BYTE   W12
 BYTE   N18  Gs0  v072
 BYTE   W24
 BYTE   Gs0  v076
 BYTE   W24
 BYTE   N07  Gs0  v072
 BYTE   W08
 BYTE   Gs0  v048
 BYTE   W08
 BYTE   Gs0  v056
 BYTE   W08
//  #11 //014   ----------------------------------------
 BYTE   N17  Fs0  v072
 BYTE   W24
 BYTE   N18  Fs0  v068
 BYTE   W24
 BYTE   Fs0  v072
 BYTE   W24
 BYTE   N07
 BYTE   W08
 BYTE   Fs0  v048
 BYTE   W08
 BYTE   Fs0  v056
 BYTE   W08
//  #11 //015   ----------------------------------------
 BYTE   N18  Gs0  v076
 BYTE   W24
 BYTE   N18
 BYTE   W24
 BYTE   Gs0  v080
 BYTE   W24
 BYTE   N07  Gs0  v076
 BYTE   W08
 BYTE   Gs0  v048
 BYTE   W08
 BYTE   Gs0  v052
 BYTE   W08
//  #11 //016   ----------------------------------------
 BYTE   N19  An0  v080
 BYTE   W24
 BYTE   N19
 BYTE   W24
 BYTE   N18  An0  v084
 BYTE   W24
 BYTE   N07
 BYTE   W08
 BYTE   An0  v056
 BYTE   W08
 BYTE   An0  v060
 BYTE   W08
//  #11 //017   ----------------------------------------
 BYTE   N17  As0  v076
 BYTE   W24
 BYTE   N18
 BYTE   W24
 BYTE   N18
 BYTE   W24
 BYTE   N07  As0  v080
 BYTE   W08
 BYTE   N03  As0  v056
 BYTE   W04
 BYTE   N11  As0  v052
 BYTE   W12
//  #11 //018   ----------------------------------------
 BYTE   N18  Gs0  v072
 BYTE   W24
 BYTE   Gs0  v076
 BYTE   W24
 BYTE   N18
 BYTE   W24
 BYTE   N07
 BYTE   W08
 BYTE   Gs0  v056
 BYTE   W08
 BYTE   Gs0  v052
 BYTE   W08
//  #11 //019   ----------------------------------------
 BYTE   N11  Gs0  v072
 BYTE   W12
 BYTE   Gs0  v076
 BYTE   W12
 BYTE   N18
 BYTE   W20
 BYTE   N18
 BYTE   W28
 BYTE   N07  Gs0  v084
 BYTE   W08
 BYTE   Gs0  v060
 BYTE   W08
 BYTE   N08  Gs0  v076
 BYTE   W08
//  #11 //020   ----------------------------------------
 BYTE   W24
 BYTE   N12  As0  v108
 BYTE   W24
 BYTE   N12
 BYTE   W24
 BYTE   N03
 BYTE   W08
 BYTE   As0  v096
 BYTE   W08
 BYTE   As0  v088
 BYTE   W08
//  #11 //021   ----------------------------------------
 BYTE   PATT
  POIN2 Label_01215BEB
//  #11 //022   ----------------------------------------
 BYTE   PATT
  POIN2 Label_01215C05
//  #11 //023   ----------------------------------------
 BYTE   N05  As0  v108
 BYTE   W12
 BYTE   N04
 BYTE   W12
 BYTE   N13
 BYTE   W24
 BYTE   N14
 BYTE   W24
 BYTE   N10  An0
 BYTE   W24
//  #11 //024   ----------------------------------------
 BYTE   VOICE   0
 BYTE   VOL   73*song09_mvl/mxv
 BYTE   PAN   c_v-34
 BYTE   W12
 BYTE   N03  Bn3  v052
 BYTE   W12
 BYTE   N01  Ds4  v056
 BYTE   W12
 BYTE   N03  Fn4
 BYTE   W12
 BYTE   As3
 BYTE   W12
 BYTE   Bn3  v032
 BYTE   W12
 BYTE   Ds4  v048
 BYTE   W12
 BYTE   Fn4  v056
 BYTE   W12
//  #11 //025   ----------------------------------------
 BYTE   Gs3
 BYTE   W12
 BYTE   Bn3  v032
 BYTE   W12
 BYTE   Ds4  v040
 BYTE   W12
 BYTE   Fn4  v048
 BYTE   W12
 BYTE   Gs3
 BYTE   W12
 BYTE   Bn3  v036
 BYTE   W12
 BYTE   Ds4  v040
 BYTE   W12
 BYTE   Fn4  v048
 BYTE   W12
//  #11 //026   ----------------------------------------
Label_01215D99:
 BYTE   N03  Fs3  v052
 BYTE   W12
 BYTE   As3  v044
 BYTE   W12
 BYTE   Ds4  v040
 BYTE   W12
 BYTE   Fn4
 BYTE   W12
 BYTE   Fs3  v036
 BYTE   W12
 BYTE   As3  v040
 BYTE   W12
 BYTE   Ds4
 BYTE   W12
 BYTE   Fn4  v036
 BYTE   W12
 BYTE   PEND 
//  #11 //027   ----------------------------------------
 BYTE   Fs3  v040
 BYTE   W12
 BYTE   As3  v036
 BYTE   W12
 BYTE   Ds4  v032
 BYTE   W12
 BYTE   Fn4  v036
 BYTE   W12
 BYTE   Fs3
 BYTE   W12
 BYTE   As3
 BYTE   W12
 BYTE   Ds4  v032
 BYTE   W12
 BYTE   Fs4  v040
 BYTE   W12
//  #11 //028   ----------------------------------------
 BYTE   Fn3
 BYTE   W12
 BYTE   Gs3  v044
 BYTE   W12
 BYTE   Bn3  v040
 BYTE   W12
 BYTE   Ds4  v044
 BYTE   W12
 BYTE   Fn3  v032
 BYTE   W12
 BYTE   Gs3  v028
 BYTE   W12
 BYTE   Bn3  v036
 BYTE   W12
 BYTE   Ds4  v040
 BYTE   W12
//  #11 //029   ----------------------------------------
 BYTE   Fn3  v044
 BYTE   W12
 BYTE   Gs3  v028
 BYTE   W12
 BYTE   Bn3  v036
 BYTE   W12
 BYTE   Ds4
 BYTE   W12
 BYTE   Fn3  v044
 BYTE   W12
 BYTE   Gs3  v032
 BYTE   W12
 BYTE   Bn3
 BYTE   W12
 BYTE   Ds4  v044
 BYTE   W12
//  #11 //030   ----------------------------------------
 BYTE   Ds3  v048
 BYTE   W12
 BYTE   Gs3  v044
 BYTE   W12
 BYTE   As3  v036
 BYTE   W12
 BYTE   Ds4
 BYTE   W12
 BYTE   Ds3  v032
 BYTE   W12
 BYTE   Fs3  v036
 BYTE   W12
 BYTE   As3  v032
 BYTE   W11
 BYTE   Ds4
 BYTE   W12
 BYTE   Ds3
 BYTE   W01
//  #11 //031   ----------------------------------------
 BYTE   W11
 BYTE   Fn3  v044
 BYTE   W13
 BYTE   As3  v036
 BYTE   W11
 BYTE   Ds4  v048
 BYTE   W13
 BYTE   Ds3  v036
 BYTE   W12
 BYTE   Fs3  v052
 BYTE   W12
 BYTE   As3  v044
 BYTE   W12
 BYTE   Ds4  v036
 BYTE   W12
//  #11 //032   ----------------------------------------
 BYTE   Gs3  v068
 BYTE   W12
 BYTE   As3  v052
 BYTE   W12
 BYTE   Ds4  v056
 BYTE   W12
 BYTE   Fn4
 BYTE   W12
 BYTE   Gs3
 BYTE   W12
 BYTE   As3  v032
 BYTE   W12
 BYTE   Ds4  v048
 BYTE   W12
 BYTE   Fn4  v056
 BYTE   W12
//  #11 //033   ----------------------------------------
 BYTE   Gs3
 BYTE   W12
 BYTE   Bn3  v040
 BYTE   W12
 BYTE   Ds4
 BYTE   W12
 BYTE   Fn4  v048
 BYTE   W12
 BYTE   Gs3
 BYTE   W12
 BYTE   Bn3  v036
 BYTE   W12
 BYTE   Ds4  v040
 BYTE   W12
 BYTE   Fn4  v048
 BYTE   W12
//  #11 //034   ----------------------------------------
 BYTE   PATT
  POIN2 Label_01215D99
//  #11 //035   ----------------------------------------
 BYTE   N03  Fs3  v040
 BYTE   W12
 BYTE   As3  v036
 BYTE   W12
 BYTE   Ds4  v032
 BYTE   W12
 BYTE   Fs4  v036
 BYTE   W12
 BYTE   Fs3
 BYTE   W12
 BYTE   As3
 BYTE   W12
 BYTE   Cs4  v032
 BYTE   W12
 BYTE   Fs4  v040
 BYTE   W12
//  #11 //036   ----------------------------------------
 BYTE   Fs3
 BYTE   W12
 BYTE   Gs3  v044
 BYTE   W12
 BYTE   Cn4  v040
 BYTE   W12
 BYTE   Ds4  v044
 BYTE   W12
 BYTE   Fs3  v032
 BYTE   W12
 BYTE   VOL   71*song09_mvl/mxv
 BYTE   N03  Gs3  v028
 BYTE   W12
 BYTE   Cn4  v036
 BYTE   W12
 BYTE   Ds4  v040
 BYTE   W12
//  #11 //037   ----------------------------------------
 BYTE   Fs3  v044
 BYTE   W12
 BYTE   Gs3  v028
 BYTE   W06
 BYTE   VOL   70*song09_mvl/mxv
 BYTE   W06
 BYTE   N03  Cn4  v036
 BYTE   W12
 BYTE   Ds4
 BYTE   W12
 BYTE   VOL   69*song09_mvl/mxv
 BYTE   N03  Fs3  v044
 BYTE   W12
 BYTE   Gs3  v032
 BYTE   W12
 BYTE   Bn3
 BYTE   W06
 BYTE   VOL   68*song09_mvl/mxv
 BYTE   W06
 BYTE   N03  Ds4  v044
 BYTE   W12
//  #11 //038   ----------------------------------------
 BYTE   Fs3  v048
 BYTE   W12
 BYTE   As3  v044
 BYTE   W06
 BYTE   VOL   68*song09_mvl/mxv
 BYTE   W06
 BYTE   N03  Ds4  v036
 BYTE   W12
 BYTE   VOL   66*song09_mvl/mxv
 BYTE   N03  Gs4
 BYTE   W06
 BYTE   VOL   66*song09_mvl/mxv
 BYTE   W06
 BYTE   N03  Fs3  v032
 BYTE   W12
 BYTE   As3  v036
 BYTE   W06
 BYTE   VOL   64*song09_mvl/mxv
 BYTE   W06
 BYTE   N03  Ds4  v032
 BYTE   W06
 BYTE   VOL   63*song09_mvl/mxv
 BYTE   W05
 BYTE   N03  Fs4
 BYTE   W07
 BYTE   VOL   62*song09_mvl/mxv
 BYTE   W05
 BYTE   N03  Fs3
 BYTE   W01
//  #11 //039   ----------------------------------------
 BYTE   VOL   61*song09_mvl/mxv
 BYTE   W11
 BYTE   N03  As3  v044
 BYTE   W01
 BYTE   VOL   61*song09_mvl/mxv
 BYTE   W12
 BYTE   VOL   59*song09_mvl/mxv
 BYTE   N03  Ds4  v036
 BYTE   W06
 BYTE   VOL   57*song09_mvl/mxv
 BYTE   W05
 BYTE   N03  Fs4  v048
 BYTE   W07
 BYTE   VOL   56*song09_mvl/mxv
 BYTE   W06
 BYTE   N03  Fs3  v036
 BYTE   W06
 BYTE   VOL   54*song09_mvl/mxv
 BYTE   W06
 BYTE   N03  As3  v052
 BYTE   W06
 BYTE   VOL   51*song09_mvl/mxv
 BYTE   W06
 BYTE   N03  Ds4  v044
 BYTE   W06
 BYTE   VOL   49*song09_mvl/mxv
 BYTE   W06
 BYTE   VOL   45*song09_mvl/mxv
 BYTE   N03  Fs4  v036
 BYTE   W12
//  #11 //040   ----------------------------------------
 BYTE   VOL   40*song09_mvl/mxv
 BYTE   W96
//  #11 //041   ----------------------------------------
 BYTE   W96
//  #11 //042   ----------------------------------------
 BYTE   W96
//  #11 //043   ----------------------------------------
 BYTE   W96
//  #11 //044   ----------------------------------------
 BYTE   W48
 BYTE   VOICE   21
 BYTE   VOL   38*song09_mvl/mxv
 BYTE   PAN   c_v+12
 BYTE   VOL   31*song09_mvl/mxv
 BYTE   W06
 BYTE   VOL   32*song09_mvl/mxv
 BYTE   W06
 BYTE   VOL   33*song09_mvl/mxv
 BYTE   W06
 BYTE   VOL   34*song09_mvl/mxv
 BYTE   W06
 BYTE   VOL   35*song09_mvl/mxv
 BYTE   W01
 BYTE   N12  As0  v124
 BYTE   W05
 BYTE   VOL   37*song09_mvl/mxv
 BYTE   W06
 BYTE   VOL   37*song09_mvl/mxv
 BYTE   W06
 BYTE   VOL   38*song09_mvl/mxv
 BYTE   W06
//  #11 //045   ----------------------------------------
 BYTE   VOL   39*song09_mvl/mxv
 BYTE   W01
 BYTE   N13  As0  v120
 BYTE   W05
 BYTE   VOL   40*song09_mvl/mxv
 BYTE   W06
 BYTE   VOL   41*song09_mvl/mxv
 BYTE   W06
 BYTE   VOL   43*song09_mvl/mxv
 BYTE   W06
 BYTE   VOL   44*song09_mvl/mxv
 BYTE   W01
 BYTE   N03  As0  v127
 BYTE   W05
 BYTE   VOL   45*song09_mvl/mxv
 BYTE   W03
 BYTE   N03  As0  v108
 BYTE   W03
 BYTE   VOL   46*song09_mvl/mxv
 BYTE   W05
 BYTE   N03  As0  v100
 BYTE   W01
 BYTE   VOL   47*song09_mvl/mxv
 BYTE   W06
 BYTE   VOL   48*song09_mvl/mxv
 BYTE   W01
 BYTE   N04  As0  v116
 BYTE   W05
 BYTE   VOL   49*song09_mvl/mxv
 BYTE   W06
 BYTE   VOL   50*song09_mvl/mxv
 BYTE   W01
 BYTE   N04  As0  v120
 BYTE   W05
 BYTE   VOL   51*song09_mvl/mxv
 BYTE   W06
 BYTE   VOL   52*song09_mvl/mxv
 BYTE   N13
 BYTE   W06
 BYTE   VOL   54*song09_mvl/mxv
 BYTE   W06
 BYTE   VOL   55*song09_mvl/mxv
 BYTE   W06
 BYTE   VOL   57*song09_mvl/mxv
 BYTE   W06
//  #11 //046   ----------------------------------------
 BYTE   VOL   57*song09_mvl/mxv
 BYTE   N14
 BYTE   W06
 BYTE   VOL   59*song09_mvl/mxv
 BYTE   W06
 BYTE   VOL   59*song09_mvl/mxv
 BYTE   W06
 BYTE   VOL   61*song09_mvl/mxv
 BYTE   W06
 BYTE   VOL   62*song09_mvl/mxv
 BYTE   W01
 BYTE   N03
 BYTE   W05
 BYTE   VOL   64*song09_mvl/mxv
 BYTE   W03
 BYTE   N03  As0  v092
 BYTE   W03
 BYTE   VOL   66*song09_mvl/mxv
 BYTE   W05
 BYTE   N03  As0  v084
 BYTE   W01
 BYTE   VOL   68*song09_mvl/mxv
 BYTE   W06
 BYTE   VOL   69*song09_mvl/mxv
 BYTE   N11  As0  v120
 BYTE   W24
 BYTE   W01
 BYTE   N12  As0  v124
 BYTE   W23
//  #11 //047   ----------------------------------------
 BYTE   W01
 BYTE   N13  As0  v120
 BYTE   W24
 BYTE   N03  As0  v127
 BYTE   W08
 BYTE   As0  v108
 BYTE   W08
 BYTE   As0  v100
 BYTE   W08
 BYTE   N04  As0  v116
 BYTE   W12
 BYTE   As0  v120
 BYTE   W11
 BYTE   N13
 BYTE   W24
//  #11 //048   ----------------------------------------
 BYTE   N14
 BYTE   W24
 BYTE   W01
 BYTE   N03
 BYTE   W08
 BYTE   As0  v092
 BYTE   W08
 BYTE   As0  v084
 BYTE   W07
 BYTE   VOICE   21
 BYTE   W24
 BYTE   GoTo
  POIN2 Label_01215BDE
//  #11 //049   ----------------------------------------
 BYTE   N12  As0  v108
 BYTE   W24
 BYTE   N12
 BYTE   W24
 BYTE   N03
 BYTE   W08
 BYTE   As0  v096
 BYTE   W08
 BYTE   As0  v088
 BYTE   W04
 BYTE   FINE

//**************** Track 12 (Midi-Chn.11) ****************//

song09_012:
//  #12 //000   ----------------------------------------
 BYTE   KEYSH   song09_key+0
 BYTE   VOICE   8
 BYTE   MODT 0
 BYTE   LFOS 44
 BYTE   MOD 0
 BYTE   VOL   80*song09_mvl/mxv
 BYTE   PAN   c_v+26
 BYTE   VOL   80*song09_mvl/mxv
 BYTE   N06  As0  v100
 BYTE   W24
 BYTE   As0  v112
 BYTE   W24
 BYTE   N07
 BYTE   W24
 BYTE   N03
 BYTE   W09
 BYTE   As0  v100
 BYTE   W08
 BYTE   As0  v092
 BYTE   W07
//  #12 //001   ----------------------------------------
 BYTE   W01
 BYTE   N04  As0  v096
 BYTE   W11
 BYTE   N03  As0  v100
 BYTE   W12
 BYTE   N05  As0  v120
 BYTE   W23
 BYTE   N06
 BYTE   W24
 BYTE   W02
 BYTE   N03  As0  v108
 BYTE   W08
 BYTE   As0  v092
 BYTE   W08
 BYTE   As0  v076
 BYTE   W07
//  #12 //002   ----------------------------------------
 BYTE   VOICE   8
 BYTE   N06  As0  v092
 BYTE   W24
 BYTE   As0  v104
 BYTE   W06
Label_01216010:
 BYTE   W18
 BYTE   N06  As0  v104
 BYTE   W24
 BYTE   N03  As0  v112
 BYTE   W08
 BYTE   As0  v096
 BYTE   W08
 BYTE   As0  v080
 BYTE   W08
//  #12 //003   ----------------------------------------
Label_0121601F:
 BYTE   N03  As0  v096
 BYTE   W12
 BYTE   N04  As0  v100
 BYTE   W12
 BYTE   As0  v112
 BYTE   W24
 BYTE   N06
 BYTE   W24
 BYTE   N03  As0  v100
 BYTE   W08
 BYTE   As0  v084
 BYTE   W08
 BYTE   As0  v080
 BYTE   W08
 BYTE   PEND 
//  #12 //004   ----------------------------------------
Label_01216037:
 BYTE   W01
 BYTE   N05  As0  v100
 BYTE   W23
 BYTE   N05
 BYTE   W24
 BYTE   As0  v104
 BYTE   W24
 BYTE   W01
 BYTE   N04
 BYTE   W08
 BYTE   N03  Fn0  v100
 BYTE   W08
 BYTE   N04  Fn0  v080
 BYTE   W07
 BYTE   PEND 
//  #12 //005   ----------------------------------------
 BYTE   W01
 BYTE   As0  v092
 BYTE   W13
 BYTE   N03  As0  v084
 BYTE   W11
 BYTE   As0  v092
 BYTE   W23
 BYTE   N04  As0  v096
 BYTE   W24
 BYTE   N23  Gs0
 BYTE   W24
//  #12 //006   ----------------------------------------
 BYTE   W01
 BYTE   N05  Cs1  v092
 BYTE   W23
 BYTE   N06  Cs1  v104
 BYTE   W24
 BYTE   N06
 BYTE   W24
 BYTE   N03  Cs1  v112
 BYTE   W08
 BYTE   Cs1  v096
 BYTE   W08
 BYTE   Cs1  v080
 BYTE   W08
//  #12 //007   ----------------------------------------
 BYTE   Cs1  v096
 BYTE   W12
 BYTE   N04  Cs1  v100
 BYTE   W12
 BYTE   Cs1  v112
 BYTE   W24
 BYTE   N06
 BYTE   W24
 BYTE   N03  Cs1  v100
 BYTE   W08
 BYTE   Cs1  v084
 BYTE   W08
 BYTE   Cs1  v080
 BYTE   W08
//  #12 //008   ----------------------------------------
 BYTE   W01
 BYTE   N05  Cs1  v100
 BYTE   W23
 BYTE   N05
 BYTE   W24
 BYTE   Cs1  v104
 BYTE   W24
 BYTE   W01
 BYTE   N04
 BYTE   W08
 BYTE   N03  Gs0  v100
 BYTE   W08
 BYTE   N04  Gs0  v080
 BYTE   W07
//  #12 //009   ----------------------------------------
 BYTE   W01
 BYTE   Cs1  v092
 BYTE   W13
 BYTE   N03  Cs1  v084
 BYTE   W11
 BYTE   Cs1  v092
 BYTE   W23
 BYTE   N04  Cs1  v096
 BYTE   W24
 BYTE   N23  Bn0
 BYTE   W24
//  #12 //010   ----------------------------------------
 BYTE   N03  An0  v127
 BYTE   W24
 BYTE   An0  v124
 BYTE   W23
 BYTE   An0  v120
 BYTE   W24
 BYTE   W01
 BYTE   An0  v116
 BYTE   W08
 BYTE   An0  v100
 BYTE   W07
 BYTE   N03
 BYTE   W08
 BYTE   An0  v104
 BYTE   W01
//  #12 //011   ----------------------------------------
 BYTE   W11
 BYTE   N02  An0  v108
 BYTE   W12
 BYTE   N03  An0  v116
 BYTE   W24
 BYTE   An0  v112
 BYTE   W24
 BYTE   W01
 BYTE   N02  An0  v116
 BYTE   W08
 BYTE   An0  v096
 BYTE   W08
 BYTE   N03  An0  v100
 BYTE   W08
//  #12 //012   ----------------------------------------
 BYTE   Gs0  v108
 BYTE   W24
 BYTE   Gs0  v104
 BYTE   W24
 BYTE   N03
 BYTE   W24
 BYTE   Gs0  v100
 BYTE   W08
 BYTE   N02  Gs0  v076
 BYTE   W07
 BYTE   N03  Gs0  v084
 BYTE   W08
 BYTE   Gs0  v092
 BYTE   W01
//  #12 //013   ----------------------------------------
 BYTE   W11
 BYTE   Gs0  v096
 BYTE   W12
 BYTE   Gs0  v112
 BYTE   W24
 BYTE   Gs0  v104
 BYTE   W24
 BYTE   N02
 BYTE   W08
 BYTE   Gs0  v076
 BYTE   W08
 BYTE   N03  Gs0  v096
 BYTE   W09
//  #12 //014   ----------------------------------------
 BYTE   N02  Fs0  v100
 BYTE   W24
 BYTE   N03
 BYTE   W24
 BYTE   N03
 BYTE   W24
 BYTE   N02
 BYTE   W08
 BYTE   N01  Fs0  v088
 BYTE   W08
 BYTE   N03
 BYTE   W07
 BYTE   N04  Gs0  v104
 BYTE   W01
//  #12 //015   ----------------------------------------
 BYTE   W24
 BYTE   Gs0  v108
 BYTE   W24
 BYTE   N03  Gs0  v116
 BYTE   W23
 BYTE   N03
 BYTE   W08
 BYTE   Gs0  v096
 BYTE   W08
 BYTE   N04  Gs0  v088
 BYTE   W08
 BYTE   An0  v116
 BYTE   W01
//  #12 //016   ----------------------------------------
 BYTE   W24
 BYTE   N04
 BYTE   W24
 BYTE   N03  An0  v124
 BYTE   W24
 BYTE   An0  v116
 BYTE   W07
 BYTE   An0  v108
 BYTE   W08
 BYTE   N04  An0  v100
 BYTE   W08
 BYTE   N03  As0  v112
 BYTE   W01
//  #12 //017   ----------------------------------------
 BYTE   W23
 BYTE   N03
 BYTE   W24
 BYTE   N03
 BYTE   W24
 BYTE   As0  v108
 BYTE   W08
 BYTE   N01  As0  v076
 BYTE   W09
 BYTE   N04  As0  v084
 BYTE   W08
//  #12 //018   ----------------------------------------
 BYTE   N03  Gs0  v112
 BYTE   W24
 BYTE   Gs0  v104
 BYTE   W24
 BYTE   W01
 BYTE   Gs0  v108
 BYTE   W24
 BYTE   Gs0  v112
 BYTE   W07
 BYTE   Gs0  v100
 BYTE   W08
 BYTE   Gs0  v104
 BYTE   W08
//  #12 //019   ----------------------------------------
 BYTE   N01  Gs0  v112
 BYTE   W12
 BYTE   N03
 BYTE   W12
 BYTE   N04  Gs0  v116
 BYTE   W24
 BYTE   Gs0  v124
 BYTE   W24
 BYTE   N03
 BYTE   W08
 BYTE   N04  Gs0  v116
 BYTE   W07
 BYTE   Gs0  v124
 BYTE   W09
//  #12 //020   ----------------------------------------
 BYTE   W24
 BYTE   N06  As0  v104
 BYTE   W24
 BYTE   N06
 BYTE   W24
 BYTE   N03  As0  v112
 BYTE   W08
 BYTE   As0  v096
 BYTE   W08
 BYTE   As0  v080
 BYTE   W08
//  #12 //021   ----------------------------------------
 BYTE   PATT
  POIN2 Label_0121601F
//  #12 //022   ----------------------------------------
 BYTE   PATT
  POIN2 Label_01216037
//  #12 //023   ----------------------------------------
 BYTE   W01
 BYTE   N04  As0  v092
 BYTE   W13
 BYTE   N03  As0  v084
 BYTE   W11
 BYTE   As0  v092
 BYTE   W23
 BYTE   N12  As0  v116
 BYTE   W24
 BYTE   N24  An0  v092
 BYTE   W24
//  #12 //024   ----------------------------------------
 BYTE   VOL   78*song09_mvl/mxv
 BYTE   W01
 BYTE   N42  Gs0  v072
 BYTE   W05
 BYTE   VOL   73*song09_mvl/mxv
 BYTE   W06
 BYTE   VOL   68*song09_mvl/mxv
 BYTE   W06
 BYTE   VOL   61*song09_mvl/mxv
 BYTE   W06
 BYTE   VOL   51*song09_mvl/mxv
 BYTE   W06
 BYTE   VOL   38*song09_mvl/mxv
 BYTE   W06
 BYTE   VOL   19*song09_mvl/mxv
 BYTE   W06
 BYTE   VOL   8*song09_mvl/mxv
 BYTE   W06
 BYTE   VOL   51*song09_mvl/mxv
 BYTE   N21  As0  v080
 BYTE   W06
 BYTE   VOL   57*song09_mvl/mxv
 BYTE   W06
 BYTE   VOL   66*song09_mvl/mxv
 BYTE   W06
 BYTE   VOL   73*song09_mvl/mxv
 BYTE   W06
 BYTE   VOL   80*song09_mvl/mxv
 BYTE   N22  Ds1  v060
 BYTE   W06
 BYTE   VOL   75*song09_mvl/mxv
 BYTE   W06
 BYTE   VOL   70*song09_mvl/mxv
 BYTE   W06
 BYTE   VOL   66*song09_mvl/mxv
 BYTE   W05
 BYTE   N68  Fn1
 BYTE   W01
//  #12 //025   ----------------------------------------
 BYTE   VOL   61*song09_mvl/mxv
 BYTE   W06
 BYTE   VOL   57*song09_mvl/mxv
 BYTE   W06
 BYTE   VOL   53*song09_mvl/mxv
 BYTE   W06
 BYTE   VOL   51*song09_mvl/mxv
 BYTE   W06
 BYTE   VOL   52*song09_mvl/mxv
 BYTE   W06
 BYTE   VOL   54*song09_mvl/mxv
 BYTE   W06
 BYTE   VOL   57*song09_mvl/mxv
 BYTE   W06
 BYTE   VOL   59*song09_mvl/mxv
 BYTE   W06
 BYTE   VOL   61*song09_mvl/mxv
 BYTE   W06
 BYTE   VOL   63*song09_mvl/mxv
 BYTE   W06
 BYTE   VOL   66*song09_mvl/mxv
 BYTE   W06
 BYTE   VOL   70*song09_mvl/mxv
 BYTE   W04
 BYTE   N23  Gs1  v040
 BYTE   W02
 BYTE   VOL   74*song09_mvl/mxv
 BYTE   W06
 BYTE   VOL   78*song09_mvl/mxv
 BYTE   W06
 BYTE   VOL   70*song09_mvl/mxv
 BYTE   W06
 BYTE   VOL   63*song09_mvl/mxv
 BYTE   W05
 BYTE   N68  Fs1  v068
 BYTE   W01
//  #12 //026   ----------------------------------------
 BYTE   VOL   56*song09_mvl/mxv
 BYTE   W06
 BYTE   VOL   57*song09_mvl/mxv
 BYTE   W06
 BYTE   VOL   59*song09_mvl/mxv
 BYTE   W06
 BYTE   VOL   61*song09_mvl/mxv
 BYTE   W06
 BYTE   VOL   62*song09_mvl/mxv
 BYTE   W06
 BYTE   VOL   66*song09_mvl/mxv
 BYTE   W06
 BYTE   VOL   68*song09_mvl/mxv
 BYTE   W06
 BYTE   VOL   69*song09_mvl/mxv
 BYTE   W06
 BYTE   VOL   71*song09_mvl/mxv
 BYTE   W06
 BYTE   VOL   74*song09_mvl/mxv
 BYTE   W06
 BYTE   VOL   76*song09_mvl/mxv
 BYTE   W06
 BYTE   VOL   80*song09_mvl/mxv
 BYTE   W06
 BYTE   N09  Fn1  v048
 BYTE   W12
 BYTE   Ds1
 BYTE   W12
//  #12 //027   ----------------------------------------
 BYTE   VOL   69*song09_mvl/mxv
 BYTE   W01
 BYTE   N92  As0  v076
 BYTE   W05
 BYTE   VOL   51*song09_mvl/mxv
 BYTE   W06
 BYTE   VOL   41*song09_mvl/mxv
 BYTE   W06
 BYTE   VOL   44*song09_mvl/mxv
 BYTE   W06
 BYTE   VOL   46*song09_mvl/mxv
 BYTE   W06
 BYTE   VOL   49*song09_mvl/mxv
 BYTE   W06
 BYTE   VOL   51*song09_mvl/mxv
 BYTE   W06
 BYTE   VOL   54*song09_mvl/mxv
 BYTE   W06
 BYTE   VOL   57*song09_mvl/mxv
 BYTE   W06
 BYTE   VOL   61*song09_mvl/mxv
 BYTE   W06
 BYTE   VOL   57*song09_mvl/mxv
 BYTE   W06
 BYTE   VOL   54*song09_mvl/mxv
 BYTE   W06
 BYTE   VOL   49*song09_mvl/mxv
 BYTE   W06
 BYTE   VOL   40*song09_mvl/mxv
 BYTE   W06
 BYTE   VOL   28*song09_mvl/mxv
 BYTE   W06
 BYTE   VOL   8*song09_mvl/mxv
 BYTE   W06
//  #12 //028   ----------------------------------------
 BYTE   VOL   4*song09_mvl/mxv
 BYTE   W06
 BYTE   VOL   19*song09_mvl/mxv
 BYTE   W06
 BYTE   VOL   42*song09_mvl/mxv
 BYTE   W06
 BYTE   VOL   71*song09_mvl/mxv
 BYTE   W05
 BYTE   N21  Bn0  v052
 BYTE   W01
 BYTE   VOL   78*song09_mvl/mxv
 BYTE   W06
 BYTE   VOL   76*song09_mvl/mxv
 BYTE   W06
 BYTE   VOL   73*song09_mvl/mxv
 BYTE   W06
 BYTE   VOL   71*song09_mvl/mxv
 BYTE   W06
 BYTE   VOL   68*song09_mvl/mxv
 BYTE   N22  Cs1  v056
 BYTE   W06
 BYTE   VOL   66*song09_mvl/mxv
 BYTE   W06
 BYTE   VOL   63*song09_mvl/mxv
 BYTE   W06
 BYTE   VOL   61*song09_mvl/mxv
 BYTE   W06
 BYTE   VOL   59*song09_mvl/mxv
 BYTE   N21  Ds1
 BYTE   W06
 BYTE   VOL   57*song09_mvl/mxv
 BYTE   W06
 BYTE   VOL   55*song09_mvl/mxv
 BYTE   W06
 BYTE   VOL   52*song09_mvl/mxv
 BYTE   W05
 BYTE   N56  Fn1  v060
 BYTE   W01
//  #12 //029   ----------------------------------------
 BYTE   VOL   51*song09_mvl/mxv
 BYTE   W06
 BYTE   VOL   48*song09_mvl/mxv
 BYTE   W06
 BYTE   VOL   51*song09_mvl/mxv
 BYTE   W06
 BYTE   VOL   54*song09_mvl/mxv
 BYTE   W06
 BYTE   VOL   57*song09_mvl/mxv
 BYTE   W06
 BYTE   VOL   61*song09_mvl/mxv
 BYTE   W06
 BYTE   VOL   63*song09_mvl/mxv
 BYTE   W06
 BYTE   VOL   68*song09_mvl/mxv
 BYTE   W06
 BYTE   VOL   70*song09_mvl/mxv
 BYTE   W06
 BYTE   VOL   74*song09_mvl/mxv
 BYTE   W06
 BYTE   VOL   78*song09_mvl/mxv
 BYTE   N10  Ds1  v072
 BYTE   W06
 BYTE   VOL   80*song09_mvl/mxv
 BYTE   W07
 BYTE   N08  Cs1
 BYTE   W11
 BYTE   N09  Bn0
 BYTE   W11
 BYTE   TIE  As0  v084
 BYTE   W01
//  #12 //030   ----------------------------------------
 BYTE   VOL   73*song09_mvl/mxv
 BYTE   W06
 BYTE   VOL   57*song09_mvl/mxv
 BYTE   W06
 BYTE   VOL   40*song09_mvl/mxv
 BYTE   W12
 BYTE   VOL   41*song09_mvl/mxv
 BYTE   W06
 BYTE   VOL   43*song09_mvl/mxv
 BYTE   W06
 BYTE   VOL   44*song09_mvl/mxv
 BYTE   W06
 BYTE   VOL   45*song09_mvl/mxv
 BYTE   W06
 BYTE   VOL   47*song09_mvl/mxv
 BYTE   W06
 BYTE   VOL   48*song09_mvl/mxv
 BYTE   W06
 BYTE   VOL   50*song09_mvl/mxv
 BYTE   W06
 BYTE   VOL   51*song09_mvl/mxv
 BYTE   W06
 BYTE   VOL   52*song09_mvl/mxv
 BYTE   W06
 BYTE   VOL   53*song09_mvl/mxv
 BYTE   W06
 BYTE   VOL   55*song09_mvl/mxv
 BYTE   W06
 BYTE   VOL   56*song09_mvl/mxv
 BYTE   W06
//  #12 //031   ----------------------------------------
 BYTE   VOL   57*song09_mvl/mxv
 BYTE   W06
 BYTE   VOL   59*song09_mvl/mxv
 BYTE   W06
 BYTE   VOL   61*song09_mvl/mxv
 BYTE   W06
 BYTE   VOL   59*song09_mvl/mxv
 BYTE   W06
 BYTE   VOL   57*song09_mvl/mxv
 BYTE   W06
 BYTE   VOL   55*song09_mvl/mxv
 BYTE   W06
 BYTE   VOL   53*song09_mvl/mxv
 BYTE   W06
 BYTE   VOL   51*song09_mvl/mxv
 BYTE   W06
 BYTE   VOL   47*song09_mvl/mxv
 BYTE   W06
 BYTE   VOL   43*song09_mvl/mxv
 BYTE   W06
 BYTE   VOL   39*song09_mvl/mxv
 BYTE   W06
 BYTE   VOL   34*song09_mvl/mxv
 BYTE   W06
 BYTE   VOL   28*song09_mvl/mxv
 BYTE   W06
 BYTE   VOL   20*song09_mvl/mxv
 BYTE   W06
 BYTE   VOL   12*song09_mvl/mxv
 BYTE   W06
 BYTE   VOL   3*song09_mvl/mxv
 BYTE   W05
 BYTE   EOT
 BYTE   W01
//  #12 //032   ----------------------------------------
 BYTE   VOL   1*song09_mvl/mxv
 BYTE   W06
 BYTE   VOL   6*song09_mvl/mxv
 BYTE   W06
 BYTE   VOL   12*song09_mvl/mxv
 BYTE   W06
 BYTE   VOL   20*song09_mvl/mxv
 BYTE   W06
 BYTE   VOL   31*song09_mvl/mxv
 BYTE   W06
 BYTE   VOL   43*song09_mvl/mxv
 BYTE   W06
 BYTE   VOL   56*song09_mvl/mxv
 BYTE   W06
 BYTE   VOL   71*song09_mvl/mxv
 BYTE   W06
 BYTE   VOL   80*song09_mvl/mxv
 BYTE   N21  As0  v072
 BYTE   W06
 BYTE   VOL   76*song09_mvl/mxv
 BYTE   W06
 BYTE   VOL   73*song09_mvl/mxv
 BYTE   W06
 BYTE   VOL   69*song09_mvl/mxv
 BYTE   W06
 BYTE   VOL   66*song09_mvl/mxv
 BYTE   N21  Ds1  v068
 BYTE   W06
 BYTE   VOL   62*song09_mvl/mxv
 BYTE   W06
 BYTE   VOL   59*song09_mvl/mxv
 BYTE   W06
 BYTE   VOL   56*song09_mvl/mxv
 BYTE   W05
 BYTE   N68  Fn1  v056
 BYTE   W01
//  #12 //033   ----------------------------------------
 BYTE   VOL   53*song09_mvl/mxv
 BYTE   W06
 BYTE   VOL   51*song09_mvl/mxv
 BYTE   W06
 BYTE   VOL   53*song09_mvl/mxv
 BYTE   W06
 BYTE   VOL   55*song09_mvl/mxv
 BYTE   W06
 BYTE   VOL   57*song09_mvl/mxv
 BYTE   W06
 BYTE   VOL   59*song09_mvl/mxv
 BYTE   W06
 BYTE   VOL   61*song09_mvl/mxv
 BYTE   W06
 BYTE   VOL   63*song09_mvl/mxv
 BYTE   W06
 BYTE   VOL   66*song09_mvl/mxv
 BYTE   W06
 BYTE   VOL   68*song09_mvl/mxv
 BYTE   W06
 BYTE   VOL   70*song09_mvl/mxv
 BYTE   W06
 BYTE   VOL   73*song09_mvl/mxv
 BYTE   W05
 BYTE   N22  Gs1  v052
 BYTE   W01
 BYTE   VOL   74*song09_mvl/mxv
 BYTE   W06
 BYTE   VOL   78*song09_mvl/mxv
 BYTE   W06
 BYTE   VOL   80*song09_mvl/mxv
 BYTE   W11
 BYTE   N60  Fs1  v056
 BYTE   W01
//  #12 //034   ----------------------------------------
 BYTE   VOL   71*song09_mvl/mxv
 BYTE   W06
 BYTE   VOL   56*song09_mvl/mxv
 BYTE   W06
 BYTE   VOL   48*song09_mvl/mxv
 BYTE   W06
 BYTE   VOL   49*song09_mvl/mxv
 BYTE   W06
 BYTE   VOL   50*song09_mvl/mxv
 BYTE   W06
 BYTE   VOL   51*song09_mvl/mxv
 BYTE   W06
 BYTE   VOL   53*song09_mvl/mxv
 BYTE   W06
 BYTE   VOL   55*song09_mvl/mxv
 BYTE   W06
 BYTE   VOL   57*song09_mvl/mxv
 BYTE   W06
 BYTE   VOL   59*song09_mvl/mxv
 BYTE   W06
 BYTE   VOL   62*song09_mvl/mxv
 BYTE   W01
 BYTE   N10  Gs1
 BYTE   W05
 BYTE   VOL   66*song09_mvl/mxv
 BYTE   W06
 BYTE   VOL   71*song09_mvl/mxv
 BYTE   W01
 BYTE   N10  Fs1  v064
 BYTE   W05
 BYTE   VOL   78*song09_mvl/mxv
 BYTE   W06
 BYTE   VOL   70*song09_mvl/mxv
 BYTE   N08  Gs1  v056
 BYTE   W06
 BYTE   VOL   62*song09_mvl/mxv
 BYTE   W06
//  #12 //035   ----------------------------------------
 BYTE   VOL   55*song09_mvl/mxv
 BYTE   N66  As1  v048
 BYTE   W06
 BYTE   VOL   50*song09_mvl/mxv
 BYTE   W06
 BYTE   VOL   52*song09_mvl/mxv
 BYTE   W06
 BYTE   VOL   55*song09_mvl/mxv
 BYTE   W06
 BYTE   VOL   57*song09_mvl/mxv
 BYTE   W06
 BYTE   VOL   61*song09_mvl/mxv
 BYTE   W06
 BYTE   VOL   63*song09_mvl/mxv
 BYTE   W06
 BYTE   VOL   66*song09_mvl/mxv
 BYTE   W06
 BYTE   VOL   69*song09_mvl/mxv
 BYTE   W06
 BYTE   VOL   73*song09_mvl/mxv
 BYTE   W06
 BYTE   VOL   75*song09_mvl/mxv
 BYTE   W06
 BYTE   VOL   80*song09_mvl/mxv
 BYTE   W06
 BYTE   VOL   76*song09_mvl/mxv
 BYTE   N22  As1  v040
 BYTE   W06
 BYTE   VOL   73*song09_mvl/mxv
 BYTE   W06
 BYTE   VOL   68*song09_mvl/mxv
 BYTE   W06
 BYTE   VOL   64*song09_mvl/mxv
 BYTE   W06
//  #12 //036   ----------------------------------------
 BYTE   VOL   61*song09_mvl/mxv
 BYTE   W02
 BYTE   N20  As1  v056
 BYTE   W04
 BYTE   VOL   57*song09_mvl/mxv
 BYTE   W06
 BYTE   VOL   54*song09_mvl/mxv
 BYTE   W06
 BYTE   VOL   51*song09_mvl/mxv
 BYTE   W06
 BYTE   VOL   48*song09_mvl/mxv
 BYTE   N44  Gs1
 BYTE   W12
 BYTE   VOL   51*song09_mvl/mxv
 BYTE   W06
 BYTE   VOL   55*song09_mvl/mxv
 BYTE   W06
 BYTE   VOL   59*song09_mvl/mxv
 BYTE   W06
 BYTE   VOL   63*song09_mvl/mxv
 BYTE   W06
 BYTE   VOL   68*song09_mvl/mxv
 BYTE   W06
 BYTE   VOL   73*song09_mvl/mxv
 BYTE   W06
 BYTE   VOL   76*song09_mvl/mxv
 BYTE   W01
 BYTE   N22  Fs1  v060
 BYTE   W05
 BYTE   VOL   80*song09_mvl/mxv
 BYTE   W18
//  #12 //037   ----------------------------------------
 BYTE   W01
 BYTE   N22  Ds1  v064
 BYTE   W22
 BYTE   N21  Cs1  v068
 BYTE   W24
 BYTE   N48  Fs1  v056
 BYTE   W07
 BYTE   VOL   75*song09_mvl/mxv
 BYTE   W06
 BYTE   VOL   70*song09_mvl/mxv
 BYTE   W06
 BYTE   VOL   66*song09_mvl/mxv
 BYTE   W06
 BYTE   VOL   61*song09_mvl/mxv
 BYTE   W06
 BYTE   VOL   57*song09_mvl/mxv
 BYTE   W06
 BYTE   VOL   53*song09_mvl/mxv
 BYTE   W06
 BYTE   VOL   50*song09_mvl/mxv
 BYTE   W06
//  #12 //038   ----------------------------------------
 BYTE   VOL   45*song09_mvl/mxv
 BYTE   TIE  Ds1  v068
 BYTE   W06
 BYTE   VOL   42*song09_mvl/mxv
 BYTE   W06
 BYTE   VOL   38*song09_mvl/mxv
 BYTE   W06
 BYTE   VOL   35*song09_mvl/mxv
 BYTE   W06
 BYTE   VOL   31*song09_mvl/mxv
 BYTE   W12
 BYTE   VOL   32*song09_mvl/mxv
 BYTE   W06
 BYTE   VOL   34*song09_mvl/mxv
 BYTE   W06
 BYTE   VOL   34*song09_mvl/mxv
 BYTE   W06
 BYTE   VOL   35*song09_mvl/mxv
 BYTE   W06
 BYTE   VOL   37*song09_mvl/mxv
 BYTE   W06
 BYTE   VOL   37*song09_mvl/mxv
 BYTE   W06
 BYTE   VOL   38*song09_mvl/mxv
 BYTE   W06
 BYTE   VOL   39*song09_mvl/mxv
 BYTE   W06
 BYTE   VOL   40*song09_mvl/mxv
 BYTE   W06
 BYTE   VOL   41*song09_mvl/mxv
 BYTE   W06
//  #12 //039   ----------------------------------------
 BYTE   VOL   42*song09_mvl/mxv
 BYTE   W06
 BYTE   VOL   44*song09_mvl/mxv
 BYTE   W06
 BYTE   VOL   45*song09_mvl/mxv
 BYTE   W06
 BYTE   VOL   45*song09_mvl/mxv
 BYTE   W06
 BYTE   VOL   43*song09_mvl/mxv
 BYTE   W06
 BYTE   VOL   40*song09_mvl/mxv
 BYTE   W06
 BYTE   VOL   38*song09_mvl/mxv
 BYTE   W06
 BYTE   VOL   35*song09_mvl/mxv
 BYTE   W06
 BYTE   VOL   31*song09_mvl/mxv
 BYTE   W06
 BYTE   VOL   27*song09_mvl/mxv
 BYTE   W06
 BYTE   VOL   20*song09_mvl/mxv
 BYTE   W06
 BYTE   VOL   11*song09_mvl/mxv
 BYTE   W06
 BYTE   EOT
 BYTE   VOL   0*song09_mvl/mxv
 BYTE   W06
 BYTE   VOL   1*song09_mvl/mxv
 BYTE   W06
 BYTE   VOL   7*song09_mvl/mxv
 BYTE   W06
 BYTE   VOL   16*song09_mvl/mxv
 BYTE   W06
//  #12 //040   ----------------------------------------
 BYTE   VOL   27*song09_mvl/mxv
 BYTE   TIE  Gs0  v080
 BYTE   W06
 BYTE   VOL   40*song09_mvl/mxv
 BYTE   W90
//  #12 //041   ----------------------------------------
 BYTE   W12
 BYTE   VOL   40*song09_mvl/mxv
 BYTE   W08
 BYTE   EOT
 BYTE   W03
 BYTE   N23
 BYTE   W24
 BYTE   TIE  Gn0  v096
 BYTE   W19
 BYTE   VOL   42*song09_mvl/mxv
 BYTE   W06
 BYTE   VOL   43*song09_mvl/mxv
 BYTE   W06
 BYTE   VOL   45*song09_mvl/mxv
 BYTE   W06
 BYTE   VOL   46*song09_mvl/mxv
 BYTE   W06
 BYTE   VOL   48*song09_mvl/mxv
 BYTE   W06
//  #12 //042   ----------------------------------------
 BYTE   VOL   50*song09_mvl/mxv
 BYTE   W06
 BYTE   VOL   51*song09_mvl/mxv
 BYTE   W06
 BYTE   VOL   53*song09_mvl/mxv
 BYTE   W06
 BYTE   VOL   55*song09_mvl/mxv
 BYTE   W06
 BYTE   VOL   57*song09_mvl/mxv
 BYTE   W06
 BYTE   VOL   57*song09_mvl/mxv
 BYTE   W06
 BYTE   VOL   59*song09_mvl/mxv
 BYTE   W06
 BYTE   VOL   61*song09_mvl/mxv
 BYTE   W06
 BYTE   VOL   63*song09_mvl/mxv
 BYTE   W06
 BYTE   VOL   66*song09_mvl/mxv
 BYTE   W06
 BYTE   VOL   68*song09_mvl/mxv
 BYTE   W06
 BYTE   VOL   69*song09_mvl/mxv
 BYTE   W01
 BYTE   EOT
 BYTE   W03
 BYTE   N24  Gn0  v108
 BYTE   W02
 BYTE   VOL   71*song09_mvl/mxv
 BYTE   W06
 BYTE   VOL   73*song09_mvl/mxv
 BYTE   W06
 BYTE   VOL   75*song09_mvl/mxv
 BYTE   W06
 BYTE   VOL   78*song09_mvl/mxv
 BYTE   W05
 BYTE   N92  Fs0  v112
 BYTE   W01
//  #12 //043   ----------------------------------------
 BYTE   VOL   78*song09_mvl/mxv
 BYTE   W06
 BYTE   VOL   71*song09_mvl/mxv
 BYTE   W06
 BYTE   VOL   47*song09_mvl/mxv
 BYTE   W06
 BYTE   VOL   41*song09_mvl/mxv
 BYTE   W06
 BYTE   VOL   40*song09_mvl/mxv
 BYTE   W68
 BYTE   W02
 BYTE   N23  Fs0  v108
 BYTE   W02
//  #12 //044   ----------------------------------------
 BYTE   W22
 BYTE   N24
 BYTE   W44
 BYTE   W02
 BYTE   VOICE   8
 BYTE   W04
 BYTE   VOL   40*song09_mvl/mxv
 BYTE   W01
 BYTE   N06  As0  v112
 BYTE   W05
 BYTE   VOL   42*song09_mvl/mxv
 BYTE   W06
 BYTE   VOL   43*song09_mvl/mxv
 BYTE   W06
 BYTE   VOL   45*song09_mvl/mxv
 BYTE   W06
//  #12 //045   ----------------------------------------
 BYTE   VOL   45*song09_mvl/mxv
 BYTE   N07
 BYTE   W06
 BYTE   VOL   47*song09_mvl/mxv
 BYTE   W06
 BYTE   VOL   48*song09_mvl/mxv
 BYTE   W06
 BYTE   VOL   50*song09_mvl/mxv
 BYTE   W06
 BYTE   VOL   51*song09_mvl/mxv
 BYTE   W01
 BYTE   N03
 BYTE   W05
 BYTE   VOL   52*song09_mvl/mxv
 BYTE   W03
 BYTE   N03  As0  v100
 BYTE   W03
 BYTE   VOL   53*song09_mvl/mxv
 BYTE   W05
 BYTE   N03  As0  v092
 BYTE   W01
 BYTE   VOL   55*song09_mvl/mxv
 BYTE   W06
 BYTE   VOL   56*song09_mvl/mxv
 BYTE   W01
 BYTE   N04  As0  v096
 BYTE   W05
 BYTE   VOL   57*song09_mvl/mxv
 BYTE   W06
 BYTE   VOL   59*song09_mvl/mxv
 BYTE   W01
 BYTE   N03  As0  v100
 BYTE   W05
 BYTE   VOL   61*song09_mvl/mxv
 BYTE   W06
 BYTE   VOL   61*song09_mvl/mxv
 BYTE   W01
 BYTE   N05  As0  v120
 BYTE   W05
 BYTE   VOL   63*song09_mvl/mxv
 BYTE   W06
 BYTE   VOL   64*song09_mvl/mxv
 BYTE   W06
 BYTE   VOL   66*song09_mvl/mxv
 BYTE   W06
//  #12 //046   ----------------------------------------
 BYTE   VOL   68*song09_mvl/mxv
 BYTE   N06
 BYTE   W06
 BYTE   VOL   69*song09_mvl/mxv
 BYTE   W06
 BYTE   VOL   70*song09_mvl/mxv
 BYTE   W06
 BYTE   VOL   73*song09_mvl/mxv
 BYTE   W06
 BYTE   VOL   73*song09_mvl/mxv
 BYTE   W01
 BYTE   N03  As0  v108
 BYTE   W05
 BYTE   VOL   75*song09_mvl/mxv
 BYTE   W04
 BYTE   N03  As0  v092
 BYTE   W02
 BYTE   VOL   76*song09_mvl/mxv
 BYTE   W05
 BYTE   N03  As0  v076
 BYTE   W01
 BYTE   VOL   78*song09_mvl/mxv
 BYTE   W06
 BYTE   VOL   80*song09_mvl/mxv
 BYTE   N06  As0  v100
 BYTE   W24
 BYTE   W01
 BYTE   As0  v112
 BYTE   W23
//  #12 //047   ----------------------------------------
 BYTE   N07
 BYTE   W24
 BYTE   W01
 BYTE   N03
 BYTE   W08
 BYTE   As0  v100
 BYTE   W08
 BYTE   As0  v092
 BYTE   W08
 BYTE   N04  As0  v096
 BYTE   W12
 BYTE   N03  As0  v100
 BYTE   W12
 BYTE   N05  As0  v120
 BYTE   W23
//  #12 //048   ----------------------------------------
 BYTE   N06
 BYTE   W24
 BYTE   W01
 BYTE   N03  As0  v108
 BYTE   W09
 BYTE   As0  v092
 BYTE   W07
 BYTE   As0  v076
 BYTE   W07
 BYTE   VOICE   8
 BYTE   W24
 BYTE   GoTo
  POIN2 Label_01216010
//  #12 //049   ----------------------------------------
 BYTE   N06  As0  v112
 BYTE   W24
 BYTE   As0  v104
 BYTE   W24
 BYTE   N03  As0  v112
 BYTE   W08
 BYTE   As0  v096
 BYTE   W08
 BYTE   As0  v080
 BYTE   W04
 BYTE   FINE

//**************** Track 13 (Midi-Chn.12) ****************//

song09_013:
//  #13 //000   ----------------------------------------
 BYTE   KEYSH   song09_key+0
 BYTE   VOICE   116
 BYTE   MODT 0
 BYTE   LFOS 44
 BYTE   MOD 0
 BYTE   VOL   90*song09_mvl/mxv
 BYTE   PAN   c_v-20
 BYTE   VOL   90*song09_mvl/mxv
 BYTE   N02  Ds1  v040
 BYTE   W04
 BYTE   Cs1  v024
 BYTE   W19
 BYTE   N03  Dn1  v044
 BYTE   W04
 BYTE   N04  Cn1  v024
 BYTE   W21
 BYTE   N03  Ds1  v044
 BYTE   W04
 BYTE   Cs1  v024
 BYTE   W20
 BYTE   Ds1  v060
 BYTE   W04
 BYTE   Cs1  v032
 BYTE   W04
 BYTE   N01  Dn1  v048
 BYTE   W04
 BYTE   Cn1  v028
 BYTE   W04
 BYTE   Ds1  v044
 BYTE   W04
 BYTE   Cs1  v024
 BYTE   W04
//  #13 //001   ----------------------------------------
 BYTE   Dn1  v048
 BYTE   W04
 BYTE   Cn1  v028
 BYTE   W08
 BYTE   N02  Ds1  v044
 BYTE   W04
 BYTE   Cs1  v024
 BYTE   W08
 BYTE   Dn1  v056
 BYTE   W04
 BYTE   Cn1  v032
 BYTE   W20
 BYTE   N03  Ds1  v060
 BYTE   W04
 BYTE   Cs1  v032
 BYTE   W20
 BYTE   Ds1  v060
 BYTE   W04
 BYTE   Cs1  v032
 BYTE   W04
 BYTE   N01  Dn1  v048
 BYTE   W04
 BYTE   Cn1  v028
 BYTE   W04
 BYTE   Ds1  v044
 BYTE   W02
 BYTE   VOL   86*song09_mvl/mxv
 BYTE   W02
 BYTE   N01  Cs1  v024
 BYTE   W04
//  #13 //002   ----------------------------------------
 BYTE   VOICE   116
 BYTE   VOL   35*song09_mvl/mxv
 BYTE   N24  En1  v127
 BYTE   W06
 BYTE   VOL   50*song09_mvl/mxv
 BYTE   W06
 BYTE   VOL   60*song09_mvl/mxv
 BYTE   W06
 BYTE   VOL   78*song09_mvl/mxv
 BYTE   W06
 BYTE   VOL   90*song09_mvl/mxv
 BYTE   W01
 BYTE   N19  Bn0  v064
 BYTE   N68  Cn4  v056
 BYTE   W05
Label_012165AE:
 BYTE   VOL   90*song09_mvl/mxv
 BYTE   W18
 BYTE   N03  Ds1  v052
 BYTE   W04
 BYTE   Cs1  v028
 BYTE   W20
 BYTE   Ds1  v056
 BYTE   W04
 BYTE   Cs1  v032
 BYTE   W04
 BYTE   N01  Dn1  v044
 BYTE   W04
 BYTE   Cn1  v024
 BYTE   W04
 BYTE   Ds1  v044
 BYTE   W04
 BYTE   Cs1  v024
 BYTE   W04
//  #13 //003   ----------------------------------------
Label_012165CB:
 BYTE   N01  Dn1  v044
 BYTE   W04
 BYTE   Cn1  v024
 BYTE   W09
 BYTE   N02  Ds1  v052
 BYTE   W04
 BYTE   Cs1  v028
 BYTE   W08
 BYTE   Dn1  v056
 BYTE   W04
 BYTE   Cn1  v032
 BYTE   W19
 BYTE   N03  Ds1  v052
 BYTE   W04
 BYTE   Cs1  v028
 BYTE   W21
 BYTE   Ds1  v060
 BYTE   W04
 BYTE   Cs1  v032
 BYTE   W04
 BYTE   N02  Dn1  v044
 BYTE   W04
 BYTE   Cn1  v024
 BYTE   W03
 BYTE   N01  Ds1  v040
 BYTE   W04
 BYTE   Cs1  v024
 BYTE   W04
 BYTE   PEND 
//  #13 //004   ----------------------------------------
Label_012165FB:
 BYTE   N02  Dn1  v048
 BYTE   W04
 BYTE   Cn1  v028
 BYTE   W20
 BYTE   N03  Ds1  v056
 BYTE   W04
 BYTE   Cs1  v032
 BYTE   W21
 BYTE   N02  Dn1  v044
 BYTE   W04
 BYTE   Cn1  v024
 BYTE   W20
 BYTE   N03  Ds1  v056
 BYTE   W04
 BYTE   Cs1  v032
 BYTE   W04
 BYTE   N01  Dn1  v036
 BYTE   W04
 BYTE   Cn1  v020
 BYTE   W04
 BYTE   N02  Ds1  v040
 BYTE   W04
 BYTE   Cs1  v024
 BYTE   W03
 BYTE   PEND 
//  #13 //005   ----------------------------------------
Label_01216626:
 BYTE   W01
 BYTE   N02  Dn1  v048
 BYTE   W04
 BYTE   Cn1  v028
 BYTE   W08
 BYTE   Ds1  v044
 BYTE   W04
 BYTE   Cs1  v024
 BYTE   W08
 BYTE   Dn1  v048
 BYTE   W04
 BYTE   Cn1  v028
 BYTE   W20
 BYTE   N03  Ds1  v056
 BYTE   W04
 BYTE   Cs1  v032
 BYTE   W20
 BYTE   N23  En1  v068
 BYTE   W23
 BYTE   PEND 
//  #13 //006   ----------------------------------------
 BYTE   W01
 BYTE   N03  Ds1  v064
 BYTE   W03
 BYTE   N05  Cs1  v044
 BYTE   W20
 BYTE   N19  Bn0  v084
 BYTE   W01
 BYTE   N68  Cn4  v056
 BYTE   W23
 BYTE   N03  Ds1  v052
 BYTE   W04
 BYTE   Cs1  v028
 BYTE   W20
 BYTE   Ds1  v056
 BYTE   W04
 BYTE   Cs1  v032
 BYTE   W04
 BYTE   N01  Dn1  v044
 BYTE   W04
 BYTE   Cn1  v024
 BYTE   W04
 BYTE   Ds1  v044
 BYTE   W04
 BYTE   Cs1  v024
 BYTE   W04
//  #13 //007   ----------------------------------------
 BYTE   PATT
  POIN2 Label_012165CB
//  #13 //008   ----------------------------------------
 BYTE   PATT
  POIN2 Label_012165FB
//  #13 //009   ----------------------------------------
 BYTE   PATT
  POIN2 Label_01216626
//  #13 //010   ----------------------------------------
 BYTE   W01
 BYTE   N01  Ds1  v044
 BYTE   W04
 BYTE   Cs1  v024
 BYTE   W20
 BYTE   Dn1  v048
 BYTE   W04
 BYTE   Cn1  v028
 BYTE   W19
 BYTE   N02  Ds1  v044
 BYTE   W04
 BYTE   Cs1  v024
 BYTE   W20
 BYTE   N01  Dn1  v044
 BYTE   W04
 BYTE   Cn1  v024
 BYTE   W04
 BYTE   Ds1  v040
 BYTE   W04
 BYTE   Cs1  v024
 BYTE   W04
 BYTE   Dn1  v032
 BYTE   W04
 BYTE   Cn1  v016
 BYTE   W04
//  #13 //011   ----------------------------------------
 BYTE   Ds1  v044
 BYTE   W04
 BYTE   Cs1  v024
 BYTE   W08
 BYTE   Dn1  v036
 BYTE   W04
 BYTE   Cn1  v020
 BYTE   W08
 BYTE   Ds1  v052
 BYTE   W04
 BYTE   Cs1  v028
 BYTE   W19
 BYTE   N02  Dn1  v056
 BYTE   W04
 BYTE   Cn1  v032
 BYTE   W21
 BYTE   N01  Ds1  v044
 BYTE   W04
 BYTE   Cs1  v024
 BYTE   W04
 BYTE   Dn1  v036
 BYTE   W04
 BYTE   Cn1  v020
 BYTE   W04
 BYTE   Ds1  v036
 BYTE   W04
 BYTE   Cs1  v020
 BYTE   W04
//  #13 //012   ----------------------------------------
 BYTE   Dn1  v052
 BYTE   W04
 BYTE   Cn1  v028
 BYTE   W20
 BYTE   Ds1  v044
 BYTE   W04
 BYTE   Cs1  v024
 BYTE   W20
 BYTE   N02  Dn1  v044
 BYTE   W04
 BYTE   Cn1  v024
 BYTE   W20
 BYTE   N01  Ds1  v044
 BYTE   W04
 BYTE   Cs1  v024
 BYTE   W04
 BYTE   Dn1  v032
 BYTE   W04
 BYTE   Cn1  v016
 BYTE   W05
 BYTE   Ds1  v036
 BYTE   W04
 BYTE   Cs1  v020
 BYTE   W03
//  #13 //013   ----------------------------------------
 BYTE   W01
 BYTE   Dn1  v040
 BYTE   W04
 BYTE   Cn1  v024
 BYTE   W07
 BYTE   Ds1  v036
 BYTE   W04
 BYTE   Cs1  v020
 BYTE   W08
 BYTE   N02  Dn1  v048
 BYTE   W04
 BYTE   Cn1  v028
 BYTE   W19
 BYTE   Ds1  v052
 BYTE   W04
 BYTE   Cs1  v028
 BYTE   W20
 BYTE   N24  En1  v052
 BYTE   W24
 BYTE   W01
//  #13 //014   ----------------------------------------
 BYTE   N03  Ds1  v056
 BYTE   W04
 BYTE   Cs1  v032
 BYTE   W19
 BYTE   Dn1  v052
 BYTE   W04
 BYTE   Cn1  v028
 BYTE   W20
 BYTE   Ds1  v052
 BYTE   W04
 BYTE   N04  Cs1  v028
 BYTE   W21
 BYTE   N02  Dn1  v052
 BYTE   W04
 BYTE   Cn1  v028
 BYTE   W04
 BYTE   Ds1  v048
 BYTE   W04
 BYTE   Cs1  v028
 BYTE   W04
 BYTE   N01  Dn1  v036
 BYTE   W04
 BYTE   Cn1  v020
 BYTE   W04
//  #13 //015   ----------------------------------------
 BYTE   Ds1  v048
 BYTE   W04
 BYTE   Cs1  v028
 BYTE   W20
 BYTE   N02  Dn1  v056
 BYTE   W04
 BYTE   Cn1  v032
 BYTE   W20
 BYTE   N03  Ds1  v060
 BYTE   W04
 BYTE   N04  Cs1  v032
 BYTE   W20
 BYTE   N02  Dn1  v056
 BYTE   W04
 BYTE   Cn1  v032
 BYTE   W04
 BYTE   Ds1  v052
 BYTE   W04
 BYTE   Cs1  v028
 BYTE   W04
 BYTE   Dn1  v044
 BYTE   W04
 BYTE   Cn1  v024
 BYTE   W04
//  #13 //016   ----------------------------------------
 BYTE   N03  Ds1  v060
 BYTE   W04
 BYTE   N04  Cs1  v032
 BYTE   W20
 BYTE   N03  Dn1  v068
 BYTE   W04
 BYTE   N04  Cn1  v036
 BYTE   W20
 BYTE   N03  Ds1  v060
 BYTE   W04
 BYTE   N04  Cs1  v032
 BYTE   W20
 BYTE   N02  Dn1  v060
 BYTE   W04
 BYTE   Cn1  v032
 BYTE   W04
 BYTE   N03  Ds1  v056
 BYTE   W04
 BYTE   Cs1  v032
 BYTE   W04
 BYTE   N02  Dn1  v052
 BYTE   W04
 BYTE   Cn1  v028
 BYTE   W04
//  #13 //017   ----------------------------------------
 BYTE   N03  Ds1  v068
 BYTE   W04
 BYTE   Cs1  v036
 BYTE   W20
 BYTE   Dn1  v072
 BYTE   W04
 BYTE   N04  Cn1  v040
 BYTE   W20
 BYTE   N03  Ds1  v072
 BYTE   W04
 BYTE   Cs1  v040
 BYTE   W20
 BYTE   N23  En1  v060
 BYTE   W23
 BYTE   N03  Ds1  v072
 BYTE   W01
//  #13 //018   ----------------------------------------
 BYTE   W03
 BYTE   N04  Cs1  v040
 BYTE   W20
 BYTE   N03  Dn1  v064
 BYTE   W04
 BYTE   Cn1  v036
 BYTE   W20
 BYTE   Ds1  v060
 BYTE   W04
 BYTE   Cs1  v032
 BYTE   W21
 BYTE   N02  Dn1  v056
 BYTE   W04
 BYTE   Cn1  v032
 BYTE   W04
 BYTE   Ds1  v052
 BYTE   W04
 BYTE   Cs1  v028
 BYTE   W03
 BYTE   Dn1  v052
 BYTE   W04
 BYTE   Cn1  v028
 BYTE   W05
//  #13 //019   ----------------------------------------
 BYTE   N03  Ds1  v068
 BYTE   W04
 BYTE   Cs1  v036
 BYTE   W20
 BYTE   Dn1  v072
 BYTE   W04
 BYTE   N04  Cn1  v040
 BYTE   W44
 BYTE   VOL   43*song09_mvl/mxv
 BYTE   N48  En1  v127
 BYTE   W06
 BYTE   VOL   51*song09_mvl/mxv
 BYTE   W06
 BYTE   VOL   58*song09_mvl/mxv
 BYTE   W06
 BYTE   VOL   67*song09_mvl/mxv
 BYTE   W06
//  #13 //020   ----------------------------------------
 BYTE   VOL   71*song09_mvl/mxv
 BYTE   W06
 BYTE   VOL   78*song09_mvl/mxv
 BYTE   W06
 BYTE   VOL   81*song09_mvl/mxv
 BYTE   W06
 BYTE   VOL   86*song09_mvl/mxv
 BYTE   W06
 BYTE   VOL   90*song09_mvl/mxv
 BYTE   W01
 BYTE   N19  Bn0  v064
 BYTE   N68  Cn4  v060
 BYTE   W23
 BYTE   N03  Ds1  v052
 BYTE   W04
 BYTE   Cs1  v028
 BYTE   W20
 BYTE   Ds1  v056
 BYTE   W04
 BYTE   Cs1  v032
 BYTE   W04
 BYTE   N01  Dn1  v044
 BYTE   W04
 BYTE   Cn1  v024
 BYTE   W04
 BYTE   Ds1  v044
 BYTE   W04
 BYTE   Cs1  v024
 BYTE   W04
//  #13 //021   ----------------------------------------
 BYTE   PATT
  POIN2 Label_012165CB
//  #13 //022   ----------------------------------------
 BYTE   PATT
  POIN2 Label_012165FB
//  #13 //023   ----------------------------------------
 BYTE   W01
 BYTE   N02  Dn1  v048
 BYTE   W04
 BYTE   Cn1  v028
 BYTE   W08
 BYTE   Ds1  v044
 BYTE   W04
 BYTE   Cs1  v024
 BYTE   W08
 BYTE   N03  Dn1  v056
 BYTE   W04
 BYTE   N02  Cn1  v028
 BYTE   W19
 BYTE   N03  Ds1  v056
 BYTE   N44  Cn4  v036
 BYTE   W05
 BYTE   N03  Cs1  v032
 BYTE   W13
 BYTE   VOL   73*song09_mvl/mxv
 BYTE   W06
 BYTE   VOL   38*song09_mvl/mxv
 BYTE   N23  En1  v127
 BYTE   W06
 BYTE   VOL   29*song09_mvl/mxv
 BYTE   W06
 BYTE   VOL   35*song09_mvl/mxv
 BYTE   W06
 BYTE   VOL   46*song09_mvl/mxv
 BYTE   W06
//  #13 //024   ----------------------------------------
 BYTE   VOICE   116
 BYTE   VOL   51*song09_mvl/mxv
 BYTE   W01
 BYTE   N03  Ds1  v064
 BYTE   W04
 BYTE   N19  Cs1  v036
 BYTE   W20
 BYTE   N03  Dn1  v068
 BYTE   W04
 BYTE   Cn1  v036
 BYTE   W19
 BYTE   Ds1  v052
 BYTE   W04
 BYTE   Cs1  v028
 BYTE   W20
 BYTE   Ds1  v056
 BYTE   W04
 BYTE   Cs1  v032
 BYTE   W04
 BYTE   N01  Dn1  v044
 BYTE   W04
 BYTE   Cn1  v024
 BYTE   W04
 BYTE   Ds1  v044
 BYTE   W04
 BYTE   Cs1  v024
 BYTE   W04
//  #13 //025   ----------------------------------------
 BYTE   PATT
  POIN2 Label_012165CB
//  #13 //026   ----------------------------------------
 BYTE   N02  Dn1  v048
 BYTE   W04
 BYTE   Cn1  v028
 BYTE   W20
 BYTE   N03  Ds1  v056
 BYTE   W04
 BYTE   Cs1  v032
 BYTE   W14
 BYTE   VOL   52*song09_mvl/mxv
 BYTE   W07
 BYTE   N02  Dn1  v044
 BYTE   W04
 BYTE   Cn1  v024
 BYTE   W20
 BYTE   N03  Ds1  v056
 BYTE   W04
 BYTE   Cs1  v032
 BYTE   W04
 BYTE   N01  Dn1  v036
 BYTE   W04
 BYTE   Cn1  v020
 BYTE   W04
 BYTE   N02  Ds1  v040
 BYTE   W04
 BYTE   Cs1  v024
 BYTE   W03
//  #13 //027   ----------------------------------------
 BYTE   W01
 BYTE   Dn1  v048
 BYTE   W04
 BYTE   Cn1  v028
 BYTE   W08
 BYTE   Ds1  v044
 BYTE   W04
 BYTE   Cs1  v024
 BYTE   W08
 BYTE   Dn1  v048
 BYTE   W04
 BYTE   Cn1  v028
 BYTE   W20
 BYTE   N03  Ds1  v056
 BYTE   W04
 BYTE   Cs1  v032
 BYTE   W13
 BYTE   VOL   53*song09_mvl/mxv
 BYTE   W07
 BYTE   N23  En1  v068
 BYTE   W23
//  #13 //028   ----------------------------------------
 BYTE   W01
 BYTE   N03  Dn1  v064
 BYTE   W04
 BYTE   Cn1  v036
 BYTE   W19
 BYTE   Ds1  v064
 BYTE   W04
 BYTE   N19  Cs1  v036
 BYTE   W20
 BYTE   N03  Ds1  v052
 BYTE   W04
 BYTE   Cs1  v028
 BYTE   W20
 BYTE   Ds1  v056
 BYTE   W04
 BYTE   Cs1  v032
 BYTE   W04
 BYTE   N01  Dn1  v044
 BYTE   W04
 BYTE   Cn1  v024
 BYTE   W04
 BYTE   Ds1  v044
 BYTE   W02
 BYTE   VOL   54*song09_mvl/mxv
 BYTE   W02
 BYTE   N01  Cs1  v024
 BYTE   W04
//  #13 //029   ----------------------------------------
 BYTE   PATT
  POIN2 Label_012165CB
//  #13 //030   ----------------------------------------
 BYTE   N02  Dn1  v048
 BYTE   W04
 BYTE   Cn1  v028
 BYTE   W14
 BYTE   VOL   55*song09_mvl/mxv
 BYTE   W06
 BYTE   N03  Ds1  v056
 BYTE   W04
 BYTE   Cs1  v032
 BYTE   W21
 BYTE   N02  Dn1  v044
 BYTE   W04
 BYTE   Cn1  v024
 BYTE   W20
 BYTE   N03  Ds1  v056
 BYTE   W04
 BYTE   Cs1  v032
 BYTE   W04
 BYTE   N01  Dn1  v036
 BYTE   W04
 BYTE   Cn1  v020
 BYTE   W04
 BYTE   N02  Ds1  v040
 BYTE   W04
 BYTE   Cs1  v024
 BYTE   W03
//  #13 //031   ----------------------------------------
 BYTE   W01
 BYTE   Dn1  v048
 BYTE   W04
 BYTE   Cn1  v028
 BYTE   W08
 BYTE   Ds1  v044
 BYTE   W04
 BYTE   Cs1  v024
 BYTE   W08
 BYTE   Dn1  v048
 BYTE   W04
 BYTE   Cn1  v028
 BYTE   W07
 BYTE   VOL   55*song09_mvl/mxv
 BYTE   W13
 BYTE   N03  Ds1  v056
 BYTE   W04
 BYTE   Cs1  v032
 BYTE   W20
 BYTE   N23  En1  v068
 BYTE   W23
//  #13 //032   ----------------------------------------
 BYTE   W01
 BYTE   N03  Ds1  v064
 BYTE   W04
 BYTE   N19  Cs1  v036
 BYTE   W20
 BYTE   N03  Dn1  v060
 BYTE   W04
 BYTE   Cn1  v032
 BYTE   W19
 BYTE   Ds1  v052
 BYTE   W04
 BYTE   Cs1  v028
 BYTE   W08
 BYTE   VOL   56*song09_mvl/mxv
 BYTE   W12
 BYTE   N03  Ds1  v056
 BYTE   W04
 BYTE   Cs1  v032
 BYTE   W04
 BYTE   N01  Dn1  v044
 BYTE   W04
 BYTE   Cn1  v024
 BYTE   W04
 BYTE   Ds1  v044
 BYTE   W04
 BYTE   Cs1  v024
 BYTE   W04
//  #13 //033   ----------------------------------------
 BYTE   Dn1  v044
 BYTE   W04
 BYTE   Cn1  v024
 BYTE   W09
 BYTE   N02  Ds1  v052
 BYTE   W04
 BYTE   Cs1  v028
 BYTE   W08
 BYTE   Dn1  v056
 BYTE   W04
 BYTE   Cn1  v032
 BYTE   W19
 BYTE   N03  Ds1  v052
 BYTE   W04
 BYTE   Cs1  v028
 BYTE   W21
 BYTE   Ds1  v060
 BYTE   W04
 BYTE   Cs1  v032
 BYTE   W01
 BYTE   VOL   57*song09_mvl/mxv
 BYTE   W03
 BYTE   N02  Dn1  v044
 BYTE   W04
 BYTE   Cn1  v024
 BYTE   W03
 BYTE   N01  Ds1  v040
 BYTE   W04
 BYTE   Cs1  v024
 BYTE   W04
//  #13 //034   ----------------------------------------
 BYTE   PATT
  POIN2 Label_012165FB
//  #13 //035   ----------------------------------------
 BYTE   W01
 BYTE   N02  Dn1  v048
 BYTE   W04
 BYTE   Cn1  v028
 BYTE   W01
 BYTE   VOL   58*song09_mvl/mxv
 BYTE   W07
 BYTE   N02  Ds1  v044
 BYTE   W04
 BYTE   Cs1  v024
 BYTE   W08
 BYTE   Dn1  v048
 BYTE   W04
 BYTE   Cn1  v028
 BYTE   W20
 BYTE   N03  Ds1  v056
 BYTE   W04
 BYTE   Cs1  v032
 BYTE   W20
 BYTE   N23  En1  v068
 BYTE   W23
//  #13 //036   ----------------------------------------
 BYTE   W01
 BYTE   N03  Ds1  v064
 BYTE   W04
 BYTE   Cs1  v036
 BYTE   W19
 BYTE   Dn1  v068
 BYTE   W04
 BYTE   N19  Cn1  v036
 BYTE   W02
 BYTE   VOL   59*song09_mvl/mxv
 BYTE   W18
 BYTE   N03  Ds1  v052
 BYTE   W04
 BYTE   Cs1  v028
 BYTE   W20
 BYTE   Ds1  v056
 BYTE   W04
 BYTE   Cs1  v032
 BYTE   W04
 BYTE   N01  Dn1  v044
 BYTE   W04
 BYTE   Cn1  v024
 BYTE   W04
 BYTE   Ds1  v044
 BYTE   W04
 BYTE   Cs1  v024
 BYTE   W04
//  #13 //037   ----------------------------------------
 BYTE   Dn1  v044
 BYTE   W04
 BYTE   Cn1  v024
 BYTE   W09
 BYTE   N02  Ds1  v052
 BYTE   W04
 BYTE   Cs1  v028
 BYTE   W08
 BYTE   Dn1  v056
 BYTE   W04
 BYTE   Cn1  v032
 BYTE   W19
 BYTE   N03  Ds1  v052
 BYTE   W04
 BYTE   Cs1  v028
 BYTE   W02
 BYTE   VOL   60*song09_mvl/mxv
 BYTE   W19
 BYTE   N03  Ds1  v060
 BYTE   W04
 BYTE   Cs1  v032
 BYTE   W04
 BYTE   N02  Dn1  v044
 BYTE   W04
 BYTE   Cn1  v024
 BYTE   W03
 BYTE   N01  Ds1  v040
 BYTE   W04
 BYTE   Cs1  v024
 BYTE   W04
//  #13 //038   ----------------------------------------
 BYTE   N02  Dn1  v048
 BYTE   W04
 BYTE   Cn1  v028
 BYTE   W20
 BYTE   N03  Ds1  v056
 BYTE   W04
 BYTE   Cs1  v032
 BYTE   W21
 BYTE   N02  Dn1  v044
 BYTE   W04
 BYTE   Cn1  v024
 BYTE   W19
 BYTE   VOL   61*song09_mvl/mxv
 BYTE   W01
 BYTE   N03  Ds1  v056
 BYTE   W04
 BYTE   Cs1  v032
 BYTE   W04
 BYTE   N01  Dn1  v036
 BYTE   W04
 BYTE   Cn1  v020
 BYTE   W04
 BYTE   N02  Ds1  v040
 BYTE   W04
 BYTE   Cs1  v024
 BYTE   W03
//  #13 //039   ----------------------------------------
 BYTE   W01
 BYTE   Dn1  v048
 BYTE   W04
 BYTE   Cn1  v028
 BYTE   W08
 BYTE   Ds1  v044
 BYTE   W04
 BYTE   Cs1  v024
 BYTE   W08
 BYTE   Dn1  v048
 BYTE   W04
 BYTE   Cn1  v028
 BYTE   W20
 BYTE   N03  Ds1  v056
 BYTE   W04
 BYTE   Cs1  v032
 BYTE   W20
 BYTE   N22  En1  v056
 BYTE   W22
 BYTE   N01  Ds1  v076
 BYTE   W01
//  #13 //040   ----------------------------------------
 BYTE   VOL   61*song09_mvl/mxv
 BYTE   N01  Ds1  v028
 BYTE   W01
 BYTE   Ds1  v048
 BYTE   W01
 BYTE   Cs1  v040
 BYTE   W01
 BYTE   Cs1  v024
 BYTE   W01
 BYTE   Cs1  v036
 BYTE   W02
 BYTE   VOL   54*song09_mvl/mxv
 BYTE   W06
 BYTE   VOL   50*song09_mvl/mxv
 BYTE   W18
 BYTE   VOL   51*song09_mvl/mxv
 BYTE   W06
 BYTE   N01  Ds1  v040
 BYTE   W03
 BYTE   N03  Dn1  v052
 BYTE   W04
 BYTE   Ds1  v048
 BYTE   W04
 BYTE   N02  Dn1  v052
 BYTE   W04
 BYTE   Cn1  v028
 BYTE   W03
 BYTE   VOL   52*song09_mvl/mxv
 BYTE   W18
 BYTE   VOL   53*song09_mvl/mxv
 BYTE   W16
 BYTE   N01  Dn1  v048
 BYTE   W02
 BYTE   VOL   54*song09_mvl/mxv
 BYTE   W01
 BYTE   N01  Ds1  v052
 BYTE   W03
 BYTE   N03  Dn1  v056
 BYTE   W02
//  #13 //041   ----------------------------------------
 BYTE   W02
 BYTE   N04  Cn1  v032
 BYTE   W04
 BYTE   VOL   55*song09_mvl/mxv
 BYTE   W07
 BYTE   N01  Ds1  v048
 BYTE   W04
 BYTE   Cs1  v024
 BYTE   W07
 BYTE   N22  Fn1  v072
 BYTE   W06
 BYTE   VOL   55*song09_mvl/mxv
 BYTE   W17
 BYTE   N03  Dn1  v084
 BYTE   W01
 BYTE   VOL   56*song09_mvl/mxv
 BYTE   W03
 BYTE   N03  Cn1  v048
 BYTE   W03
 BYTE   VOL   57*song09_mvl/mxv
 BYTE   W12
 BYTE   VOL   58*song09_mvl/mxv
 BYTE   W06
 BYTE   N01  Ds1  v056
 BYTE   W04
 BYTE   Cs1  v032
 BYTE   W08
 BYTE   N03  Dn1  v060
 BYTE   W03
 BYTE   N04  Ds1  v064
 BYTE   W03
 BYTE   VOL   59*song09_mvl/mxv
 BYTE   W02
 BYTE   N03  Dn1  v060
 BYTE   W03
 BYTE   Ds1  v068
 BYTE   W01
//  #13 //042   ----------------------------------------
 BYTE   VOL   60*song09_mvl/mxv
 BYTE   W03
 BYTE   N03  Cs1  v036
 BYTE   W09
 BYTE   VOL   61*song09_mvl/mxv
 BYTE   W06
 BYTE   VOL   61*song09_mvl/mxv
 BYTE   W20
 BYTE   N02  Dn1  v080
 BYTE   W03
 BYTE   N03  Ds1  v060
 BYTE   W01
 BYTE   VOL   62*song09_mvl/mxv
 BYTE   W03
 BYTE   N03  Dn1  v064
 BYTE   W03
 BYTE   Ds1  v072
 BYTE   W04
 BYTE   N04  Cs1  v040
 BYTE   W02
 BYTE   VOL   63*song09_mvl/mxv
 BYTE   W06
 BYTE   VOL   64*song09_mvl/mxv
 BYTE   W01
 BYTE   N01  Ds1  v048
 BYTE   W04
 BYTE   Cs1  v028
 BYTE   W06
 BYTE   N02  Dn1  v072
 BYTE   W01
 BYTE   VOL   65*song09_mvl/mxv
 BYTE   W03
 BYTE   N02  Cn1  v040
 BYTE   W03
 BYTE   VOL   66*song09_mvl/mxv
 BYTE   W05
 BYTE   N01  Ds1  v072
 BYTE   W04
 BYTE   Cs1  v040
 BYTE   W03
 BYTE   VOL   67*song09_mvl/mxv
 BYTE   W05
 BYTE   N23  Fn1  v084
 BYTE   W01
//  #13 //043   ----------------------------------------
 BYTE   W06
 BYTE   VOL   67*song09_mvl/mxv
 BYTE   W12
 BYTE   VOL   69*song09_mvl/mxv
 BYTE   W04
 BYTE   N03  Dn1  v104
 BYTE   W02
 BYTE   VOL   71*song09_mvl/mxv
 BYTE   W02
 BYTE   N03  Cn1  v056
 BYTE   W10
 BYTE   VOL   71*song09_mvl/mxv
 BYTE   N02  Dn1
 BYTE   W03
 BYTE   N04  Ds1  v060
 BYTE   W03
 BYTE   VOL   72*song09_mvl/mxv
 BYTE   W02
 BYTE   N03  Dn1  v052
 BYTE   W04
 BYTE   Ds1  v076
 BYTE   W04
 BYTE   N04  Cs1  v044
 BYTE   W02
 BYTE   VOL   74*song09_mvl/mxv
 BYTE   W06
 BYTE   N02  Dn1  v068
 BYTE   W04
 BYTE   Cn1  v036
 BYTE   W02
 BYTE   VOL   76*song09_mvl/mxv
 BYTE   W06
 BYTE   N03  Ds1  v076
 BYTE   W04
 BYTE   Cs1  v040
 BYTE   W02
 BYTE   VOL   76*song09_mvl/mxv
 BYTE   W06
 BYTE   VOL   78*song09_mvl/mxv
 BYTE   W01
 BYTE   N02  Dn1  v076
 BYTE   W04
 BYTE   Cn1  v040
 BYTE   W07
//  #13 //044   ----------------------------------------
 BYTE   VOL   80*song09_mvl/mxv
 BYTE   W01
 BYTE   N03  Ds1  v076
 BYTE   W04
 BYTE   Cs1  v044
 BYTE   W01
 BYTE   VOL   81*song09_mvl/mxv
 BYTE   W07
 BYTE   N03  Dn1  v100
 BYTE   W04
 BYTE   Cn1  v056
 BYTE   W01
 BYTE   VOL   83*song09_mvl/mxv
 BYTE   W06
 BYTE   N23  Fn1  v096
 BYTE   W06
 BYTE   VOL   85*song09_mvl/mxv
 BYTE   W12
 BYTE   VOL   88*song09_mvl/mxv
 BYTE   W06
 BYTE   VOL   90*song09_mvl/mxv
 BYTE   N03  Dn1  v112
 BYTE   W04
 BYTE   Ds1  v060
 BYTE   W04
 BYTE   Cs1  v032
 BYTE   W10
 BYTE   VOL   78*song09_mvl/mxv
 BYTE   W02
 BYTE   VOICE   116
 BYTE   W04
 BYTE   VOL   64*song09_mvl/mxv
 BYTE   N03  Dn1  v044
 BYTE   W04
 BYTE   Cn1  v024
 BYTE   W14
 BYTE   VOL   65*song09_mvl/mxv
 BYTE   W06
//  #13 //045   ----------------------------------------
 BYTE   N03  Ds1  v044
 BYTE   W04
 BYTE   Cs1  v024
 BYTE   W02
 BYTE   VOL   66*song09_mvl/mxv
 BYTE   W12
 BYTE   VOL   67*song09_mvl/mxv
 BYTE   W07
 BYTE   N03  Ds1  v060
 BYTE   W04
 BYTE   Cs1  v032
 BYTE   W01
 BYTE   VOL   67*song09_mvl/mxv
 BYTE   W03
 BYTE   N01  Dn1  v048
 BYTE   W04
 BYTE   Cn1  v028
 BYTE   W04
 BYTE   Ds1  v044
 BYTE   W01
 BYTE   VOL   67*song09_mvl/mxv
 BYTE   W03
 BYTE   N01  Cs1  v024
 BYTE   W04
 BYTE   Dn1  v048
 BYTE   W04
 BYTE   Cn1  v028
 BYTE   W01
 BYTE   VOL   69*song09_mvl/mxv
 BYTE   W06
 BYTE   N01  Ds1  v044
 BYTE   W04
 BYTE   Cs1  v024
 BYTE   W02
 BYTE   VOL   69*song09_mvl/mxv
 BYTE   W06
 BYTE   N02  Dn1  v056
 BYTE   W04
 BYTE   Cn1  v032
 BYTE   W02
 BYTE   VOL   71*song09_mvl/mxv
 BYTE   W12
 BYTE   VOL   71*song09_mvl/mxv
 BYTE   W06
//  #13 //046   ----------------------------------------
 BYTE   VOL   72*song09_mvl/mxv
 BYTE   W01
 BYTE   N02  Ds1  v060
 BYTE   W04
 BYTE   Cs1  v032
 BYTE   W07
 BYTE   VOL   73*song09_mvl/mxv
 BYTE   W12
 BYTE   VOL   74*song09_mvl/mxv
 BYTE   W01
 BYTE   N03  Ds1  v060
 BYTE   W04
 BYTE   Cs1  v032
 BYTE   W04
 BYTE   N01  Dn1  v048
 BYTE   W03
 BYTE   VOL   76*song09_mvl/mxv
 BYTE   W01
 BYTE   N01  Cn1  v028
 BYTE   W04
 BYTE   Ds1  v044
 BYTE   W04
 BYTE   Cs1  v024
 BYTE   W03
 BYTE   VOL   78*song09_mvl/mxv
 BYTE   W01
 BYTE   N02  Ds1  v040
 BYTE   W04
 BYTE   Cs1  v024
 BYTE   W19
 BYTE   N03  Dn1  v044
 BYTE   W04
 BYTE   Cn1  v024
 BYTE   W20
//  #13 //047   ----------------------------------------
 BYTE   Ds1  v044
 BYTE   W04
 BYTE   Cs1  v024
 BYTE   W21
 BYTE   Ds1  v060
 BYTE   W04
 BYTE   Cs1  v032
 BYTE   W04
 BYTE   N01  Dn1  v048
 BYTE   W04
 BYTE   Cn1  v028
 BYTE   W04
 BYTE   Ds1  v044
 BYTE   W04
 BYTE   Cs1  v024
 BYTE   W04
 BYTE   Dn1  v048
 BYTE   W04
 BYTE   Cn1  v028
 BYTE   W07
 BYTE   Ds1  v044
 BYTE   W04
 BYTE   Cs1  v024
 BYTE   W08
 BYTE   N02  Dn1  v056
 BYTE   W04
 BYTE   Cn1  v032
 BYTE   W20
//  #13 //048   ----------------------------------------
 BYTE   W01
 BYTE   Ds1  v060
 BYTE   W04
 BYTE   Cs1  v032
 BYTE   W20
 BYTE   N03  Ds1  v060
 BYTE   W04
 BYTE   Cs1  v032
 BYTE   W04
 BYTE   N01  Dn1  v048
 BYTE   W04
 BYTE   Cn1  v028
 BYTE   W04
 BYTE   Ds1  v044
 BYTE   W04
 BYTE   Cs1  v024
 BYTE   W03
 BYTE   VOICE   116
 BYTE   VOL   35*song09_mvl/mxv
 BYTE   W01
 BYTE   N23  En1  v127
 BYTE   W05
 BYTE   VOL   50*song09_mvl/mxv
 BYTE   W06
 BYTE   VOL   60*song09_mvl/mxv
 BYTE   W06
 BYTE   VOL   78*song09_mvl/mxv
 BYTE   W06
 BYTE   GoTo
  POIN2 Label_012165AE
//  #13 //049   ----------------------------------------
 BYTE   VOL   90*song09_mvl/mxv
 BYTE   W01
 BYTE   N19  Bn0  v064
 BYTE   N68  Cn4  v056
 BYTE   W23
 BYTE   N03  Ds1  v052
 BYTE   W04
 BYTE   Cs1
 BYTE   W20
 BYTE   Ds1  v056
 BYTE   W04
 BYTE   Cs1
 BYTE   W04
 BYTE   N01  Dn1  v044
 BYTE   W04
 BYTE   Cn1
 BYTE   W04
 BYTE   Ds1
 BYTE   W04
 BYTE   Cs1
 BYTE   W04
 BYTE   FINE

//**************** Track 14 (Midi-Chn.13) ****************//

song09_014:
//  #14 //000   ----------------------------------------
 BYTE   KEYSH   song09_key+0
 BYTE   MODT 0
 BYTE   LFOS 44
 BYTE   W96
//  #14 //001   ----------------------------------------
 BYTE   W96
//  #14 //002   ----------------------------------------
 BYTE   W30
Label_011F2771:
 BYTE   PAN   c_v+0
 BYTE   VOL   80*song09_mvl/mxv
 BYTE   W66
//  #14 //003   ----------------------------------------
 BYTE   W96
//  #14 //004   ----------------------------------------
 BYTE   W96
//  #14 //005   ----------------------------------------
 BYTE   W96
//  #14 //006   ----------------------------------------
 BYTE   W96
//  #14 //007   ----------------------------------------
 BYTE   W96
//  #14 //008   ----------------------------------------
 BYTE   W96
//  #14 //009   ----------------------------------------
 BYTE   W96
//  #14 //010   ----------------------------------------
 BYTE   W96
//  #14 //011   ----------------------------------------
 BYTE   W96
//  #14 //012   ----------------------------------------
 BYTE   W96
//  #14 //013   ----------------------------------------
 BYTE   W96
//  #14 //014   ----------------------------------------
 BYTE   W96
//  #14 //015   ----------------------------------------
 BYTE   W96
//  #14 //016   ----------------------------------------
 BYTE   W96
//  #14 //017   ----------------------------------------
 BYTE   W96
//  #14 //018   ----------------------------------------
 BYTE   W96
//  #14 //019   ----------------------------------------
 BYTE   W96
//  #14 //020   ----------------------------------------
 BYTE   W96
//  #14 //021   ----------------------------------------
 BYTE   W96
//  #14 //022   ----------------------------------------
 BYTE   W96
//  #14 //023   ----------------------------------------
 BYTE   W66
 BYTE   MOD 0
 BYTE   VOL   80*song09_mvl/mxv
 BYTE   PAN   c_v+1
 BYTE   VOL   23*song09_mvl/mxv
 BYTE   W02
 BYTE   VOICE   11
 BYTE   W04
 BYTE   VOL   18*song09_mvl/mxv
 BYTE   W01
 BYTE   TIE  Fn4  v092
 BYTE   W05
 BYTE   VOL   22*song09_mvl/mxv
 BYTE   W06
 BYTE   VOL   27*song09_mvl/mxv
 BYTE   W06
 BYTE   VOL   38*song09_mvl/mxv
 BYTE   W06
//  #14 //024   ----------------------------------------
 BYTE   VOL   40*song09_mvl/mxv
 BYTE   W06
 BYTE   VOL   40*song09_mvl/mxv
 BYTE   W06
 BYTE   VOL   34*song09_mvl/mxv
 BYTE   W06
 BYTE   VOL   29*song09_mvl/mxv
 BYTE   W06
 BYTE   VOL   25*song09_mvl/mxv
 BYTE   W06
 BYTE   VOL   22*song09_mvl/mxv
 BYTE   W06
 BYTE   VOL   19*song09_mvl/mxv
 BYTE   W06
 BYTE   VOL   16*song09_mvl/mxv
 BYTE   W06
 BYTE   VOL   14*song09_mvl/mxv
 BYTE   W06
 BYTE   VOL   11*song09_mvl/mxv
 BYTE   W06
 BYTE   VOL   10*song09_mvl/mxv
 BYTE   W30
 BYTE   VOL   11*song09_mvl/mxv
 BYTE   W06
//  #14 //025   ----------------------------------------
 BYTE   W06
 BYTE   VOL   11*song09_mvl/mxv
 BYTE   W12
 BYTE   VOL   11*song09_mvl/mxv
 BYTE   W18
 BYTE   VOL   12*song09_mvl/mxv
 BYTE   W12
 BYTE   VOL   13*song09_mvl/mxv
 BYTE   W18
 BYTE   VOL   13*song09_mvl/mxv
 BYTE   W12
 BYTE   VOL   14*song09_mvl/mxv
 BYTE   W12
 BYTE   VOL   14*song09_mvl/mxv
 BYTE   W06
//  #14 //026   ----------------------------------------
 BYTE   W06
 BYTE   VOL   15*song09_mvl/mxv
 BYTE   W18
 BYTE   VOL   15*song09_mvl/mxv
 BYTE   W12
 BYTE   VOL   16*song09_mvl/mxv
 BYTE   W18
 BYTE   VOL   17*song09_mvl/mxv
 BYTE   W12
 BYTE   VOL   17*song09_mvl/mxv
 BYTE   W12
 BYTE   VOL   18*song09_mvl/mxv
 BYTE   W12
 BYTE   VOL   18*song09_mvl/mxv
 BYTE   W06
//  #14 //027   ----------------------------------------
 BYTE   W12
 BYTE   VOL   19*song09_mvl/mxv
 BYTE   W12
 BYTE   VOL   19*song09_mvl/mxv
 BYTE   W18
 BYTE   VOL   20*song09_mvl/mxv
 BYTE   W03
 BYTE   EOT
 BYTE   W02
 BYTE   TIE  Ds4  v048
 BYTE   W07
 BYTE   VOL   20*song09_mvl/mxv
 BYTE   W18
 BYTE   VOL   19*song09_mvl/mxv
 BYTE   W18
 BYTE   VOL   19*song09_mvl/mxv
 BYTE   W06
//  #14 //028   ----------------------------------------
 BYTE   W06
 BYTE   VOL   18*song09_mvl/mxv
 BYTE   W18
 BYTE   VOL   18*song09_mvl/mxv
 BYTE   W18
 BYTE   VOL   17*song09_mvl/mxv
 BYTE   W12
 BYTE   VOL   17*song09_mvl/mxv
 BYTE   W18
 BYTE   VOL   16*song09_mvl/mxv
 BYTE   W18
 BYTE   VOL   15*song09_mvl/mxv
 BYTE   W06
//  #14 //029   ----------------------------------------
 BYTE   W12
 BYTE   VOL   15*song09_mvl/mxv
 BYTE   W18
 BYTE   VOL   14*song09_mvl/mxv
 BYTE   W12
 BYTE   VOL   14*song09_mvl/mxv
 BYTE   W18
 BYTE   VOL   13*song09_mvl/mxv
 BYTE   W18
 BYTE   VOL   13*song09_mvl/mxv
 BYTE   W12
 BYTE   VOL   12*song09_mvl/mxv
 BYTE   W06
//  #14 //030   ----------------------------------------
 BYTE   W18
 BYTE   VOL   13*song09_mvl/mxv
 BYTE   W24
 BYTE   VOL   13*song09_mvl/mxv
 BYTE   W18
 BYTE   VOL   14*song09_mvl/mxv
 BYTE   W18
 BYTE   VOL   14*song09_mvl/mxv
 BYTE   W18
//  #14 //031   ----------------------------------------
 BYTE   W06
 BYTE   VOL   15*song09_mvl/mxv
 BYTE   W12
 BYTE   VOL   15*song09_mvl/mxv
 BYTE   W18
 BYTE   VOL   16*song09_mvl/mxv
 BYTE   W18
 BYTE   VOL   17*song09_mvl/mxv
 BYTE   W06
 BYTE   VOL   17*song09_mvl/mxv
 BYTE   W18
 BYTE   VOL   18*song09_mvl/mxv
 BYTE   W12
 BYTE   VOL   18*song09_mvl/mxv
 BYTE   W06
//  #14 //032   ----------------------------------------
 BYTE   W06
 BYTE   VOL   19*song09_mvl/mxv
 BYTE   W18
 BYTE   VOL   19*song09_mvl/mxv
 BYTE   W06
 BYTE   VOL   20*song09_mvl/mxv
 BYTE   W12
 BYTE   VOL   20*song09_mvl/mxv
 BYTE   W12
 BYTE   VOL   21*song09_mvl/mxv
 BYTE   W12
 BYTE   VOL   22*song09_mvl/mxv
 BYTE   W06
 BYTE   VOL   22*song09_mvl/mxv
 BYTE   W06
 BYTE   VOL   23*song09_mvl/mxv
 BYTE   W12
 BYTE   VOL   23*song09_mvl/mxv
 BYTE   W06
//  #14 //033   ----------------------------------------
 BYTE   VOL   24*song09_mvl/mxv
 BYTE   W06
 BYTE   VOL   25*song09_mvl/mxv
 BYTE   W12
 BYTE   VOL   26*song09_mvl/mxv
 BYTE   W06
 BYTE   VOL   27*song09_mvl/mxv
 BYTE   W06
 BYTE   VOL   27*song09_mvl/mxv
 BYTE   W12
 BYTE   VOL   28*song09_mvl/mxv
 BYTE   W06
 BYTE   VOL   28*song09_mvl/mxv
 BYTE   W06
 BYTE   VOL   29*song09_mvl/mxv
 BYTE   W12
 BYTE   VOL   30*song09_mvl/mxv
 BYTE   W06
 BYTE   VOL   31*song09_mvl/mxv
 BYTE   W06
 BYTE   VOL   32*song09_mvl/mxv
 BYTE   W12
 BYTE   VOL   34*song09_mvl/mxv
 BYTE   W06
//  #14 //034   ----------------------------------------
 BYTE   VOL   34*song09_mvl/mxv
 BYTE   W06
 BYTE   VOL   36*song09_mvl/mxv
 BYTE   W12
 BYTE   VOL   37*song09_mvl/mxv
 BYTE   W06
 BYTE   VOL   38*song09_mvl/mxv
 BYTE   W06
 BYTE   VOL   40*song09_mvl/mxv
 BYTE   W12
 BYTE   VOL   41*song09_mvl/mxv
 BYTE   W06
 BYTE   VOL   43*song09_mvl/mxv
 BYTE   W06
 BYTE   VOL   45*song09_mvl/mxv
 BYTE   W12
 BYTE   VOL   47*song09_mvl/mxv
 BYTE   W06
 BYTE   VOL   49*song09_mvl/mxv
 BYTE   W06
 BYTE   VOL   51*song09_mvl/mxv
 BYTE   W12
 BYTE   VOL   54*song09_mvl/mxv
 BYTE   W06
//  #14 //035   ----------------------------------------
 BYTE   W12
 BYTE   VOL   55*song09_mvl/mxv
 BYTE   W06
 BYTE   VOL   56*song09_mvl/mxv
 BYTE   W12
 BYTE   VOL   57*song09_mvl/mxv
 BYTE   W12
 BYTE   VOL   57*song09_mvl/mxv
 BYTE   W06
 BYTE   EOT
 BYTE   VOL   59*song09_mvl/mxv
 BYTE   N44  Cs4
 BYTE   W06
 BYTE   VOL   59*song09_mvl/mxv
 BYTE   W12
 BYTE   VOL   61*song09_mvl/mxv
 BYTE   W12
 BYTE   VOL   61*song09_mvl/mxv
 BYTE   W06
 BYTE   VOL   62*song09_mvl/mxv
 BYTE   W06
 BYTE   VOL   63*song09_mvl/mxv
 BYTE   W06
//  #14 //036   ----------------------------------------
 BYTE   TIE  Cn4  v040
 BYTE   W06
 BYTE   VOL   64*song09_mvl/mxv
 BYTE   W12
 BYTE   VOL   66*song09_mvl/mxv
 BYTE   W06
 BYTE   VOL   66*song09_mvl/mxv
 BYTE   W06
 BYTE   VOL   68*song09_mvl/mxv
 BYTE   W12
 BYTE   VOL   68*song09_mvl/mxv
 BYTE   W12
 BYTE   VOL   69*song09_mvl/mxv
 BYTE   W06
 BYTE   VOL   70*song09_mvl/mxv
 BYTE   W06
 BYTE   VOL   71*song09_mvl/mxv
 BYTE   W12
 BYTE   VOL   73*song09_mvl/mxv
 BYTE   W12
 BYTE   VOL   74*song09_mvl/mxv
 BYTE   W06
//  #14 //037   ----------------------------------------
 BYTE   W18
 BYTE   VOL   73*song09_mvl/mxv
 BYTE   W24
 BYTE   VOL   73*song09_mvl/mxv
 BYTE   W05
 BYTE   EOT
 BYTE   W01
 BYTE   N44  Bn3  v036
 BYTE   W06
 BYTE   VOL   71*song09_mvl/mxv
 BYTE   W18
 BYTE   VOL   70*song09_mvl/mxv
 BYTE   W12
 BYTE   VOL   69*song09_mvl/mxv
 BYTE   W12
//  #14 //038   ----------------------------------------
 BYTE   TIE  As3  v044
 BYTE   W06
 BYTE   VOL   68*song09_mvl/mxv
 BYTE   W06
 BYTE   VOL   68*song09_mvl/mxv
 BYTE   W12
 BYTE   VOL   66*song09_mvl/mxv
 BYTE   W12
 BYTE   VOL   66*song09_mvl/mxv
 BYTE   W06
 BYTE   VOL   64*song09_mvl/mxv
 BYTE   W12
 BYTE   VOL   63*song09_mvl/mxv
 BYTE   W06
 BYTE   VOL   62*song09_mvl/mxv
 BYTE   W06
 BYTE   VOL   61*song09_mvl/mxv
 BYTE   W06
 BYTE   VOL   61*song09_mvl/mxv
 BYTE   W06
 BYTE   VOL   59*song09_mvl/mxv
 BYTE   W06
 BYTE   VOL   59*song09_mvl/mxv
 BYTE   W06
 BYTE   VOL   57*song09_mvl/mxv
 BYTE   W06
//  #14 //039   ----------------------------------------
 BYTE   VOL   56*song09_mvl/mxv
 BYTE   W06
 BYTE   VOL   55*song09_mvl/mxv
 BYTE   W06
 BYTE   VOL   54*song09_mvl/mxv
 BYTE   W06
 BYTE   VOL   51*song09_mvl/mxv
 BYTE   W06
 BYTE   VOL   51*song09_mvl/mxv
 BYTE   W06
 BYTE   VOL   48*song09_mvl/mxv
 BYTE   W06
 BYTE   VOL   47*song09_mvl/mxv
 BYTE   W06
 BYTE   VOL   44*song09_mvl/mxv
 BYTE   W06
 BYTE   VOL   42*song09_mvl/mxv
 BYTE   W06
 BYTE   VOL   38*song09_mvl/mxv
 BYTE   W06
 BYTE   VOL   37*song09_mvl/mxv
 BYTE   W06
 BYTE   VOL   31*song09_mvl/mxv
 BYTE   W06
 BYTE   VOL   29*song09_mvl/mxv
 BYTE   W06
 BYTE   VOL   24*song09_mvl/mxv
 BYTE   W06
 BYTE   VOL   19*song09_mvl/mxv
 BYTE   W06
 BYTE   VOL   14*song09_mvl/mxv
 BYTE   W05
 BYTE   EOT
 BYTE   W01
//  #14 //040   ----------------------------------------
 BYTE   VOL   11*song09_mvl/mxv
 BYTE   W96
//  #14 //041   ----------------------------------------
 BYTE   W96
//  #14 //042   ----------------------------------------
 BYTE   W96
//  #14 //043   ----------------------------------------
 BYTE   W96
//  #14 //044   ----------------------------------------
 BYTE   W72
 BYTE   VOICE   39
 BYTE   VOL   4*song09_mvl/mxv
 BYTE   PAN   c_v-11
 BYTE   VOL   17*song09_mvl/mxv
 BYTE   W06
 BYTE   VOL   17*song09_mvl/mxv
 BYTE   N18  As1  v088
 BYTE   W06
 BYTE   VOL   17*song09_mvl/mxv
 BYTE   W06
 BYTE   VOL   18*song09_mvl/mxv
 BYTE   W06
//  #14 //045   ----------------------------------------
 BYTE   VOL   18*song09_mvl/mxv
 BYTE   W06
 BYTE   VOL   19*song09_mvl/mxv
 BYTE   N19  As1  v092
 BYTE   W06
 BYTE   VOL   19*song09_mvl/mxv
 BYTE   W06
 BYTE   VOL   20*song09_mvl/mxv
 BYTE   W06
 BYTE   VOL   20*song09_mvl/mxv
 BYTE   W06
 BYTE   VOL   21*song09_mvl/mxv
 BYTE   N03  As1  v096
 BYTE   W06
 BYTE   VOL   22*song09_mvl/mxv
 BYTE   W02
 BYTE   N03  As1  v068
 BYTE   W04
 BYTE   VOL   22*song09_mvl/mxv
 BYTE   W04
 BYTE   N03
 BYTE   W02
 BYTE   VOL   22*song09_mvl/mxv
 BYTE   W06
 BYTE   VOL   23*song09_mvl/mxv
 BYTE   N05  As1  v084
 BYTE   W06
 BYTE   VOL   23*song09_mvl/mxv
 BYTE   W06
 BYTE   VOL   24*song09_mvl/mxv
 BYTE   N06  As1  v088
 BYTE   W06
 BYTE   VOL   25*song09_mvl/mxv
 BYTE   W06
 BYTE   VOL   26*song09_mvl/mxv
 BYTE   N19  As1  v100
 BYTE   W06
 BYTE   VOL   27*song09_mvl/mxv
 BYTE   W06
 BYTE   VOL   27*song09_mvl/mxv
 BYTE   W06
//  #14 //046   ----------------------------------------
 BYTE   VOL   27*song09_mvl/mxv
 BYTE   W06
 BYTE   VOL   28*song09_mvl/mxv
 BYTE   N20  As1  v088
 BYTE   W06
 BYTE   VOL   28*song09_mvl/mxv
 BYTE   W06
 BYTE   VOL   29*song09_mvl/mxv
 BYTE   W06
 BYTE   VOL   29*song09_mvl/mxv
 BYTE   W06
 BYTE   VOL   30*song09_mvl/mxv
 BYTE   W01
 BYTE   N03
 BYTE   W05
 BYTE   VOL   30*song09_mvl/mxv
 BYTE   W03
 BYTE   N03  As1  v068
 BYTE   W03
 BYTE   VOL   31*song09_mvl/mxv
 BYTE   W04
 BYTE   N03  As1  v064
 BYTE   W02
 BYTE   VOL   33*song09_mvl/mxv
 BYTE   W06
 BYTE   N08  As1  v108
 BYTE   W42
//  #14 //047   ----------------------------------------
 BYTE   W96
//  #14 //048   ----------------------------------------
 BYTE   W72
 BYTE   GoTo
  POIN2 Label_011F2771
//  #14 //049   ----------------------------------------
 BYTE   W24
 BYTE   W44
 BYTE   FINE

//**************** Track 15 (Midi-Chn.14) ****************//

song09_015:
//  #15 //000   ----------------------------------------
 BYTE   KEYSH   song09_key+0
 BYTE   VOICE   39
 BYTE   MODT 0
 BYTE   LFOS 44
 BYTE   MOD 0
 BYTE   VOL   80*song09_mvl/mxv
 BYTE   PAN   c_v+11
 BYTE   VOL   80*song09_mvl/mxv
 BYTE   N20  As1  v108
 BYTE   W24
 BYTE   N19  As1  v088
 BYTE   W24
 BYTE   N20  As1  v092
 BYTE   W24
 BYTE   N04  As1  v096
 BYTE   W08
 BYTE   N03  As1  v068
 BYTE   W08
 BYTE   N04
 BYTE   W08
//  #15 //001   ----------------------------------------
 BYTE   N05  As1  v084
 BYTE   W12
 BYTE   N06  As1  v088
 BYTE   W12
 BYTE   N19  As1  v100
 BYTE   W24
 BYTE   N20  As1  v088
 BYTE   W24
 BYTE   N04
 BYTE   W08
 BYTE   N03  As1  v068
 BYTE   W08
 BYTE   N04  As1  v064
 BYTE   W08
//  #15 //002   ----------------------------------------
 BYTE   VOICE   39
 BYTE   VOL   37*song09_mvl/mxv
 BYTE   N23  As3  v108
 BYTE   W06
 BYTE   VOL   51*song09_mvl/mxv
 BYTE   W06
 BYTE   VOL   57*song09_mvl/mxv
 BYTE   W06
 BYTE   VOL   74*song09_mvl/mxv
 BYTE   W06
 BYTE   VOL   80*song09_mvl/mxv
 BYTE   N18  As1
 BYTE   W06
Label_011F4583:
 BYTE   VOL   80*song09_mvl/mxv
 BYTE   W18
 BYTE   N19  As1  v080
 BYTE   W24
 BYTE   N04  As1  v092
 BYTE   W09
 BYTE   N03  As1  v068
 BYTE   W07
 BYTE   N04  As1  v056
 BYTE   W08
//  #15 //003   ----------------------------------------
Label_011F4596:
 BYTE   N04  As1  v072
 BYTE   W12
 BYTE   N04
 BYTE   W12
 BYTE   N18  As1  v092
 BYTE   W24
 BYTE   As1  v084
 BYTE   W24
 BYTE   N04  As1  v088
 BYTE   W08
 BYTE   N03  As1  v068
 BYTE   W08
 BYTE   As1  v060
 BYTE   W08
 BYTE   PEND 
//  #15 //004   ----------------------------------------
Label_011F45AF:
 BYTE   N18  As1  v072
 BYTE   W24
 BYTE   W01
 BYTE   N17  As1  v080
 BYTE   W24
 BYTE   N20
 BYTE   W24
 BYTE   N04  As1  v072
 BYTE   W08
 BYTE   N03  Fn1  v068
 BYTE   W08
 BYTE   N05  Fn1  v060
 BYTE   W07
 BYTE   PEND 
//  #15 //005   ----------------------------------------
 BYTE   W01
 BYTE   As1  v072
 BYTE   W12
 BYTE   As1  v068
 BYTE   W12
 BYTE   N19  As1  v080
 BYTE   W24
 BYTE   As1  v100
 BYTE   W24
 BYTE   N23  Gs3
 BYTE   W23
//  #15 //006   ----------------------------------------
 BYTE   N19  Cs2  v084
 BYTE   W24
 BYTE   N18  Cs2  v072
 BYTE   W24
 BYTE   N19  Cs2  v080
 BYTE   W24
 BYTE   N04  Cs2  v092
 BYTE   W09
 BYTE   N03  Cs2  v068
 BYTE   W07
 BYTE   N04  Cs2  v056
 BYTE   W08
//  #15 //007   ----------------------------------------
 BYTE   Cs2  v072
 BYTE   W12
 BYTE   N04
 BYTE   W12
 BYTE   N18  Cs2  v092
 BYTE   W24
 BYTE   Cs2  v084
 BYTE   W24
 BYTE   N04  Cs2  v088
 BYTE   W08
 BYTE   N03  Cs2  v068
 BYTE   W08
 BYTE   Cs2  v060
 BYTE   W08
//  #15 //008   ----------------------------------------
 BYTE   N18  Cs2  v072
 BYTE   W24
 BYTE   W01
 BYTE   N17  Cs2  v080
 BYTE   W24
 BYTE   N20
 BYTE   W24
 BYTE   N04  Cs2  v072
 BYTE   W08
 BYTE   N03  Gs1  v068
 BYTE   W08
 BYTE   N05  Gs1  v060
 BYTE   W07
//  #15 //009   ----------------------------------------
 BYTE   W01
 BYTE   Cs2  v072
 BYTE   W12
 BYTE   Cs2  v068
 BYTE   W12
 BYTE   N19  Cs2  v080
 BYTE   W24
 BYTE   Cs2  v100
 BYTE   W24
 BYTE   N23  Cs4
 BYTE   W23
//  #15 //010   ----------------------------------------
 BYTE   N19  Cs2  v084
 BYTE   W96
//  #15 //011   ----------------------------------------
 BYTE   W96
//  #15 //012   ----------------------------------------
 BYTE   W96
//  #15 //013   ----------------------------------------
 BYTE   W96
//  #15 //014   ----------------------------------------
 BYTE   W96
//  #15 //015   ----------------------------------------
 BYTE   W96
//  #15 //016   ----------------------------------------
 BYTE   W96
//  #15 //017   ----------------------------------------
 BYTE   W96
//  #15 //018   ----------------------------------------
 BYTE   W96
//  #15 //019   ----------------------------------------
 BYTE   W48
 BYTE   VOL   45*song09_mvl/mxv
 BYTE   N48  Gs3  v127
 BYTE   W06
 BYTE   VOL   37*song09_mvl/mxv
 BYTE   W06
 BYTE   VOL   39*song09_mvl/mxv
 BYTE   W06
 BYTE   VOL   44*song09_mvl/mxv
 BYTE   W06
 BYTE   VOL   47*song09_mvl/mxv
 BYTE   W06
 BYTE   VOL   54*song09_mvl/mxv
 BYTE   W06
 BYTE   VOL   59*song09_mvl/mxv
 BYTE   W06
 BYTE   VOL   73*song09_mvl/mxv
 BYTE   W06
//  #15 //020   ----------------------------------------
 BYTE   VOL   80*song09_mvl/mxv
 BYTE   W24
 BYTE   N18  As1  v108
 BYTE   W24
 BYTE   N19  As1  v080
 BYTE   W24
 BYTE   N04  As1  v092
 BYTE   W09
 BYTE   N03  As1  v068
 BYTE   W07
 BYTE   N04  As1  v056
 BYTE   W08
//  #15 //021   ----------------------------------------
 BYTE   PATT
  POIN2 Label_011F4596
//  #15 //022   ----------------------------------------
 BYTE   PATT
  POIN2 Label_011F45AF
//  #15 //023   ----------------------------------------
 BYTE   W01
 BYTE   N05  As1  v072
 BYTE   W12
 BYTE   As1  v068
 BYTE   W12
 BYTE   N19  As1  v084
 BYTE   W24
 BYTE   As1  v100
 BYTE   W23
 BYTE   VOL   59*song09_mvl/mxv
 BYTE   W01
 BYTE   N22  Fn3  v127
 BYTE   W05
 BYTE   VOL   66*song09_mvl/mxv
 BYTE   W06
 BYTE   VOL   73*song09_mvl/mxv
 BYTE   W06
 BYTE   VOL   78*song09_mvl/mxv
 BYTE   W06
//  #15 //024   ----------------------------------------
 BYTE   VOL   80*song09_mvl/mxv
 BYTE   TIE  Gs3  v088
 BYTE   W12
 BYTE   VOL   78*song09_mvl/mxv
 BYTE   W06
 BYTE   VOL   78*song09_mvl/mxv
 BYTE   W06
 BYTE   VOL   75*song09_mvl/mxv
 BYTE   W06
 BYTE   VOL   73*song09_mvl/mxv
 BYTE   W06
 BYTE   VOL   64*song09_mvl/mxv
 BYTE   W06
 BYTE   VOL   56*song09_mvl/mxv
 BYTE   W06
 BYTE   VOL   53*song09_mvl/mxv
 BYTE   W06
 BYTE   VOL   51*song09_mvl/mxv
 BYTE   W06
 BYTE   VOL   51*song09_mvl/mxv
 BYTE   W06
 BYTE   VOL   50*song09_mvl/mxv
 BYTE   W06
 BYTE   VOL   49*song09_mvl/mxv
 BYTE   W12
 BYTE   VOL   48*song09_mvl/mxv
 BYTE   W06
 BYTE   VOL   47*song09_mvl/mxv
 BYTE   W06
//  #15 //025   ----------------------------------------
 BYTE   VOL   46*song09_mvl/mxv
 BYTE   W06
 BYTE   VOL   45*song09_mvl/mxv
 BYTE   W06
 BYTE   VOL   45*song09_mvl/mxv
 BYTE   W06
 BYTE   VOL   43*song09_mvl/mxv
 BYTE   W06
 BYTE   VOL   42*song09_mvl/mxv
 BYTE   W06
 BYTE   VOL   40*song09_mvl/mxv
 BYTE   W06
 BYTE   VOL   39*song09_mvl/mxv
 BYTE   W06
 BYTE   VOL   36*song09_mvl/mxv
 BYTE   W06
 BYTE   VOL   35*song09_mvl/mxv
 BYTE   W06
 BYTE   VOL   31*song09_mvl/mxv
 BYTE   W06
 BYTE   VOL   29*song09_mvl/mxv
 BYTE   W06
 BYTE   VOL   23*song09_mvl/mxv
 BYTE   W06
 BYTE   VOL   22*song09_mvl/mxv
 BYTE   W06
 BYTE   VOL   13*song09_mvl/mxv
 BYTE   W06
 BYTE   VOL   10*song09_mvl/mxv
 BYTE   W08
 BYTE   EOT
 BYTE   W04
//  #15 //026   ----------------------------------------
 BYTE   W96
//  #15 //027   ----------------------------------------
 BYTE   W96
//  #15 //028   ----------------------------------------
 BYTE   W96
//  #15 //029   ----------------------------------------
 BYTE   W96
//  #15 //030   ----------------------------------------
 BYTE   W96
//  #15 //031   ----------------------------------------
 BYTE   W96
//  #15 //032   ----------------------------------------
 BYTE   W96
//  #15 //033   ----------------------------------------
 BYTE   W96
//  #15 //034   ----------------------------------------
 BYTE   W96
//  #15 //035   ----------------------------------------
 BYTE   W96
//  #15 //036   ----------------------------------------
 BYTE   W96
//  #15 //037   ----------------------------------------
 BYTE   W96
//  #15 //038   ----------------------------------------
 BYTE   W96
//  #15 //039   ----------------------------------------
 BYTE   W96
//  #15 //040   ----------------------------------------
 BYTE   W96
//  #15 //041   ----------------------------------------
 BYTE   W96
//  #15 //042   ----------------------------------------
 BYTE   W96
//  #15 //043   ----------------------------------------
 BYTE   W96
//  #15 //044   ----------------------------------------
 BYTE   W48
 BYTE   VOICE   39
 BYTE   VOL   37*song09_mvl/mxv
 BYTE   W06
 BYTE   VOL   37*song09_mvl/mxv
 BYTE   W06
 BYTE   VOL   38*song09_mvl/mxv
 BYTE   W06
 BYTE   VOL   40*song09_mvl/mxv
 BYTE   W06
 BYTE   VOL   40*song09_mvl/mxv
 BYTE   N18  As1
 BYTE   W06
 BYTE   VOL   42*song09_mvl/mxv
 BYTE   W06
 BYTE   VOL   43*song09_mvl/mxv
 BYTE   W06
 BYTE   VOL   45*song09_mvl/mxv
 BYTE   W06
//  #15 //045   ----------------------------------------
 BYTE   VOL   45*song09_mvl/mxv
 BYTE   N19  As1  v092
 BYTE   W06
 BYTE   VOL   47*song09_mvl/mxv
 BYTE   W06
 BYTE   VOL   48*song09_mvl/mxv
 BYTE   W06
 BYTE   VOL   50*song09_mvl/mxv
 BYTE   W06
 BYTE   VOL   51*song09_mvl/mxv
 BYTE   N03  As1  v096
 BYTE   W06
 BYTE   VOL   52*song09_mvl/mxv
 BYTE   W02
 BYTE   N03  As1  v068
 BYTE   W04
 BYTE   VOL   53*song09_mvl/mxv
 BYTE   W04
 BYTE   N03
 BYTE   W02
 BYTE   VOL   55*song09_mvl/mxv
 BYTE   W06
 BYTE   VOL   56*song09_mvl/mxv
 BYTE   N05  As1  v084
 BYTE   W06
 BYTE   VOL   57*song09_mvl/mxv
 BYTE   W06
 BYTE   VOL   59*song09_mvl/mxv
 BYTE   N06  As1  v088
 BYTE   W06
 BYTE   VOL   61*song09_mvl/mxv
 BYTE   W06
 BYTE   VOL   61*song09_mvl/mxv
 BYTE   N19  As1  v100
 BYTE   W06
 BYTE   VOL   63*song09_mvl/mxv
 BYTE   W06
 BYTE   VOL   64*song09_mvl/mxv
 BYTE   W06
 BYTE   VOL   66*song09_mvl/mxv
 BYTE   W06
//  #15 //046   ----------------------------------------
 BYTE   VOL   68*song09_mvl/mxv
 BYTE   N20  As1  v088
 BYTE   W06
 BYTE   VOL   69*song09_mvl/mxv
 BYTE   W06
 BYTE   VOL   70*song09_mvl/mxv
 BYTE   W06
 BYTE   VOL   71*song09_mvl/mxv
 BYTE   W06
 BYTE   VOL   73*song09_mvl/mxv
 BYTE   W01
 BYTE   N03
 BYTE   W05
 BYTE   VOL   74*song09_mvl/mxv
 BYTE   W03
 BYTE   N03  As1  v068
 BYTE   W03
 BYTE   VOL   75*song09_mvl/mxv
 BYTE   W04
 BYTE   N03  As1  v064
 BYTE   W02
 BYTE   VOL   78*song09_mvl/mxv
 BYTE   W06
 BYTE   VOL   80*song09_mvl/mxv
 BYTE   N19  As1  v108
 BYTE   W24
 BYTE   N18  As1  v088
 BYTE   W24
//  #15 //047   ----------------------------------------
 BYTE   N19  As1  v092
 BYTE   W24
 BYTE   N03  As1  v096
 BYTE   W08
 BYTE   As1  v068
 BYTE   W08
 BYTE   N03
 BYTE   W08
 BYTE   N05  As1  v084
 BYTE   W12
 BYTE   N06  As1  v088
 BYTE   W12
 BYTE   N19  As1  v100
 BYTE   W24
//  #15 //048   ----------------------------------------
 BYTE   N20  As1  v088
 BYTE   W24
 BYTE   W01
 BYTE   N03
 BYTE   W08
 BYTE   As1  v068
 BYTE   W07
 BYTE   As1  v064
 BYTE   W08
 BYTE   VOICE   39
 BYTE   VOL   37*song09_mvl/mxv
 BYTE   N23  As3  v108
 BYTE   W06
 BYTE   VOL   51*song09_mvl/mxv
 BYTE   W06
 BYTE   VOL   57*song09_mvl/mxv
 BYTE   W06
 BYTE   VOL   74*song09_mvl/mxv
 BYTE   W06
 BYTE   GoTo
  POIN2 Label_011F4583
//  #15 //049   ----------------------------------------
 BYTE   VOL   80*song09_mvl/mxv
 BYTE   N18  As1  v108
 BYTE   W24
 BYTE   N19  As1  v080
 BYTE   W24
 BYTE   N04  As1  v092
 BYTE   W09
 BYTE   N03  As1  v068
 BYTE   W07
 BYTE   N04  As1  v056
 BYTE   W04
 BYTE   FINE

//******************************************************//
	ALIGN 4

song09:
	BYTE	15	// NumTrks
	BYTE	0	// NumBlks
	BYTE	song09_pri	// Priority
	BYTE	song09_rev	// Reverb.
    
	POIN2	song09_grp
    
	POIN2	song09_001
	POIN2	song09_002
	POIN2	song09_003
	POIN2	song09_004
	POIN2	song09_005
	POIN2	song09_006
	POIN2	song09_007
	POIN2	song09_008
	POIN2	song09_009
	POIN2	song09_010
	POIN2	song09_011
	POIN2	song09_012
	POIN2	song09_013
	POIN2	song09_014
	POIN2	song09_015

	
